<?xml version="1.0" encoding="UTF-8" standalone="no"?>
<svg
   width="74mm"
   height="105mm"
   viewBox="0 0 262.20472 372.04724"
   id="svg2"
   version="1.1"
   inkscape:version="1.3.1 (91b66b0783, 2023-11-16)"
   sodipodi:docname="celebrity-interview-front.svg"
   enable-background="new"
   xmlns:inkscape="http://www.inkscape.org/namespaces/inkscape"
   xmlns:sodipodi="http://sodipodi.sourceforge.net/DTD/sodipodi-0.dtd"
   xmlns:xlink="http://www.w3.org/1999/xlink"
   xmlns="http://www.w3.org/2000/svg"
   xmlns:svg="http://www.w3.org/2000/svg"
   xmlns:rdf="http://www.w3.org/1999/02/22-rdf-syntax-ns#"
   xmlns:cc="http://creativecommons.org/ns#"
   xmlns:dc="http://purl.org/dc/elements/1.1/">
  <defs
     id="defs4" />
  <sodipodi:namedview
     id="base"
     pagecolor="#ffffff"
     bordercolor="#666666"
     borderopacity="1.0"
     inkscape:pageopacity="1"
     inkscape:pageshadow="2"
     inkscape:zoom="2.0000001"
     inkscape:cx="64.249997"
     inkscape:cy="190.24999"
     inkscape:document-units="mm"
     inkscape:current-layer="layer4"
     showgrid="false"
     showguides="false"
     inkscape:guide-bbox="true"
     inkscape:snap-bbox="false"
     inkscape:bbox-nodes="true"
     inkscape:object-nodes="true"
     inkscape:snap-page="true"
     inkscape:snap-grids="false"
     inkscape:window-width="1920"
     inkscape:window-height="1017"
     inkscape:window-x="-8"
     inkscape:window-y="-8"
     inkscape:window-maximized="1"
     inkscape:snap-others="false"
     inkscape:snap-nodes="true"
     inkscape:showpageshadow="2"
     inkscape:pagecheckerboard="0"
     inkscape:deskcolor="#d1d1d1">
    <sodipodi:guide
       position="19.48819,143.57143"
       orientation="1,0"
       id="guide3342"
       inkscape:label=""
       inkscape:color="rgb(0,0,255)"
       inkscape:locked="false" />
    <sodipodi:guide
       position="242.71654,160.71429"
       orientation="1,0"
       id="guide3344"
       inkscape:label=""
       inkscape:color="rgb(0,0,255)"
       inkscape:locked="false" />
    <sodipodi:guide
       position="100.71429,10.629921"
       orientation="0,1"
       id="guide3346"
       inkscape:label=""
       inkscape:color="rgb(0,0,255)"
       inkscape:locked="false" />
    <sodipodi:guide
       position="75.714288,361.41732"
       orientation="0,1"
       id="guide3348"
       inkscape:label=""
       inkscape:color="rgb(0,0,255)"
       inkscape:locked="false" />
    <sodipodi:guide
       position="242.71654,289.15617"
       orientation="1,0"
       id="guide4173"
       inkscape:locked="false" />
    <sodipodi:guide
       position="-54.642858,21.259842"
       orientation="0,1"
       id="guide4176"
       inkscape:label=""
       inkscape:color="rgb(0,0,255)"
       inkscape:locked="false" />
    <sodipodi:guide
       position="0,350.7874"
       orientation="0,1"
       id="guide4178"
       inkscape:label=""
       inkscape:color="rgb(0,0,255)"
       inkscape:locked="false" />
    <sodipodi:guide
       position="30.118111,388.21428"
       orientation="1,0"
       id="guide4180"
       inkscape:label=""
       inkscape:color="rgb(0,0,255)"
       inkscape:locked="false" />
    <sodipodi:guide
       position="232.08662,385.71428"
       orientation="1,0"
       id="guide4182"
       inkscape:label=""
       inkscape:color="rgb(0,0,255)"
       inkscape:locked="false" />
    <sodipodi:guide
       position="40.748033,260.35714"
       orientation="1,0"
       id="guide4252"
       inkscape:label=""
       inkscape:color="rgb(0,0,255)"
       inkscape:locked="false" />
    <sodipodi:guide
       position="221.4567,323.92857"
       orientation="1,0"
       id="guide4254"
       inkscape:label=""
       inkscape:color="rgb(0,0,255)"
       inkscape:locked="false" />
    <sodipodi:guide
       position="-107.14286,340.15748"
       orientation="0,1"
       id="guide4256"
       inkscape:label=""
       inkscape:color="rgb(0,0,255)"
       inkscape:locked="false" />
    <sodipodi:guide
       position="-111.42857,31.889764"
       orientation="0,1"
       id="guide4258"
       inkscape:label=""
       inkscape:color="rgb(0,0,255)"
       inkscape:locked="false" />
    <sodipodi:guide
       position="-60.356616,230.31496"
       orientation="0,1"
       id="guide4262"
       inkscape:label=""
       inkscape:color="rgb(0,0,255)"
       inkscape:locked="false" />
    <sodipodi:guide
       position="-56.063468,258.66142"
       orientation="0,1"
       id="guide4269"
       inkscape:label=""
       inkscape:color="rgb(0,0,255)"
       inkscape:locked="false" />
    <sodipodi:guide
       position="93.897641,308.6016"
       orientation="1,0"
       id="guide4271"
       inkscape:label=""
       inkscape:color="rgb(0,0,255)"
       inkscape:locked="false" />
    <sodipodi:guide
       position="109.84252,340.15748"
       orientation="1,0"
       id="guide4273"
       inkscape:label=""
       inkscape:color="rgb(0,0,255)"
       inkscape:locked="false" />
    <sodipodi:guide
       position="-60.500002,219.68504"
       orientation="0,1"
       id="guide4303"
       inkscape:label=""
       inkscape:color="rgb(0,0,255)"
       inkscape:locked="false" />
  </sodipodi:namedview>
  <metadata
     id="metadata7">
    <rdf:RDF>
      <cc:Work
         rdf:about="">
        <dc:format>image/svg+xml</dc:format>
        <dc:type
           rdf:resource="http://purl.org/dc/dcmitype/StillImage" />
        <dc:title />
      </cc:Work>
    </rdf:RDF>
  </metadata>
  <g
     inkscape:label="Cut line"
     inkscape:groupmode="layer"
     id="layer1"
     transform="translate(0,-680.31496)"
     style="display:inline"
     sodipodi:insensitive="true">
    <path
       style="fill:none;fill-rule:evenodd;stroke:#808080;stroke-width:0.70866144;stroke-linecap:butt;stroke-linejoin:miter;stroke-miterlimit:4;stroke-dasharray:2.83464575, 2.83464575;stroke-dashoffset:0;stroke-opacity:1"
       d="m 19.488189,690.94488 0,350.78742 223.228341,0 0,-350.78742 z"
       id="path3350"
       inkscape:connector-curvature="0"
       transform="translate(4.3385302e-7,8.6660179e-6)" />
  </g>
  <g
     inkscape:groupmode="layer"
     id="layer6"
     inkscape:label="Logo"
     style="display:inline"
     sodipodi:insensitive="true">
    <path
       style="fill:none;fill-rule:evenodd;stroke:none;stroke-width:1px;stroke-linecap:butt;stroke-linejoin:miter;stroke-opacity:1"
       d="m 40.748032,31.889763 0,81.496057 53.149606,0 0,-81.496057 -53.149606,0"
       id="path4275"
       inkscape:connector-curvature="0" />
    <g
       transform="matrix(1.2131069,0,0,1.2131069,-261.73183,-123.26937)"
       inkscape:label="celebrityinterview"
       id="layer30">
      <g
         id="g4809">
        <path
           style="fill:#000000;fill-opacity:1;stroke:none;stroke-width:0.26458332px;stroke-linecap:butt;stroke-linejoin:miter;stroke-opacity:1"
           d="m 261.59673,145.64312 c 0,0 2.43002,-1.25458 5.75298,-1.96443 3.65718,-0.78124 6.361,-0.60804 6.361,-0.60804 0,0 0.77965,4.53801 0.98222,6.82874 0.20474,2.31529 0.23386,6.96905 0.23386,6.96905 l 3.97563,2.94665 c 0,0 0.50012,7.41725 0.51451,11.13177 0.005,1.21697 -0.14031,3.64823 -0.14031,3.64823 l -0.70159,-0.3274 c 0,0 -0.41625,-1.64075 -0.51449,-2.47893 -0.37946,-3.23764 -0.49111,-9.77538 -0.49111,-9.77538 l -2.08138,0.14032 0.0468,3.88209 -0.42095,1.7197 -0.67937,-1.08046 -0.069,-4.38102 -6.82874,1.3564 c 0,0 -0.39058,7.91429 -0.93543,11.83335 -0.0985,0.70866 -0.42095,2.10475 -0.42095,2.10475 l -0.56126,-0.18709 c 0,0 -0.36695,-3.83127 -0.3742,-5.75297 -0.0102,-2.71724 0.46773,-8.13836 0.46773,-8.13836 l -1.73057,-3.695 c 0,0 -0.19135,3.78173 -0.42095,5.65943 -0.15741,1.28735 -0.65481,3.83532 -0.65481,3.83532 l -0.60804,0 c 0,0 -0.15147,-2.96154 -0.14031,-4.44336 0.0176,-2.34109 0.28989,-4.67497 0.3274,-7.01582 0.0342,-2.13588 0.0675,-4.27771 -0.0935,-6.40779 -0.14704,-1.94579 -0.79521,-5.79975 -0.79521,-5.79975 z"
           id="path4803"
           inkscape:connector-curvature="0"
           sodipodi:nodetypes="cscsccsccscccccccsccsccsccssscc" />
        <path
           style="fill:#000000;fill-opacity:1;stroke:none;stroke-width:0.26458332px;stroke-linecap:butt;stroke-linejoin:miter;stroke-opacity:1"
           d="m 262.87328,163.52448 -0.90237,9.7e-4 c -3.15656,0.4577 -5.36168,0.90541 -8.16175,2.25309 -2.01897,0.97173 -4.3857,2.72816 -4.4639,4.94817 -0.0815,2.31401 2.17877,4.55363 4.27847,5.47234 3.24505,1.41984 6.29233,2.22267 9.5609,2.82002 3.78415,0.69158 7.66604,1.04872 11.5083,0.86128 3.9989,-0.19508 8.08329,-0.65572 11.83335,-2.05798 1.6379,-0.61246 3.32144,-1.41202 4.49014,-2.71278 1.12112,-1.2478 2.26627,-2.57324 2.12813,-4.56029 -0.15789,-2.27098 -3.22955,-3.50054 -5.30865,-4.18611 -3.16047,-1.04215 -6.20096,-1.37807 -9.35443,-1.68379 -2.553,-0.24751 -5.13599,-0.30544 -7.69402,-0.11694 -2.8365,0.20902 -5.93662,1.01906 -9.23749,2.50232 -1.64925,0.7411 -3.9024,1.80158 -3.81194,3.5313 0.10121,1.93528 2.84865,2.91334 4.65383,3.48452 3.45847,1.0943 6.6961,1.65351 10.14957,1.70718 3.75212,0.0583 7.78698,0.018 11.06161,-1.77734 1.24429,-0.6822 3.03349,-1.77618 2.82971,-3.18051 -0.22925,-1.57988 -2.46172,-2.13596 -4.06916,-2.52569 -2.76893,-0.67133 -5.79473,-0.67865 -8.69962,-0.58465 -1.55527,0.0503 -3.71325,0.49963 -5.03438,0.93828 -0.89675,0.29774 -2.08675,0.81356 -2.14585,1.73057 -0.0475,0.73717 0.76295,1.36419 1.53215,1.60111 1.23789,0.38128 3.65612,0.46987 5.58426,0.3685 1.72925,-0.0909 3.51403,-0.45315 4.89035,-1.32147 l -0.0662,-0.47955 c -2.1774,0.51454 -3.11809,0.71633 -4.7129,0.82682 -1.79022,0.12403 -5.24349,-0.34136 -5.27513,-1.07487 -0.0442,-1.02419 3.62004,-1.51502 5.29167,-1.52136 2.25556,-0.009 4.35726,0.1443 6.49883,0.51263 1.47743,0.2541 3.77427,0.75832 3.81992,2.23242 0.0463,1.49425 -2.0383,1.98954 -3.72472,2.49818 -2.24304,0.67652 -4.64909,0.7961 -6.9909,0.72643 -2.98731,-0.0889 -6.05662,-0.38486 -8.84701,-1.4552 -1.69888,-0.65166 -4.53426,-1.125 -4.59713,-2.94349 -0.0626,-1.81133 2.67603,-2.58528 4.36562,-3.24115 3.33032,-1.29277 5.84618,-1.39762 8.83047,-1.52135 2.97119,-0.12319 5.94775,0.33476 8.88693,0.78171 2.8506,0.43347 5.19244,1.14478 7.40999,2.62646 1.66848,1.11481 1.97114,2.26414 0.67917,4.38735 -1.41497,2.32535 -3.53611,3.22096 -5.76437,3.91229 -3.34297,1.03717 -9.3874,1.51867 -14.08906,1.19062 -4.81024,-0.33563 -10.41223,-1.42875 -14.1056,-3.20807 -1.89984,-0.91527 -4.36673,-2.39555 -4.41523,-4.53099 -0.0435,-1.91475 1.44745,-2.98295 2.74504,-3.9026 2.39035,-1.69412 6.82156,-2.03323 8.4584,-2.38952 z"
           id="path4805"
           inkscape:connector-curvature="0"
           sodipodi:nodetypes="ccsasaaaassassassaasssassccssssasaaasassssassacc" />
      </g>
    </g>
  </g>
  <g
     inkscape:groupmode="layer"
     id="layer9"
     inkscape:label="Title"
     style="display:inline"
     sodipodi:insensitive="true">
    <path
       style="fill:none;fill-rule:evenodd;stroke:none;stroke-width:1px;stroke-linecap:butt;stroke-linejoin:miter;stroke-opacity:1"
       d="m 109.84252,113.38582 111.61417,0 0,-81.496057 -111.61417,0 z"
       id="path4349_cif"
       inkscape:connector-curvature="0" />
    <flowRoot
       xml:space="preserve"
       style="font-style:normal;font-weight:normal;line-height:0.01%;font-family:sans-serif;text-align:end;letter-spacing:0px;word-spacing:0px;text-anchor:end;fill:#000000;fill-opacity:1;stroke:none;stroke-width:1px;stroke-linecap:butt;stroke-linejoin:miter;stroke-opacity:1"
       id="flowRoot4357"
       transform="translate(0,0.18527117)"><flowRegion
         id="flowRegion4359"><use
           x="0"
           y="0"
           xlink:href="#path4349_cif"
           id="use4361"
           width="100%"
           height="100%" /></flowRegion><flowPara
         id="flowPara4363"
         style="font-style:normal;font-variant:normal;font-weight:bold;font-stretch:normal;font-size:13.75px;line-height:1.25;font-family:Roboto;-inkscape-font-specification:'Roboto Bold';text-align:end;text-anchor:end">Celebrity Interview</flowPara><flowPara
         id="flowPara4365"
         style="font-style:normal;font-variant:normal;font-weight:normal;font-stretch:normal;font-size:8.75px;line-height:125%;font-family:Lato;-inkscape-font-specification:Lato;text-align:end;letter-spacing:0px;text-anchor:end;fill:#1a1a1a">Reconnecter l'expérience des dirigeants et des experts avec les personnes les plus proches du défi à relever</flowPara></flowRoot>
  </g>
  <g
     inkscape:groupmode="layer"
     id="layer8"
     inkscape:label="Separator"
     style="display:inline"
     sodipodi:insensitive="true">
    <rect
       style="display:inline;fill:#37abc8;fill-opacity:1;stroke:none;stroke-width:1;stroke-miterlimit:4;stroke-dasharray:none;stroke-dashoffset:0;stroke-opacity:1"
       id="rect4178"
       width="134.64568"
       height="17.716536"
       x="30.118111"
       y="124.01575" />
    <text
       xml:space="preserve"
       style="font-style:normal;font-weight:normal;line-height:0%;font-family:sans-serif;letter-spacing:0px;word-spacing:0px;display:inline;fill:#000000;fill-opacity:1;stroke:none;stroke-width:1px;stroke-linecap:butt;stroke-linejoin:miter;stroke-opacity:1"
       x="39.935043"
       y="137.46776"
       id="text4180"><tspan
         sodipodi:role="line"
         id="tspan4182"
         x="39.935043"
         y="137.46776"
         style="font-style:normal;font-variant:normal;font-weight:bold;font-stretch:normal;font-size:12.5px;line-height:1.25;font-family:Lato;-inkscape-font-specification:'Lato Bold';fill:#ffffff">Partagé</tspan></text>
    <rect
       y="124.01575"
       x="164.76379"
       height="17.716536"
       width="67.322838"
       id="rect4191"
       style="display:inline;fill:#e6e6e6;fill-opacity:1;stroke:none;stroke-width:1;stroke-miterlimit:4;stroke-dasharray:none;stroke-dashoffset:0;stroke-opacity:1" />
    <text
       xml:space="preserve"
       style="font-style:normal;font-weight:normal;line-height:0%;font-family:sans-serif;letter-spacing:0px;word-spacing:0px;fill:#1a1a1a;fill-opacity:1;stroke:none;stroke-width:1px;stroke-linecap:butt;stroke-linejoin:miter;stroke-opacity:1"
       x="184.26759"
       y="137.39589"
       id="text4193"><tspan
         sodipodi:role="line"
         id="tspan4195"
         x="184.26759"
         y="137.39589"
         style="font-style:normal;font-variant:normal;font-weight:500;font-stretch:normal;font-size:12.5px;line-height:1.25;font-family:Lato;-inkscape-font-specification:'Lato Medium';fill:#1a1a1a">45 min</tspan></text>
  </g>
  <g
     inkscape:groupmode="layer"
     id="layer5"
     inkscape:label="Border"
     style="display:inline"
     sodipodi:insensitive="true">
    <rect
       style="fill:none;fill-opacity:1;stroke:#000000;stroke-width:0.35433072;stroke-miterlimit:4;stroke-dasharray:none;stroke-dashoffset:0;stroke-opacity:1"
       id="rect4187"
       width="201.96851"
       height="329.52756"
       x="30.118111"
       y="21.259844"
       ry="14.6735"
       rx="12.76433" />
  </g>
  <g
     inkscape:groupmode="layer"
     id="layer4"
     inkscape:label="Body"
     style="display:inline"
     sodipodi:insensitive="true">
    <path
       style="fill:none;fill-rule:evenodd;stroke:none;stroke-width:1.03065px;stroke-linecap:butt;stroke-linejoin:miter;stroke-opacity:1"
       d="M 33.716782,148.14345 V 340.15748 H 221.45669 V 148.14345 Z"
       id="path4305_cif"
       inkscape:connector-curvature="0"
       inkscape:label="path4305_cif" />
    <flowRoot
       xml:space="preserve"
       style="font-style:normal;font-weight:normal;line-height:0.85;font-family:sans-serif;letter-spacing:0px;word-spacing:0px;fill:#000000;fill-opacity:1;stroke:none;stroke-width:1px;stroke-linecap:butt;stroke-linejoin:miter;stroke-opacity:1"
       id="flowRoot4319"
       transform="matrix(1,0,0,1.0068578,-0.17251487,-4.5759283)"><flowRegion
         id="flowRegion4321"><use
           x="0"
           y="0"
           xlink:href="#path4305_cif"
           id="use4323"
           width="100%"
           height="100%"
           transform="matrix(1,0,0,0.99318888,0.17251487,4.5447611)" /></flowRegion><flowPara
         id="flowPara4325"
         style="font-style:normal;font-variant:normal;font-weight:bold;font-stretch:normal;font-size:8.72015px;font-family:Roboto;-inkscape-font-specification:'Roboto Bold';fill:#999999;fill-opacity:1">Invitation</flowPara><flowPara
         style="font-style:normal;font-variant:normal;font-weight:500;font-stretch:normal;font-size:8.72015px;font-family:Lato;-inkscape-font-specification:'Lato Medium';fill:#1a1a1a;fill-opacity:1"
         id="flowPara4400">- Inviter la célébrité à renoncer à sa présentation formelle ou à son discours et à répondre aux questions les plus difficiles dans le cadre d'un &quot;talk-show&quot; décontracté.</flowPara><flowPara
         style="font-style:normal;font-variant:normal;font-weight:500;font-stretch:normal;font-size:8.72015px;font-family:Lato;-inkscape-font-specification:'Lato Medium';fill:#1a1a1a;fill-opacity:1"
         id="flowPara4262">- Invitez les membres du groupe à écouter, à voir la personne qui se cache derrière la célébrité et à écrire des questions avec leurs collègues.</flowPara><flowPara
         style="font-style:normal;font-variant:normal;font-weight:500;font-stretch:normal;font-size:8.72015px;font-family:Lato;-inkscape-font-specification:'Lato Medium';fill:#1a1a1a;fill-opacity:1"
         id="flowPara4200"> </flowPara><flowPara
         style="font-style:normal;font-variant:normal;font-weight:bold;font-stretch:normal;font-size:8.72015px;font-family:Roboto;-inkscape-font-specification:'Roboto Bold';fill:#999999;fill-opacity:1"
         id="flowPara4212">Personnes</flowPara><flowPara
         style="font-style:normal;font-variant:normal;font-weight:500;font-stretch:normal;font-size:8.72015px;font-family:Lato;-inkscape-font-specification:'Lato Medium';fill:#1a1a1a;fill-opacity:1"
         id="flowPara4266">Groupe entier pour l'entretien, 1-2-4 pour générer des questions</flowPara><flowPara
         style="font-style:normal;font-variant:normal;font-weight:500;font-stretch:normal;font-size:8.72015px;font-family:Lato;-inkscape-font-specification:'Lato Medium';fill:#1a1a1a;fill-opacity:1"
         id="flowPara4214" /><flowPara
         style="font-style:normal;font-variant:normal;font-weight:bold;font-stretch:normal;font-size:8.72015px;font-family:Roboto;-inkscape-font-specification:'Roboto Bold';fill:#999999;fill-opacity:1"
         id="flowPara4202">Espace et matériel</flowPara><flowPara
         style="font-style:normal;font-variant:normal;font-weight:500;font-stretch:normal;font-size:8.72015px;font-family:Lato;-inkscape-font-specification:'Lato Medium';fill:#1a1a1a;fill-opacity:1"
         id="flowPara4210">- L'intervieweur et la célébrité se trouvent à l'avant de la salle, où tout le monde peut voir et entendre l'interaction.</flowPara><flowPara
         style="font-style:normal;font-variant:normal;font-weight:500;font-stretch:normal;font-size:8.72015px;font-family:Lato;-inkscape-font-specification:'Lato Medium';fill:#1a1a1a;fill-opacity:1"
         id="flowPara4270">- Grandes cartes pour collecter les questions </flowPara><flowPara
         style="font-style:normal;font-variant:normal;font-weight:500;font-stretch:normal;font-size:8.72015px;font-family:Lato;-inkscape-font-specification:'Lato Medium';fill:#1a1a1a;fill-opacity:1"
         id="flowPara4206" /></flowRoot>
  </g>
</svg>
