<?xml version="1.0" encoding="UTF-8" standalone="no"?>
<svg
   width="74mm"
   height="105mm"
   viewBox="0 0 262.20472 372.04724"
   id="svg2"
   version="1.1"
   inkscape:version="1.3.1 (91b66b0783, 2023-11-16)"
   sodipodi:docname="celebrity-interview-back.svg"
   enable-background="new"
   xmlns:inkscape="http://www.inkscape.org/namespaces/inkscape"
   xmlns:sodipodi="http://sodipodi.sourceforge.net/DTD/sodipodi-0.dtd"
   xmlns:xlink="http://www.w3.org/1999/xlink"
   xmlns="http://www.w3.org/2000/svg"
   xmlns:svg="http://www.w3.org/2000/svg"
   xmlns:rdf="http://www.w3.org/1999/02/22-rdf-syntax-ns#"
   xmlns:cc="http://creativecommons.org/ns#"
   xmlns:dc="http://purl.org/dc/elements/1.1/">
  <defs
     id="defs4" />
  <sodipodi:namedview
     id="base"
     pagecolor="#ffffff"
     bordercolor="#666666"
     borderopacity="1.0"
     inkscape:pageopacity="1"
     inkscape:pageshadow="2"
     inkscape:zoom="2"
     inkscape:cx="88.25"
     inkscape:cy="191.25"
     inkscape:document-units="mm"
     inkscape:current-layer="layer10"
     showgrid="false"
     showguides="false"
     inkscape:guide-bbox="true"
     inkscape:snap-bbox="false"
     inkscape:bbox-nodes="true"
     inkscape:object-nodes="true"
     inkscape:snap-page="true"
     inkscape:snap-grids="false"
     inkscape:window-width="1920"
     inkscape:window-height="1017"
     inkscape:window-x="-8"
     inkscape:window-y="-8"
     inkscape:window-maximized="1"
     inkscape:snap-others="false"
     inkscape:snap-nodes="true"
     inkscape:showpageshadow="2"
     inkscape:pagecheckerboard="0"
     inkscape:deskcolor="#d1d1d1">
    <sodipodi:guide
       position="19.48819,143.57143"
       orientation="1,0"
       id="guide3342"
       inkscape:label=""
       inkscape:color="rgb(0,0,255)"
       inkscape:locked="false" />
    <sodipodi:guide
       position="242.71654,160.71429"
       orientation="1,0"
       id="guide3344"
       inkscape:label=""
       inkscape:color="rgb(0,0,255)"
       inkscape:locked="false" />
    <sodipodi:guide
       position="100.71429,10.629921"
       orientation="0,1"
       id="guide3346"
       inkscape:label=""
       inkscape:color="rgb(0,0,255)"
       inkscape:locked="false" />
    <sodipodi:guide
       position="75.714288,361.41732"
       orientation="0,1"
       id="guide3348"
       inkscape:label=""
       inkscape:color="rgb(0,0,255)"
       inkscape:locked="false" />
    <sodipodi:guide
       position="242.71654,289.15617"
       orientation="1,0"
       id="guide4173"
       inkscape:locked="false" />
    <sodipodi:guide
       position="-54.642858,21.259842"
       orientation="0,1"
       id="guide4176"
       inkscape:label=""
       inkscape:color="rgb(0,0,255)"
       inkscape:locked="false" />
    <sodipodi:guide
       position="0,350.7874"
       orientation="0,1"
       id="guide4178"
       inkscape:label=""
       inkscape:color="rgb(0,0,255)"
       inkscape:locked="false" />
    <sodipodi:guide
       position="30.118111,388.21428"
       orientation="1,0"
       id="guide4180"
       inkscape:label=""
       inkscape:color="rgb(0,0,255)"
       inkscape:locked="false" />
    <sodipodi:guide
       position="232.08662,385.71428"
       orientation="1,0"
       id="guide4182"
       inkscape:label=""
       inkscape:color="rgb(0,0,255)"
       inkscape:locked="false" />
    <sodipodi:guide
       position="40.748033,260.35714"
       orientation="1,0"
       id="guide4252"
       inkscape:label=""
       inkscape:color="rgb(0,0,255)"
       inkscape:locked="false" />
    <sodipodi:guide
       position="221.4567,323.92857"
       orientation="1,0"
       id="guide4254"
       inkscape:label=""
       inkscape:color="rgb(0,0,255)"
       inkscape:locked="false" />
    <sodipodi:guide
       position="-107.14286,340.15748"
       orientation="0,1"
       id="guide4256"
       inkscape:label=""
       inkscape:color="rgb(0,0,255)"
       inkscape:locked="false" />
    <sodipodi:guide
       position="-111.42857,31.889764"
       orientation="0,1"
       id="guide4258"
       inkscape:label=""
       inkscape:color="rgb(0,0,255)"
       inkscape:locked="false" />
    <sodipodi:guide
       position="-60.356616,308.26772"
       orientation="0,1"
       id="guide4262"
       inkscape:label=""
       inkscape:color="rgb(0,0,255)"
       inkscape:locked="false" />
    <sodipodi:guide
       position="-56.063468,297.63779"
       orientation="0,1"
       id="guide4269"
       inkscape:label=""
       inkscape:color="rgb(0,0,255)"
       inkscape:locked="false" />
    <sodipodi:guide
       position="93.897641,308.6016"
       orientation="1,0"
       id="guide4271"
       inkscape:label=""
       inkscape:color="rgb(0,0,255)"
       inkscape:locked="false" />
    <sodipodi:guide
       position="99.212601,340.15748"
       orientation="1,0"
       id="guide4273"
       inkscape:label=""
       inkscape:color="rgb(0,0,255)"
       inkscape:locked="false" />
    <sodipodi:guide
       position="-60.500002,279.92126"
       orientation="0,1"
       id="guide4303"
       inkscape:label=""
       inkscape:color="rgb(0,0,255)"
       inkscape:locked="false" />
    <sodipodi:guide
       position="-102.5,269.29134"
       orientation="0,1"
       id="guide4314"
       inkscape:label=""
       inkscape:color="rgb(0,0,255)"
       inkscape:locked="false" />
    <sodipodi:guide
       position="194.8819,223.95843"
       orientation="1,0"
       id="guide4201"
       inkscape:label=""
       inkscape:color="rgb(0,0,255)"
       inkscape:locked="false" />
    <sodipodi:guide
       position="184.25197,197.75"
       orientation="1,0"
       id="guide4243"
       inkscape:label=""
       inkscape:color="rgb(0,0,255)"
       inkscape:locked="false" />
    <sodipodi:guide
       position="68.74219,102.76562"
       orientation="0,1"
       id="guide4308"
       inkscape:locked="false" />
    <inkscape:grid
       id="grid1"
       units="mm"
       originx="0"
       originy="0"
       spacingx="3.5433072"
       spacingy="3.543307"
       empcolor="#0099e5"
       empopacity="0.30196078"
       color="#0099e5"
       opacity="0.14901961"
       empspacing="5"
       dotted="false"
       gridanglex="30"
       gridanglez="30"
       visible="false" />
  </sodipodi:namedview>
  <metadata
     id="metadata7">
    <rdf:RDF>
      <cc:Work
         rdf:about="">
        <dc:format>image/svg+xml</dc:format>
        <dc:type
           rdf:resource="http://purl.org/dc/dcmitype/StillImage" />
        <dc:title />
      </cc:Work>
    </rdf:RDF>
  </metadata>
  <g
     inkscape:label="Cut line"
     inkscape:groupmode="layer"
     id="layer1"
     transform="translate(0,-680.31496)"
     style="display:inline"
     sodipodi:insensitive="true">
    <path
       style="fill:none;fill-rule:evenodd;stroke:#808080;stroke-width:0.708661;stroke-linecap:butt;stroke-linejoin:miter;stroke-miterlimit:4;stroke-dasharray:2.83465, 2.83465;stroke-dashoffset:0;stroke-opacity:1"
       d="M 19.488189,690.94488 V 1041.7323 H 242.71653 V 690.94488 Z"
       id="path3350"
       inkscape:connector-curvature="0" />
  </g>
  <g
     inkscape:groupmode="layer"
     id="layer2"
     inkscape:label="Top Separator"
     style="display:inline"
     sodipodi:insensitive="true">
    <path
       inkscape:connector-curvature="0"
       style="fill:none;fill-opacity:1;stroke:none;stroke-width:0.70866144;stroke-miterlimit:4;stroke-dasharray:2.83464575, 2.83464575;stroke-dashoffset:0;stroke-opacity:1"
       d="m 42.883734,21.259066 c -7.071438,0 -12.765624,6.544709 -12.765624,14.673828 l 0,38.476559 201.96874,0 0,-38.476559 c 0,-8.129119 -5.69224,-14.673828 -12.76367,-14.673828 l -176.439446,0 z"
       id="rect4195-3" />
  </g>
  <g
     inkscape:groupmode="layer"
     id="layer8"
     inkscape:label="Separator"
     style="display:inline"
     sodipodi:insensitive="true">
    <rect
       style="display:inline;fill:#37abc8;fill-opacity:1;stroke:none;stroke-width:1;stroke-miterlimit:4;stroke-dasharray:none;stroke-dashoffset:0;stroke-opacity:1"
       id="rect4178"
       width="134.64568"
       height="17.716536"
       x="30.118084"
       y="74.409447" />
    <text
       xml:space="preserve"
       style="font-style:normal;font-weight:normal;line-height:0%;font-family:sans-serif;letter-spacing:0px;word-spacing:0px;display:inline;fill:#000000;fill-opacity:1;stroke:none;stroke-width:1px;stroke-linecap:butt;stroke-linejoin:miter;stroke-opacity:1"
       x="39.935017"
       y="87.861458"
       id="text4180"><tspan
         sodipodi:role="line"
         id="tspan4182"
         x="39.935017"
         y="87.861458"
         style="font-style:normal;font-variant:normal;font-weight:bold;font-stretch:normal;font-size:12.5px;line-height:1.25;font-family:Lato;-inkscape-font-specification:'Lato Bold';fill:#ffffff">Partagé</tspan></text>
    <rect
       y="74.409447"
       x="164.76376"
       height="17.716536"
       width="67.322838"
       id="rect4191"
       style="display:inline;fill:#e6e6e6;fill-opacity:1;stroke:none;stroke-width:1;stroke-miterlimit:4;stroke-dasharray:none;stroke-dashoffset:0;stroke-opacity:1" />
    <text
       xml:space="preserve"
       style="font-style:normal;font-weight:normal;line-height:0%;font-family:sans-serif;letter-spacing:0px;word-spacing:0px;fill:#1a1a1a;fill-opacity:1;stroke:none;stroke-width:1px;stroke-linecap:butt;stroke-linejoin:miter;stroke-opacity:1"
       x="184.26756"
       y="87.789589"
       id="text4193"><tspan
         sodipodi:role="line"
         id="tspan4195"
         x="184.26756"
         y="87.789589"
         style="font-style:normal;font-variant:normal;font-weight:500;font-stretch:normal;font-size:12.5px;line-height:1.25;font-family:Lato;-inkscape-font-specification:'Lato Medium';fill:#1a1a1a">45 min</tspan></text>
  </g>
  <g
     inkscape:groupmode="layer"
     id="layer7"
     inkscape:label="Title"
     sodipodi:insensitive="true">
    <path
       style="fill:none;fill-rule:evenodd;stroke:none;stroke-width:1px;stroke-linecap:butt;stroke-linejoin:miter;stroke-opacity:1"
       d="m 99.212598,31.889763 0,31.88976 122.244092,0 0,-31.88976 z"
       id="path4300_cib"
       inkscape:connector-curvature="0" />
    <flowRoot
       xml:space="preserve"
       style="font-style:normal;font-weight:normal;line-height:0.01%;font-family:sans-serif;text-align:end;letter-spacing:0px;word-spacing:0px;text-anchor:end;fill:#000000;fill-opacity:1;stroke:none;stroke-width:1px;stroke-linecap:butt;stroke-linejoin:miter;stroke-opacity:1"
       id="flowRoot4271"
       transform="translate(0,6.2492812)"><flowRegion
         id="flowRegion4273"><use
           x="0"
           y="0"
           xlink:href="#path4300_cib"
           id="use4275"
           width="100%"
           height="100%" /></flowRegion><flowPara
         style="font-style:normal;font-variant:normal;font-weight:bold;font-stretch:normal;font-size:13.375px;line-height:1.25;font-family:Roboto;-inkscape-font-specification:'Roboto Bold';text-align:end;text-anchor:end"
         id="flowPara4277">Celebrity Interview</flowPara></flowRoot>
  </g>
  <g
     inkscape:groupmode="layer"
     id="layer6"
     inkscape:label="Logo"
     style="display:inline"
     sodipodi:insensitive="true">
    <path
       style="fill:none;fill-rule:evenodd;stroke:none;stroke-width:1px;stroke-linecap:butt;stroke-linejoin:miter;stroke-opacity:1"
       d="m 40.748032,31.889763 0,31.88976 53.149606,0 0,-31.88976 z"
       id="path4213"
       inkscape:connector-curvature="0" />
    <g
       transform="matrix(0.86479409,0,0,0.86479405,-174.88242,-91.822751)"
       inkscape:label="celebrityinterview"
       id="layer30">
      <g
         id="g4809">
        <path
           style="fill:#000000;fill-opacity:1;stroke:none;stroke-width:0.26458332px;stroke-linecap:butt;stroke-linejoin:miter;stroke-opacity:1"
           d="m 261.59673,145.64312 c 0,0 2.43002,-1.25458 5.75298,-1.96443 3.65718,-0.78124 6.361,-0.60804 6.361,-0.60804 0,0 0.77965,4.53801 0.98222,6.82874 0.20474,2.31529 0.23386,6.96905 0.23386,6.96905 l 3.97563,2.94665 c 0,0 0.50012,7.41725 0.51451,11.13177 0.005,1.21697 -0.14031,3.64823 -0.14031,3.64823 l -0.70159,-0.3274 c 0,0 -0.41625,-1.64075 -0.51449,-2.47893 -0.37946,-3.23764 -0.49111,-9.77538 -0.49111,-9.77538 l -2.08138,0.14032 0.0468,3.88209 -0.42095,1.7197 -0.67937,-1.08046 -0.069,-4.38102 -6.82874,1.3564 c 0,0 -0.39058,7.91429 -0.93543,11.83335 -0.0985,0.70866 -0.42095,2.10475 -0.42095,2.10475 l -0.56126,-0.18709 c 0,0 -0.36695,-3.83127 -0.3742,-5.75297 -0.0102,-2.71724 0.46773,-8.13836 0.46773,-8.13836 l -1.73057,-3.695 c 0,0 -0.19135,3.78173 -0.42095,5.65943 -0.15741,1.28735 -0.65481,3.83532 -0.65481,3.83532 l -0.60804,0 c 0,0 -0.15147,-2.96154 -0.14031,-4.44336 0.0176,-2.34109 0.28989,-4.67497 0.3274,-7.01582 0.0342,-2.13588 0.0675,-4.27771 -0.0935,-6.40779 -0.14704,-1.94579 -0.79521,-5.79975 -0.79521,-5.79975 z"
           id="path4803"
           inkscape:connector-curvature="0"
           sodipodi:nodetypes="cscsccsccscccccccsccsccsccssscc" />
        <path
           style="fill:#000000;fill-opacity:1;stroke:none;stroke-width:0.26458332px;stroke-linecap:butt;stroke-linejoin:miter;stroke-opacity:1"
           d="m 262.87328,163.52448 -0.90237,9.7e-4 c -3.15656,0.4577 -5.36168,0.90541 -8.16175,2.25309 -2.01897,0.97173 -4.3857,2.72816 -4.4639,4.94817 -0.0815,2.31401 2.17877,4.55363 4.27847,5.47234 3.24505,1.41984 6.29233,2.22267 9.5609,2.82002 3.78415,0.69158 7.66604,1.04872 11.5083,0.86128 3.9989,-0.19508 8.08329,-0.65572 11.83335,-2.05798 1.6379,-0.61246 3.32144,-1.41202 4.49014,-2.71278 1.12112,-1.2478 2.26627,-2.57324 2.12813,-4.56029 -0.15789,-2.27098 -3.22955,-3.50054 -5.30865,-4.18611 -3.16047,-1.04215 -6.20096,-1.37807 -9.35443,-1.68379 -2.553,-0.24751 -5.13599,-0.30544 -7.69402,-0.11694 -2.8365,0.20902 -5.93662,1.01906 -9.23749,2.50232 -1.64925,0.7411 -3.9024,1.80158 -3.81194,3.5313 0.10121,1.93528 2.84865,2.91334 4.65383,3.48452 3.45847,1.0943 6.6961,1.65351 10.14957,1.70718 3.75212,0.0583 7.78698,0.018 11.06161,-1.77734 1.24429,-0.6822 3.03349,-1.77618 2.82971,-3.18051 -0.22925,-1.57988 -2.46172,-2.13596 -4.06916,-2.52569 -2.76893,-0.67133 -5.79473,-0.67865 -8.69962,-0.58465 -1.55527,0.0503 -3.71325,0.49963 -5.03438,0.93828 -0.89675,0.29774 -2.08675,0.81356 -2.14585,1.73057 -0.0475,0.73717 0.76295,1.36419 1.53215,1.60111 1.23789,0.38128 3.65612,0.46987 5.58426,0.3685 1.72925,-0.0909 3.51403,-0.45315 4.89035,-1.32147 l -0.0662,-0.47955 c -2.1774,0.51454 -3.11809,0.71633 -4.7129,0.82682 -1.79022,0.12403 -5.24349,-0.34136 -5.27513,-1.07487 -0.0442,-1.02419 3.62004,-1.51502 5.29167,-1.52136 2.25556,-0.009 4.35726,0.1443 6.49883,0.51263 1.47743,0.2541 3.77427,0.75832 3.81992,2.23242 0.0463,1.49425 -2.0383,1.98954 -3.72472,2.49818 -2.24304,0.67652 -4.64909,0.7961 -6.9909,0.72643 -2.98731,-0.0889 -6.05662,-0.38486 -8.84701,-1.4552 -1.69888,-0.65166 -4.53426,-1.125 -4.59713,-2.94349 -0.0626,-1.81133 2.67603,-2.58528 4.36562,-3.24115 3.33032,-1.29277 5.84618,-1.39762 8.83047,-1.52135 2.97119,-0.12319 5.94775,0.33476 8.88693,0.78171 2.8506,0.43347 5.19244,1.14478 7.40999,2.62646 1.66848,1.11481 1.97114,2.26414 0.67917,4.38735 -1.41497,2.32535 -3.53611,3.22096 -5.76437,3.91229 -3.34297,1.03717 -9.3874,1.51867 -14.08906,1.19062 -4.81024,-0.33563 -10.41223,-1.42875 -14.1056,-3.20807 -1.89984,-0.91527 -4.36673,-2.39555 -4.41523,-4.53099 -0.0435,-1.91475 1.44745,-2.98295 2.74504,-3.9026 2.39035,-1.69412 6.82156,-2.03323 8.4584,-2.38952 z"
           id="path4805"
           inkscape:connector-curvature="0"
           sodipodi:nodetypes="ccsasaaaassassassaasssassccssssasaaasassssassacc" />
      </g>
    </g>
  </g>
  <g
     inkscape:groupmode="layer"
     id="layer5"
     inkscape:label="Border"
     style="display:inline"
     sodipodi:insensitive="true">
    <rect
       style="fill:none;fill-opacity:1;stroke:#000000;stroke-width:0.35433072;stroke-miterlimit:4;stroke-dasharray:none;stroke-dashoffset:0;stroke-opacity:1"
       id="rect4187"
       width="201.96851"
       height="329.52756"
       x="30.118111"
       y="21.259844"
       ry="14.6735"
       rx="12.76433" />
  </g>
  <g
     inkscape:groupmode="layer"
     id="layer9"
     inkscape:label="Body"
     sodipodi:insensitive="true">
    <path
       style="fill:none;fill-rule:evenodd;stroke:none;stroke-width:1.0517px;stroke-linecap:butt;stroke-linejoin:miter;stroke-opacity:1"
       d="M 33.716782,96.66215 V 340.15748 H 188.47071 V 96.66215 H 33.716782"
       id="pathcib4245"
       inkscape:connector-curvature="0" />
    <flowRoot
       xml:space="preserve"
       style="font-style:normal;font-weight:normal;line-height:0.85;font-family:sans-serif;letter-spacing:0px;word-spacing:0px;fill:#000000;fill-opacity:1;stroke:none;stroke-width:1px;stroke-linecap:butt;stroke-linejoin:miter;stroke-opacity:1"
       id="flowRoot4251"><flowRegion
         id="flowRegion4253"
         style="line-height:0.85"><use
           x="0"
           y="0"
           xlink:href="#pathcib4245"
           id="use4255"
           width="100%"
           height="100%" /></flowRegion><flowPara
         id="flowPara4257"
         style="font-style:normal;font-variant:normal;font-weight:bold;font-stretch:normal;font-size:8.75px;line-height:0.85;font-family:Roboto;-inkscape-font-specification:'Roboto Bold';fill:#999999;fill-opacity:1">Etapes</flowPara><flowPara
         style="font-style:normal;font-variant:normal;font-weight:normal;font-stretch:normal;font-size:8.75px;line-height:0.85;font-family:Lato;-inkscape-font-specification:Lato;fill:#1a1a1a"
         id="flowPara4399">L'intervieweur accueille et présente la célébrité et le sujet à aborder.</flowPara><flowPara
         style="font-style:normal;font-variant:normal;font-weight:normal;font-stretch:normal;font-size:8.75px;line-height:0.85;font-family:Lato;-inkscape-font-specification:Lato;fill:#1a1a1a"
         id="flowPara4302"> </flowPara><flowPara
         style="font-style:normal;font-variant:normal;font-weight:normal;font-stretch:normal;font-size:8.75px;line-height:0.85;font-family:Lato;-inkscape-font-specification:Lato;fill:#1a1a1a;fill-opacity:1"
         id="flowPara4419">L'intervieweur pose des questions que le public est censé poser.</flowPara><flowPara
         style="font-style:normal;font-variant:normal;font-weight:normal;font-stretch:normal;font-size:8.75px;line-height:0.85;font-family:Lato;-inkscape-font-specification:Lato;fill:#1a1a1a;fill-opacity:1"
         id="flowPara4275"> </flowPara><flowPara
         style="font-style:normal;font-variant:normal;font-weight:normal;font-stretch:normal;font-size:8.75px;line-height:0.85;font-family:Lato;-inkscape-font-specification:Lato;fill:#1a1a1a;fill-opacity:1"
         id="flowPara4278">Les participants génèrent des questions supplémentaires dans une conversation 1-2-4 et les écrivent sur des cartes.</flowPara><flowPara
         style="font-style:normal;font-variant:normal;font-weight:normal;font-stretch:normal;font-size:8.75px;line-height:0.85;font-family:Lato;-inkscape-font-specification:Lato;fill:#1a1a1a;fill-opacity:1"
         id="flowPara4280"> </flowPara><flowPara
         style="font-style:normal;font-variant:normal;font-weight:normal;font-stretch:normal;font-size:8.75px;line-height:0.85;font-family:Lato;-inkscape-font-specification:Lato;fill:#1a1a1a;fill-opacity:1"
         id="flowPara4282">L'enquêteur passe en revue les cartes, cherche des modèles et pose des questions supplémentaires à la célébrité.</flowPara><flowPara
         style="font-style:normal;font-variant:normal;font-weight:normal;font-stretch:normal;font-size:8.75px;line-height:0.85;font-family:Lato;-inkscape-font-specification:Lato;fill:#1a1a1a;fill-opacity:1"
         id="flowPara4284"> </flowPara><flowPara
         style="font-style:normal;font-variant:normal;font-weight:normal;font-stretch:normal;font-size:8.75px;line-height:0.85;font-family:Lato;-inkscape-font-specification:Lato;fill:#1a1a1a;fill-opacity:1"
         id="flowPara4290">L'intervieweur fait des commentaires finaux et remercie la célébrité.</flowPara></flowRoot>
  </g>
  <g
     inkscape:groupmode="layer"
     id="layer4"
     inkscape:label="Body Right"
     style="display:inline"
     sodipodi:insensitive="true">
    <text
       id="text4227"
       y="117.12352"
       x="207.99702"
       style="font-style:normal;font-weight:normal;line-height:0%;font-family:sans-serif;letter-spacing:0px;word-spacing:0px;fill:#1a1a1a;fill-opacity:1;stroke:none;stroke-width:1px;stroke-linecap:butt;stroke-linejoin:miter;stroke-opacity:1"
       xml:space="preserve"><tspan
         style="font-style:normal;font-variant:normal;font-weight:500;font-stretch:normal;font-size:8.75px;line-height:1.25;font-family:Lato;-inkscape-font-specification:'Lato Medium';fill:#1a1a1a"
         y="117.12352"
         x="207.99702"
         id="tspan4229"
         sodipodi:role="line">3 min</tspan></text>
    <text
       id="text4231"
       y="146.13152"
       x="189.5229"
       style="font-style:normal;font-weight:normal;line-height:0%;font-family:sans-serif;letter-spacing:0px;word-spacing:0px;fill:#1a1a1a;fill-opacity:1;stroke:none;stroke-width:1px;stroke-linecap:butt;stroke-linejoin:miter;stroke-opacity:1"
       xml:space="preserve"><tspan
         style="font-style:normal;font-variant:normal;font-weight:500;font-stretch:normal;font-size:8.75px;line-height:1.25;font-family:Lato;-inkscape-font-specification:'Lato Medium';fill:#1a1a1a"
         y="146.13152"
         x="189.5229"
         id="tspan4233"
         sodipodi:role="line">15-30 min</tspan></text>
    <path
       style="fill:none;fill-rule:evenodd;stroke:none;stroke-width:1px;stroke-linecap:butt;stroke-linejoin:miter;stroke-opacity:1"
       d="m 194.88189,102.7559 v 237.40158 h 26.5748 V 102.7559 Z"
       id="path4239"
       inkscape:connector-curvature="0" />
    <text
       xml:space="preserve"
       style="font-style:normal;font-weight:normal;line-height:0%;font-family:sans-serif;letter-spacing:0px;word-spacing:0px;fill:#1a1a1a;fill-opacity:1;stroke:none;stroke-width:1px;stroke-linecap:butt;stroke-linejoin:miter;stroke-opacity:1"
       x="196.47359"
       y="177.13698"
       id="text4296"><tspan
         sodipodi:role="line"
         id="tspan4298"
         x="196.47359"
         y="177.13698"
         style="font-style:normal;font-variant:normal;font-weight:500;font-stretch:normal;font-size:8.75px;line-height:1.25;font-family:Lato;-inkscape-font-specification:'Lato Medium';fill:#1a1a1a">5-10 min</tspan></text>
    <text
       id="text4300"
       y="218.98129"
       x="194.59859"
       style="font-style:normal;font-weight:normal;line-height:0%;font-family:sans-serif;letter-spacing:0px;word-spacing:0px;fill:#1a1a1a;fill-opacity:1;stroke:none;stroke-width:1px;stroke-linecap:butt;stroke-linejoin:miter;stroke-opacity:1"
       xml:space="preserve"><tspan
         style="font-style:normal;font-variant:normal;font-weight:500;font-stretch:normal;font-size:8.75px;line-height:1.25;font-family:Lato;-inkscape-font-specification:'Lato Medium';fill:#1a1a1a"
         y="218.98129"
         x="194.59859"
         id="tspan4302"
         sodipodi:role="line">5-10 min</tspan></text>
    <text
       xml:space="preserve"
       style="font-style:normal;font-weight:normal;line-height:0%;font-family:sans-serif;letter-spacing:0px;word-spacing:0px;fill:#1a1a1a;fill-opacity:1;stroke:none;stroke-width:1px;stroke-linecap:butt;stroke-linejoin:miter;stroke-opacity:1"
       x="206.12202"
       y="258.89517"
       id="text4304"><tspan
         sodipodi:role="line"
         id="tspan4306"
         x="206.12202"
         y="258.89517"
         style="font-style:normal;font-variant:normal;font-weight:500;font-stretch:normal;font-size:8.75px;line-height:1.25;font-family:Lato;-inkscape-font-specification:'Lato Medium';fill:#1a1a1a">1 min</tspan></text>
  </g>
  <g
     inkscape:groupmode="layer"
     id="layer10"
     inkscape:label="String With"
     style="display:inline"
     transform="translate(0,-5.625)"
     sodipodi:insensitive="true">
    <path
       style="fill:none;fill-rule:evenodd;stroke:none;stroke-width:1px;stroke-linecap:butt;stroke-linejoin:miter;stroke-opacity:1"
       d="m 40.748032,269.28162 v 70.87586 H 221.45669 v -70.87586 z"
       id="path4343_cib"
       inkscape:connector-curvature="0" />
    <flowRoot
       xml:space="preserve"
       style="font-style:normal;font-weight:normal;line-height:0.01%;font-family:sans-serif;letter-spacing:0px;word-spacing:0px;fill:#000000;fill-opacity:1;stroke:none;stroke-width:1px;stroke-linecap:butt;stroke-linejoin:miter;stroke-opacity:1"
       id="flowRoot4351"
       transform="translate(-5.625,17.78125)"><flowRegion
         id="flowRegion4353"><use
           x="0"
           y="0"
           xlink:href="#path4343_cib"
           id="use4355"
           width="100%"
           height="100%" /></flowRegion><flowPara
         id="flowPara4357"
         style="font-style:normal;font-variant:normal;font-weight:bold;font-stretch:normal;font-size:8.75px;line-height:1.25;font-family:Roboto;-inkscape-font-specification:'Roboto Bold';fill:#999999;fill-opacity:1">Fonctionne avec</flowPara><flowPara
         id="flowPara4359"
         style="font-style:normal;font-variant:normal;font-weight:normal;font-stretch:normal;font-size:8.75px;line-height:1.25;font-family:Lato;-inkscape-font-specification:Lato;fill:#1a1a1a">Expérience utilisateur        </flowPara><flowPara
         style="font-style:normal;font-variant:normal;font-weight:normal;font-stretch:normal;font-size:8.75px;line-height:1.25;font-family:Lato;-inkscape-font-specification:Lato;fill:#1a1a1a"
         id="flowPara1">Open Space Technologie           </flowPara><flowPara
         style="font-style:normal;font-variant:normal;font-weight:normal;font-stretch:normal;font-size:8.75px;line-height:1.25;font-family:Lato;-inkscape-font-specification:Lato;fill:#1a1a1a"
         id="flowPara3">Purpose-To-Pratice</flowPara><flowPara
         style="font-style:normal;font-variant:normal;font-weight:normal;font-stretch:normal;font-size:8.75px;line-height:1.25;font-family:Lato;-inkscape-font-specification:Lato;fill:#1a1a1a"
         id="flowPara2">Ce que j'Attends de vous </flowPara><flowPara
         style="font-style:normal;font-variant:normal;font-weight:normal;font-stretch:normal;font-size:8.75px;line-height:1.25;font-family:Lato;-inkscape-font-specification:Lato;fill:#1a1a1a"
         id="flowPara4273"> </flowPara></flowRoot>
    <g
       transform="matrix(0.25296197,0,0,0.25296197,18.398919,272.77211)"
       inkscape:label="purposetopractice"
       id="layer27"
       style="display:inline;enable-background:new">
      <path
   sodipodi:nodetypes="ccccsccccccscccccsccccssccccsasscaasscccccssccccsccccscccsccccacsccc"
   inkscape:connector-curvature="0"
   id="path4757"
   transform="scale(0.26458333)"
   d="m 1478.0293,707.9707 c -8.8838,4.3e-4 -16.0855,7.20211 -16.0859,16.08594 0.01,1.20009 0.1474,2.39568 0.4199,3.56445 L 1462,727.75 c 0,0 -20.2606,10.19621 -32,35 -9.9044,20.92661 -8.25,42.5 -8.25,42.5 l 0.031,0.0996 c -5.4014,2.74215 -8.8045,8.28612 -8.8046,14.34375 4e-4,8.88383 7.2021,16.08551 16.0859,16.08594 0.8019,-0.005 1.6023,-0.0693 2.3945,-0.19336 l 0.293,0.91406 c 0,0 8.082,16.13969 27.5,27.75 17.5874,10.51579 40.25,10 40.25,10 l 0.3223,-0.0801 c 1.9224,6.97869 8.2692,11.81392 15.5078,11.81446 8.8838,-4.3e-4 16.0855,-7.20211 16.0859,-16.08594 -0.01,-1.20816 -0.1496,-2.41171 -0.4258,-3.58789 0.723,-0.55087 16.9274,-8.56404 27.5098,-27.81055 9.2166,-16.76257 6.5952,-31.75689 6.7031,-33.60156 6.0741,-2.45684 10.0512,-8.35215 10.0547,-14.9043 -4e-4,-8.88462 -7.2033,-16.08661 -16.0879,-16.08594 -1.6057,0.006 -3.2016,0.25205 -4.7344,0.73047 -0.3353,-0.61491 -7.7499,-15.14742 -29.3105,-22.26367 -9.3806,-3.09614 -19.4896,-3.04525 -28.9473,-0.1934 -15.2393,4.59524 -18.2922,12.26601 -19.3105,13.23047 -1.5145,-0.46104 -3.0888,-0.696 -4.6719,-0.69727 -8.8846,4.3e-4 -16.0866,7.20329 -16.0859,16.08789 0.01,5.70853 3.0388,10.98577 7.9668,13.86719 0.3852,2.17535 -0.3582,17.6701 11.6738,28.83008 8.5958,7.97277 23.2967,12.18043 34.25,8 10.1289,-3.86578 18.8925,-12.24106 18.6893,-26.61872 -0.1317,-9.31486 -5.5307,-15.25481 -12.4267,-18.29289 -8.5128,-3.75035 -13.8384,-0.81066 -13.8384,-0.81066 0,0 15.7393,4.84821 18.7981,11.53293 2.7671,6.04739 0.9442,14.50588 -3.2223,19.68934 -5.0898,6.3321 -11.1988,10.61976 -22.6438,9.01517 -10.3684,-1.45364 -18.6948,-11.45213 -21.1768,-16.92158 -2.2209,-4.89386 -2.9622,-10.84191 -2.9372,-12.25179 0.3172,0.025 0.635,0.0407 0.9531,0.0469 8.8846,6.7e-4 16.0875,-7.20132 16.0879,-16.08594 -0.01,-4.50693 -1.9046,-8.80418 -5.2305,-11.8457 L 1483.25,768.5 c 0,0 5.0575,-8.51004 16.1875,-10.6875 14.8806,-2.91122 24.481,0.71805 34.9375,6.375 7.8079,4.22409 14.375,12.8125 14.375,12.8125 l 0.1953,0.58984 c -3.7074,3.0526 -5.857,7.60192 -5.8613,12.4043 0.01,8.52435 6.667,15.56131 15.1777,16.04297 0.051,0.83996 2.6726,17.58246 -5.6367,30.71289 -12.0771,19.08431 -23.1797,23.03734 -24.1914,23.84961 -3.0109,-4.25122 -7.894,-6.78123 -13.1035,-6.78906 -7.8349,0.009 -14.5239,5.66112 -15.8399,13.38476 l -0.2402,0.0547 c 0,0 -18.1813,2.35874 -38.25,-8.25 -14.0155,-7.4089 -22.7228,-24.16224 -23.6641,-25.5293 4.8419,-2.90306 7.8077,-8.13183 7.8145,-13.77734 -0.01,-8.70005 -6.9324,-15.81688 -15.6289,-16.06445 0.047,-1.09466 -3.234,-15.28712 6.7285,-37.87891 9.7855,-22.19021 28.5,-31.75 28.5,-31.75 l 0.5195,-0.16797 c 3.0405,3.9733 7.7566,6.30572 12.7598,6.31055 8.7148,-0.008 15.8385,-6.95416 16.0664,-15.66602 0.2824,-0.0737 9.3899,-1.87505 14.1543,-2.10156 5.5639,-0.26451 10,0.1875 16.6875,0.875 -2.625,-2.3125 -8.1511,-5.99614 -16.1875,-6.5625 -5.4183,-0.38185 -15.6981,0.15189 -16.293,0.27344 -2.7038,-5.5006 -8.2985,-8.98676 -14.4277,-8.99024 z"
   style="fill:#000000;fill-opacity:1;stroke:none;stroke-width:1px;stroke-linecap:butt;stroke-linejoin:miter;stroke-opacity:1" />

    </g>
    <g
       transform="matrix(0.33732443,0,0,0.33732446,29.150979,295.88077)"
       inkscape:label="openspace"
       id="g81"
       style="display:inline;enable-background:new">
      <g
   id="g80">
        <path
   inkscape:connector-curvature="0"
   style="fill:#000000;fill-opacity:1;stroke:none;stroke-width:1px;stroke-linecap:butt;stroke-linejoin:miter;stroke-opacity:1"
   d="m 1221.8535,145.94336 c -2.3868,-0.004 -5.5643,0.0428 -8.7265,0.23828 -7.041,0.43519 -13.3516,2.11133 -13.3516,2.11133 0,0 0.1555,17.26572 -0.6973,25.83984 -0.294,2.95632 -1.5195,8.78321 -1.5195,8.78321 l -15.8203,-2.3711 -4.9688,-26.5957 c 0,0 -4.1468,1.11108 -9.7597,3.94726 -5.6518,2.85579 -8.3536,5.37696 -8.3536,5.37696 0,0 4.399,8.63623 4.3575,15.20898 -0.05,7.74637 -0.076,23.69336 -0.076,23.69336 0,0 -2.1358,1.16996 -4.8965,1.69336 -2.8818,0.54637 -4.4277,0.2168 -4.4277,0.2168 l -5.9629,-24.91602 c 0,0 -2.5478,0.20915 -5.5332,2.57227 -2.9038,2.29854 -3.4082,4.76562 -3.4082,4.76562 l 6.7265,14.13867 c 0,0 4.7894,11.07526 5.043,12.6875 0.3096,1.96703 -0.8398,21.93555 -0.8398,21.93555 l 2.4453,1.14649 0.5215,-15.22266 1.3886,0.85352 -0.457,27.58984 1.5274,2.98047 1.7578,0.0762 0.4589,-28.50781 11.0821,-2.67383 -1.9492,45.50586 1.5136,0.43359 3.836,-27.61719 23.1308,9.56641 0.2168,30.37305 1.6739,0.0527 1.3515,-30.04687 16.4297,-13.02539 -0.3789,26.42773 1.4063,-0.0547 1.0253,-4.80859 0.9727,-27.83398 -21.1797,-6.67969 -0.076,-9.70703 -9.0195,-3.51563 -4.3555,-12.38086 13.2227,-9.0957 -0.3828,21.85937 2.0644,0.15235 v -3.82227 l 2.1387,-4.89062 0.8418,-20.02344 4.5859,5.42578 -0.1543,22.08789 2.9825,-4.35742 0.5019,-16.32813 11.8789,-3.16015 v 6.57226 l 1.1465,2.67579 2.1387,0.6875 0.2304,-10.92969 7.7188,-2.0625 -1.7578,26.06054 1.6055,0.23047 1.375,-3.66797 2.0644,-23.92382 -9.5547,-8.78907 L 1225.8379,146 c 0,0 -1.5976,-0.0529 -3.9844,-0.0566 z m -55.9805,47.8457 12.375,4.05469 -12.4296,3.67383 z"
   transform="scale(0.26458333)"
   id="path79" />

        <path
   style="fill:#000000;fill-opacity:1;stroke:none;stroke-width:1px;stroke-linecap:butt;stroke-linejoin:miter;stroke-opacity:1"
   d="m 1253.0469,148.06445 -3.5157,24.99219 c 0,0 -3.0154,2.96061 -4.6621,4.2793 -2.2286,1.78472 -7.0312,4.89062 -7.0312,4.89062 l -1.1465,26.98047 2.1387,0.22852 1.4531,-4.73828 0.8398,-19.1836 5.6739,1.14649 -1.0117,9.70703 1.5664,0.15234 1.3379,-2.36914 0.8066,-6.99414 11.7207,2.12109 -1.709,21.07618 1.4453,0.0976 1.543,-5.19726 1.668,-15.61914 6.6797,-4.23829 -2.5821,16.10938 -3.0898,15.88867 -17.3223,1.51758 -0.6113,8.25586 -20.1778,4.89062 c 0,0 -1.4705,10.18016 -2.0136,15.29297 -0.6558,6.17387 -1.502,18.56446 -1.502,18.56446 l 2.3692,0.0762 4.1757,-28.07227 11.6094,22.00781 c 0,0 -1.0022,7.42085 -1.4199,10.65821 -0.518,4.01505 -0.7039,7.20224 -0.9121,11.35742 -0.1429,2.84932 -0.3652,8.77148 -0.3652,8.77148 l 2.1132,0.39454 3.4473,-29.54883 10.8145,-2.17969 0.3437,5.3125 h 2.1406 l 0.8789,-6.07617 19.295,-3.54883 -1.1426,29.65039 1.834,0.15234 5.1211,-57.09179 16.9668,6.57226 -0.076,28.58399 2.2929,0.0762 1.2579,-28.24414 4.3125,-5.83008 0.6972,16.01367 1.6035,-2.57031 1.0704,-23.23828 c 0,0 4.7877,-8.13418 7.2617,-12.15235 3.1206,-5.06857 6.4956,-9.63056 8.9414,-11.46484 0,0 0.061,-2.7109 -0.459,-5.50195 -0.6086,-3.26577 -2.1387,-4.4336 -2.1387,-4.4336 l -16.3574,29.19532 c 0,0 3.7381,-16.00695 6.4199,-24.15039 3.4942,-10.61037 5.7324,-22.69922 5.7324,-22.69922 0,0 -2.3633,-3.12976 -6.6484,-6.03907 -4.1334,-2.80633 -8.2539,-4.35546 -8.2539,-4.35546 0,0 -3.6835,5.2787 -5.0449,8.17773 -1.863,3.96695 -2.5106,8.41443 -4.2031,12.45703 -1.1133,2.65889 -3.8985,7.7207 -3.8985,7.7207 l -20.3301,3.74414 c 0,0 3.7309,-15.44135 4.6621,-23.31054 0.5502,-4.63321 1.1466,-14.82704 1.1466,-14.82704 0,0 -7.5809,-2.33309 -13.3751,-3.05773 -4.3459,-0.47548 -8.0545,-0.50306 -12.381,-0.38087 z m 18.8769,48.45508 10.7012,8.78906 -10.3184,11.76953 -4.7382,0.0762 z m 37.4883,5.08203 -2.9414,12.4961 -8.9434,-4.05078 1.0704,-6.57227 z m -13.6426,2.33203 -0.7265,5.04297 -7.1446,-3.43945 z"
   transform="scale(0.26458333)"
   id="path80"
   inkscape:connector-curvature="0"
   sodipodi:nodetypes="cccccccccccccccccccccccccccccccccccccccccccccccccccccccsccccccccccccccccccccccccc" />

      </g>

    </g>
    <g
       transform="matrix(0.50538635,0,0,0.50538627,20.900851,194.72094)"
       inkscape:label="userexperiencefishbowl"
       id="layer24"
       style="display:inline">
      <path
         sodipodi:nodetypes="csccaaczacscazcsscc"
         inkscape:connector-curvature="0"
         id="path4771"
         d="m 202.86927,225.52421 c 0,0 2.80032,1.43767 7.0776,1.42214 4.00779,-0.0146 7.01313,-1.52537 7.01313,-1.52537 l -1.30805,-1.31891 c 0,0 3.73382,-2.46282 4.81211,-4.33255 1.14578,-1.98676 1.59542,-4.44446 1.4238,-6.73151 -0.20877,-2.78205 -2.93464,-7.83828 -2.93464,-7.83828 0,0 0.68438,-0.25563 0.89899,-0.57192 0.21461,-0.31629 0.1442,-0.66776 0.0496,-0.98133 -0.0911,-0.30187 -0.56224,-0.76068 -0.56224,-0.76068 0,0 -4.1029,1.87362 -9.75485,1.90972 -4.34604,0.0278 -9.73879,-2.04652 -9.73879,-2.04652 0,0 -0.46652,0.55459 -0.50544,0.89499 -0.0302,0.26433 0.0138,0.51073 0.22548,0.76566 0.21164,0.25494 1.0059,0.49408 1.0059,0.49408 0,0 -3.40924,4.29976 -3.54849,8.30649 -0.089,2.56138 0.40665,5.19902 1.98603,7.09864 1.28317,1.54336 5.03394,3.77668 5.03394,3.77668 z"
         style="fill:#000000;fill-opacity:1;stroke:none;stroke-width:0.264583px;stroke-linecap:butt;stroke-linejoin:miter;stroke-opacity:1" />
      <path
         sodipodi:nodetypes="cscsaaassac"
         inkscape:connector-curvature="0"
         id="path4769"
         d="m 201.95052,205.30103 c 0,0 4.23954,1.51625 7.96296,1.47331 3.7038,-0.0427 7.50694,-1.09914 7.50694,-1.09914 0,0 2.28076,3.94793 2.82971,6.057 0.56652,2.17654 0.11871,4.67757 -0.88867,6.68841 -0.86913,1.73487 -2.4706,3.11949 -4.16272,4.06918 -1.71139,0.96051 -3.74371,1.4418 -5.7062,1.44994 -1.70159,0.007 -3.43757,-0.45174 -4.95785,-1.21608 -1.95615,-0.98347 -3.80141,-2.3215 -5.00463,-4.30304 -1.11866,-1.84228 -1.32555,-4.5024 -0.93544,-6.73519 0.41379,-2.36835 3.3559,-6.38439 3.3559,-6.38439 z"
         style="fill:#ffffff;fill-opacity:1;stroke:none;stroke-width:0.264583px;stroke-linecap:butt;stroke-linejoin:miter;stroke-opacity:1" />
      <path
         sodipodi:nodetypes="zzzzzzczzzzzz"
         inkscape:connector-curvature="0"
         id="path4773"
         d="m 202.57161,214.01484 c 0.0518,-0.88105 2.69811,-1.56884 4.08451,-1.53789 1.3864,0.0309 3.27055,1.53573 3.55534,1.55442 0.28479,0.0187 0.54639,-0.65958 0.85162,-0.92604 0.30523,-0.26646 1.22205,-0.60367 1.31465,-0.52917 0.0926,0.0745 -0.23166,0.9582 -0.48783,1.28985 -0.25617,0.33165 -0.91777,0.69453 -0.91777,0.69453 0,0 0.63484,0.66209 0.77722,1.05006 0.14238,0.38797 0.28515,1.07823 0.14881,1.16582 -0.13634,0.0876 -0.82869,-0.25493 -1.09991,-0.59631 -0.27122,-0.34138 -0.31636,-1.08586 -0.63641,-1.0904 -0.32005,-0.005 -2.15577,0.85279 -3.53881,0.81028 -1.38303,-0.0425 -4.10324,-1.0041 -4.05142,-1.88515 z"
         style="fill:#000000;fill-opacity:1;stroke:none;stroke-width:0.264583px;stroke-linecap:butt;stroke-linejoin:miter;stroke-opacity:1" />
    </g>
    <g
       transform="matrix(0.68237827,0,0,0.68237822,-75.663381,326.07806)"
       inkscape:label="whatineedfromyou"
       id="layer19"
       style="display:inline">
      <g
         id="g5139">
        <path
           style="fill:#ffffff;fill-opacity:1;stroke:none;stroke-width:0.264583px;stroke-linecap:butt;stroke-linejoin:miter;stroke-opacity:1"
           d="m 303.22387,5.7474527 h 18.56888 V 24.316345 h -18.56888 z"
           id="path5135"
           inkscape:connector-curvature="0" />
        <path
           inkscape:connector-curvature="0"
           style="opacity:1;fill:#000505;fill-opacity:1;stroke:none;stroke-width:3.64724;stroke-linecap:round;stroke-miterlimit:4;stroke-dasharray:none;stroke-opacity:1"
           d="m 1146.043,21.722656 v 11.351563 c 0.4097,0.285785 15.568,10.842066 24.207,13.800781 1.6724,0.572772 3.5341,1.175121 5.25,0.75 2.5483,-0.631355 3.9506,-3.617729 6.375,-4.625 1.2082,-0.501982 2.5682,-0.561761 3.875,-0.625 3.2944,-0.15942 6.586,0.563119 9.875,0.316406 1.5729,-0.117959 5.1113,-0.779297 5.1113,-0.779297 0,0 0.034,1.794988 -0.2363,2.587891 -0.3133,0.920939 -1.1488,1.654233 -2,2.125 -2.6386,1.459317 -5.3641,0.537796 -8.125,1.75 -0.7096,0.311584 -2.25,1.4375 -2.25,1.4375 0,0 2.7386,3.52438 4.625,4.9375 2.4325,1.822212 5.3447,2.896067 8,4.375 2.8038,1.561674 5.1624,2.892139 8.375,4.75 1.9293,1.115724 2.1557,2.088392 1.75,3.25 -0.3137,0.898741 -1.2249,1.281972 -2.375,0.75 -4.608,-2.131313 -13.875,-6.375 -13.875,-6.375 l -0.5801,0.925781 c 0,0 9.1183,6.356011 14.2051,9.824219 1.1086,0.755864 2.3838,2.442367 1.75,3.625 -0.5762,1.075109 -2.6115,1.178735 -3.625,0.5 C 1202.2024,73.580655 1192.4414,67 1192.4414,67 l -0.8457,0.984375 c 0,0 7.5145,5.686576 12.0293,8.765625 1.1571,0.789169 2.4941,2.77665 1.625,3.875 -1.1009,1.391233 -3.8422,0.204584 -5.25,-0.875 -3.5878,-2.75122 -12.6777,-9.125 -12.6777,-9.125 L 1186.5,71.5 c 0,0 5.4799,5.043159 8.875,7.75 0.9272,0.739234 1.9412,2.514753 1.125,3.375 -1.0785,1.136629 -3.3344,-0.238829 -4.5312,-1.25 -3.6184,-3.056939 -6.1384,-5.807281 -9.8887,-7.816406 -1.6499,-0.883892 -4.0046,-1.864133 -5.6406,-2.773438 -1.6,-0.889255 -3.0659,-2.181985 -4.3887,-3.447265 -2.1296,-2.036954 -3.3251,-3.362978 -5.7715,-5.00586 -6.0737,-4.078742 -20.105,-8.772498 -20.2363,-8.816406 v 38.388672 h 70.1816 V 21.722656 Z"
           transform="scale(0.26458333)"
           id="rect5083" />
      </g>
    </g>
  </g>
</svg>
