<?xml version="1.0" encoding="UTF-8" standalone="no"?>
<svg
   width="74mm"
   height="105mm"
   viewBox="0 0 262.20472 372.04724"
   id="svg2"
   version="1.1"
   inkscape:version="1.3.2 (091e20e, 2023-11-25, custom)"
   sodipodi:docname="celebrity-interview-back.svg"
   enable-background="new"
   xmlns:inkscape="http://www.inkscape.org/namespaces/inkscape"
   xmlns:sodipodi="http://sodipodi.sourceforge.net/DTD/sodipodi-0.dtd"
   xmlns="http://www.w3.org/2000/svg"
   xmlns:svg="http://www.w3.org/2000/svg"
   xmlns:rdf="http://www.w3.org/1999/02/22-rdf-syntax-ns#"
   xmlns:cc="http://creativecommons.org/ns#"
   xmlns:dc="http://purl.org/dc/elements/1.1/">
  <defs
     id="defs4" />
  <sodipodi:namedview
     id="base"
     pagecolor="#ffffff"
     bordercolor="#666666"
     borderopacity="1.0"
     inkscape:pageopacity="1"
     inkscape:pageshadow="2"
     inkscape:zoom="2"
     inkscape:cx="88.25"
     inkscape:cy="191.25"
     inkscape:document-units="mm"
     inkscape:current-layer="layer7"
     showgrid="false"
     showguides="false"
     inkscape:guide-bbox="true"
     inkscape:snap-bbox="false"
     inkscape:bbox-nodes="true"
     inkscape:object-nodes="true"
     inkscape:snap-page="true"
     inkscape:snap-grids="false"
     inkscape:window-width="1920"
     inkscape:window-height="1017"
     inkscape:window-x="-8"
     inkscape:window-y="-8"
     inkscape:window-maximized="1"
     inkscape:snap-others="false"
     inkscape:snap-nodes="true"
     inkscape:showpageshadow="2"
     inkscape:pagecheckerboard="0"
     inkscape:deskcolor="#d1d1d1">
    <sodipodi:guide
       position="19.48819,143.57143"
       orientation="1,0"
       id="guide3342"
       inkscape:label=""
       inkscape:color="rgb(0,0,255)"
       inkscape:locked="false" />
    <sodipodi:guide
       position="242.71654,160.71429"
       orientation="1,0"
       id="guide3344"
       inkscape:label=""
       inkscape:color="rgb(0,0,255)"
       inkscape:locked="false" />
    <sodipodi:guide
       position="100.71429,10.629921"
       orientation="0,1"
       id="guide3346"
       inkscape:label=""
       inkscape:color="rgb(0,0,255)"
       inkscape:locked="false" />
    <sodipodi:guide
       position="75.714288,361.41732"
       orientation="0,1"
       id="guide3348"
       inkscape:label=""
       inkscape:color="rgb(0,0,255)"
       inkscape:locked="false" />
    <sodipodi:guide
       position="242.71654,289.15617"
       orientation="1,0"
       id="guide4173"
       inkscape:locked="false" />
    <sodipodi:guide
       position="-54.642858,21.259842"
       orientation="0,1"
       id="guide4176"
       inkscape:label=""
       inkscape:color="rgb(0,0,255)"
       inkscape:locked="false" />
    <sodipodi:guide
       position="0,350.7874"
       orientation="0,1"
       id="guide4178"
       inkscape:label=""
       inkscape:color="rgb(0,0,255)"
       inkscape:locked="false" />
    <sodipodi:guide
       position="30.118111,388.21428"
       orientation="1,0"
       id="guide4180"
       inkscape:label=""
       inkscape:color="rgb(0,0,255)"
       inkscape:locked="false" />
    <sodipodi:guide
       position="232.08662,385.71428"
       orientation="1,0"
       id="guide4182"
       inkscape:label=""
       inkscape:color="rgb(0,0,255)"
       inkscape:locked="false" />
    <sodipodi:guide
       position="40.748033,260.35714"
       orientation="1,0"
       id="guide4252"
       inkscape:label=""
       inkscape:color="rgb(0,0,255)"
       inkscape:locked="false" />
    <sodipodi:guide
       position="221.4567,323.92857"
       orientation="1,0"
       id="guide4254"
       inkscape:label=""
       inkscape:color="rgb(0,0,255)"
       inkscape:locked="false" />
    <sodipodi:guide
       position="-107.14286,340.15748"
       orientation="0,1"
       id="guide4256"
       inkscape:label=""
       inkscape:color="rgb(0,0,255)"
       inkscape:locked="false" />
    <sodipodi:guide
       position="-111.42857,31.889764"
       orientation="0,1"
       id="guide4258"
       inkscape:label=""
       inkscape:color="rgb(0,0,255)"
       inkscape:locked="false" />
    <sodipodi:guide
       position="-60.356616,308.26772"
       orientation="0,1"
       id="guide4262"
       inkscape:label=""
       inkscape:color="rgb(0,0,255)"
       inkscape:locked="false" />
    <sodipodi:guide
       position="-56.063468,297.63779"
       orientation="0,1"
       id="guide4269"
       inkscape:label=""
       inkscape:color="rgb(0,0,255)"
       inkscape:locked="false" />
    <sodipodi:guide
       position="93.897641,308.6016"
       orientation="1,0"
       id="guide4271"
       inkscape:label=""
       inkscape:color="rgb(0,0,255)"
       inkscape:locked="false" />
    <sodipodi:guide
       position="99.212601,340.15748"
       orientation="1,0"
       id="guide4273"
       inkscape:label=""
       inkscape:color="rgb(0,0,255)"
       inkscape:locked="false" />
    <sodipodi:guide
       position="-60.500002,279.92126"
       orientation="0,1"
       id="guide4303"
       inkscape:label=""
       inkscape:color="rgb(0,0,255)"
       inkscape:locked="false" />
    <sodipodi:guide
       position="-102.5,269.29134"
       orientation="0,1"
       id="guide4314"
       inkscape:label=""
       inkscape:color="rgb(0,0,255)"
       inkscape:locked="false" />
    <sodipodi:guide
       position="194.8819,223.95843"
       orientation="1,0"
       id="guide4201"
       inkscape:label=""
       inkscape:color="rgb(0,0,255)"
       inkscape:locked="false" />
    <sodipodi:guide
       position="184.25197,197.75"
       orientation="1,0"
       id="guide4243"
       inkscape:label=""
       inkscape:color="rgb(0,0,255)"
       inkscape:locked="false" />
    <sodipodi:guide
       position="68.74219,102.76562"
       orientation="0,1"
       id="guide4308"
       inkscape:locked="false" />
    <inkscape:grid
       id="grid1"
       units="mm"
       originx="0"
       originy="0"
       spacingx="3.5433072"
       spacingy="3.543307"
       empcolor="#0099e5"
       empopacity="0.30196078"
       color="#0099e5"
       opacity="0.14901961"
       empspacing="5"
       dotted="false"
       gridanglex="30"
       gridanglez="30"
       visible="false" />
  </sodipodi:namedview>
  <metadata
     id="metadata7">
    <rdf:RDF>
      <cc:Work
         rdf:about="">
        <dc:format>image/svg+xml</dc:format>
        <dc:type
           rdf:resource="http://purl.org/dc/dcmitype/StillImage" />
        <dc:title />
      </cc:Work>
    </rdf:RDF>
  </metadata>
  <g
     inkscape:label="Cut line"
     inkscape:groupmode="layer"
     id="layer1"
     transform="translate(0,-680.31496)"
     style="display:inline"
     sodipodi:insensitive="true">
    <path
       style="fill:none;fill-rule:evenodd;stroke:#808080;stroke-width:0.708661;stroke-linecap:butt;stroke-linejoin:miter;stroke-miterlimit:4;stroke-dasharray:2.83465, 2.83465;stroke-dashoffset:0;stroke-opacity:1"
       d="M 19.488189,690.94488 V 1041.7323 H 242.71653 V 690.94488 Z"
       id="path3350"
       inkscape:connector-curvature="0" />
  </g>
  <g
     inkscape:groupmode="layer"
     id="layer2"
     inkscape:label="Top Separator"
     style="display:inline"
     sodipodi:insensitive="true">
    <path
       inkscape:connector-curvature="0"
       style="fill:none;fill-opacity:1;stroke:none;stroke-width:0.708661;stroke-miterlimit:4;stroke-dasharray:2.83465, 2.83465;stroke-dashoffset:0;stroke-opacity:1"
       d="m 42.883734,21.259066 c -7.071438,0 -12.765624,6.544709 -12.765624,14.673828 V 74.409453 H 232.08685 V 35.932894 c 0,-8.129119 -5.69224,-14.673828 -12.76367,-14.673828 z"
       id="rect4195-3" />
  </g>
  <g
     inkscape:groupmode="layer"
     id="layer8"
     inkscape:label="Separator"
     style="display:inline"
     sodipodi:insensitive="true">
    <rect
       style="display:inline;fill:#37abc8;fill-opacity:1;stroke:none;stroke-width:1;stroke-miterlimit:4;stroke-dasharray:none;stroke-dashoffset:0;stroke-opacity:1"
       id="rect4178"
       width="134.64568"
       height="17.716536"
       x="30.118084"
       y="74.409447" />
    <text
       xml:space="preserve"
       style="font-style:normal;font-weight:normal;line-height:0%;font-family:sans-serif;letter-spacing:0px;word-spacing:0px;display:inline;fill:#000000;fill-opacity:1;stroke:none;stroke-width:1px;stroke-linecap:butt;stroke-linejoin:miter;stroke-opacity:1"
       x="39.935017"
       y="87.861458"
       id="text4180"><tspan
         sodipodi:role="line"
         id="tspan4182"
         x="39.935017"
         y="87.861458"
         style="font-style:normal;font-variant:normal;font-weight:bold;font-stretch:normal;font-size:12.5px;line-height:1.25;font-family:Lato;-inkscape-font-specification:'Lato Bold';fill:#ffffff">Partagé</tspan></text>
    <rect
       y="74.409447"
       x="164.76376"
       height="17.716536"
       width="67.322838"
       id="rect4191"
       style="display:inline;fill:#e6e6e6;fill-opacity:1;stroke:none;stroke-width:1;stroke-miterlimit:4;stroke-dasharray:none;stroke-dashoffset:0;stroke-opacity:1" />
    <text
       xml:space="preserve"
       style="font-style:normal;font-weight:normal;line-height:0%;font-family:sans-serif;letter-spacing:0px;word-spacing:0px;fill:#1a1a1a;fill-opacity:1;stroke:none;stroke-width:1px;stroke-linecap:butt;stroke-linejoin:miter;stroke-opacity:1"
       x="184.26756"
       y="87.789589"
       id="text4193"><tspan
         sodipodi:role="line"
         id="tspan4195"
         x="184.26756"
         y="87.789589"
         style="font-style:normal;font-variant:normal;font-weight:500;font-stretch:normal;font-size:12.5px;line-height:1.25;font-family:Lato;-inkscape-font-specification:'Lato Medium';fill:#1a1a1a">45 min</tspan></text>
  </g>
  <g
     inkscape:groupmode="layer"
     id="layer7"
     inkscape:label="Title"
     sodipodi:insensitive="true">
    <path
       style="fill:none;fill-rule:evenodd;stroke:none;stroke-width:1px;stroke-linecap:butt;stroke-linejoin:miter;stroke-opacity:1"
       d="m 99.212598,31.889763 v 31.88976 H 221.45669 v -31.88976 z"
       id="path4300_cib"
       inkscape:connector-curvature="0" />
    <text
       xml:space="preserve"
       style="font-style:normal;font-weight:normal;line-height:0.01%;font-family:sans-serif;text-align:start;letter-spacing:0px;word-spacing:0px;text-anchor:start;fill:#000000;fill-opacity:1;stroke:none;stroke-width:1px;stroke-linecap:butt;stroke-linejoin:miter;stroke-opacity:1"
       x="-3.3187256"
       y="49.843033"
       id="text62"><tspan
         sodipodi:role="line"
         x="108.68384"
         y="49.843033"
         id="tspan62"><tspan
           x="108.68384"
           y="49.843033"
           style="font-weight:bold;font-size:13.375px;line-height:1.25;font-family:Roboto;-inkscape-font-specification:'Roboto Bold';text-align:start;text-anchor:start"
           id="tspan61">Celebrity Interview</tspan></tspan></text>
  </g>
  <g
     inkscape:groupmode="layer"
     id="layer6"
     inkscape:label="Logo"
     style="display:inline"
     sodipodi:insensitive="true">
    <path
       style="fill:none;fill-rule:evenodd;stroke:none;stroke-width:1px;stroke-linecap:butt;stroke-linejoin:miter;stroke-opacity:1"
       d="m 40.748032,31.889763 v 31.88976 h 53.149606 v -31.88976 z"
       id="path4213"
       inkscape:connector-curvature="0" />
    <g
       transform="matrix(0.86479409,0,0,0.86479405,-174.88242,-91.822751)"
       inkscape:label="celebrityinterview"
       id="layer30">
      <g
         id="g4809">
        <path
           style="fill:#000000;fill-opacity:1;stroke:none;stroke-width:0.264583px;stroke-linecap:butt;stroke-linejoin:miter;stroke-opacity:1"
           d="m 261.59673,145.64312 c 0,0 2.43002,-1.25458 5.75298,-1.96443 3.65718,-0.78124 6.361,-0.60804 6.361,-0.60804 0,0 0.77965,4.53801 0.98222,6.82874 0.20474,2.31529 0.23386,6.96905 0.23386,6.96905 l 3.97563,2.94665 c 0,0 0.50012,7.41725 0.51451,11.13177 0.005,1.21697 -0.14031,3.64823 -0.14031,3.64823 l -0.70159,-0.3274 c 0,0 -0.41625,-1.64075 -0.51449,-2.47893 -0.37946,-3.23764 -0.49111,-9.77538 -0.49111,-9.77538 l -2.08138,0.14032 0.0468,3.88209 -0.42095,1.7197 -0.67937,-1.08046 -0.069,-4.38102 -6.82874,1.3564 c 0,0 -0.39058,7.91429 -0.93543,11.83335 -0.0985,0.70866 -0.42095,2.10475 -0.42095,2.10475 l -0.56126,-0.18709 c 0,0 -0.36695,-3.83127 -0.3742,-5.75297 -0.0102,-2.71724 0.46773,-8.13836 0.46773,-8.13836 l -1.73057,-3.695 c 0,0 -0.19135,3.78173 -0.42095,5.65943 -0.15741,1.28735 -0.65481,3.83532 -0.65481,3.83532 h -0.60804 c 0,0 -0.15147,-2.96154 -0.14031,-4.44336 0.0176,-2.34109 0.28989,-4.67497 0.3274,-7.01582 0.0342,-2.13588 0.0675,-4.27771 -0.0935,-6.40779 -0.14704,-1.94579 -0.79521,-5.79975 -0.79521,-5.79975 z"
           id="path4803"
           inkscape:connector-curvature="0"
           sodipodi:nodetypes="cscsccsccscccccccsccsccsccssscc" />
        <path
           style="fill:#000000;fill-opacity:1;stroke:none;stroke-width:0.264583px;stroke-linecap:butt;stroke-linejoin:miter;stroke-opacity:1"
           d="m 262.87328,163.52448 -0.90237,9.7e-4 c -3.15656,0.4577 -5.36168,0.90541 -8.16175,2.25309 -2.01897,0.97173 -4.3857,2.72816 -4.4639,4.94817 -0.0815,2.31401 2.17877,4.55363 4.27847,5.47234 3.24505,1.41984 6.29233,2.22267 9.5609,2.82002 3.78415,0.69158 7.66604,1.04872 11.5083,0.86128 3.9989,-0.19508 8.08329,-0.65572 11.83335,-2.05798 1.6379,-0.61246 3.32144,-1.41202 4.49014,-2.71278 1.12112,-1.2478 2.26627,-2.57324 2.12813,-4.56029 -0.15789,-2.27098 -3.22955,-3.50054 -5.30865,-4.18611 -3.16047,-1.04215 -6.20096,-1.37807 -9.35443,-1.68379 -2.553,-0.24751 -5.13599,-0.30544 -7.69402,-0.11694 -2.8365,0.20902 -5.93662,1.01906 -9.23749,2.50232 -1.64925,0.7411 -3.9024,1.80158 -3.81194,3.5313 0.10121,1.93528 2.84865,2.91334 4.65383,3.48452 3.45847,1.0943 6.6961,1.65351 10.14957,1.70718 3.75212,0.0583 7.78698,0.018 11.06161,-1.77734 1.24429,-0.6822 3.03349,-1.77618 2.82971,-3.18051 -0.22925,-1.57988 -2.46172,-2.13596 -4.06916,-2.52569 -2.76893,-0.67133 -5.79473,-0.67865 -8.69962,-0.58465 -1.55527,0.0503 -3.71325,0.49963 -5.03438,0.93828 -0.89675,0.29774 -2.08675,0.81356 -2.14585,1.73057 -0.0475,0.73717 0.76295,1.36419 1.53215,1.60111 1.23789,0.38128 3.65612,0.46987 5.58426,0.3685 1.72925,-0.0909 3.51403,-0.45315 4.89035,-1.32147 l -0.0662,-0.47955 c -2.1774,0.51454 -3.11809,0.71633 -4.7129,0.82682 -1.79022,0.12403 -5.24349,-0.34136 -5.27513,-1.07487 -0.0442,-1.02419 3.62004,-1.51502 5.29167,-1.52136 2.25556,-0.009 4.35726,0.1443 6.49883,0.51263 1.47743,0.2541 3.77427,0.75832 3.81992,2.23242 0.0463,1.49425 -2.0383,1.98954 -3.72472,2.49818 -2.24304,0.67652 -4.64909,0.7961 -6.9909,0.72643 -2.98731,-0.0889 -6.05662,-0.38486 -8.84701,-1.4552 -1.69888,-0.65166 -4.53426,-1.125 -4.59713,-2.94349 -0.0626,-1.81133 2.67603,-2.58528 4.36562,-3.24115 3.33032,-1.29277 5.84618,-1.39762 8.83047,-1.52135 2.97119,-0.12319 5.94775,0.33476 8.88693,0.78171 2.8506,0.43347 5.19244,1.14478 7.40999,2.62646 1.66848,1.11481 1.97114,2.26414 0.67917,4.38735 -1.41497,2.32535 -3.53611,3.22096 -5.76437,3.91229 -3.34297,1.03717 -9.3874,1.51867 -14.08906,1.19062 -4.81024,-0.33563 -10.41223,-1.42875 -14.1056,-3.20807 -1.89984,-0.91527 -4.36673,-2.39555 -4.41523,-4.53099 -0.0435,-1.91475 1.44745,-2.98295 2.74504,-3.9026 2.39035,-1.69412 6.82156,-2.03323 8.4584,-2.38952 z"
           id="path4805"
           inkscape:connector-curvature="0"
           sodipodi:nodetypes="ccsasaaaassassassaasssassccssssasaaasassssassacc" />
      </g>
    </g>
  </g>
  <g
     inkscape:groupmode="layer"
     id="layer5"
     inkscape:label="Border"
     style="display:inline"
     sodipodi:insensitive="true">
    <rect
       style="fill:none;fill-opacity:1;stroke:#000000;stroke-width:0.354331;stroke-miterlimit:4;stroke-dasharray:none;stroke-dashoffset:0;stroke-opacity:1"
       id="rect4187"
       width="201.96851"
       height="329.52756"
       x="30.118111"
       y="21.259844"
       ry="14.6735"
       rx="12.76433" />
  </g>
  <g
     inkscape:groupmode="layer"
     id="layer9"
     inkscape:label="Body"
     sodipodi:insensitive="true">
    <path
       style="fill:none;fill-rule:evenodd;stroke:none;stroke-width:1.0517px;stroke-linecap:butt;stroke-linejoin:miter;stroke-opacity:1"
       d="M 33.716782,96.66215 V 340.15748 H 188.47071 V 96.66215 H 33.716782"
       id="pathcib4245"
       inkscape:connector-curvature="0" />
    <text
       xml:space="preserve"
       style="font-style:normal;font-weight:normal;line-height:0.85;font-family:sans-serif;letter-spacing:0px;word-spacing:0px;fill:#000000;fill-opacity:1;stroke:none;stroke-width:1px;stroke-linecap:butt;stroke-linejoin:miter;stroke-opacity:1"
       x="33.716797"
       y="105.18061"
       id="text60"><tspan
         sodipodi:role="line"
         x="33.716797"
         y="105.18061"
         id="tspan20"><tspan
           x="33.716797"
           y="105.18061"
           style="font-weight:bold;font-size:8.75px;font-family:Roboto;-inkscape-font-specification:'Roboto Bold';fill:#999999"
           id="tspan18">Etapes</tspan><tspan
           dx="4.4989014"
           style="font-weight:bold;font-size:8.75px;font-family:Roboto;-inkscape-font-specification:'Roboto Bold';fill:#999999"
           id="tspan19" /></tspan><tspan
         sodipodi:role="line"
         x="33.716797"
         y="115.38061"
         id="tspan22"><tspan
           x="33.716797"
           style="font-size:8.75px;font-family:Lato;-inkscape-font-specification:Lato;fill:#1a1a1a"
           id="tspan21">L'intervieweur accueille et présente la </tspan></tspan><tspan
         sodipodi:role="line"
         x="33.716797"
         y="125.58061"
         id="tspan25"><tspan
           x="33.716797"
           style="font-size:8.75px;font-family:Lato;-inkscape-font-specification:Lato;fill:#1a1a1a"
           id="tspan23">célébrité et le sujet à aborder.</tspan><tspan
           dx="1.8550034"
           style="font-size:8.75px;font-family:Lato;-inkscape-font-specification:Lato;fill:#1a1a1a"
           id="tspan24" /></tspan><tspan
         sodipodi:role="line"
         x="33.716797"
         y="135.78059"
         id="tspan28"><tspan
           x="33.716797"
           style="font-size:8.75px;font-family:Lato;-inkscape-font-specification:Lato;fill:#1a1a1a"
           id="tspan26"> </tspan><tspan
           dx="1.6887569"
           style="font-size:8.75px;font-family:Lato;-inkscape-font-specification:Lato;fill:#1a1a1a"
           id="tspan27" /></tspan><tspan
         sodipodi:role="line"
         x="33.716797"
         y="145.98061"
         id="tspan30"><tspan
           x="33.716797"
           style="font-size:8.75px;font-family:Lato;-inkscape-font-specification:Lato;fill:#1a1a1a"
           id="tspan29">L'intervieweur pose des questions que le </tspan></tspan><tspan
         sodipodi:role="line"
         x="33.716797"
         y="156.1806"
         id="tspan33"><tspan
           x="33.716797"
           style="font-size:8.75px;font-family:Lato;-inkscape-font-specification:Lato;fill:#1a1a1a"
           id="tspan31">public est censé poser.</tspan><tspan
           dx="1.8549957"
           style="font-size:8.75px;font-family:Lato;-inkscape-font-specification:Lato;fill:#1a1a1a"
           id="tspan32" /></tspan><tspan
         sodipodi:role="line"
         x="33.716797"
         y="166.38058"
         id="tspan36"><tspan
           x="33.716797"
           style="font-size:8.75px;font-family:Lato;-inkscape-font-specification:Lato;fill:#1a1a1a"
           id="tspan34"> </tspan><tspan
           dx="1.6887569"
           style="font-size:8.75px;font-family:Lato;-inkscape-font-specification:Lato;fill:#1a1a1a"
           id="tspan35" /></tspan><tspan
         sodipodi:role="line"
         x="33.716797"
         y="176.5806"
         id="tspan38"><tspan
           x="33.716797"
           style="font-size:8.75px;font-family:Lato;-inkscape-font-specification:Lato;fill:#1a1a1a"
           id="tspan37">Les participants génèrent des questions </tspan></tspan><tspan
         sodipodi:role="line"
         x="33.716797"
         y="186.78059"
         id="tspan40"><tspan
           x="33.716797"
           style="font-size:8.75px;font-family:Lato;-inkscape-font-specification:Lato;fill:#1a1a1a"
           id="tspan39">supplémentaires dans une conversation </tspan></tspan><tspan
         sodipodi:role="line"
         x="33.716797"
         y="196.98058"
         id="tspan43"><tspan
           x="33.716797"
           style="font-size:8.75px;font-family:Lato;-inkscape-font-specification:Lato;fill:#1a1a1a"
           id="tspan41">1-2-4 et les écrivent sur des cartes.</tspan><tspan
           dx="1.8549957"
           style="font-size:8.75px;font-family:Lato;-inkscape-font-specification:Lato;fill:#1a1a1a"
           id="tspan42" /></tspan><tspan
         sodipodi:role="line"
         x="33.716797"
         y="207.18057"
         id="tspan46"><tspan
           x="33.716797"
           style="font-size:8.75px;font-family:Lato;-inkscape-font-specification:Lato;fill:#1a1a1a"
           id="tspan44"> </tspan><tspan
           dx="1.6887569"
           style="font-size:8.75px;font-family:Lato;-inkscape-font-specification:Lato;fill:#1a1a1a"
           id="tspan45" /></tspan><tspan
         sodipodi:role="line"
         x="33.716797"
         y="217.38058"
         id="tspan48"><tspan
           x="33.716797"
           style="font-size:8.75px;font-family:Lato;-inkscape-font-specification:Lato;fill:#1a1a1a"
           id="tspan47">L'enquêteur passe en revue les cartes, </tspan></tspan><tspan
         sodipodi:role="line"
         x="33.716797"
         y="227.58058"
         id="tspan50"><tspan
           x="33.716797"
           style="font-size:8.75px;font-family:Lato;-inkscape-font-specification:Lato;fill:#1a1a1a"
           id="tspan49">cherche des modèles et pose des </tspan></tspan><tspan
         sodipodi:role="line"
         x="33.716797"
         y="237.78056"
         id="tspan53"><tspan
           x="33.716797"
           style="font-size:8.75px;font-family:Lato;-inkscape-font-specification:Lato;fill:#1a1a1a"
           id="tspan51">questions supplémentaires à la célébrité.</tspan><tspan
           dx="1.8549957"
           style="font-size:8.75px;font-family:Lato;-inkscape-font-specification:Lato;fill:#1a1a1a"
           id="tspan52" /></tspan><tspan
         sodipodi:role="line"
         x="33.716797"
         y="247.98058"
         id="tspan56"><tspan
           x="33.716797"
           style="font-size:8.75px;font-family:Lato;-inkscape-font-specification:Lato;fill:#1a1a1a"
           id="tspan54"> </tspan><tspan
           dx="1.6887569"
           style="font-size:8.75px;font-family:Lato;-inkscape-font-specification:Lato;fill:#1a1a1a"
           id="tspan55" /></tspan><tspan
         sodipodi:role="line"
         x="33.716797"
         y="258.18057"
         id="tspan58"><tspan
           x="33.716797"
           style="font-size:8.75px;font-family:Lato;-inkscape-font-specification:Lato;fill:#1a1a1a"
           id="tspan57">L'intervieweur fait des commentaires </tspan></tspan><tspan
         sodipodi:role="line"
         x="33.716797"
         y="268.38055"
         id="tspan60"><tspan
           x="33.716797"
           style="font-size:8.75px;font-family:Lato;-inkscape-font-specification:Lato;fill:#1a1a1a"
           id="tspan59">finaux et remercie la célébrité.</tspan></tspan></text>
  </g>
  <g
     inkscape:groupmode="layer"
     id="layer4"
     inkscape:label="Body Right"
     style="display:inline"
     sodipodi:insensitive="true">
    <text
       id="text4227"
       y="117.12352"
       x="207.99702"
       style="font-style:normal;font-weight:normal;line-height:0%;font-family:sans-serif;letter-spacing:0px;word-spacing:0px;fill:#1a1a1a;fill-opacity:1;stroke:none;stroke-width:1px;stroke-linecap:butt;stroke-linejoin:miter;stroke-opacity:1"
       xml:space="preserve"><tspan
         style="font-style:normal;font-variant:normal;font-weight:500;font-stretch:normal;font-size:8.75px;line-height:1.25;font-family:Lato;-inkscape-font-specification:'Lato Medium';fill:#1a1a1a"
         y="117.12352"
         x="207.99702"
         id="tspan4229"
         sodipodi:role="line">3 min</tspan></text>
    <text
       id="text4231"
       y="146.13152"
       x="189.5229"
       style="font-style:normal;font-weight:normal;line-height:0%;font-family:sans-serif;letter-spacing:0px;word-spacing:0px;fill:#1a1a1a;fill-opacity:1;stroke:none;stroke-width:1px;stroke-linecap:butt;stroke-linejoin:miter;stroke-opacity:1"
       xml:space="preserve"><tspan
         style="font-style:normal;font-variant:normal;font-weight:500;font-stretch:normal;font-size:8.75px;line-height:1.25;font-family:Lato;-inkscape-font-specification:'Lato Medium';fill:#1a1a1a"
         y="146.13152"
         x="189.5229"
         id="tspan4233"
         sodipodi:role="line">15-30 min</tspan></text>
    <path
       style="fill:none;fill-rule:evenodd;stroke:none;stroke-width:1px;stroke-linecap:butt;stroke-linejoin:miter;stroke-opacity:1"
       d="m 194.88189,102.7559 v 237.40158 h 26.5748 V 102.7559 Z"
       id="path4239"
       inkscape:connector-curvature="0" />
    <text
       xml:space="preserve"
       style="font-style:normal;font-weight:normal;line-height:0%;font-family:sans-serif;letter-spacing:0px;word-spacing:0px;fill:#1a1a1a;fill-opacity:1;stroke:none;stroke-width:1px;stroke-linecap:butt;stroke-linejoin:miter;stroke-opacity:1"
       x="196.47359"
       y="177.13698"
       id="text4296"><tspan
         sodipodi:role="line"
         id="tspan4298"
         x="196.47359"
         y="177.13698"
         style="font-style:normal;font-variant:normal;font-weight:500;font-stretch:normal;font-size:8.75px;line-height:1.25;font-family:Lato;-inkscape-font-specification:'Lato Medium';fill:#1a1a1a">5-10 min</tspan></text>
    <text
       id="text4300"
       y="218.98129"
       x="194.59859"
       style="font-style:normal;font-weight:normal;line-height:0%;font-family:sans-serif;letter-spacing:0px;word-spacing:0px;fill:#1a1a1a;fill-opacity:1;stroke:none;stroke-width:1px;stroke-linecap:butt;stroke-linejoin:miter;stroke-opacity:1"
       xml:space="preserve"><tspan
         style="font-style:normal;font-variant:normal;font-weight:500;font-stretch:normal;font-size:8.75px;line-height:1.25;font-family:Lato;-inkscape-font-specification:'Lato Medium';fill:#1a1a1a"
         y="218.98129"
         x="194.59859"
         id="tspan4302"
         sodipodi:role="line">5-10 min</tspan></text>
    <text
       xml:space="preserve"
       style="font-style:normal;font-weight:normal;line-height:0%;font-family:sans-serif;letter-spacing:0px;word-spacing:0px;fill:#1a1a1a;fill-opacity:1;stroke:none;stroke-width:1px;stroke-linecap:butt;stroke-linejoin:miter;stroke-opacity:1"
       x="206.12202"
       y="258.89517"
       id="text4304"><tspan
         sodipodi:role="line"
         id="tspan4306"
         x="206.12202"
         y="258.89517"
         style="font-style:normal;font-variant:normal;font-weight:500;font-stretch:normal;font-size:8.75px;line-height:1.25;font-family:Lato;-inkscape-font-specification:'Lato Medium';fill:#1a1a1a">1 min</tspan></text>
  </g>
  <g
     inkscape:groupmode="layer"
     id="layer10"
     inkscape:label="String With"
     style="display:inline"
     transform="translate(0,-5.625)"
     sodipodi:insensitive="true">
    <path
       style="fill:none;fill-rule:evenodd;stroke:none;stroke-width:1px;stroke-linecap:butt;stroke-linejoin:miter;stroke-opacity:1"
       d="m 40.748032,269.28162 v 70.87586 H 221.45669 v -70.87586 z"
       id="path4343_cib"
       inkscape:connector-curvature="0" />
    <text
       xml:space="preserve"
       style="font-style:normal;font-weight:normal;line-height:0.01%;font-family:sans-serif;letter-spacing:0px;word-spacing:0px;fill:#000000;fill-opacity:1;stroke:none;stroke-width:1px;stroke-linecap:butt;stroke-linejoin:miter;stroke-opacity:1"
       x="35.123047"
       y="294.71875"
       id="text17"><tspan
         sodipodi:role="line"
         x="35.123047"
         y="294.71875"
         id="tspan3"><tspan
           x="35.123047"
           y="294.71875"
           style="font-weight:bold;font-size:8.75px;line-height:1.25;font-family:Roboto;-inkscape-font-specification:'Roboto Bold';fill:#999999"
           id="tspan1">Fonctionne avec</tspan><tspan
           dx="0"
           x="99.457764"
           y="294.71875"
           style="font-weight:bold;font-size:8.75px;line-height:1.25;font-family:Roboto;-inkscape-font-specification:'Roboto Bold';fill:#999999"
           id="tspan2" /></tspan><tspan
         sodipodi:role="line"
         x="35.123047"
         y="306.13751"
         id="tspan6"><tspan
           x="35.123047"
           y="306.13751"
           style="font-size:8.75px;line-height:1.25;font-family:Lato;-inkscape-font-specification:Lato;fill:#1a1a1a"
           id="tspan4">Expérience Utilisateur        </tspan><tspan
           dx="0"
           x="133.9631"
           y="306.13751"
           style="font-size:8.75px;line-height:1.25;font-family:Lato;-inkscape-font-specification:Lato;fill:#1a1a1a"
           id="tspan5" /></tspan><tspan
         sodipodi:role="line"
         x="35.123047"
         y="317.07501"
         id="tspan9"><tspan
           x="35.123047"
           y="317.07501"
           style="font-size:8.75px;line-height:1.25;font-family:Lato;-inkscape-font-specification:Lato;fill:#1a1a1a"
           id="tspan7">Open Space Technologie           </tspan><tspan
           dx="0"
           x="146.82567"
           y="317.07501"
           style="font-size:8.75px;line-height:1.25;font-family:Lato;-inkscape-font-specification:Lato;fill:#1a1a1a"
           id="tspan8" /></tspan><tspan
         sodipodi:role="line"
         x="35.123047"
         y="328.01251"
         id="tspan12"><tspan
           x="35.123047"
           y="328.01251"
           style="font-size:8.75px;line-height:1.25;font-family:Lato;-inkscape-font-specification:Lato;fill:#1a1a1a"
           id="tspan10">Dialogue sur la Découverte et l'Action</tspan><tspan
           dx="0"
           x="178.61433"
           y="328.01251"
           style="font-size:8.75px;line-height:1.25;font-family:Lato;-inkscape-font-specification:Lato;fill:#1a1a1a"
           id="tspan11" /></tspan><tspan
         sodipodi:role="line"
         x="35.123047"
         y="338.95001"
         id="tspan15"><tspan
           x="35.123047"
           y="338.95001"
           style="font-size:8.75px;line-height:1.25;font-family:Lato;-inkscape-font-specification:Lato;fill:#1a1a1a"
           id="tspan13">Ce que j'Attends de Vous </tspan><tspan
           dx="0"
           x="130.98807"
           y="338.95001"
           style="font-size:8.75px;line-height:1.25;font-family:Lato;-inkscape-font-specification:Lato;fill:#1a1a1a"
           id="tspan14" /></tspan><tspan
         sodipodi:role="line"
         x="35.123047"
         y="349.88751"
         id="tspan17"><tspan
           x="35.123047"
           y="349.88751"
           style="font-size:8.75px;line-height:1.25;font-family:Lato;-inkscape-font-specification:Lato;fill:#1a1a1a"
           id="tspan16"> </tspan></tspan></text>
    <g
       transform="matrix(0.33732443,0,0,0.33732446,29.150979,295.88077)"
       inkscape:label="openspace"
       id="g81"
       style="display:inline;enable-background:new">
      <g
         id="g80">
        <path
           inkscape:connector-curvature="0"
           style="fill:#000000;fill-opacity:1;stroke:none;stroke-width:1px;stroke-linecap:butt;stroke-linejoin:miter;stroke-opacity:1"
           d="m 1221.8535,145.94336 c -2.3868,-0.004 -5.5643,0.0428 -8.7265,0.23828 -7.041,0.43519 -13.3516,2.11133 -13.3516,2.11133 0,0 0.1555,17.26572 -0.6973,25.83984 -0.294,2.95632 -1.5195,8.78321 -1.5195,8.78321 l -15.8203,-2.3711 -4.9688,-26.5957 c 0,0 -4.1468,1.11108 -9.7597,3.94726 -5.6518,2.85579 -8.3536,5.37696 -8.3536,5.37696 0,0 4.399,8.63623 4.3575,15.20898 -0.05,7.74637 -0.076,23.69336 -0.076,23.69336 0,0 -2.1358,1.16996 -4.8965,1.69336 -2.8818,0.54637 -4.4277,0.2168 -4.4277,0.2168 l -5.9629,-24.91602 c 0,0 -2.5478,0.20915 -5.5332,2.57227 -2.9038,2.29854 -3.4082,4.76562 -3.4082,4.76562 l 6.7265,14.13867 c 0,0 4.7894,11.07526 5.043,12.6875 0.3096,1.96703 -0.8398,21.93555 -0.8398,21.93555 l 2.4453,1.14649 0.5215,-15.22266 1.3886,0.85352 -0.457,27.58984 1.5274,2.98047 1.7578,0.0762 0.4589,-28.50781 11.0821,-2.67383 -1.9492,45.50586 1.5136,0.43359 3.836,-27.61719 23.1308,9.56641 0.2168,30.37305 1.6739,0.0527 1.3515,-30.04687 16.4297,-13.02539 -0.3789,26.42773 1.4063,-0.0547 1.0253,-4.80859 0.9727,-27.83398 -21.1797,-6.67969 -0.076,-9.70703 -9.0195,-3.51563 -4.3555,-12.38086 13.2227,-9.0957 -0.3828,21.85937 2.0644,0.15235 v -3.82227 l 2.1387,-4.89062 0.8418,-20.02344 4.5859,5.42578 -0.1543,22.08789 2.9825,-4.35742 0.5019,-16.32813 11.8789,-3.16015 v 6.57226 l 1.1465,2.67579 2.1387,0.6875 0.2304,-10.92969 7.7188,-2.0625 -1.7578,26.06054 1.6055,0.23047 1.375,-3.66797 2.0644,-23.92382 -9.5547,-8.78907 L 1225.8379,146 c 0,0 -1.5976,-0.0529 -3.9844,-0.0566 z m -55.9805,47.8457 12.375,4.05469 -12.4296,3.67383 z"
           transform="scale(0.26458333)"
           id="path79" />
        <path
           style="fill:#000000;fill-opacity:1;stroke:none;stroke-width:1px;stroke-linecap:butt;stroke-linejoin:miter;stroke-opacity:1"
           d="m 1253.0469,148.06445 -3.5157,24.99219 c 0,0 -3.0154,2.96061 -4.6621,4.2793 -2.2286,1.78472 -7.0312,4.89062 -7.0312,4.89062 l -1.1465,26.98047 2.1387,0.22852 1.4531,-4.73828 0.8398,-19.1836 5.6739,1.14649 -1.0117,9.70703 1.5664,0.15234 1.3379,-2.36914 0.8066,-6.99414 11.7207,2.12109 -1.709,21.07618 1.4453,0.0976 1.543,-5.19726 1.668,-15.61914 6.6797,-4.23829 -2.5821,16.10938 -3.0898,15.88867 -17.3223,1.51758 -0.6113,8.25586 -20.1778,4.89062 c 0,0 -1.4705,10.18016 -2.0136,15.29297 -0.6558,6.17387 -1.502,18.56446 -1.502,18.56446 l 2.3692,0.0762 4.1757,-28.07227 11.6094,22.00781 c 0,0 -1.0022,7.42085 -1.4199,10.65821 -0.518,4.01505 -0.7039,7.20224 -0.9121,11.35742 -0.1429,2.84932 -0.3652,8.77148 -0.3652,8.77148 l 2.1132,0.39454 3.4473,-29.54883 10.8145,-2.17969 0.3437,5.3125 h 2.1406 l 0.8789,-6.07617 19.295,-3.54883 -1.1426,29.65039 1.834,0.15234 5.1211,-57.09179 16.9668,6.57226 -0.076,28.58399 2.2929,0.0762 1.2579,-28.24414 4.3125,-5.83008 0.6972,16.01367 1.6035,-2.57031 1.0704,-23.23828 c 0,0 4.7877,-8.13418 7.2617,-12.15235 3.1206,-5.06857 6.4956,-9.63056 8.9414,-11.46484 0,0 0.061,-2.7109 -0.459,-5.50195 -0.6086,-3.26577 -2.1387,-4.4336 -2.1387,-4.4336 l -16.3574,29.19532 c 0,0 3.7381,-16.00695 6.4199,-24.15039 3.4942,-10.61037 5.7324,-22.69922 5.7324,-22.69922 0,0 -2.3633,-3.12976 -6.6484,-6.03907 -4.1334,-2.80633 -8.2539,-4.35546 -8.2539,-4.35546 0,0 -3.6835,5.2787 -5.0449,8.17773 -1.863,3.96695 -2.5106,8.41443 -4.2031,12.45703 -1.1133,2.65889 -3.8985,7.7207 -3.8985,7.7207 l -20.3301,3.74414 c 0,0 3.7309,-15.44135 4.6621,-23.31054 0.5502,-4.63321 1.1466,-14.82704 1.1466,-14.82704 0,0 -7.5809,-2.33309 -13.3751,-3.05773 -4.3459,-0.47548 -8.0545,-0.50306 -12.381,-0.38087 z m 18.8769,48.45508 10.7012,8.78906 -10.3184,11.76953 -4.7382,0.0762 z m 37.4883,5.08203 -2.9414,12.4961 -8.9434,-4.05078 1.0704,-6.57227 z m -13.6426,2.33203 -0.7265,5.04297 -7.1446,-3.43945 z"
           transform="scale(0.26458333)"
           id="path80"
           inkscape:connector-curvature="0"
           sodipodi:nodetypes="cccccccccccccccccccccccccccccccccccccccccccccccccccccccsccccccccccccccccccccccccc" />
      </g>
    </g>
    <g
       transform="matrix(0.50538635,0,0,0.50538627,20.900851,194.72094)"
       inkscape:label="userexperiencefishbowl"
       id="layer24"
       style="display:inline">
      <path
         sodipodi:nodetypes="csccaaczacscazcsscc"
         inkscape:connector-curvature="0"
         id="path4771"
         d="m 202.86927,225.52421 c 0,0 2.80032,1.43767 7.0776,1.42214 4.00779,-0.0146 7.01313,-1.52537 7.01313,-1.52537 l -1.30805,-1.31891 c 0,0 3.73382,-2.46282 4.81211,-4.33255 1.14578,-1.98676 1.59542,-4.44446 1.4238,-6.73151 -0.20877,-2.78205 -2.93464,-7.83828 -2.93464,-7.83828 0,0 0.68438,-0.25563 0.89899,-0.57192 0.21461,-0.31629 0.1442,-0.66776 0.0496,-0.98133 -0.0911,-0.30187 -0.56224,-0.76068 -0.56224,-0.76068 0,0 -4.1029,1.87362 -9.75485,1.90972 -4.34604,0.0278 -9.73879,-2.04652 -9.73879,-2.04652 0,0 -0.46652,0.55459 -0.50544,0.89499 -0.0302,0.26433 0.0138,0.51073 0.22548,0.76566 0.21164,0.25494 1.0059,0.49408 1.0059,0.49408 0,0 -3.40924,4.29976 -3.54849,8.30649 -0.089,2.56138 0.40665,5.19902 1.98603,7.09864 1.28317,1.54336 5.03394,3.77668 5.03394,3.77668 z"
         style="fill:#000000;fill-opacity:1;stroke:none;stroke-width:0.264583px;stroke-linecap:butt;stroke-linejoin:miter;stroke-opacity:1" />
      <path
         sodipodi:nodetypes="cscsaaassac"
         inkscape:connector-curvature="0"
         id="path4769"
         d="m 201.95052,205.30103 c 0,0 4.23954,1.51625 7.96296,1.47331 3.7038,-0.0427 7.50694,-1.09914 7.50694,-1.09914 0,0 2.28076,3.94793 2.82971,6.057 0.56652,2.17654 0.11871,4.67757 -0.88867,6.68841 -0.86913,1.73487 -2.4706,3.11949 -4.16272,4.06918 -1.71139,0.96051 -3.74371,1.4418 -5.7062,1.44994 -1.70159,0.007 -3.43757,-0.45174 -4.95785,-1.21608 -1.95615,-0.98347 -3.80141,-2.3215 -5.00463,-4.30304 -1.11866,-1.84228 -1.32555,-4.5024 -0.93544,-6.73519 0.41379,-2.36835 3.3559,-6.38439 3.3559,-6.38439 z"
         style="fill:#ffffff;fill-opacity:1;stroke:none;stroke-width:0.264583px;stroke-linecap:butt;stroke-linejoin:miter;stroke-opacity:1" />
      <path
         sodipodi:nodetypes="zzzzzzczzzzzz"
         inkscape:connector-curvature="0"
         id="path4773"
         d="m 202.57161,214.01484 c 0.0518,-0.88105 2.69811,-1.56884 4.08451,-1.53789 1.3864,0.0309 3.27055,1.53573 3.55534,1.55442 0.28479,0.0187 0.54639,-0.65958 0.85162,-0.92604 0.30523,-0.26646 1.22205,-0.60367 1.31465,-0.52917 0.0926,0.0745 -0.23166,0.9582 -0.48783,1.28985 -0.25617,0.33165 -0.91777,0.69453 -0.91777,0.69453 0,0 0.63484,0.66209 0.77722,1.05006 0.14238,0.38797 0.28515,1.07823 0.14881,1.16582 -0.13634,0.0876 -0.82869,-0.25493 -1.09991,-0.59631 -0.27122,-0.34138 -0.31636,-1.08586 -0.63641,-1.0904 -0.32005,-0.005 -2.15577,0.85279 -3.53881,0.81028 -1.38303,-0.0425 -4.10324,-1.0041 -4.05142,-1.88515 z"
         style="fill:#000000;fill-opacity:1;stroke:none;stroke-width:0.264583px;stroke-linecap:butt;stroke-linejoin:miter;stroke-opacity:1" />
    </g>
    <g
       transform="matrix(0.68237827,0,0,0.68237822,-75.663381,326.07806)"
       inkscape:label="whatineedfromyou"
       id="layer19"
       style="display:inline">
      <g
         id="g5139">
        <path
           style="fill:#ffffff;fill-opacity:1;stroke:none;stroke-width:0.264583px;stroke-linecap:butt;stroke-linejoin:miter;stroke-opacity:1"
           d="m 303.22387,5.7474527 h 18.56888 V 24.316345 h -18.56888 z"
           id="path5135"
           inkscape:connector-curvature="0" />
        <path
           inkscape:connector-curvature="0"
           style="opacity:1;fill:#000505;fill-opacity:1;stroke:none;stroke-width:3.64724;stroke-linecap:round;stroke-miterlimit:4;stroke-dasharray:none;stroke-opacity:1"
           d="m 1146.043,21.722656 v 11.351563 c 0.4097,0.285785 15.568,10.842066 24.207,13.800781 1.6724,0.572772 3.5341,1.175121 5.25,0.75 2.5483,-0.631355 3.9506,-3.617729 6.375,-4.625 1.2082,-0.501982 2.5682,-0.561761 3.875,-0.625 3.2944,-0.15942 6.586,0.563119 9.875,0.316406 1.5729,-0.117959 5.1113,-0.779297 5.1113,-0.779297 0,0 0.034,1.794988 -0.2363,2.587891 -0.3133,0.920939 -1.1488,1.654233 -2,2.125 -2.6386,1.459317 -5.3641,0.537796 -8.125,1.75 -0.7096,0.311584 -2.25,1.4375 -2.25,1.4375 0,0 2.7386,3.52438 4.625,4.9375 2.4325,1.822212 5.3447,2.896067 8,4.375 2.8038,1.561674 5.1624,2.892139 8.375,4.75 1.9293,1.115724 2.1557,2.088392 1.75,3.25 -0.3137,0.898741 -1.2249,1.281972 -2.375,0.75 -4.608,-2.131313 -13.875,-6.375 -13.875,-6.375 l -0.5801,0.925781 c 0,0 9.1183,6.356011 14.2051,9.824219 1.1086,0.755864 2.3838,2.442367 1.75,3.625 -0.5762,1.075109 -2.6115,1.178735 -3.625,0.5 C 1202.2024,73.580655 1192.4414,67 1192.4414,67 l -0.8457,0.984375 c 0,0 7.5145,5.686576 12.0293,8.765625 1.1571,0.789169 2.4941,2.77665 1.625,3.875 -1.1009,1.391233 -3.8422,0.204584 -5.25,-0.875 -3.5878,-2.75122 -12.6777,-9.125 -12.6777,-9.125 L 1186.5,71.5 c 0,0 5.4799,5.043159 8.875,7.75 0.9272,0.739234 1.9412,2.514753 1.125,3.375 -1.0785,1.136629 -3.3344,-0.238829 -4.5312,-1.25 -3.6184,-3.056939 -6.1384,-5.807281 -9.8887,-7.816406 -1.6499,-0.883892 -4.0046,-1.864133 -5.6406,-2.773438 -1.6,-0.889255 -3.0659,-2.181985 -4.3887,-3.447265 -2.1296,-2.036954 -3.3251,-3.362978 -5.7715,-5.00586 -6.0737,-4.078742 -20.105,-8.772498 -20.2363,-8.816406 v 38.388672 h 70.1816 V 21.722656 Z"
           transform="scale(0.26458333)"
           id="rect5083" />
      </g>
    </g>
    <g
       transform="matrix(0.35658661,0,0,0.35658661,130.37575,303.30379)"
       inkscape:label="dad"
       id="layer13"
       style="display:inline">
      <g
         id="g4728">
        <path
           style="fill:none;fill-opacity:1;stroke:#000000;stroke-width:1.365;stroke-linecap:round;stroke-linejoin:miter;stroke-miterlimit:4;stroke-dasharray:none;stroke-opacity:1"
           d="m 139.37872,58.066587 c 0,0 3.82746,-3.722216 6.18936,-4.866444 2.66765,-1.292347 5.68297,-2.15463 8.6462,-2.078868 1.72365,0.04407 3.62416,0.37566 4.96094,1.464657 1.01058,0.823256 1.62339,2.16414 1.84264,3.449031 0.20906,1.225167 -0.005,2.576613 -0.56697,3.68527 -0.54365,1.072831 -1.59116,1.82707 -2.55134,2.551338 -1.16504,0.878792 -2.43872,1.676407 -3.82701,2.126117 -1.509,0.488811 -3.19143,0.973301 -4.7247,0.566962 -1.02304,-0.27112 -2.48545,-0.83358 -2.55134,-1.889879 -0.0596,-0.956117 1.21468,-1.570988 2.07887,-1.984375 1.2036,-0.575741 2.64758,-0.705843 3.96875,-0.519718 1.17336,0.165302 2.41076,0.591076 3.26004,1.41741 0.77261,0.751735 1.30609,1.853248 1.37017,2.929316 0.0927,1.556078 -0.42745,3.277541 -1.46466,4.441222 -0.77361,0.867931 -2.00292,1.457279 -3.16555,1.464656 -1.31121,0.0083 -3.55514,-0.295643 -3.59077,-1.606399 -0.0337,-1.23922 2.07759,-1.543898 3.30729,-1.700892 1.42505,-0.181934 2.95779,0.23193 4.20498,0.94494 0.89958,0.514283 1.61992,1.363707 2.12612,2.267858 0.49461,0.883445 1.02101,1.940543 0.8032,2.929316 -0.19955,0.90587 -0.95727,1.728643 -1.79539,2.126115 -0.88237,0.418458 -2.01865,0.399924 -2.92931,0.04725 -0.6857,-0.265555 -1.54814,-0.778886 -1.6064,-1.511903 -0.0551,-0.693982 0.684,-1.286792 1.27567,-1.653646 0.91215,-0.565565 2.0876,-0.707356 3.15793,-0.628049 1.02619,0.07604 2.13919,0.355511 2.9059,1.041809 0.55179,0.49392 0.97597,1.995838 0.97597,1.995838"
           id="path4719"
           inkscape:connector-curvature="0"
           sodipodi:nodetypes="caaaaaaaaaaaaaaaaaaaaaaaaaac" />
        <path
           style="fill:#000000;fill-opacity:1;stroke:none;stroke-width:0.264583px;stroke-linecap:butt;stroke-linejoin:miter;stroke-opacity:1"
           d="m 151.33222,63.263758 c 0,0 0.25777,-3.453864 0.11357,-5.172361 -0.12754,-1.519996 -0.86142,-4.494198 -0.86142,-4.494198 0,0 2.01867,2.456104 3.16268,3.554499 1.09991,1.056048 3.53829,2.899264 3.53829,2.899264 0,0 -0.93367,-3.421247 -1.59829,-5.060672 -0.39246,-0.968072 -0.86671,-1.905824 -1.40357,-2.801905 -0.67976,-1.134574 -1.69692,-2.058189 -2.28981,-3.240474 -0.61619,-1.228743 -1.03551,-2.568055 -1.27567,-3.921504 -0.55929,-3.151881 -0.35267,-9.596878 -0.35267,-9.596878 0,0 -1.79219,2.223401 -2.31511,3.52969 -0.47252,1.180408 -0.68675,3.752084 -0.68675,3.752084 0,0 -1.03737,-0.196773 -1.5391,-0.0859 -0.59493,0.131472 -1.16789,0.444437 -1.61213,0.861419 -0.39949,0.374977 -0.86477,1.397843 -0.86477,1.397843 0,0 -2.54275,-1.533187 -3.89145,-2.145688 -1.36764,-0.621104 -4.23504,-1.53958 -4.23504,-1.53958 0,0 2.42158,2.377963 3.69673,3.496278 1.20161,1.053818 2.57346,1.911404 3.72105,3.023809 1.0021,0.971381 2.00528,1.979175 2.74033,3.165552 1.3552,2.187301 1.84449,4.811657 2.97656,7.122345 0.88588,1.808201 2.97657,5.256374 2.97657,5.256374 z"
           id="path4721"
           inkscape:connector-curvature="0"
           sodipodi:nodetypes="cacacaaaacacaacacaaaacc" />
        <path
           style="fill:#fffffa;fill-opacity:1;stroke:none;stroke-width:0.264583px;stroke-linecap:butt;stroke-linejoin:miter;stroke-opacity:1"
           d="m 144.45919,44.267792 c 0.26624,-0.478909 0.77469,-0.856645 1.30293,-1.002261 0.50269,-0.138574 1.09882,-0.07154 1.5535,0.183748 0.40113,0.225229 0.73083,0.64197 0.85193,1.085783 0.13308,0.487735 0.0482,1.063227 -0.20046,1.50339 -0.26308,0.465616 -0.74155,0.845402 -1.25283,1.002261 -0.46992,0.144171 -1.03495,0.111883 -1.46998,-0.116932 -0.43793,-0.230335 -0.79346,-0.678599 -0.93544,-1.1526 -0.14452,-0.482449 -0.0944,-1.063208 0.15035,-1.503389 z"
           id="path4723"
           inkscape:connector-curvature="0"
           sodipodi:nodetypes="aaaaaaaaa" />
      </g>
    </g>
  </g>
</svg>
