<?xml version="1.0" encoding="UTF-8" standalone="no"?>
<svg
   width="74mm"
   height="105mm"
   viewBox="0 0 262.20472 372.04724"
   id="svg2"
   version="1.1"
   inkscape:version="1.3.2 (091e20e, 2023-11-25, custom)"
   sodipodi:docname="critical-uncertainties-front.svg"
   enable-background="new"
   xmlns:inkscape="http://www.inkscape.org/namespaces/inkscape"
   xmlns:sodipodi="http://sodipodi.sourceforge.net/DTD/sodipodi-0.dtd"
   xmlns="http://www.w3.org/2000/svg"
   xmlns:svg="http://www.w3.org/2000/svg"
   xmlns:rdf="http://www.w3.org/1999/02/22-rdf-syntax-ns#"
   xmlns:cc="http://creativecommons.org/ns#"
   xmlns:dc="http://purl.org/dc/elements/1.1/">
  <defs
     id="defs4" />
  <sodipodi:namedview
     id="base"
     pagecolor="#ffffff"
     bordercolor="#666666"
     borderopacity="1.0"
     inkscape:pageopacity="1"
     inkscape:pageshadow="2"
     inkscape:zoom="1.4142136"
     inkscape:cx="-41.365746"
     inkscape:cy="108.54089"
     inkscape:document-units="mm"
     inkscape:current-layer="layer9"
     showgrid="false"
     showguides="false"
     inkscape:guide-bbox="true"
     inkscape:snap-bbox="false"
     inkscape:bbox-nodes="true"
     inkscape:object-nodes="true"
     inkscape:snap-page="true"
     inkscape:snap-grids="false"
     inkscape:window-width="1920"
     inkscape:window-height="1017"
     inkscape:window-x="-8"
     inkscape:window-y="-8"
     inkscape:window-maximized="1"
     inkscape:snap-others="false"
     inkscape:snap-nodes="true"
     inkscape:showpageshadow="2"
     inkscape:pagecheckerboard="0"
     inkscape:deskcolor="#d1d1d1">
    <sodipodi:guide
       position="19.48819,143.57143"
       orientation="1,0"
       id="guide3342"
       inkscape:label=""
       inkscape:color="rgb(0,0,255)"
       inkscape:locked="false" />
    <sodipodi:guide
       position="242.71654,160.71429"
       orientation="1,0"
       id="guide3344"
       inkscape:label=""
       inkscape:color="rgb(0,0,255)"
       inkscape:locked="false" />
    <sodipodi:guide
       position="100.71429,10.629921"
       orientation="0,1"
       id="guide3346"
       inkscape:label=""
       inkscape:color="rgb(0,0,255)"
       inkscape:locked="false" />
    <sodipodi:guide
       position="75.714288,361.41732"
       orientation="0,1"
       id="guide3348"
       inkscape:label=""
       inkscape:color="rgb(0,0,255)"
       inkscape:locked="false" />
    <sodipodi:guide
       position="242.71654,289.15617"
       orientation="1,0"
       id="guide4173"
       inkscape:locked="false" />
    <sodipodi:guide
       position="-54.642858,21.259842"
       orientation="0,1"
       id="guide4176"
       inkscape:label=""
       inkscape:color="rgb(0,0,255)"
       inkscape:locked="false" />
    <sodipodi:guide
       position="0,350.7874"
       orientation="0,1"
       id="guide4178"
       inkscape:label=""
       inkscape:color="rgb(0,0,255)"
       inkscape:locked="false" />
    <sodipodi:guide
       position="30.118111,388.21428"
       orientation="1,0"
       id="guide4180"
       inkscape:label=""
       inkscape:color="rgb(0,0,255)"
       inkscape:locked="false" />
    <sodipodi:guide
       position="232.08662,385.71428"
       orientation="1,0"
       id="guide4182"
       inkscape:label=""
       inkscape:color="rgb(0,0,255)"
       inkscape:locked="false" />
    <sodipodi:guide
       position="40.748033,260.35714"
       orientation="1,0"
       id="guide4252"
       inkscape:label=""
       inkscape:color="rgb(0,0,255)"
       inkscape:locked="false" />
    <sodipodi:guide
       position="221.4567,323.92857"
       orientation="1,0"
       id="guide4254"
       inkscape:label=""
       inkscape:color="rgb(0,0,255)"
       inkscape:locked="false" />
    <sodipodi:guide
       position="-107.14286,340.15748"
       orientation="0,1"
       id="guide4256"
       inkscape:label=""
       inkscape:color="rgb(0,0,255)"
       inkscape:locked="false" />
    <sodipodi:guide
       position="-111.42857,31.889764"
       orientation="0,1"
       id="guide4258"
       inkscape:label=""
       inkscape:color="rgb(0,0,255)"
       inkscape:locked="false" />
    <sodipodi:guide
       position="-60.356616,230.31496"
       orientation="0,1"
       id="guide4262"
       inkscape:label=""
       inkscape:color="rgb(0,0,255)"
       inkscape:locked="false" />
    <sodipodi:guide
       position="-56.063468,258.66142"
       orientation="0,1"
       id="guide4269"
       inkscape:label=""
       inkscape:color="rgb(0,0,255)"
       inkscape:locked="false" />
    <sodipodi:guide
       position="93.897641,308.6016"
       orientation="1,0"
       id="guide4271"
       inkscape:label=""
       inkscape:color="rgb(0,0,255)"
       inkscape:locked="false" />
    <sodipodi:guide
       position="109.84252,340.15748"
       orientation="1,0"
       id="guide4273"
       inkscape:label=""
       inkscape:color="rgb(0,0,255)"
       inkscape:locked="false" />
    <sodipodi:guide
       position="-60.500002,219.68504"
       orientation="0,1"
       id="guide4303"
       inkscape:label=""
       inkscape:color="rgb(0,0,255)"
       inkscape:locked="false" />
  </sodipodi:namedview>
  <metadata
     id="metadata7">
    <rdf:RDF>
      <cc:Work
         rdf:about="">
        <dc:format>image/svg+xml</dc:format>
        <dc:type
           rdf:resource="http://purl.org/dc/dcmitype/StillImage" />
        <dc:title />
      </cc:Work>
    </rdf:RDF>
  </metadata>
  <g
     inkscape:label="Cut line"
     inkscape:groupmode="layer"
     id="layer1"
     transform="translate(0,-680.31496)"
     style="display:inline"
     sodipodi:insensitive="true">
    <path
       style="fill:none;fill-rule:evenodd;stroke:#808080;stroke-width:0.708661;stroke-linecap:butt;stroke-linejoin:miter;stroke-miterlimit:4;stroke-dasharray:2.83465, 2.83465;stroke-dashoffset:0;stroke-opacity:1"
       d="M 19.488189,690.94488 V 1041.7323 H 242.71653 V 690.94488 Z"
       id="path3350"
       inkscape:connector-curvature="0"
       transform="translate(4.3385302e-7)" />
  </g>
  <g
     inkscape:groupmode="layer"
     id="layer6"
     inkscape:label="Logo"
     style="display:inline"
     sodipodi:insensitive="true">
    <path
       style="fill:none;fill-rule:evenodd;stroke:none;stroke-width:1px;stroke-linecap:butt;stroke-linejoin:miter;stroke-opacity:1"
       d="M 40.748032,31.889763 V 113.38582 H 93.897638 V 31.889763 H 40.748032"
       id="path4275"
       inkscape:connector-curvature="0" />
    <g
       transform="matrix(0.77447868,0,0,0.77447868,-228.84214,5.3208206)"
       inkscape:label="criticaluncertainties"
       id="layer31">
      <g
         id="g4818">
        <path
           style="fill:#000000;fill-opacity:1;stroke:none;stroke-width:0.264583px;stroke-linecap:butt;stroke-linejoin:miter;stroke-opacity:1"
           d="m 358.44426,95.31614 c 2.65432,2.397074 4.253,2.616442 6.61459,2.546614 2.26353,-0.06693 3.77586,-0.905232 6.18463,-2.811198 2.70109,2.373688 3.97047,2.823953 6.76342,2.844271 2.87302,0.0209 3.78971,-0.6293 6.63112,-2.348177 1.71888,0.970522 4.0686,2.039748 6.28385,2.282031 2.58743,0.282988 5.65546,-0.08268 6.84609,-2.844271 -2.90215,1.372526 -4.14518,1.679456 -7.07525,1.393075 -2.31128,-0.225901 -4.83066,-1.22536 -6.20353,-3.170744 -1.2485,1.95957 -3.04523,2.857316 -6.46575,2.902148 -3.52313,0.04618 -6.13849,-1.950898 -6.94531,-3.307291 -0.8419,1.239462 -3.18108,3.827241 -6.35602,3.826771 -3.16052,-4.67e-4 -3.2829,-1.203488 -5.00404,-1.387056 -0.42292,-0.0451 -1.2738,0.07383 -1.2738,0.07383 z"
           id="path4812"
           inkscape:connector-curvature="0"
           sodipodi:nodetypes="cacscscscscsacc" />
        <path
           style="fill:#000000;fill-opacity:1;stroke:none;stroke-width:0.264583px;stroke-linecap:butt;stroke-linejoin:miter;stroke-opacity:1"
           d="m 348.09244,85.427337 c 0,0 1.02828,0.227564 1.53969,0.352841 1.99127,0.487784 1.48341,2.306555 5.95123,1.552538 2.75117,-0.464304 4.20877,-2.041639 5.78607,-4.933346 0,0 2.07253,1.901274 3.2264,2.697238 1.0198,0.703478 1.45378,0.946777 3.24114,1.819011 2.54794,-7.077604 7.70185,-11.930927 13.61275,-15.019548 7.52279,-3.930887 17.41712,-7.114009 24.49473,-4.950284 -4.30723,2.285055 -7.22102,3.368328 -10.20515,6.387565 -2.91811,2.952436 -2.92757,5.105769 -2.65844,7.857723 0.28812,2.946147 3.12617,6.501331 3.12617,6.501331 1.73907,0.161774 2.81809,-0.141176 3.87793,-0.978815 1.85295,-1.464475 1.86796,-1.598273 3.04082,-2.245368 1.65818,2.446829 3.4703,3.542116 5.75468,4.167187 2.53095,0.692541 4.44103,0.162152 7.83828,-0.727604 -1.8604,2.709711 -5.07335,2.839484 -8.36471,2.17659 -3.31407,-0.667469 -5.39362,-3.731017 -5.39362,-3.731017 0,0 -2.43325,2.786446 -6.54844,2.778125 -4.72801,-0.0096 -5.31347,-2.121891 -6.42567,-3.213864 -2.08764,2.230631 -4.08897,2.957005 -6.43969,2.883135 -2.20317,-0.06923 -4.22383,-0.301791 -5.85391,-3.075781 -2.43082,2.688197 -4.23085,2.701129 -6.58947,2.872868 -2.07364,0.150988 -3.93631,-0.340414 -5.71365,-1.120004 -1.36503,-0.59874 -3.60495,-2.645833 -3.60495,-2.645833 -1.8604,2.34572 -4.09248,3.999897 -6.71399,4.108412 -2.60198,0.107708 -5.1178,-0.01474 -6.9782,-3.5131 z"
           id="path4814"
           inkscape:connector-curvature="0"
           sodipodi:nodetypes="cascacscsscscacscscacsacac" />
      </g>
    </g>
  </g>
  <g
     inkscape:groupmode="layer"
     id="layer9"
     inkscape:label="Title"
     style="display:inline"
     sodipodi:insensitive="true">
    <path
       style="fill:none;fill-rule:evenodd;stroke:none;stroke-width:1px;stroke-linecap:butt;stroke-linejoin:miter;stroke-opacity:1"
       d="M 109.84252,113.38582 H 221.45669 V 31.889763 H 109.84252 Z"
       id="path4349_cuf"
       inkscape:connector-curvature="0" />
    <text
       xml:space="preserve"
       style="font-style:normal;font-weight:normal;line-height:0.01%;font-family:sans-serif;text-align:start;letter-spacing:0px;word-spacing:0px;text-anchor:start;fill:#000000;fill-opacity:1;stroke:none;stroke-width:1px;stroke-linecap:butt;stroke-linejoin:miter;stroke-opacity:1"
       x="-20.904465"
       y="36.65527"
       id="text68"><tspan
         sodipodi:role="line"
         x="146.91263"
         y="36.65527"
         id="tspan57"><tspan
           x="146.91263"
           y="36.65527"
           style="font-weight:bold;font-size:13.75px;line-height:1.25;font-family:Roboto;-inkscape-font-specification:'Roboto Bold';text-align:start;text-anchor:start"
           id="tspan56">Incertitudes </tspan></tspan><tspan
         sodipodi:role="line"
         x="167.36978"
         y="53.84277"
         id="tspan60"><tspan
           x="167.36978"
           y="53.84277"
           style="font-weight:bold;font-size:13.75px;line-height:1.25;font-family:Roboto;-inkscape-font-specification:'Roboto Bold';text-align:start;text-anchor:start"
           id="tspan58">critiques</tspan><tspan
           dx="0"
           x="221.4567"
           y="53.84277"
           style="font-weight:bold;font-size:13.75px;line-height:1.25;font-family:Roboto;-inkscape-font-specification:'Roboto Bold';text-align:start;text-anchor:start"
           id="tspan59" /></tspan><tspan
         sodipodi:role="line"
         x="122.11794"
         y="67.13652"
         id="tspan62"><tspan
           x="122.11794"
           y="67.13652"
           style="font-size:8.75px;line-height:125%;font-family:Lato;-inkscape-font-specification:Lato;text-align:start;text-anchor:start;fill:#1a1a1a"
           id="tspan61">Développer des stratégies </tspan></tspan><tspan
         sodipodi:role="line"
         x="110.77792"
         y="78.07402"
         id="tspan64"><tspan
           x="110.77792"
           y="78.07402"
           style="font-size:8.75px;line-height:125%;font-family:Lato;-inkscape-font-specification:Lato;text-align:start;text-anchor:start;fill:#1a1a1a"
           id="tspan63">pour fonctionner avec succès </tspan></tspan><tspan
         sodipodi:role="line"
         x="123.90295"
         y="89.01152"
         id="tspan66"><tspan
           x="123.90295"
           y="89.01152"
           style="font-size:8.75px;line-height:125%;font-family:Lato;-inkscape-font-specification:Lato;text-align:start;text-anchor:start;fill:#1a1a1a"
           id="tspan65">dans un éventail d'avenirs </tspan></tspan><tspan
         sodipodi:role="line"
         x="111.97667"
         y="99.949028"
         id="tspan68"><tspan
           x="111.97667"
           y="99.949028"
           style="font-size:8.75px;line-height:125%;font-family:Lato;-inkscape-font-specification:Lato;text-align:start;text-anchor:start;fill:#1a1a1a"
           id="tspan67">plausibles mais imprévisibles</tspan></tspan></text>
    <text
       xml:space="preserve"
       style="font-style:italic;font-variant:normal;font-weight:normal;font-stretch:normal;font-size:11.25px;line-height:1.15;font-family:Roboto;-inkscape-font-specification:'Roboto, Italic';font-variant-ligatures:normal;font-variant-caps:normal;font-variant-numeric:normal;font-variant-east-asian:normal;font-variation-settings:normal;direction:ltr;display:inline;vector-effect:none;fill:#000000;fill-opacity:0.6;stroke:none;stroke-width:1px;stroke-linecap:butt;stroke-linejoin:miter;stroke-miterlimit:4;stroke-dasharray:none;stroke-dashoffset:0;stroke-opacity:1;-inkscape-stroke:none;stop-color:#000000"
       x="117.47168"
       y="114.375"
       id="text5"
       inkscape:label="enTitle"><tspan
         sodipodi:role="line"
         id="tspan5"
         x="117.47168"
         y="114.375">Critical Uncertainties</tspan></text>
  </g>
  <g
     inkscape:groupmode="layer"
     id="layer8"
     inkscape:label="Separator"
     style="display:inline"
     transform="translate(0,-5.625)"
     sodipodi:insensitive="true">
    <rect
       style="display:inline;fill:#c83771;fill-opacity:1;stroke:none;stroke-width:1;stroke-miterlimit:4;stroke-dasharray:none;stroke-dashoffset:0;stroke-opacity:1"
       id="rect4178"
       width="134.64568"
       height="17.716536"
       x="30.118111"
       y="124.01575" />
    <text
       xml:space="preserve"
       style="font-style:normal;font-weight:normal;line-height:0%;font-family:sans-serif;letter-spacing:0px;word-spacing:0px;display:inline;fill:#000000;fill-opacity:1;stroke:none;stroke-width:1px;stroke-linecap:butt;stroke-linejoin:miter;stroke-opacity:1"
       x="39.935043"
       y="137.46776"
       id="text4180"><tspan
         sodipodi:role="line"
         id="tspan4182"
         x="39.935043"
         y="137.46776"
         style="font-style:normal;font-variant:normal;font-weight:bold;font-stretch:normal;font-size:12.5px;line-height:1.25;font-family:Lato;-inkscape-font-specification:'Lato Bold';fill:#ffffff">Stratégies</tspan></text>
    <rect
       y="124.01575"
       x="164.76379"
       height="17.716536"
       width="67.322838"
       id="rect4191"
       style="display:inline;fill:#e6e6e6;fill-opacity:1;stroke:none;stroke-width:1;stroke-miterlimit:4;stroke-dasharray:none;stroke-dashoffset:0;stroke-opacity:1" />
    <text
       xml:space="preserve"
       style="font-style:normal;font-weight:normal;line-height:0%;font-family:sans-serif;letter-spacing:0px;word-spacing:0px;fill:#1a1a1a;fill-opacity:1;stroke:none;stroke-width:1px;stroke-linecap:butt;stroke-linejoin:miter;stroke-opacity:1"
       x="176.76759"
       y="137.39589"
       id="text4193"><tspan
         sodipodi:role="line"
         id="tspan4195"
         x="176.76759"
         y="137.39589"
         style="font-style:normal;font-variant:normal;font-weight:500;font-stretch:normal;font-size:12.5px;line-height:1.25;font-family:Lato;-inkscape-font-specification:'Lato Medium';fill:#1a1a1a">100 min</tspan></text>
  </g>
  <g
     inkscape:groupmode="layer"
     id="layer5"
     inkscape:label="Border"
     style="display:inline"
     sodipodi:insensitive="true">
    <rect
       style="fill:none;fill-opacity:1;stroke:#000000;stroke-width:0.354331;stroke-miterlimit:4;stroke-dasharray:none;stroke-dashoffset:0;stroke-opacity:1"
       id="rect4187"
       width="201.96851"
       height="329.52756"
       x="30.118111"
       y="21.259844"
       ry="14.6735"
       rx="12.76433" />
  </g>
  <g
     inkscape:groupmode="layer"
     id="layer4"
     inkscape:label="Body"
     style="display:inline"
     transform="translate(0,1.875)"
     sodipodi:insensitive="true">
    <path
       style="fill:none;fill-rule:evenodd;stroke:none;stroke-width:1.09096px;stroke-linecap:butt;stroke-linejoin:miter;stroke-opacity:1"
       d="M 34.071794,142.03994 V 349.36187 H 228.89982 V 142.03994 Z"
       id="pathcuf4305"
       inkscape:connector-curvature="0" />
    <text
       xml:space="preserve"
       style="font-style:normal;font-weight:normal;font-size:12.0411px;line-height:0.85;font-family:sans-serif;letter-spacing:0px;word-spacing:0px;fill:#000000;fill-opacity:1;stroke:none;stroke-width:1.00342px;stroke-linecap:butt;stroke-linejoin:miter;stroke-opacity:1"
       x="34.188255"
       y="144.49718"
       id="text55"
       transform="scale(0.99658864,1.003423)"><tspan
         sodipodi:role="line"
         x="34.188255"
         y="144.49718"
         id="tspan3"
         style="stroke-width:1.00342px"><tspan
           x="34.188255"
           y="144.49718"
           style="font-weight:bold;font-size:8.75px;font-family:Roboto;-inkscape-font-specification:'Roboto Bold';fill:#999999;stroke-width:1.00342px"
           id="tspan1">Invitation</tspan><tspan
           dx="0"
           x="71.15358"
           y="144.49718"
           style="font-weight:bold;font-size:8.75px;font-family:Roboto;-inkscape-font-specification:'Roboto Bold';fill:#999999;stroke-width:1.00342px"
           id="tspan2" /></tspan><tspan
         sodipodi:role="line"
         x="34.188255"
         y="154.73209"
         id="tspan6"
         style="stroke-width:1.00342px"><tspan
           x="34.188255"
           y="154.73209"
           style="font-weight:500;font-size:8.75px;font-family:Lato;-inkscape-font-specification:'Lato Medium';fill:#1a1a1a;stroke-width:1.00342px"
           id="tspan4">Identifiez les &quot;réalités&quot; les plus critiques et les plus </tspan></tspan><tspan
         sodipodi:role="line"
         x="34.188255"
         y="164.967"
         id="tspan8"
         style="stroke-width:1.00342px"><tspan
           x="34.188255"
           y="164.967"
           style="font-weight:500;font-size:8.75px;font-family:Lato;-inkscape-font-specification:'Lato Medium';fill:#1a1a1a;stroke-width:1.00342px"
           id="tspan7">incertaines de votre environnement opérationnel </tspan></tspan><tspan
         sodipodi:role="line"
         x="34.188255"
         y="175.20192"
         id="tspan10"
         style="stroke-width:1.00342px"><tspan
           x="34.188255"
           y="175.20192"
           style="font-weight:500;font-size:8.75px;font-family:Lato;-inkscape-font-specification:'Lato Medium';fill:#1a1a1a;stroke-width:1.00342px"
           id="tspan9">ou de votre marché. Quelles sont les stratégies qui </tspan></tspan><tspan
         sodipodi:role="line"
         x="34.188255"
         y="185.43683"
         id="tspan13"
         style="stroke-width:1.00342px"><tspan
           x="34.188255"
           y="185.43683"
           style="font-weight:500;font-size:8.75px;font-family:Lato;-inkscape-font-specification:'Lato Medium';fill:#1a1a1a;stroke-width:1.00342px"
           id="tspan11">peuvent vous aider ?</tspan><tspan
           dx="0"
           x="111.66949"
           y="185.43683"
           style="font-weight:500;font-size:8.75px;font-family:Lato;-inkscape-font-specification:'Lato Medium';fill:#1a1a1a;stroke-width:1.00342px"
           id="tspan12" /></tspan><tspan
         sodipodi:role="line"
         x="34.188255"
         y="195.67172"
         id="tspan16"
         style="stroke-width:1.00342px"><tspan
           x="34.188255"
           y="195.67172"
           style="font-weight:500;font-size:8.75px;font-family:Lato;-inkscape-font-specification:'Lato Medium';fill:#1a1a1a;stroke-width:1.00342px"
           id="tspan14"> </tspan><tspan
           dx="0"
           x="35.87701"
           y="195.67172"
           style="font-weight:500;font-size:8.75px;font-family:Lato;-inkscape-font-specification:'Lato Medium';fill:#1a1a1a;stroke-width:1.00342px"
           id="tspan15" /></tspan><tspan
         sodipodi:role="line"
         x="34.188255"
         y="205.90663"
         id="tspan19"
         style="stroke-width:1.00342px"><tspan
           x="34.188255"
           y="205.90663"
           style="font-weight:bold;font-size:8.75px;font-family:Roboto;-inkscape-font-specification:'Roboto Bold';fill:#999999;stroke-width:1.00342px"
           id="tspan17">Personnes</tspan><tspan
           dx="0"
           x="76.173729"
           y="205.90663"
           style="font-weight:bold;font-size:8.75px;font-family:Roboto;-inkscape-font-specification:'Roboto Bold';fill:#999999;stroke-width:1.00342px"
           id="tspan18" /></tspan><tspan
         sodipodi:role="line"
         x="34.188255"
         y="216.14157"
         id="tspan21"
         style="stroke-width:1.00342px"><tspan
           x="34.188255"
           y="216.14157"
           style="font-weight:500;font-size:8.75px;font-family:Lato;-inkscape-font-specification:'Lato Medium';fill:#1a1a1a;stroke-width:1.00342px"
           id="tspan20">Le groupe est suffisamment grand et diversifié pour </tspan></tspan><tspan
         sodipodi:role="line"
         x="34.188255"
         y="226.37648"
         id="tspan24"
         style="stroke-width:1.00342px"><tspan
           x="34.188255"
           y="226.37648"
           style="font-weight:500;font-size:8.75px;font-family:Lato;-inkscape-font-specification:'Lato Medium';fill:#1a1a1a;stroke-width:1.00342px"
           id="tspan22">être divisé en quatre petits groupes distincts.</tspan><tspan
           dx="0"
           x="204.75201"
           y="226.37648"
           style="font-weight:500;font-size:8.75px;font-family:Lato;-inkscape-font-specification:'Lato Medium';fill:#1a1a1a;stroke-width:1.00342px"
           id="tspan23" /></tspan><tspan
         sodipodi:role="line"
         x="34.188255"
         y="236.61137"
         id="tspan27"
         style="stroke-width:1.00342px"><tspan
           x="34.188255"
           y="236.61137"
           style="font-weight:500;font-size:8.75px;font-family:Lato;-inkscape-font-specification:'Lato Medium';fill:#1a1a1a;stroke-width:1.00342px"
           id="tspan25"> </tspan><tspan
           dx="0"
           x="35.87701"
           y="236.61137"
           style="font-weight:500;font-size:8.75px;font-family:Lato;-inkscape-font-specification:'Lato Medium';fill:#1a1a1a;stroke-width:1.00342px"
           id="tspan26" /></tspan><tspan
         sodipodi:role="line"
         x="34.188255"
         y="246.84628"
         id="tspan30"
         style="stroke-width:1.00342px"><tspan
           x="34.188255"
           y="246.84628"
           style="font-weight:bold;font-size:8.75px;font-family:Roboto;-inkscape-font-specification:'Roboto Bold';fill:#999999;stroke-width:1.00342px"
           id="tspan28">Espace et matériel</tspan><tspan
           dx="0"
           x="107.07643"
           y="246.84628"
           style="font-weight:bold;font-size:8.75px;font-family:Roboto;-inkscape-font-specification:'Roboto Bold';fill:#999999;stroke-width:1.00342px"
           id="tspan29" /></tspan><tspan
         sodipodi:role="line"
         x="34.188255"
         y="257.08121"
         id="tspan33"
         style="stroke-width:1.00342px"><tspan
           x="34.188255"
           y="257.08121"
           style="font-weight:500;font-size:8.75px;font-family:Lato;-inkscape-font-specification:'Lato Medium';fill:#1a1a1a;stroke-width:1.00342px"
           id="tspan31">- Quatre groupes de chaises autour de tables</tspan><tspan
           dx="0"
           x="203.43953"
           y="257.08121"
           style="font-weight:500;font-size:8.75px;font-family:Lato;-inkscape-font-specification:'Lato Medium';fill:#1a1a1a;stroke-width:1.00342px"
           id="tspan32" /></tspan><tspan
         sodipodi:role="line"
         x="34.188255"
         y="267.31613"
         id="tspan35"
         style="stroke-width:1.00342px"><tspan
           x="34.188255"
           y="267.31613"
           style="font-weight:500;font-size:8.75px;font-family:Lato;-inkscape-font-specification:'Lato Medium';fill:#1a1a1a;stroke-width:1.00342px"
           id="tspan34">- Papier, notes Post-it, tableaux à feuilles mobiles </tspan></tspan><tspan
         sodipodi:role="line"
         x="34.188255"
         y="277.55106"
         id="tspan38"
         style="stroke-width:1.00342px"><tspan
           x="34.188255"
           y="277.55106"
           style="font-weight:500;font-size:8.75px;font-family:Lato;-inkscape-font-specification:'Lato Medium';fill:#1a1a1a;stroke-width:1.00342px"
           id="tspan36">ou papier de tapisserie pour chaque groupe.</tspan><tspan
           dx="0"
           x="200.08829"
           y="277.55106"
           style="font-weight:500;font-size:8.75px;font-family:Lato;-inkscape-font-specification:'Lato Medium';fill:#1a1a1a;stroke-width:1.00342px"
           id="tspan37" /></tspan><tspan
         sodipodi:role="line"
         x="34.188255"
         y="287.78598"
         id="tspan40"
         style="stroke-width:1.00342px"><tspan
           x="34.188255"
           y="287.78598"
           style="font-weight:500;font-size:8.75px;font-family:Lato;-inkscape-font-specification:'Lato Medium';fill:#1a1a1a;stroke-width:1.00342px"
           id="tspan39" /></tspan><tspan
         sodipodi:role="line"
         x="34.188255"
         y="298.02094"
         id="tspan43"
         style="stroke-width:1.00342px"><tspan
           x="34.188255"
           y="298.02094"
           style="font-weight:bold;font-size:8.75px;font-family:Roboto;-inkscape-font-specification:'Roboto Bold';fill:#999999;stroke-width:1.00342px"
           id="tspan41">Fonctionne avec</tspan><tspan
           dx="0"
           x="98.522964"
           y="298.02094"
           style="font-weight:bold;font-size:8.75px;font-family:Roboto;-inkscape-font-specification:'Roboto Bold';fill:#999999;stroke-width:1.00342px"
           id="tspan42" /></tspan><tspan
         sodipodi:role="line"
         x="34.188255"
         y="308.25586"
         id="tspan46"
         style="stroke-width:1.00342px"><tspan
           x="34.188255"
           y="308.25586"
           style="font-weight:500;font-size:8.75px;font-family:Lato;-inkscape-font-specification:'Lato Medium';fill:#1a1a1a;stroke-width:1.00342px"
           id="tspan44">Conversation cafe           Purpose-To-Pratice</tspan><tspan
           dx="0"
           x="195.56458"
           y="308.25586"
           style="font-weight:500;font-size:8.75px;font-family:Lato;-inkscape-font-specification:'Lato Medium';fill:#1a1a1a;stroke-width:1.00342px"
           id="tspan45" /></tspan><tspan
         sodipodi:role="line"
         x="34.188255"
         y="318.49078"
         id="tspan49"
         style="stroke-width:1.00342px"><tspan
           x="34.188255"
           y="318.49078"
           style="font-weight:500;font-size:8.75px;font-family:Lato;-inkscape-font-specification:'Lato Medium';fill:#1a1a1a;stroke-width:1.00342px"
           id="tspan47">Ce que j'Attends de Vous          Min Specs</tspan><tspan
           dx="0"
           x="184.0321"
           y="318.49078"
           style="font-weight:500;font-size:8.75px;font-family:Lato;-inkscape-font-specification:'Lato Medium';fill:#1a1a1a;stroke-width:1.00342px"
           id="tspan48" /></tspan><tspan
         sodipodi:role="line"
         x="34.188255"
         y="328.72571"
         id="tspan52"
         style="stroke-width:1.00342px"><tspan
           x="34.188255"
           y="328.72571"
           style="font-weight:500;font-size:8.75px;font-family:Lato;-inkscape-font-specification:'Lato Medium';fill:#1a1a1a;stroke-width:1.00342px"
           id="tspan50">Open Space Technology          </tspan><tspan
           dx="0"
           x="141.8571"
           y="328.72571"
           style="font-weight:500;font-size:8.75px;font-family:Lato;-inkscape-font-specification:'Lato Medium';fill:#1a1a1a;stroke-width:1.00342px"
           id="tspan51" /></tspan><tspan
         sodipodi:role="line"
         x="34.188255"
         y="338.96063"
         id="tspan55"
         style="stroke-width:1.00342px"><tspan
           x="34.188255"
           y="338.96063"
           style="font-weight:500;font-size:8.75px;font-family:Lato;-inkscape-font-specification:'Lato Medium';fill:#1a1a1a;stroke-width:1.00342px"
           id="tspan53">Questions Percutantes</tspan><tspan
           dx="0"
           x="121.627"
           y="338.96063"
           style="font-weight:500;font-size:8.75px;font-family:Lato;-inkscape-font-specification:'Lato Medium';fill:#1a1a1a;stroke-width:1.00342px"
           id="tspan54" /></tspan></text>
    <g
       transform="matrix(0.31624165,0,0,0.31624168,29.877879,309.21381)"
       inkscape:label="openspace"
       id="g81"
       style="display:inline;enable-background:new">
      <g
         id="g80">
        <path
           inkscape:connector-curvature="0"
           style="fill:#000000;fill-opacity:1;stroke:none;stroke-width:1px;stroke-linecap:butt;stroke-linejoin:miter;stroke-opacity:1"
           d="m 1221.8535,145.94336 c -2.3868,-0.004 -5.5643,0.0428 -8.7265,0.23828 -7.041,0.43519 -13.3516,2.11133 -13.3516,2.11133 0,0 0.1555,17.26572 -0.6973,25.83984 -0.294,2.95632 -1.5195,8.78321 -1.5195,8.78321 l -15.8203,-2.3711 -4.9688,-26.5957 c 0,0 -4.1468,1.11108 -9.7597,3.94726 -5.6518,2.85579 -8.3536,5.37696 -8.3536,5.37696 0,0 4.399,8.63623 4.3575,15.20898 -0.05,7.74637 -0.076,23.69336 -0.076,23.69336 0,0 -2.1358,1.16996 -4.8965,1.69336 -2.8818,0.54637 -4.4277,0.2168 -4.4277,0.2168 l -5.9629,-24.91602 c 0,0 -2.5478,0.20915 -5.5332,2.57227 -2.9038,2.29854 -3.4082,4.76562 -3.4082,4.76562 l 6.7265,14.13867 c 0,0 4.7894,11.07526 5.043,12.6875 0.3096,1.96703 -0.8398,21.93555 -0.8398,21.93555 l 2.4453,1.14649 0.5215,-15.22266 1.3886,0.85352 -0.457,27.58984 1.5274,2.98047 1.7578,0.0762 0.4589,-28.50781 11.0821,-2.67383 -1.9492,45.50586 1.5136,0.43359 3.836,-27.61719 23.1308,9.56641 0.2168,30.37305 1.6739,0.0527 1.3515,-30.04687 16.4297,-13.02539 -0.3789,26.42773 1.4063,-0.0547 1.0253,-4.80859 0.9727,-27.83398 -21.1797,-6.67969 -0.076,-9.70703 -9.0195,-3.51563 -4.3555,-12.38086 13.2227,-9.0957 -0.3828,21.85937 2.0644,0.15235 v -3.82227 l 2.1387,-4.89062 0.8418,-20.02344 4.5859,5.42578 -0.1543,22.08789 2.9825,-4.35742 0.5019,-16.32813 11.8789,-3.16015 v 6.57226 l 1.1465,2.67579 2.1387,0.6875 0.2304,-10.92969 7.7188,-2.0625 -1.7578,26.06054 1.6055,0.23047 1.375,-3.66797 2.0644,-23.92382 -9.5547,-8.78907 L 1225.8379,146 c 0,0 -1.5976,-0.0529 -3.9844,-0.0566 z m -55.9805,47.8457 12.375,4.05469 -12.4296,3.67383 z"
           transform="scale(0.26458333)"
           id="path79" />
        <path
           style="fill:#000000;fill-opacity:1;stroke:none;stroke-width:1px;stroke-linecap:butt;stroke-linejoin:miter;stroke-opacity:1"
           d="m 1253.0469,148.06445 -3.5157,24.99219 c 0,0 -3.0154,2.96061 -4.6621,4.2793 -2.2286,1.78472 -7.0312,4.89062 -7.0312,4.89062 l -1.1465,26.98047 2.1387,0.22852 1.4531,-4.73828 0.8398,-19.1836 5.6739,1.14649 -1.0117,9.70703 1.5664,0.15234 1.3379,-2.36914 0.8066,-6.99414 11.7207,2.12109 -1.709,21.07618 1.4453,0.0976 1.543,-5.19726 1.668,-15.61914 6.6797,-4.23829 -2.5821,16.10938 -3.0898,15.88867 -17.3223,1.51758 -0.6113,8.25586 -20.1778,4.89062 c 0,0 -1.4705,10.18016 -2.0136,15.29297 -0.6558,6.17387 -1.502,18.56446 -1.502,18.56446 l 2.3692,0.0762 4.1757,-28.07227 11.6094,22.00781 c 0,0 -1.0022,7.42085 -1.4199,10.65821 -0.518,4.01505 -0.7039,7.20224 -0.9121,11.35742 -0.1429,2.84932 -0.3652,8.77148 -0.3652,8.77148 l 2.1132,0.39454 3.4473,-29.54883 10.8145,-2.17969 0.3437,5.3125 h 2.1406 l 0.8789,-6.07617 19.295,-3.54883 -1.1426,29.65039 1.834,0.15234 5.1211,-57.09179 16.9668,6.57226 -0.076,28.58399 2.2929,0.0762 1.2579,-28.24414 4.3125,-5.83008 0.6972,16.01367 1.6035,-2.57031 1.0704,-23.23828 c 0,0 4.7877,-8.13418 7.2617,-12.15235 3.1206,-5.06857 6.4956,-9.63056 8.9414,-11.46484 0,0 0.061,-2.7109 -0.459,-5.50195 -0.6086,-3.26577 -2.1387,-4.4336 -2.1387,-4.4336 l -16.3574,29.19532 c 0,0 3.7381,-16.00695 6.4199,-24.15039 3.4942,-10.61037 5.7324,-22.69922 5.7324,-22.69922 0,0 -2.3633,-3.12976 -6.6484,-6.03907 -4.1334,-2.80633 -8.2539,-4.35546 -8.2539,-4.35546 0,0 -3.6835,5.2787 -5.0449,8.17773 -1.863,3.96695 -2.5106,8.41443 -4.2031,12.45703 -1.1133,2.65889 -3.8985,7.7207 -3.8985,7.7207 l -20.3301,3.74414 c 0,0 3.7309,-15.44135 4.6621,-23.31054 0.5502,-4.63321 1.1466,-14.82704 1.1466,-14.82704 0,0 -7.5809,-2.33309 -13.3751,-3.05773 -4.3459,-0.47548 -8.0545,-0.50306 -12.381,-0.38087 z m 18.8769,48.45508 10.7012,8.78906 -10.3184,11.76953 -4.7382,0.0762 z m 37.4883,5.08203 -2.9414,12.4961 -8.9434,-4.05078 1.0704,-6.57227 z m -13.6426,2.33203 -0.7265,5.04297 -7.1446,-3.43945 z"
           transform="scale(0.26458333)"
           id="path80"
           inkscape:connector-curvature="0"
           sodipodi:nodetypes="cccccccccccccccccccccccccccccccccccccccccccccccccccccccsccccccccccccccccccccccccc" />
      </g>
    </g>
    <g
       transform="matrix(0.23715185,0,0,0.23715185,107.74702,255.57736)"
       inkscape:label="purposetopractice"
       id="layer27"
       style="display:inline;enable-background:new">
      <path
         sodipodi:nodetypes="ccccsccccccscccccsccccssccccsasscaasscccccssccccsccccscccsccccacsccc"
         inkscape:connector-curvature="0"
         id="path4757"
         transform="scale(0.26458333)"
         d="m 1478.0293,707.9707 c -8.8838,4.3e-4 -16.0855,7.20211 -16.0859,16.08594 0.01,1.20009 0.1474,2.39568 0.4199,3.56445 L 1462,727.75 c 0,0 -20.2606,10.19621 -32,35 -9.9044,20.92661 -8.25,42.5 -8.25,42.5 l 0.031,0.0996 c -5.4014,2.74215 -8.8045,8.28612 -8.8046,14.34375 4e-4,8.88383 7.2021,16.08551 16.0859,16.08594 0.8019,-0.005 1.6023,-0.0693 2.3945,-0.19336 l 0.293,0.91406 c 0,0 8.082,16.13969 27.5,27.75 17.5874,10.51579 40.25,10 40.25,10 l 0.3223,-0.0801 c 1.9224,6.97869 8.2692,11.81392 15.5078,11.81446 8.8838,-4.3e-4 16.0855,-7.20211 16.0859,-16.08594 -0.01,-1.20816 -0.1496,-2.41171 -0.4258,-3.58789 0.723,-0.55087 16.9274,-8.56404 27.5098,-27.81055 9.2166,-16.76257 6.5952,-31.75689 6.7031,-33.60156 6.0741,-2.45684 10.0512,-8.35215 10.0547,-14.9043 -4e-4,-8.88462 -7.2033,-16.08661 -16.0879,-16.08594 -1.6057,0.006 -3.2016,0.25205 -4.7344,0.73047 -0.3353,-0.61491 -7.7499,-15.14742 -29.3105,-22.26367 -9.3806,-3.09614 -19.4896,-3.04525 -28.9473,-0.1934 -15.2393,4.59524 -18.2922,12.26601 -19.3105,13.23047 -1.5145,-0.46104 -3.0888,-0.696 -4.6719,-0.69727 -8.8846,4.3e-4 -16.0866,7.20329 -16.0859,16.08789 0.01,5.70853 3.0388,10.98577 7.9668,13.86719 0.3852,2.17535 -0.3582,17.6701 11.6738,28.83008 8.5958,7.97277 23.2967,12.18043 34.25,8 10.1289,-3.86578 18.8925,-12.24106 18.6893,-26.61872 -0.1317,-9.31486 -5.5307,-15.25481 -12.4267,-18.29289 -8.5128,-3.75035 -13.8384,-0.81066 -13.8384,-0.81066 0,0 15.7393,4.84821 18.7981,11.53293 2.7671,6.04739 0.9442,14.50588 -3.2223,19.68934 -5.0898,6.3321 -11.1988,10.61976 -22.6438,9.01517 -10.3684,-1.45364 -18.6948,-11.45213 -21.1768,-16.92158 -2.2209,-4.89386 -2.9622,-10.84191 -2.9372,-12.25179 0.3172,0.025 0.635,0.0407 0.9531,0.0469 8.8846,6.7e-4 16.0875,-7.20132 16.0879,-16.08594 -0.01,-4.50693 -1.9046,-8.80418 -5.2305,-11.8457 L 1483.25,768.5 c 0,0 5.0575,-8.51004 16.1875,-10.6875 14.8806,-2.91122 24.481,0.71805 34.9375,6.375 7.8079,4.22409 14.375,12.8125 14.375,12.8125 l 0.1953,0.58984 c -3.7074,3.0526 -5.857,7.60192 -5.8613,12.4043 0.01,8.52435 6.667,15.56131 15.1777,16.04297 0.051,0.83996 2.6726,17.58246 -5.6367,30.71289 -12.0771,19.08431 -23.1797,23.03734 -24.1914,23.84961 -3.0109,-4.25122 -7.894,-6.78123 -13.1035,-6.78906 -7.8349,0.009 -14.5239,5.66112 -15.8399,13.38476 l -0.2402,0.0547 c 0,0 -18.1813,2.35874 -38.25,-8.25 -14.0155,-7.4089 -22.7228,-24.16224 -23.6641,-25.5293 4.8419,-2.90306 7.8077,-8.13183 7.8145,-13.77734 -0.01,-8.70005 -6.9324,-15.81688 -15.6289,-16.06445 0.047,-1.09466 -3.234,-15.28712 6.7285,-37.87891 9.7855,-22.19021 28.5,-31.75 28.5,-31.75 l 0.5195,-0.16797 c 3.0405,3.9733 7.7566,6.30572 12.7598,6.31055 8.7148,-0.008 15.8385,-6.95416 16.0664,-15.66602 0.2824,-0.0737 9.3899,-1.87505 14.1543,-2.10156 5.5639,-0.26451 10,0.1875 16.6875,0.875 -2.625,-2.3125 -8.1511,-5.99614 -16.1875,-6.5625 -5.4183,-0.38185 -15.6981,0.15189 -16.293,0.27344 -2.7038,-5.5006 -8.2985,-8.98676 -14.4277,-8.99024 z"
         style="fill:#000000;fill-opacity:1;stroke:none;stroke-width:1px;stroke-linecap:butt;stroke-linejoin:miter;stroke-opacity:1" />
    </g>
    <g
       transform="matrix(0.21231894,0,0,0.21231894,65.117301,271.16553)"
       inkscape:label="conversationcafe"
       id="layer23"
       style="display:inline;enable-background:new">
      <g
         id="g4766">
        <path
           style="fill:#000000;fill-opacity:1;stroke:#000000;stroke-width:0.264583px;stroke-linecap:butt;stroke-linejoin:miter;stroke-opacity:1"
           d="m 188.2112,133.80976 3.46114,-1.63702 5.61266,8.13836 -2.29184,1.12253 z"
           id="path4748"
           inkscape:connector-curvature="0" />
        <path
           style="fill:#000000;fill-opacity:1;stroke:#000000;stroke-width:0.264583px;stroke-linecap:butt;stroke-linejoin:miter;stroke-opacity:1"
           d="m 201.63481,127.49552 4.39658,-0.37418 -1.02898,12.20754 -1.6838,-0.32741 z"
           id="path4750"
           inkscape:connector-curvature="0" />
        <path
           style="fill:#000000;fill-opacity:1;stroke:#000000;stroke-width:0.264583px;stroke-linecap:butt;stroke-linejoin:miter;stroke-opacity:1"
           d="m 215.52614,133.29527 3.0402,1.54348 -5.84653,6.82874 -2.15152,-0.98222 z"
           id="path4752"
           inkscape:connector-curvature="0" />
        <path
           sodipodi:nodetypes="scscscczccccsccsccsccsccccccc"
           inkscape:connector-curvature="0"
           id="path4754"
           transform="matrix(0.26458333,0,0,0.26458333,185.63539,126.97623)"
           d="M 71.253906,58.53125 C 14.720187,57.966022 1.2929688,81.136719 1.2929688,81.136719 c 0,0 -1.62242879,33.424731 -0.21875,50.048831 0.9511937,11.26533 2.3346454,22.66128 5.8320312,33.41211 3.269102,10.04919 7.695465,19.95541 13.966797,28.46093 5.095937,6.9114 18.738281,17.67774 18.738281,17.67774 l -4.24414,11.66601 c 0,0 11.394771,3.71289 34.826171,3.71289 23.4314,0 34.648441,-5.12695 34.648441,-5.12695 l -3.89063,-11.84375 c 0,0 13.07308,-9.73814 18.03125,-16.08594 5.61381,-7.18715 12.72852,-24.21875 12.72852,-24.21875 0,0 19.38661,-1.65372 36.76953,-15.02539 7.60728,-5.85184 14.23302,-14.49863 16.01367,-23.92968 1.75994,-9.32119 -0.022,-20.52226 -6.11328,-27.79297 -4.52338,-5.398189 -12.51559,-8.302015 -19.52344,-8.080081 -16.50739,0.522784 -22.37304,11.542971 -22.37304,11.542971 L 135.95312,82.75 c 0,0 -15.30396,-23.724879 -64.699214,-24.21875 z m 86.972654,48.81055 c 0.3507,0.004 0.69953,0.021 1.04883,0.0527 4.78598,0.43502 10.13618,3.45872 12.09375,7.84766 2.67749,6.00302 0.11481,13.72742 -3.06445,19.48047 -3.25229,5.8851 -9.24984,10.1321 -15.20313,13.25781 -5.27656,2.77043 -17.32422,4.41992 -17.32422,4.41992 0,0 0.36368,-17.39389 0.5293,-24.14258 0.16554,-6.74868 3.4549,-10.73614 7.42578,-14.39453 3.86933,-3.56481 9.23373,-6.57757 14.49414,-6.52148 z"
           style="fill:#000000;fill-opacity:1;stroke:#000000;stroke-width:1px;stroke-linecap:butt;stroke-linejoin:miter;stroke-opacity:1" />
        <path
           style="fill:#ffffff;fill-opacity:1;stroke:none;stroke-width:0.264583px;stroke-linecap:butt;stroke-linejoin:miter;stroke-opacity:1"
           d="m 192.38515,154.15286 c 0,0 8.24355,1.81258 12.43542,1.88515 3.52885,0.0611 7.21289,0.0165 10.51719,-1.22369 1.80362,-0.67695 4.24464,-1.41865 4.7625,-3.27422 0.4032,-1.44475 0.21843,-2.73955 -1.85209,-4.10104 -2.88673,-1.8982 -6.2774,-2.28262 -9.55807,-2.77813 -3.21616,-0.48576 -6.54198,-0.66179 -9.75651,-0.16536 -3.14014,0.48495 -3.74267,0.51634 -8.40053,2.38125 -1.22561,0.49071 -3.62539,1.61402 -3.47264,3.175 0.12458,1.27305 3.14236,2.04445 5.22551,2.44739 4.0943,0.79197 7.97922,1.11119 11.9724,0.8599 2.46849,-0.15534 5.22351,-0.0751 7.27604,-1.45521 0.68001,-0.45724 1.53934,-1.25186 1.35599,-2.05052 -0.32405,-1.41154 -2.30789,-1.98263 -3.73724,-2.21589 -2.4568,-0.40092 -4.95858,-0.4602 -7.62331,-0.13229 -1.08645,0.13369 -2.75194,0.48029 -2.72851,1.52136 0.0239,1.05973 1.84446,1.29545 2.84427,1.42213 1.06381,0.13479 4.05144,-0.14882 4.05144,-0.14882 0,0 -3.20052,-0.62689 -3.19155,-1.05834 0.0104,-0.50122 2.52591,-0.388 3.14193,-0.38034 1.05276,0.0131 2.93318,-0.0424 2.9931,1.00873 0.0568,0.99705 -1.91312,1.12228 -2.71197,1.2733 -2.06996,0.39132 -3.92571,0.15607 -5.49011,0.0662 -2.21899,-0.12752 -4.2525,-0.53442 -6.54844,-1.25677 -0.4973,-0.15646 -1.35803,-0.47944 -1.30638,-0.8599 0.0751,-0.55319 1.3912,-1.09197 2.18281,-1.42214 1.46638,-0.6116 4.07385,-0.97927 6.15357,-1.14952 2.51527,-0.20591 4.93274,-0.22658 7.56934,0.16135 2.4011,0.35328 5.46682,0.90273 6.84844,2.97255 0.38564,0.57773 0.39356,1.48983 0.0331,2.08359 -0.78037,1.28537 -2.58466,1.61998 -4.03489,2.01745 -1.83387,0.50261 -4.06611,1.04798 -9.09506,1.02527 -3.3586,-0.0152 -9.85573,-0.62841 -9.85573,-0.62841 z"
           id="path4758"
           inkscape:connector-curvature="0"
           sodipodi:nodetypes="caaasassssaaassascssasssssasaasscc" />
      </g>
    </g>
    <g
       transform="matrix(0.56399815,0,0,0.56399811,-42.5802,307.07094)"
       inkscape:label="whatineedfromyou"
       id="layer19"
       style="display:inline;enable-background:new">
      <g
         id="g5139">
        <path
           style="fill:#ffffff;fill-opacity:1;stroke:none;stroke-width:0.264583px;stroke-linecap:butt;stroke-linejoin:miter;stroke-opacity:1"
           d="m 303.22387,5.7474527 h 18.56888 V 24.316345 h -18.56888 z"
           id="path5135"
           inkscape:connector-curvature="0" />
        <path
           inkscape:connector-curvature="0"
           style="opacity:1;fill:#000505;fill-opacity:1;stroke:none;stroke-width:3.64724;stroke-linecap:round;stroke-miterlimit:4;stroke-dasharray:none;stroke-opacity:1"
           d="m 1146.043,21.722656 v 11.351563 c 0.4097,0.285785 15.568,10.842066 24.207,13.800781 1.6724,0.572772 3.5341,1.175121 5.25,0.75 2.5483,-0.631355 3.9506,-3.617729 6.375,-4.625 1.2082,-0.501982 2.5682,-0.561761 3.875,-0.625 3.2944,-0.15942 6.586,0.563119 9.875,0.316406 1.5729,-0.117959 5.1113,-0.779297 5.1113,-0.779297 0,0 0.034,1.794988 -0.2363,2.587891 -0.3133,0.920939 -1.1488,1.654233 -2,2.125 -2.6386,1.459317 -5.3641,0.537796 -8.125,1.75 -0.7096,0.311584 -2.25,1.4375 -2.25,1.4375 0,0 2.7386,3.52438 4.625,4.9375 2.4325,1.822212 5.3447,2.896067 8,4.375 2.8038,1.561674 5.1624,2.892139 8.375,4.75 1.9293,1.115724 2.1557,2.088392 1.75,3.25 -0.3137,0.898741 -1.2249,1.281972 -2.375,0.75 -4.608,-2.131313 -13.875,-6.375 -13.875,-6.375 l -0.5801,0.925781 c 0,0 9.1183,6.356011 14.2051,9.824219 1.1086,0.755864 2.3838,2.442367 1.75,3.625 -0.5762,1.075109 -2.6115,1.178735 -3.625,0.5 C 1202.2024,73.580655 1192.4414,67 1192.4414,67 l -0.8457,0.984375 c 0,0 7.5145,5.686576 12.0293,8.765625 1.1571,0.789169 2.4941,2.77665 1.625,3.875 -1.1009,1.391233 -3.8422,0.204584 -5.25,-0.875 -3.5878,-2.75122 -12.6777,-9.125 -12.6777,-9.125 L 1186.5,71.5 c 0,0 5.4799,5.043159 8.875,7.75 0.9272,0.739234 1.9412,2.514753 1.125,3.375 -1.0785,1.136629 -3.3344,-0.238829 -4.5312,-1.25 -3.6184,-3.056939 -6.1384,-5.807281 -9.8887,-7.816406 -1.6499,-0.883892 -4.0046,-1.864133 -5.6406,-2.773438 -1.6,-0.889255 -3.0659,-2.181985 -4.3887,-3.447265 -2.1296,-2.036954 -3.3251,-3.362978 -5.7715,-5.00586 -6.0737,-4.078742 -20.105,-8.772498 -20.2363,-8.816406 v 38.388672 h 70.1816 V 21.722656 Z"
           transform="scale(0.26458333)"
           id="rect5083" />
      </g>
    </g>
    <g
       transform="matrix(0.3412876,0,0,0.34128765,81.772889,330.53933)"
       inkscape:label="wickedquestions"
       id="layer12"
       style="display:inline">
      <g
         id="g4716">
        <path
           style="fill:#000000;fill-opacity:1;stroke:#000000;stroke-width:0.264583px;stroke-linecap:butt;stroke-linejoin:miter;stroke-opacity:1"
           d="m 118.82626,24.757435 c 0,0 4.23079,3.900515 6.89807,4.677455 2.08752,0.608065 4.67769,0.965587 6.52009,-0.188989 2.16672,-1.357819 3.17571,-3.632586 3.54352,-6.80357 0.30649,-2.642199 0.43637,-5.071551 1.13393,-7.701265 0.40323,-1.520125 1.13445,-3.449179 2.59859,-4.204985 1.96327,-1.0134562 4.74819,-0.5961231 6.61458,0.425227 2.99624,1.639643 6.56734,6.425595 6.56734,6.425595 0,0 -4.64767,-4.000791 -7.51228,-4.771949 -1.52198,-0.409719 -3.32569,-0.536996 -4.7247,0.188988 -1.12676,0.584704 -1.79256,1.866914 -2.3151,3.023809 -0.81941,1.814159 -0.88558,3.395749 -1.15756,5.858632 -0.29566,2.677248 -0.48633,6.758909 -3.70888,9.071428 -2.41808,1.735227 -5.40719,1.842843 -8.17373,0.236231 -2.38952,-1.387663 -6.28387,-6.236607 -6.28387,-6.236607 z"
           id="path4704"
           inkscape:connector-curvature="0"
           sodipodi:nodetypes="caassascaaasssc" />
        <circle
           style="opacity:1;fill:none;fill-opacity:1;stroke:#000000;stroke-width:1.687;stroke-linecap:round;stroke-miterlimit:4;stroke-dasharray:none;stroke-opacity:1"
           id="path4706"
           cx="128.64018"
           cy="23.170202"
           r="2.494199" />
        <circle
           style="opacity:1;fill:none;fill-opacity:1;stroke:#000000;stroke-width:1.234;stroke-linecap:round;stroke-miterlimit:4;stroke-dasharray:none;stroke-opacity:1"
           id="path4708"
           cx="143.3567"
           cy="18.676735"
           r="3.1568954" />
        <circle
           style="opacity:1;fill:#000000;fill-opacity:1;stroke:none;stroke-width:2.19652;stroke-linecap:round;stroke-miterlimit:4;stroke-dasharray:none;stroke-opacity:1"
           id="path4710"
           cx="143.3567"
           cy="18.676735"
           r="1.4866867" />
      </g>
    </g>
    <g
       transform="matrix(0.22029315,0,0,0.22029315,146.32806,308.9864)"
       style="display:inline;enable-background:new"
       inkscape:label="minspecs"
       id="layer15">
      <g
         id="g4931">
        <path
           style="fill:#000000;fill-opacity:1;stroke:#000000;stroke-width:0.264583px;stroke-linecap:butt;stroke-linejoin:miter;stroke-opacity:1"
           d="m 171.11931,20.380578 c 0,0 4.53662,-5.327516 7.34991,-7.349912 3.25125,-2.337227 6.90764,-4.2449275 10.7576,-5.3453905 4.25961,-1.2175549 8.85329,-1.9569432 13.22984,-1.2695301 3.66627,0.5758524 7.48299,1.9069159 10.22306,4.4099476 3.03163,2.769365 4.67295,6.899701 5.87993,10.824415 1.12504,3.65828 1.1359,11.425772 1.1359,11.425772 0,0 -6.88219,1.126325 -10.3567,1.336349 -2.93469,0.177394 -8.81989,-0.06682 -8.81989,-0.06682 0,0 -0.77788,6.068749 -0.80181,9.120571 -0.0267,3.40527 0.73499,10.189652 0.73499,10.189652 0,0 -3.21306,2.052263 -7.96273,1.642758 -4.77826,-0.41197 -7.20481,-3.045923 -7.20481,-3.045923 0,0 2.11785,-7.132278 2.93996,-10.757598 0.6908,-3.046284 1.67044,-9.220798 1.67044,-9.220798 0,0 -6.91194,-2.649047 -10.02261,-4.610402 -3.21067,-2.02441 -8.75308,-7.283091 -8.75308,-7.283091 z"
           id="path4913"
           inkscape:connector-curvature="0"
           sodipodi:nodetypes="caaaaacacacscacac" />
        <path
           style="fill:#ffffff;fill-opacity:1;stroke:#000000;stroke-width:0.264583px;stroke-linecap:butt;stroke-linejoin:miter;stroke-opacity:1"
           d="m 186.55413,51.383842 c 0,0 2.63131,-8.479543 3.4745,-12.828936 0.84575,-4.362584 1.57595,-13.237948 1.57595,-13.237948 0,0 2.43752,-0.384739 3.63581,-0.192346 1.69361,0.271921 4.79533,1.866833 4.79533,1.866833 0,0 -0.30531,5.484601 -0.51902,8.222591 -0.22455,2.876802 -0.76546,5.734119 -0.80181,8.619442 -0.0374,2.968777 0.60136,8.886714 0.60136,8.886714 0,0 -2.61488,1.336888 -6.48129,0.907766 -4.57971,-0.50829 -6.28083,-2.244116 -6.28083,-2.244116 z"
           id="path4915"
           inkscape:connector-curvature="0"
           sodipodi:nodetypes="cacacaacsc" />
        <path
           style="fill:#ffffff;fill-opacity:1;stroke:#000000;stroke-width:0.264583px;stroke-linecap:butt;stroke-linejoin:miter;stroke-opacity:1"
           d="m 173.34933,19.654756 c 0,0 9.81731,-1.278425 14.69382,-0.755952 4.96491,0.531945 9.83139,2.042247 14.45759,3.921503 5.5909,2.271135 15.82775,8.787947 15.82775,8.787947 0,0 -0.24414,-7.653672 -1.41741,-11.244792 -1.02897,-3.149456 -2.32877,-6.508125 -4.81919,-8.693453 -2.83792,-2.4902509 -6.7855,-3.7239095 -10.53609,-4.1577377 -4.85425,-0.5614876 -10.18423,0.4574982 -14.50484,2.126116 -2.80258,1.0823567 -5.65114,2.6198587 -8.12593,4.4734117 -2.0976,1.571045 -5.5757,5.542957 -5.5757,5.542957 z"
           id="path4917"
           inkscape:connector-curvature="0"
           sodipodi:nodetypes="caacaaasac" />
        <circle
           style="opacity:1;fill:#000008;fill-opacity:1;stroke:none;stroke-width:0.104396;stroke-linecap:round;stroke-miterlimit:4;stroke-dasharray:none;stroke-opacity:1"
           id="path4919"
           cx="186.43719"
           cy="14.3169"
           r="1.5869129" />
        <circle
           style="opacity:1;fill:#000008;fill-opacity:1;stroke:none;stroke-width:0.10708;stroke-linecap:round;stroke-miterlimit:4;stroke-dasharray:none;stroke-opacity:1"
           id="path4921"
           cx="203.10814"
           cy="11.711022"
           r="2.0212257" />
        <circle
           style="opacity:1;fill:#000008;fill-opacity:1;stroke:none;stroke-width:0.105376;stroke-linecap:round;stroke-miterlimit:4;stroke-dasharray:none;stroke-opacity:1"
           id="path4923"
           cx="210.10727"
           cy="21.249203"
           r="1.6370258" />
      </g>
    </g>
  </g>
</svg>
