<?xml version="1.0" encoding="UTF-8" standalone="no"?>
<svg
   width="74mm"
   height="105mm"
   viewBox="0 0 262.20472 372.04724"
   id="svg2"
   version="1.1"
   inkscape:version="1.3.1 (91b66b0783, 2023-11-16)"
   sodipodi:docname="discovery-and-action-dialog-front.svg"
   enable-background="new"
   xmlns:inkscape="http://www.inkscape.org/namespaces/inkscape"
   xmlns:sodipodi="http://sodipodi.sourceforge.net/DTD/sodipodi-0.dtd"
   xmlns:xlink="http://www.w3.org/1999/xlink"
   xmlns="http://www.w3.org/2000/svg"
   xmlns:svg="http://www.w3.org/2000/svg"
   xmlns:rdf="http://www.w3.org/1999/02/22-rdf-syntax-ns#"
   xmlns:cc="http://creativecommons.org/ns#"
   xmlns:dc="http://purl.org/dc/elements/1.1/">
  <defs
     id="defs4" />
  <sodipodi:namedview
     id="base"
     pagecolor="#ffffff"
     bordercolor="#666666"
     borderopacity="1.0"
     inkscape:pageopacity="1"
     inkscape:pageshadow="2"
     inkscape:zoom="4.0000002"
     inkscape:cx="119.87499"
     inkscape:cy="323.37498"
     inkscape:document-units="mm"
     inkscape:current-layer="layer4"
     showgrid="false"
     showguides="false"
     inkscape:guide-bbox="true"
     inkscape:snap-bbox="false"
     inkscape:bbox-nodes="true"
     inkscape:object-nodes="true"
     inkscape:snap-page="true"
     inkscape:snap-grids="false"
     inkscape:window-width="1920"
     inkscape:window-height="1017"
     inkscape:window-x="-8"
     inkscape:window-y="-8"
     inkscape:window-maximized="1"
     inkscape:snap-others="false"
     inkscape:snap-nodes="true"
     inkscape:showpageshadow="2"
     inkscape:pagecheckerboard="0"
     inkscape:deskcolor="#d1d1d1">
    <sodipodi:guide
       position="19.48819,143.57143"
       orientation="1,0"
       id="guide3342"
       inkscape:label=""
       inkscape:color="rgb(0,0,255)"
       inkscape:locked="false" />
    <sodipodi:guide
       position="242.71654,160.71429"
       orientation="1,0"
       id="guide3344"
       inkscape:label=""
       inkscape:color="rgb(0,0,255)"
       inkscape:locked="false" />
    <sodipodi:guide
       position="100.71429,10.629921"
       orientation="0,1"
       id="guide3346"
       inkscape:label=""
       inkscape:color="rgb(0,0,255)"
       inkscape:locked="false" />
    <sodipodi:guide
       position="75.714288,361.41732"
       orientation="0,1"
       id="guide3348"
       inkscape:label=""
       inkscape:color="rgb(0,0,255)"
       inkscape:locked="false" />
    <sodipodi:guide
       position="242.71654,289.15617"
       orientation="1,0"
       id="guide4173"
       inkscape:locked="false" />
    <sodipodi:guide
       position="-54.642858,21.259842"
       orientation="0,1"
       id="guide4176"
       inkscape:label=""
       inkscape:color="rgb(0,0,255)"
       inkscape:locked="false" />
    <sodipodi:guide
       position="0,350.7874"
       orientation="0,1"
       id="guide4178"
       inkscape:label=""
       inkscape:color="rgb(0,0,255)"
       inkscape:locked="false" />
    <sodipodi:guide
       position="30.118111,388.21428"
       orientation="1,0"
       id="guide4180"
       inkscape:label=""
       inkscape:color="rgb(0,0,255)"
       inkscape:locked="false" />
    <sodipodi:guide
       position="232.08662,385.71428"
       orientation="1,0"
       id="guide4182"
       inkscape:label=""
       inkscape:color="rgb(0,0,255)"
       inkscape:locked="false" />
    <sodipodi:guide
       position="40.748033,260.35714"
       orientation="1,0"
       id="guide4252"
       inkscape:label=""
       inkscape:color="rgb(0,0,255)"
       inkscape:locked="false" />
    <sodipodi:guide
       position="221.4567,323.92857"
       orientation="1,0"
       id="guide4254"
       inkscape:label=""
       inkscape:color="rgb(0,0,255)"
       inkscape:locked="false" />
    <sodipodi:guide
       position="-107.14286,340.15748"
       orientation="0,1"
       id="guide4256"
       inkscape:label=""
       inkscape:color="rgb(0,0,255)"
       inkscape:locked="false" />
    <sodipodi:guide
       position="-111.42857,31.889764"
       orientation="0,1"
       id="guide4258"
       inkscape:label=""
       inkscape:color="rgb(0,0,255)"
       inkscape:locked="false" />
    <sodipodi:guide
       position="-60.356616,230.31496"
       orientation="0,1"
       id="guide4262"
       inkscape:label=""
       inkscape:color="rgb(0,0,255)"
       inkscape:locked="false" />
    <sodipodi:guide
       position="-56.063468,258.66142"
       orientation="0,1"
       id="guide4269"
       inkscape:label=""
       inkscape:color="rgb(0,0,255)"
       inkscape:locked="false" />
    <sodipodi:guide
       position="93.897641,308.6016"
       orientation="1,0"
       id="guide4271"
       inkscape:label=""
       inkscape:color="rgb(0,0,255)"
       inkscape:locked="false" />
    <sodipodi:guide
       position="109.84252,340.15748"
       orientation="1,0"
       id="guide4273"
       inkscape:label=""
       inkscape:color="rgb(0,0,255)"
       inkscape:locked="false" />
    <sodipodi:guide
       position="-60.500002,219.68504"
       orientation="0,1"
       id="guide4303"
       inkscape:label=""
       inkscape:color="rgb(0,0,255)"
       inkscape:locked="false" />
  </sodipodi:namedview>
  <metadata
     id="metadata7">
    <rdf:RDF>
      <cc:Work
         rdf:about="">
        <dc:format>image/svg+xml</dc:format>
        <dc:type
           rdf:resource="http://purl.org/dc/dcmitype/StillImage" />
        <dc:title />
      </cc:Work>
    </rdf:RDF>
  </metadata>
  <g
     inkscape:label="Cut line"
     inkscape:groupmode="layer"
     id="layer1"
     transform="translate(0,-680.31496)"
     style="display:inline"
     sodipodi:insensitive="true">
    <path
       style="fill:none;fill-rule:evenodd;stroke:#808080;stroke-width:0.70866144;stroke-linecap:butt;stroke-linejoin:miter;stroke-miterlimit:4;stroke-dasharray:2.83464575, 2.83464575;stroke-dashoffset:0;stroke-opacity:1"
       d="m 19.488189,690.94488 0,350.78742 223.228341,0 0,-350.78742 z"
       id="path3350"
       inkscape:connector-curvature="0"
       transform="translate(4.3385302e-7,8.6660179e-6)" />
  </g>
  <g
     inkscape:groupmode="layer"
     id="layer6"
     inkscape:label="Logo"
     style="display:inline"
     sodipodi:insensitive="true">
    <path
       style="fill:none;fill-rule:evenodd;stroke:none;stroke-width:1px;stroke-linecap:butt;stroke-linejoin:miter;stroke-opacity:1"
       d="M 40.748032,31.889763 V 113.38582 H 93.897638 V 31.889763 H 40.748032"
       id="path4275"
       inkscape:connector-curvature="0" />
    <g
       transform="matrix(1.9580955,0,0,1.9580955,-224.02756,-39.101761)"
       inkscape:label="dad"
       id="layer13">
      <g
         id="g4728">
        <path
           style="fill:none;fill-opacity:1;stroke:#000000;stroke-width:1.365;stroke-linecap:round;stroke-linejoin:miter;stroke-miterlimit:4;stroke-dasharray:none;stroke-opacity:1"
           d="m 139.37872,58.066587 c 0,0 3.82746,-3.722216 6.18936,-4.866444 2.66765,-1.292347 5.68297,-2.15463 8.6462,-2.078868 1.72365,0.04407 3.62416,0.37566 4.96094,1.464657 1.01058,0.823256 1.62339,2.16414 1.84264,3.449031 0.20906,1.225167 -0.005,2.576613 -0.56697,3.68527 -0.54365,1.072831 -1.59116,1.82707 -2.55134,2.551338 -1.16504,0.878792 -2.43872,1.676407 -3.82701,2.126117 -1.509,0.488811 -3.19143,0.973301 -4.7247,0.566962 -1.02304,-0.27112 -2.48545,-0.83358 -2.55134,-1.889879 -0.0596,-0.956117 1.21468,-1.570988 2.07887,-1.984375 1.2036,-0.575741 2.64758,-0.705843 3.96875,-0.519718 1.17336,0.165302 2.41076,0.591076 3.26004,1.41741 0.77261,0.751735 1.30609,1.853248 1.37017,2.929316 0.0927,1.556078 -0.42745,3.277541 -1.46466,4.441222 -0.77361,0.867931 -2.00292,1.457279 -3.16555,1.464656 -1.31121,0.0083 -3.55514,-0.295643 -3.59077,-1.606399 -0.0337,-1.23922 2.07759,-1.543898 3.30729,-1.700892 1.42505,-0.181934 2.95779,0.23193 4.20498,0.94494 0.89958,0.514283 1.61992,1.363707 2.12612,2.267858 0.49461,0.883445 1.02101,1.940543 0.8032,2.929316 -0.19955,0.90587 -0.95727,1.728643 -1.79539,2.126115 -0.88237,0.418458 -2.01865,0.399924 -2.92931,0.04725 -0.6857,-0.265555 -1.54814,-0.778886 -1.6064,-1.511903 -0.0551,-0.693982 0.684,-1.286792 1.27567,-1.653646 0.91215,-0.565565 2.0876,-0.707356 3.15793,-0.628049 1.02619,0.07604 2.13919,0.355511 2.9059,1.041809 0.55179,0.49392 0.97597,1.995838 0.97597,1.995838"
           id="path4719"
           inkscape:connector-curvature="0"
           sodipodi:nodetypes="caaaaaaaaaaaaaaaaaaaaaaaaaac" />
        <path
           style="fill:#000000;fill-opacity:1;stroke:none;stroke-width:0.264583px;stroke-linecap:butt;stroke-linejoin:miter;stroke-opacity:1"
           d="m 151.33222,63.263758 c 0,0 0.25777,-3.453864 0.11357,-5.172361 -0.12754,-1.519996 -0.86142,-4.494198 -0.86142,-4.494198 0,0 2.01867,2.456104 3.16268,3.554499 1.09991,1.056048 3.53829,2.899264 3.53829,2.899264 0,0 -0.93367,-3.421247 -1.59829,-5.060672 -0.39246,-0.968072 -0.86671,-1.905824 -1.40357,-2.801905 -0.67976,-1.134574 -1.69692,-2.058189 -2.28981,-3.240474 -0.61619,-1.228743 -1.03551,-2.568055 -1.27567,-3.921504 -0.55929,-3.151881 -0.35267,-9.596878 -0.35267,-9.596878 0,0 -1.79219,2.223401 -2.31511,3.52969 -0.47252,1.180408 -0.68675,3.752084 -0.68675,3.752084 0,0 -1.03737,-0.196773 -1.5391,-0.0859 -0.59493,0.131472 -1.16789,0.444437 -1.61213,0.861419 -0.39949,0.374977 -0.86477,1.397843 -0.86477,1.397843 0,0 -2.54275,-1.533187 -3.89145,-2.145688 -1.36764,-0.621104 -4.23504,-1.53958 -4.23504,-1.53958 0,0 2.42158,2.377963 3.69673,3.496278 1.20161,1.053818 2.57346,1.911404 3.72105,3.023809 1.0021,0.971381 2.00528,1.979175 2.74033,3.165552 1.3552,2.187301 1.84449,4.811657 2.97656,7.122345 0.88588,1.808201 2.97657,5.256374 2.97657,5.256374 z"
           id="path4721"
           inkscape:connector-curvature="0"
           sodipodi:nodetypes="cacacaaaacacaacacaaaacc" />
        <path
           style="fill:#fffffa;fill-opacity:1;stroke:none;stroke-width:0.264583px;stroke-linecap:butt;stroke-linejoin:miter;stroke-opacity:1"
           d="m 144.45919,44.267792 c 0.26624,-0.478909 0.77469,-0.856645 1.30293,-1.002261 0.50269,-0.138574 1.09882,-0.07154 1.5535,0.183748 0.40113,0.225229 0.73083,0.64197 0.85193,1.085783 0.13308,0.487735 0.0482,1.063227 -0.20046,1.50339 -0.26308,0.465616 -0.74155,0.845402 -1.25283,1.002261 -0.46992,0.144171 -1.03495,0.111883 -1.46998,-0.116932 -0.43793,-0.230335 -0.79346,-0.678599 -0.93544,-1.1526 -0.14452,-0.482449 -0.0944,-1.063208 0.15035,-1.503389 z"
           id="path4723"
           inkscape:connector-curvature="0"
           sodipodi:nodetypes="aaaaaaaaa" />
      </g>
    </g>
  </g>
  <g
     inkscape:groupmode="layer"
     id="layer9"
     inkscape:label="Title"
     style="display:inline"
     sodipodi:insensitive="true">
    <path
       style="fill:none;fill-rule:evenodd;stroke:none;stroke-width:1.13104px;stroke-linecap:butt;stroke-linejoin:miter;stroke-opacity:1"
       d="M 86.639397,113.38582 H 229.42544 V 31.889763 H 86.639397 Z"
       id="pathdadf4349"
       inkscape:connector-curvature="0" />
    <flowRoot
       xml:space="preserve"
       style="font-style:normal;font-weight:normal;line-height:0.01%;font-family:sans-serif;text-align:end;letter-spacing:0px;word-spacing:0px;text-anchor:end;fill:#000000;fill-opacity:1;stroke:none;stroke-width:1px;stroke-linecap:butt;stroke-linejoin:miter;stroke-opacity:1"
       id="flowRoot4357"
       transform="translate(-1.8753412,5.6182228)"><flowRegion
         id="flowRegion4359"><use
           x="0"
           y="0"
           xlink:href="#pathdadf4349"
           id="use4361"
           width="100%"
           height="100%" /></flowRegion><flowPara
         id="flowPara4363"
         style="font-style:normal;font-variant:normal;font-weight:bold;font-stretch:normal;font-size:13.75px;line-height:1.25;font-family:Roboto;-inkscape-font-specification:'Roboto Bold';text-align:end;text-anchor:end">Dialogue sur la</flowPara><flowPara
         style="font-style:normal;font-variant:normal;font-weight:bold;font-stretch:normal;font-size:13.75px;line-height:1.25;font-family:Roboto;-inkscape-font-specification:'Roboto Bold';text-align:end;text-anchor:end"
         id="flowPara1">Découverte et l'Action</flowPara><flowPara
         id="flowPara4365"
         style="font-style:normal;font-variant:normal;font-weight:normal;font-stretch:normal;font-size:8.75px;line-height:125%;font-family:Lato;-inkscape-font-specification:Lato;text-align:end;letter-spacing:0px;text-anchor:end;fill:#1a1a1a">Découvrir, inventer et libérer des solutions locales à des problèmes chroniques</flowPara></flowRoot>
    <text
       xml:space="preserve"
       style="font-style:italic;font-variant:normal;font-weight:normal;font-stretch:normal;font-size:10.5469px;line-height:1.15;font-family:Roboto;-inkscape-font-specification:'Roboto, Italic';font-variant-ligatures:normal;font-variant-caps:normal;font-variant-numeric:normal;font-variant-east-asian:normal;font-variation-settings:normal;direction:ltr;display:inline;vector-effect:none;fill:#000000;fill-opacity:0.6;stroke:none;stroke-width:0.9375px;stroke-linecap:butt;stroke-linejoin:miter;stroke-miterlimit:4;stroke-dasharray:none;stroke-dashoffset:0;stroke-opacity:1;-inkscape-stroke:none;enable-background:new;stop-color:#000000"
       x="80.321152"
       y="120.02885"
       id="text5"
       inkscape:label="enTitle"><tspan
         sodipodi:role="line"
         id="tspan5"
         x="80.321152"
         y="120.02885"
         style="stroke-width:0.9375px">Discovery &amp; Action Dialog (DAD)</tspan></text>
  </g>
  <g
     inkscape:groupmode="layer"
     id="layer8"
     inkscape:label="Separator"
     style="display:inline"
     sodipodi:insensitive="true">
    <rect
       style="display:inline;fill:#71c837;fill-opacity:1;stroke:none;stroke-width:1;stroke-miterlimit:4;stroke-dasharray:none;stroke-dashoffset:0;stroke-opacity:1"
       id="rect4178"
       width="134.64568"
       height="17.716536"
       x="30.118111"
       y="124.01575" />
    <text
       xml:space="preserve"
       style="font-style:normal;font-weight:normal;line-height:0%;font-family:sans-serif;letter-spacing:0px;word-spacing:0px;display:inline;fill:#000000;fill-opacity:1;stroke:none;stroke-width:1px;stroke-linecap:butt;stroke-linejoin:miter;stroke-opacity:1"
       x="39.935043"
       y="137.46776"
       id="text4180"><tspan
         sodipodi:role="line"
         id="tspan4182"
         x="39.935043"
         y="137.46776"
         style="font-style:normal;font-variant:normal;font-weight:bold;font-stretch:normal;font-size:12.5px;line-height:1.25;font-family:Lato;-inkscape-font-specification:'Lato Bold';fill:#ffffff">Révèle</tspan></text>
    <rect
       y="124.01575"
       x="164.76379"
       height="17.716536"
       width="67.322838"
       id="rect4191"
       style="display:inline;fill:#e6e6e6;fill-opacity:1;stroke:none;stroke-width:1;stroke-miterlimit:4;stroke-dasharray:none;stroke-dashoffset:0;stroke-opacity:1" />
    <text
       xml:space="preserve"
       style="font-style:normal;font-weight:normal;line-height:0%;font-family:sans-serif;letter-spacing:0px;word-spacing:0px;fill:#1a1a1a;fill-opacity:1;stroke:none;stroke-width:1px;stroke-linecap:butt;stroke-linejoin:miter;stroke-opacity:1"
       x="184.26759"
       y="137.39589"
       id="text4193"><tspan
         sodipodi:role="line"
         id="tspan4195"
         x="184.26759"
         y="137.39589"
         style="font-style:normal;font-variant:normal;font-weight:500;font-stretch:normal;font-size:12.5px;line-height:1.25;font-family:Lato;-inkscape-font-specification:'Lato Medium';fill:#1a1a1a">50 min</tspan></text>
  </g>
  <g
     inkscape:groupmode="layer"
     id="layer5"
     inkscape:label="Border"
     style="display:inline"
     sodipodi:insensitive="true">
    <rect
       style="fill:none;fill-opacity:1;stroke:#000000;stroke-width:0.35433072;stroke-miterlimit:4;stroke-dasharray:none;stroke-dashoffset:0;stroke-opacity:1"
       id="rect4187"
       width="201.96851"
       height="329.52756"
       x="30.118111"
       y="21.259844"
       ry="14.6735"
       rx="12.76433" />
  </g>
  <g
     inkscape:groupmode="layer"
     id="layer4"
     inkscape:label="Body"
     style="display:inline"
     sodipodi:insensitive="true">
    <path
       style="fill:none;fill-rule:evenodd;stroke:none;stroke-width:1.06352px;stroke-linecap:butt;stroke-linejoin:miter;stroke-opacity:1"
       d="M 36.060532,144.8622 V 345.31373 H 227.55044 V 144.8622 Z"
       id="pathdadf4305"
       inkscape:connector-curvature="0" />
    <flowRoot
       xml:space="preserve"
       style="font-style:normal;font-weight:normal;line-height:0.85;font-family:sans-serif;letter-spacing:0px;word-spacing:0px;fill:#000000;fill-opacity:1;stroke:none;stroke-width:1px;stroke-linecap:butt;stroke-linejoin:miter;stroke-opacity:1"
       id="flowRoot4319"
       transform="matrix(1,0,0,1.0068578,-0.17251487,-4.5759283)"><flowRegion
         id="flowRegion4321"
         style="line-height:0.85"><use
           x="0"
           y="0"
           xlink:href="#pathdadf4305"
           id="use4323"
           width="100%"
           height="100%"
           transform="matrix(1,0,0,0.99318888,0.17251487,4.5447611)" /></flowRegion><flowPara
         style="font-style:normal;font-variant:normal;font-weight:bold;font-stretch:normal;font-size:8.72015px;line-height:0.85;font-family:Roboto;-inkscape-font-specification:'Roboto Bold';fill:#999999;fill-opacity:1"
         id="flowPara4212">Personnes</flowPara><flowPara
         style="font-style:normal;font-variant:normal;font-weight:500;font-stretch:normal;font-size:8.72015px;line-height:0.85;font-family:Lato;-inkscape-font-specification:'Lato Medium';fill:#1a1a1a;fill-opacity:1"
         id="flowPara4413">Découvrir, inventer et libérer des solutions locales à des problèmes chroniques</flowPara><flowPara
         style="font-style:normal;font-variant:normal;font-weight:500;font-stretch:normal;font-size:8.72015px;line-height:0.85;font-family:Lato;-inkscape-font-specification:'Lato Medium';fill:#1a1a1a;fill-opacity:1"
         id="flowPara4264">- La taille totale du groupe doit être comprise entre 5 et 15 personnes</flowPara><flowPara
         style="font-style:normal;font-variant:normal;font-weight:500;font-stretch:normal;font-size:8.72015px;line-height:0.85;font-family:Lato;-inkscape-font-specification:'Lato Medium';fill:#1a1a1a;fill-opacity:1"
         id="flowPara4266">- La diversité des rôles et des expériences est un atout important</flowPara><flowPara
         style="font-style:normal;font-variant:normal;font-weight:500;font-stretch:normal;font-size:8.72015px;line-height:0.85;font-family:Lato;-inkscape-font-specification:'Lato Medium';fill:#1a1a1a;fill-opacity:1"
         id="flowPara4214"> </flowPara><flowPara
         style="font-style:normal;font-variant:normal;font-weight:bold;font-stretch:normal;font-size:8.72015px;line-height:0.85;font-family:Roboto;-inkscape-font-specification:'Roboto Bold';fill:#999999;fill-opacity:1"
         id="flowPara4202">Espace et matériel</flowPara><flowPara
         style="font-style:normal;font-variant:normal;font-weight:500;font-stretch:normal;font-size:8.72015px;line-height:0.85;font-family:Lato;-inkscape-font-specification:'Lato Medium';fill:#1a1a1a;fill-opacity:1"
         id="flowPara4201">- Les DAD se déroulent dans un cadre ou une unité locale</flowPara><flowPara
         style="font-style:normal;font-variant:normal;font-weight:500;font-stretch:normal;font-size:8.72015px;line-height:0.85;font-family:Lato;-inkscape-font-specification:'Lato Medium';fill:#1a1a1a;fill-opacity:1"
         id="flowPara4268">- Les groupes peuvent être debout ou assis autour d'une table</flowPara><flowPara
         style="font-style:normal;font-variant:normal;font-weight:500;font-stretch:normal;font-size:8.72015px;line-height:0.85;font-family:Lato;-inkscape-font-specification:'Lato Medium';fill:#1a1a1a;fill-opacity:1"
         id="flowPara4270">- Du papier, un tableau à feuilles mobiles ou du matériel de projection sont nécessaires pour consigner les idées et les actions.</flowPara><flowPara
         style="font-style:normal;font-variant:normal;font-weight:500;font-stretch:normal;font-size:8.72015px;line-height:0.85;font-family:Lato;-inkscape-font-specification:'Lato Medium';fill:#1a1a1a;fill-opacity:1"
         id="flowPara4272" /><flowPara
         style="font-style:normal;font-variant:normal;font-weight:bold;font-stretch:normal;font-size:8.72015px;line-height:0.85;font-family:Roboto;-inkscape-font-specification:'Roboto Bold';fill:#999999;fill-opacity:1"
         id="flowPara4274">Fonctionne avec</flowPara><flowPara
         style="font-style:normal;font-variant:normal;font-weight:500;font-stretch:normal;font-size:8.72015px;line-height:0.85;font-family:Lato;-inkscape-font-specification:'Lato Medium';fill:#1a1a1a;fill-opacity:1"
         id="flowPara4282">Improv Prototyping </flowPara><flowPara
         style="font-style:normal;font-variant:normal;font-weight:500;font-stretch:normal;font-size:8.72015px;line-height:0.85;font-family:Lato;-inkscape-font-specification:'Lato Medium';fill:#1a1a1a;fill-opacity:1"
         id="flowPara4206" /></flowRoot>
    <g
       transform="matrix(0.29038618,0,0,0.29038621,61.543604,311.94814)"
       inkscape:label="improvprototyping"
       id="layer16"
       style="display:inline;enable-background:new">
      <g
   id="g5009">
        <path
   style="fill:#000000;fill-opacity:1;stroke:#000000;stroke-width:0.264583px;stroke-linecap:butt;stroke-linejoin:miter;stroke-opacity:1"
   d="m 181.27112,75.565257 c 0,0 4.65867,-2.831534 7.2124,-3.726861 1.61951,-0.567791 3.33608,-0.895505 5.04841,-1.010067 1.94066,-0.129835 3.90684,0.0393 5.82311,0.372379 2.40629,0.41824 7.04108,2.027173 7.04108,2.027173 0,0 0.12977,5.766262 -0.39936,8.580055 -0.40121,2.133587 -0.99536,4.291552 -2.08118,6.171488 -2.44162,4.227298 -9.68218,10.988159 -9.68218,10.988159 0,0 -5.85468,-5.032477 -8.07086,-8.147182 -1.31596,-1.849489 -2.26382,-3.966078 -2.99958,-6.113402 -1.00826,-2.943943 -1.89184,-9.141742 -1.89184,-9.141742 z"
   id="path4934-2"
   inkscape:connector-curvature="0"
   sodipodi:nodetypes="caaacaacaac" />

        <path
   style="fill:#ffffff;fill-opacity:1;stroke:none;stroke-width:0.264583px;stroke-linecap:butt;stroke-linejoin:miter;stroke-opacity:1"
   d="m 194.31831,97.939785 -0.24796,-26.272206 c 0,0 4.10203,0.138193 6.11561,0.4967 1.80634,0.321608 5.30282,1.475349 5.30282,1.475349 0,0 0.005,6.453146 -0.27848,7.914053 -0.71105,3.665162 -1.35671,5.170922 -2.94111,7.5799 -2.14881,3.267082 -7.95058,8.806201 -7.95058,8.806201 z"
   id="path4936-4"
   inkscape:connector-curvature="0"
   sodipodi:nodetypes="ccacssc" />

        <path
   style="fill:#000000;fill-opacity:1;stroke:none;stroke-width:0.264583px;stroke-linecap:butt;stroke-linejoin:miter;stroke-opacity:1"
   d="m 202.83147,65.767851 c 0,0 5.32592,-1.164192 8.032,-1.181174 1.71612,-0.01077 3.44604,0.237052 5.10268,0.685081 1.87755,0.507773 3.68209,1.306593 5.38616,2.244233 2.13983,1.177405 6.00036,4.204984 6.00036,4.204984 0,0 -1.75085,5.495556 -3.16554,7.984748 -1.0727,1.887454 -2.33577,3.735281 -3.97351,5.160405 -3.68269,3.20459 -12.72713,7.245993 -12.72713,7.245993 0,0 -3.90185,-6.661742 -4.98575,-10.32753 -0.64361,-2.17672 -0.85231,-4.486445 -0.85044,-6.756323 0.003,-3.111813 1.18117,-9.260417 1.18117,-9.260417 z"
   id="path4934"
   inkscape:connector-curvature="0"
   sodipodi:nodetypes="caaacaacaac" />

        <path
   style="fill:#ffffff;fill-opacity:1;stroke:none;stroke-width:0.264583px;stroke-linecap:butt;stroke-linejoin:miter;stroke-opacity:1"
   d="m 207.90074,91.16767 8.30164,-24.92735 c 0,0 3.83455,1.463533 5.62239,2.456847 1.60383,0.891078 4.53572,3.118303 4.53572,3.118303 0,0 -2.0921,6.104608 -2.83482,7.394159 -1.86336,3.235259 -2.96325,4.449524 -5.24442,6.212983 -3.09375,2.391623 -10.38051,5.745058 -10.38051,5.745058 z"
   id="path4936"
   inkscape:connector-curvature="0"
   sodipodi:nodetypes="ccacssc" />

        <path
   style="fill:#000000;fill-opacity:1;stroke:none;stroke-width:0.264583px;stroke-linecap:butt;stroke-linejoin:miter;stroke-opacity:1"
   d="m 194.23263,89.070912 c 1.7828,0.02982 4.78294,-2.340674 4.78294,-2.340674 0,0 -0.67675,4.569551 -4.75962,4.678251 z"
   id="path4995"
   inkscape:connector-curvature="0"
   sodipodi:nodetypes="cccc" />

        <path
   style="fill:#ffffff;fill-opacity:1;stroke:none;stroke-width:0.264583px;stroke-linecap:butt;stroke-linejoin:miter;stroke-opacity:1"
   d="m 194.25599,91.408489 c -3.95401,0.10527 -4.79526,-4.845295 -4.79526,-4.845295 0,0 2.98383,2.477806 4.77194,2.507718 z"
   id="path4956"
   inkscape:connector-curvature="0"
   sodipodi:nodetypes="cccc" />

        <path
   style="fill:#ffffff;fill-opacity:1;stroke:none;stroke-width:0.264583px;stroke-linecap:butt;stroke-linejoin:miter;stroke-opacity:1"
   d="m 210.74755,82.611755 c -1.67449,-0.590263 -5.28974,0.696552 -5.28974,0.696552 0,0 2.11902,-4.096227 6.02329,-2.896924 z"
   id="path4999"
   inkscape:connector-curvature="0"
   sodipodi:nodetypes="cccc" />

        <path
   style="fill:#000007;fill-opacity:1;stroke:none;stroke-width:0.264583px;stroke-linecap:butt;stroke-linejoin:miter;stroke-opacity:1"
   d="m 211.4811,80.411383 c 3.78104,1.161451 2.97919,6.102992 2.97919,6.102992 0,0 -2.01686,-3.304822 -3.71274,-3.90262 z"
   id="path4956-9"
   inkscape:connector-curvature="0"
   sodipodi:nodetypes="cccc" />

      </g>

    </g>
  </g>
</svg>
