<?xml version="1.0" encoding="UTF-8" standalone="no"?>
<svg
   width="74mm"
   height="105mm"
   viewBox="0 0 262.20472 372.04724"
   id="svg2"
   version="1.1"
   inkscape:version="1.3.1 (91b66b0783, 2023-11-16)"
   sodipodi:docname="helping-heuristics-front.svg"
   enable-background="new"
   xmlns:inkscape="http://www.inkscape.org/namespaces/inkscape"
   xmlns:sodipodi="http://sodipodi.sourceforge.net/DTD/sodipodi-0.dtd"
   xmlns:xlink="http://www.w3.org/1999/xlink"
   xmlns="http://www.w3.org/2000/svg"
   xmlns:svg="http://www.w3.org/2000/svg"
   xmlns:rdf="http://www.w3.org/1999/02/22-rdf-syntax-ns#"
   xmlns:cc="http://creativecommons.org/ns#"
   xmlns:dc="http://purl.org/dc/elements/1.1/">
  <defs
     id="defs4" />
  <sodipodi:namedview
     id="base"
     pagecolor="#ffffff"
     bordercolor="#666666"
     borderopacity="1.0"
     inkscape:pageopacity="1"
     inkscape:pageshadow="2"
     inkscape:zoom="2.0000001"
     inkscape:cx="84.249996"
     inkscape:cy="210.24999"
     inkscape:document-units="mm"
     inkscape:current-layer="layer8"
     showgrid="false"
     showguides="false"
     inkscape:guide-bbox="true"
     inkscape:snap-bbox="false"
     inkscape:bbox-nodes="true"
     inkscape:object-nodes="true"
     inkscape:snap-page="true"
     inkscape:snap-grids="false"
     inkscape:window-width="1920"
     inkscape:window-height="1017"
     inkscape:window-x="-8"
     inkscape:window-y="-8"
     inkscape:window-maximized="1"
     inkscape:snap-others="false"
     inkscape:snap-nodes="true"
     inkscape:showpageshadow="2"
     inkscape:pagecheckerboard="0"
     inkscape:deskcolor="#d1d1d1">
    <sodipodi:guide
       position="19.48819,143.57143"
       orientation="1,0"
       id="guide3342"
       inkscape:label=""
       inkscape:color="rgb(0,0,255)"
       inkscape:locked="false" />
    <sodipodi:guide
       position="242.71654,160.71429"
       orientation="1,0"
       id="guide3344"
       inkscape:label=""
       inkscape:color="rgb(0,0,255)"
       inkscape:locked="false" />
    <sodipodi:guide
       position="100.71429,10.629921"
       orientation="0,1"
       id="guide3346"
       inkscape:label=""
       inkscape:color="rgb(0,0,255)"
       inkscape:locked="false" />
    <sodipodi:guide
       position="75.714288,361.41732"
       orientation="0,1"
       id="guide3348"
       inkscape:label=""
       inkscape:color="rgb(0,0,255)"
       inkscape:locked="false" />
    <sodipodi:guide
       position="242.71654,289.15617"
       orientation="1,0"
       id="guide4173"
       inkscape:locked="false" />
    <sodipodi:guide
       position="-54.642858,21.259842"
       orientation="0,1"
       id="guide4176"
       inkscape:label=""
       inkscape:color="rgb(0,0,255)"
       inkscape:locked="false" />
    <sodipodi:guide
       position="0,350.7874"
       orientation="0,1"
       id="guide4178"
       inkscape:label=""
       inkscape:color="rgb(0,0,255)"
       inkscape:locked="false" />
    <sodipodi:guide
       position="30.118111,388.21428"
       orientation="1,0"
       id="guide4180"
       inkscape:label=""
       inkscape:color="rgb(0,0,255)"
       inkscape:locked="false" />
    <sodipodi:guide
       position="232.08662,385.71428"
       orientation="1,0"
       id="guide4182"
       inkscape:label=""
       inkscape:color="rgb(0,0,255)"
       inkscape:locked="false" />
    <sodipodi:guide
       position="40.748033,260.35714"
       orientation="1,0"
       id="guide4252"
       inkscape:label=""
       inkscape:color="rgb(0,0,255)"
       inkscape:locked="false" />
    <sodipodi:guide
       position="221.4567,323.92857"
       orientation="1,0"
       id="guide4254"
       inkscape:label=""
       inkscape:color="rgb(0,0,255)"
       inkscape:locked="false" />
    <sodipodi:guide
       position="-107.14286,340.15748"
       orientation="0,1"
       id="guide4256"
       inkscape:label=""
       inkscape:color="rgb(0,0,255)"
       inkscape:locked="false" />
    <sodipodi:guide
       position="-111.42857,31.889764"
       orientation="0,1"
       id="guide4258"
       inkscape:label=""
       inkscape:color="rgb(0,0,255)"
       inkscape:locked="false" />
    <sodipodi:guide
       position="-60.356616,230.31496"
       orientation="0,1"
       id="guide4262"
       inkscape:label=""
       inkscape:color="rgb(0,0,255)"
       inkscape:locked="false" />
    <sodipodi:guide
       position="-56.063468,258.66142"
       orientation="0,1"
       id="guide4269"
       inkscape:label=""
       inkscape:color="rgb(0,0,255)"
       inkscape:locked="false" />
    <sodipodi:guide
       position="93.897641,308.6016"
       orientation="1,0"
       id="guide4271"
       inkscape:label=""
       inkscape:color="rgb(0,0,255)"
       inkscape:locked="false" />
    <sodipodi:guide
       position="109.84252,340.15748"
       orientation="1,0"
       id="guide4273"
       inkscape:label=""
       inkscape:color="rgb(0,0,255)"
       inkscape:locked="false" />
    <sodipodi:guide
       position="-60.500002,219.68504"
       orientation="0,1"
       id="guide4303"
       inkscape:label=""
       inkscape:color="rgb(0,0,255)"
       inkscape:locked="false" />
  </sodipodi:namedview>
  <metadata
     id="metadata7">
    <rdf:RDF>
      <cc:Work
         rdf:about="">
        <dc:format>image/svg+xml</dc:format>
        <dc:type
           rdf:resource="http://purl.org/dc/dcmitype/StillImage" />
        <dc:title />
      </cc:Work>
    </rdf:RDF>
  </metadata>
  <g
     inkscape:label="Cut line"
     inkscape:groupmode="layer"
     id="layer1"
     transform="translate(0,-680.31496)"
     style="display:inline"
     sodipodi:insensitive="true">
    <path
       style="fill:none;fill-rule:evenodd;stroke:#808080;stroke-width:0.70866144;stroke-linecap:butt;stroke-linejoin:miter;stroke-miterlimit:4;stroke-dasharray:2.83464575, 2.83464575;stroke-dashoffset:0;stroke-opacity:1"
       d="m 19.488189,690.94488 0,350.78742 223.228341,0 0,-350.78742 z"
       id="path3350"
       inkscape:connector-curvature="0"
       transform="translate(4.3385302e-7,8.6660179e-6)" />
  </g>
  <g
     inkscape:groupmode="layer"
     id="layer6"
     inkscape:label="Logo"
     style="display:inline"
     sodipodi:insensitive="true">
    <path
       style="fill:none;fill-rule:evenodd;stroke:none;stroke-width:1px;stroke-linecap:butt;stroke-linejoin:miter;stroke-opacity:1"
       d="m 40.748032,31.889763 0,81.496057 53.149606,0 0,-81.496057 -53.149606,0"
       id="path4275"
       inkscape:connector-curvature="0" />
    <g
       transform="matrix(1.641438,0,0,1.6414382,-315.36584,-111.22219)"
       inkscape:label="helpingheuristics"
       id="layer20">
      <g
         id="g1040">
        <path
           style="fill:#ffffff;fill-opacity:1;stroke:none;stroke-width:0.40087944;stroke-linecap:round;stroke-miterlimit:4;stroke-dasharray:none;stroke-opacity:1"
           d="m 868.77559,384.53478 c -1.66539,0.16903 -3.26812,0.92289 -4.93801,0.8497 -1.10891,-0.009 -2.15045,0.37997 -3.06459,0.93947 -1.48874,0.28249 -3.48429,1.39657 -4.7418,2.1759 -1.81118,0.99852 -2.4137,2.43646 -3.84913,3.90598 -0.54834,0.81516 -1.12451,1.59549 -1.61688,2.43897 -0.27584,1.05678 -1.70721,1.40031 -1.82428,2.52972 -1.11811,1.37909 -1.36736,3.43896 -2.22134,4.94424 -0.44507,1.93 -0.40751,4.11869 -0.92641,6.03417 -0.27225,3.19587 0.74813,6.59591 1.59601,9.71073 0.1147,1.15811 0.45885,2.34371 1.12867,3.3004 0.27916,1.30563 1.07258,2.43647 1.74775,3.55418 0.89183,1.03657 1.61626,2.23335 2.53667,3.24068 0.44366,0.7443 1.71184,1.85995 1.71184,1.85995 l 0.21057,3.14258 c 0,0 -1.77258,1.4967 -2.82942,2.09409 -0.57516,0.44567 -1.42331,0.53359 -1.81991,1.23709 -0.81098,0.34834 -1.37564,1.05527 -2.25355,1.26402 -0.77523,0.70091 -1.75904,1.09186 -2.5757,1.72841 -0.80441,0.32903 -1.3446,1.02674 -2.19279,1.26678 -0.79098,0.64401 -1.69215,1.08662 -2.45174,1.77778 -1.03141,0.59775 -1.9614,1.34276 -2.8885,2.05123 -1.18935,0.6646 -2.03348,1.80258 -3.27002,2.36819 -1.40797,1.11155 -2.64442,2.4571 -4.06759,3.59146 -2.42704,2.16791 -4.66957,4.58386 -6.56008,7.21677 -0.76389,1.31071 -2.0446,2.65915 -1.80356,4.23573 -0.23296,2.2941 1.17195,4.83613 3.17243,5.46032 1.79346,0.99999 4.99379,0.49647 6.94274,1.06316 3.86127,0.47089 7.69634,1.14343 11.57486,1.48357 2.08432,0.42353 4.19432,0.65953 6.29927,0.96541 3.03616,0.61384 6.12816,0.88641 9.14302,1.59652 2.60859,0.35098 4.98567,1.71228 7.57893,2.15109 l 3.39506,1.32614 c -0.85543,1.63714 -1.41094,3.06469 -2.32053,4.69424 -0.62014,1.12373 -3.90347,4.42156 -2.78112,5.40412 1.4541,1.31188 6.30493,-1.52869 7.88624,-1.97803 1.24948,-0.45202 2.4878,-0.91144 3.71162,-1.44253 1.28846,-0.29839 2.32106,-1.21072 3.65396,-1.35932 1.09156,-0.56083 2.18199,-1.1283 3.29592,-1.6552 1.37636,-0.43814 2.56777,-0.90642 2.56777,-0.90642 l 10.24998,3.51795 15.80903,1.14981 -9.19242,-11.13695 c 0,0 -0.18732,-0.6678 1.35347,-0.9588 2.47645,-1.04285 5.15387,-1.53668 7.70331,-2.38552 2.37943,-0.59362 4.72877,-1.32098 7.02544,-2.16026 1.74565,-0.33428 3.34904,-1.08956 5.04573,-1.58788 1.95003,-0.77226 3.9084,-1.52746 5.77804,-2.48834 1.22196,-0.27305 2.50974,-0.66807 3.70545,-1.02608 0.76522,-0.64846 2.64137,-1.0664 3.34487,-1.77623 1.34865,-1.07554 3.49585,-2.22369 4.09732,-3.96301 0.48059,-1.36576 -1.44338,-3.96096 -2.00766,-5.10872 -1.23533,-1.25044 -2.09777,-2.7027 -3.38277,-3.92341 -1.38934,-1.72568 -3.51594,-3.22555 -4.9429,-4.89813 -0.8734,-1.18809 -2.19481,-1.63468 -3.26377,-2.66165 -1.34596,-1.2235 -2.75984,-1.75931 -4.11614,-2.92657 -0.72561,-0.86288 -6.24245,-5.50112 -6.24245,-5.50112 l 0.42364,-2.0654 c 0.4494,-1.3998 1.29707,-2.6437 1.48983,-4.13147 0.81177,-1.63485 1.1473,-2.92378 1.38662,-4.69471 0.90874,-3.30613 1.02481,-7.13966 0.2832,-10.44861 -0.16859,-1.53667 0.008,-3.68092 -0.70127,-5.08349 -0.23773,-1.39028 -1.13166,-2.81323 -1.78941,-4.06139 -0.18693,-1.1347 -1.4237,-1.51134 -1.56703,-2.64987 -0.52279,-0.86209 -1.0246,-1.72411 -1.58892,-2.57052 -1.34826,-1.7156 -2.79518,-3.44514 -4.62036,-4.70909 -0.71324,-0.99063 -2.04888,-1.03725 -2.91578,-1.83026 -1.26258,-0.39996 -2.28839,-1.33725 -3.65431,-1.4484 -1.5693,-1.27139 -3.80597,-0.54433 -5.44416,-1.62206 -1.33646,-0.50731 -2.90978,-0.19361 -3.98093,0.71436 -1.09169,0.2165 -1.80636,1.14721 -2.92718,1.29129 -1.469,0.99951 -3.41321,0.48552 -4.87137,1.50779 -2.14673,0.0736 -4.25001,0.11792 -6.3826,-0.0183 -0.87132,-0.71962 -2.05476,-0.62227 -3.04906,-0.89321 -0.68088,-0.83782 -1.85436,-0.66736 -2.54634,-1.42975 -0.81649,-0.27315 -1.57974,-0.59477 -2.25805,-1.14663 -1.04089,-0.58184 -2.18716,-1.14954 -3.40744,-1.13662 z m 6.80245,3.84006 c 0.022,0.12008 -0.0268,-0.10587 0,0 z m 34.97037,2.89407 c 0.0772,0.32169 -0.17845,-0.56611 0,0 z m 3.17818,2.99139 c 0.034,0.13736 -0.0708,-0.21404 0,0 z m 7.49241,40.3559 c 0.0486,0.009 -0.046,-0.006 0,0 z m 15.45641,23.81915 c -0.24264,0.0682 0.096,-0.0358 0,0 z m -0.97745,0.18714 c -0.0793,0.30934 0.044,-0.23723 0,0 z"
           id="path1029"
           inkscape:connector-curvature="0"
           transform="scale(0.26458333,0.26458333)"
           sodipodi:nodetypes="cccccccccccccccccccccccccccccccccccccccccccccccccccccccccccccccccccccccccccccccccccccccccc" />
        <path
           style="fill:#ffffff;fill-opacity:1;stroke:#000000;stroke-width:0.60000002;stroke-linecap:butt;stroke-linejoin:miter;stroke-miterlimit:4;stroke-dasharray:none;stroke-opacity:1"
           d="m 229.60422,100.33188 c -0.33456,-0.772567 -0.26555,-1.734825 0.0234,-2.525585 0.34837,-0.953387 1.04181,-1.876092 1.94162,-2.345826 1.04264,-0.544297 2.38363,-0.608551 3.51638,-0.291983 1.08191,0.302358 2.1853,0.995739 2.72734,1.979675 0.53811,0.97678 0.6177,2.298971 0.21444,3.338699 -0.37113,0.95688 -1.26693,1.74916 -2.21755,2.13604 -1.13994,0.46393 -2.5442,0.4672 -3.69213,0.0234 -1.06228,-0.41071 -2.06089,-1.26929 -2.51349,-2.31441 z"
           id="path1007"
           inkscape:connector-curvature="0"
           sodipodi:nodetypes="aaaaaaaaa" />
        <path
           style="fill:none;stroke:#000000;stroke-width:0.60000002;stroke-linecap:round;stroke-linejoin:miter;stroke-miterlimit:4;stroke-dasharray:none;stroke-opacity:1"
           d="m 237.36875,119.21685 c 0,0 -5.16415,4.15674 -7.20292,6.73519 -0.70165,0.88738 -1.68379,2.94665 -1.68379,2.94665 0,0 2.36652,-0.6022 3.50791,-1.02899 1.96031,-0.73301 3.74515,-1.88821 5.7062,-2.61924 2.40401,-0.89615 5.6564,-1.60433 8.01839,-2.44918 1.49425,-0.53447 3.23401,-1.57522 3.31418,-2.28851 0.0772,-0.68708 -1.67561,-2.48787 -2.72649,-3.54099 -1.13686,-1.13928 -3.7067,-2.94664 -3.7067,-2.94664"
           id="path1009"
           inkscape:connector-curvature="0"
           sodipodi:nodetypes="cscsssssc" />
        <path
           style="fill:none;stroke:#000000;stroke-width:0.60000002;stroke-linecap:round;stroke-linejoin:miter;stroke-miterlimit:4;stroke-dasharray:none;stroke-opacity:1"
           d="m 239.182,109.8128 c 0,0 0.7259,1.94349 0.75354,3.04822 0.0317,1.26639 -0.8556,4.10841 -0.8556,4.10841 0,0 1.97122,-1.12692 2.68539,-1.86853 0.76057,-0.78979 1.29384,-2.06898 1.63702,-3.11035 0.42248,-1.28202 0.33628,-3.17194 0.1871,-4.51351 -0.1406,-1.26436 -1.17371,-2.65168 -1.96444,-3.64824 -1.41239,-1.78002 -4.40745,-1.98898 -4.40745,-1.98898"
           id="path1011"
           inkscape:connector-curvature="0"
           sodipodi:nodetypes="cscssssc" />
        <path
           style="fill:none;stroke:#000000;stroke-width:0.60000002;stroke-linecap:round;stroke-linejoin:miter;stroke-miterlimit:4;stroke-dasharray:none;stroke-opacity:1"
           d="m 230.43795,101.64138 c 0,0 -2.44039,-0.16166 -3.79284,0.86225 -0.90494,0.6851 -1.04251,0.88318 -1.7206,1.79338 -0.71623,0.9614 -0.9999,2.05271 -1.1967,3.23531 -0.17667,1.06161 -0.10818,1.91623 0.14311,2.96269 0.2296,0.95615 0.65845,1.68856 1.27938,2.45104 0.70293,0.86317 1.52896,1.60487 2.48411,2.17658 0.76614,0.45858 2.61405,1.46979 2.61405,1.46979 0,0 -0.90498,-2.36118 -1.18299,-3.46163 -0.17715,-0.70122 -0.31372,-2.3665 -0.31372,-2.3665"
           id="path1013"
           inkscape:connector-curvature="0"
           sodipodi:nodetypes="csssssscsc" />
        <path
           style="fill:#ffffff;fill-opacity:1;stroke:#000000;stroke-width:0.76499999;stroke-linecap:butt;stroke-linejoin:miter;stroke-miterlimit:4;stroke-dasharray:none;stroke-opacity:1"
           d="m 233.79752,114.47681 c 0,0 1.90852,-2.17501 2.60222,-3.51075 0.33465,-0.64438 0.83329,-1.51468 0.82585,-2.48508 -0.006,-0.73208 0.0413,-1.72774 -1.37909,-1.9479 -0.92338,-0.14312 -2.07921,1.3649 -2.07921,1.3649 0,0 -1.30159,-1.45607 -2.1619,-1.18065 -0.91314,0.29234 -1.09475,1.04215 -1.11734,1.6975 -0.0325,0.94136 0.63145,1.84965 1.11969,2.65515 0.65634,1.08283 2.18978,3.40683 2.18978,3.40683 z"
           id="path1015"
           inkscape:connector-curvature="0"
           sodipodi:nodetypes="cssscsssc" />
        <path
           style="fill:none;stroke:#000000;stroke-width:0.60000002;stroke-linecap:butt;stroke-linejoin:miter;stroke-miterlimit:4;stroke-dasharray:none;stroke-opacity:1"
           d="m 226.42406,114.259 c 0,0 -2.80866,1.6534 -4.34884,2.80868 -1.17456,0.88103 -1.88671,1.30976 -3.24098,2.68207 -0.56914,0.57672 -1.63233,1.667 -1.57988,2.89849 0.0318,0.74707 1.15001,1.30938 1.69045,1.36207 6.04325,0.58915 11.22102,1.94173 11.22102,1.94173"
           id="path1017"
           inkscape:connector-curvature="0"
           sodipodi:nodetypes="cssssc" />
        <path
           style="fill:none;stroke:#000000;stroke-width:0.60000002;stroke-linecap:round;stroke-linejoin:miter;stroke-miterlimit:4;stroke-dasharray:none;stroke-opacity:1"
           d="m 227.06468,120.33938 c 0,0 2.48247,0.72956 3.68415,1.14709 0.9501,0.33011 2.86963,0.883 2.86963,0.883"
           id="path1019"
           inkscape:connector-curvature="0"
           sodipodi:nodetypes="csc" />
        <path
           style="fill:none;stroke:#000000;stroke-width:0.60000002;stroke-linecap:butt;stroke-linejoin:miter;stroke-miterlimit:4;stroke-dasharray:none;stroke-opacity:1"
           d="m 238.86545,124.96982 2.43216,2.94665 c 0,0 -2.49656,0.0106 -3.69784,-0.17909 -1.14468,-0.1808 -3.27122,-0.8967 -3.27122,-0.8967"
           id="path1021"
           inkscape:connector-curvature="0"
           sodipodi:nodetypes="ccsc" />
      </g>
    </g>
  </g>
  <g
     inkscape:groupmode="layer"
     id="layer9"
     inkscape:label="Title"
     style="display:inline"
     sodipodi:insensitive="true">
    <path
       style="fill:none;fill-rule:evenodd;stroke:none;stroke-width:1px;stroke-linecap:butt;stroke-linejoin:miter;stroke-opacity:1"
       d="m 109.84252,113.38582 111.61417,0 0,-81.496057 -111.61417,0 z"
       id="pathhhf4349"
       inkscape:connector-curvature="0" />
    <flowRoot
       xml:space="preserve"
       style="font-style:normal;font-weight:normal;line-height:0.01%;font-family:sans-serif;text-align:end;letter-spacing:0px;word-spacing:0px;text-anchor:end;fill:#000000;fill-opacity:1;stroke:none;stroke-width:1px;stroke-linecap:butt;stroke-linejoin:miter;stroke-opacity:1"
       id="flowRoot4357"
       transform="translate(-3.4125e-4,5.6540212)"><flowRegion
         id="flowRegion4359"><use
           x="0"
           y="0"
           xlink:href="#pathhhf4349"
           id="use4361"
           width="100%"
           height="100%" /></flowRegion><flowPara
         style="font-style:normal;font-variant:normal;font-weight:bold;font-stretch:normal;font-size:13.75px;line-height:1.25;font-family:Roboto;-inkscape-font-specification:'Roboto Bold';text-align:end;text-anchor:end"
         id="flowPara4204">Helping Heuristics</flowPara><flowPara
         id="flowPara4365"
         style="font-style:normal;font-variant:normal;font-weight:normal;font-stretch:normal;font-size:8.75px;line-height:125%;font-family:Lato;-inkscape-font-specification:Lato;text-align:end;letter-spacing:0px;text-anchor:end;fill:#1a1a1a">Pratiquer des méthodes progressives pour aider les autres, recevoir et demander de l'aide</flowPara></flowRoot>
  </g>
  <g
     inkscape:groupmode="layer"
     id="layer8"
     inkscape:label="Separator"
     style="display:inline"
     sodipodi:insensitive="true">
    <rect
       style="display:inline;fill:#916f7c;fill-opacity:1;stroke:none;stroke-width:1;stroke-miterlimit:4;stroke-dasharray:none;stroke-dashoffset:0;stroke-opacity:1"
       id="rect4178"
       width="134.64568"
       height="17.716536"
       x="30.118111"
       y="124.01575" />
    <text
       xml:space="preserve"
       style="font-style:normal;font-weight:normal;line-height:0%;font-family:sans-serif;letter-spacing:0px;word-spacing:0px;display:inline;fill:#000000;fill-opacity:1;stroke:none;stroke-width:1px;stroke-linecap:butt;stroke-linejoin:miter;stroke-opacity:1"
       x="39.935043"
       y="137.46776"
       id="text4180"><tspan
         sodipodi:role="line"
         id="tspan4182"
         x="39.935043"
         y="137.46776"
         style="font-style:normal;font-variant:normal;font-weight:bold;font-stretch:normal;font-size:12.5px;line-height:1.25;font-family:Lato;-inkscape-font-specification:'Lato Bold';fill:#ffffff">Aide</tspan></text>
    <rect
       y="124.01575"
       x="164.76379"
       height="17.716536"
       width="67.322838"
       id="rect4191"
       style="display:inline;fill:#e6e6e6;fill-opacity:1;stroke:none;stroke-width:1;stroke-miterlimit:4;stroke-dasharray:none;stroke-dashoffset:0;stroke-opacity:1" />
    <text
       xml:space="preserve"
       style="font-style:normal;font-weight:normal;line-height:0%;font-family:sans-serif;letter-spacing:0px;word-spacing:0px;fill:#1a1a1a;fill-opacity:1;stroke:none;stroke-width:1px;stroke-linecap:butt;stroke-linejoin:miter;stroke-opacity:1"
       x="184.26759"
       y="137.39589"
       id="text4193"><tspan
         sodipodi:role="line"
         id="tspan4195"
         x="184.26759"
         y="137.39589"
         style="font-style:normal;font-variant:normal;font-weight:500;font-stretch:normal;font-size:12.5px;line-height:1.25;font-family:Lato;-inkscape-font-specification:'Lato Medium';fill:#1a1a1a">15 min</tspan></text>
  </g>
  <g
     inkscape:groupmode="layer"
     id="layer5"
     inkscape:label="Border"
     style="display:inline"
     sodipodi:insensitive="true">
    <rect
       style="fill:none;fill-opacity:1;stroke:#000000;stroke-width:0.35433072;stroke-miterlimit:4;stroke-dasharray:none;stroke-dashoffset:0;stroke-opacity:1"
       id="rect4187"
       width="201.96851"
       height="329.52756"
       x="30.118111"
       y="21.259844"
       ry="14.6735"
       rx="12.76433" />
  </g>
  <g
     inkscape:groupmode="layer"
     id="layer4"
     inkscape:label="Body"
     style="display:inline"
     sodipodi:insensitive="true">
    <path
       style="fill:none;fill-rule:evenodd;stroke:none;stroke-width:1px;stroke-linecap:butt;stroke-linejoin:miter;stroke-opacity:1"
       d="M 40.748032,152.3622 V 340.15748 H 221.45669 V 152.3622 Z"
       id="pathhhf4305"
       inkscape:connector-curvature="0" />
    <flowRoot
       xml:space="preserve"
       style="font-style:normal;font-weight:normal;line-height:0.85;font-family:sans-serif;letter-spacing:0px;word-spacing:0px;fill:#000000;fill-opacity:1;stroke:none;stroke-width:1px;stroke-linecap:butt;stroke-linejoin:miter;stroke-opacity:1"
       id="flowRoot4319"
       transform="matrix(1,0,0,1.0068578,-0.17251487,-4.5759283)"><flowRegion
         id="flowRegion4321"
         style="line-height:0.85"><use
           x="0"
           y="0"
           xlink:href="#pathhhf4305"
           id="use4323"
           width="100%"
           height="100%"
           transform="matrix(1,0,0,0.99318888,0.17251487,4.5447611)" /></flowRegion><flowPara
         id="flowPara4325"
         style="font-style:normal;font-variant:normal;font-weight:bold;font-stretch:normal;font-size:8.72015px;line-height:0.85;font-family:Roboto;-inkscape-font-specification:'Roboto Bold';fill:#999999;fill-opacity:1">Invitation</flowPara><flowPara
         style="font-style:normal;font-variant:normal;font-weight:500;font-stretch:normal;font-size:8.72015px;line-height:0.85;font-family:Lato;-inkscape-font-specification:'Lato Medium';fill:#1a1a1a;fill-opacity:1"
         id="flowPara4286">Les participants considèrent toutes les interactions humaines comme des offres qui sont soit acceptées, soit bloquées</flowPara><flowPara
         style="font-style:normal;font-variant:normal;font-weight:500;font-stretch:normal;font-size:8.72015px;line-height:0.85;font-family:Lato;-inkscape-font-specification:'Lato Medium';fill:#1a1a1a;fill-opacity:1"
         id="flowPara4200"> </flowPara><flowPara
         style="font-style:normal;font-variant:normal;font-weight:bold;font-stretch:normal;font-size:8.72015px;line-height:0.85;font-family:Roboto;-inkscape-font-specification:'Roboto Bold';fill:#999999;fill-opacity:1"
         id="flowPara4212">Personnes</flowPara><flowPara
         style="font-style:normal;font-variant:normal;font-weight:500;font-stretch:normal;font-size:8.72015px;line-height:0.85;font-family:Lato;-inkscape-font-specification:'Lato Medium';fill:#1a1a1a;fill-opacity:1"
         id="flowPara4308">Groupes de 3 : deux participants interagissant face à face dans les rôles de client (avec un défi à partager) et de coach, plus un observateur (les rôles peuvent changer entre les tours).</flowPara><flowPara
         style="font-style:normal;font-variant:normal;font-weight:500;font-stretch:normal;font-size:8.72015px;line-height:0.85;font-family:Lato;-inkscape-font-specification:'Lato Medium';fill:#1a1a1a;fill-opacity:1"
         id="flowPara4214"> </flowPara><flowPara
         style="font-style:normal;font-variant:normal;font-weight:bold;font-stretch:normal;font-size:8.72015px;line-height:0.85;font-family:Roboto;-inkscape-font-specification:'Roboto Bold';fill:#999999;fill-opacity:1"
         id="flowPara4202">Espace et matériel</flowPara><flowPara
         style="font-style:normal;font-variant:normal;font-weight:500;font-stretch:normal;font-size:8.72015px;line-height:0.85;font-family:Lato;-inkscape-font-specification:'Lato Medium';fill:#1a1a1a;fill-opacity:1"
         id="flowPara4279">Participants debout, sans chaises ni tables</flowPara><flowPara
         style="font-style:normal;font-variant:normal;font-weight:500;font-stretch:normal;font-size:8.72015px;line-height:0.85;font-family:Lato;-inkscape-font-specification:'Lato Medium';fill:#1a1a1a;fill-opacity:1"
         id="flowPara4205" /><flowPara
         style="font-style:normal;font-variant:normal;font-weight:bold;font-stretch:normal;font-size:8.72015px;line-height:0.85;font-family:Roboto;-inkscape-font-specification:'Roboto Bold';fill:#999999;fill-opacity:1"
         id="flowPara4207">Fonctionne avec</flowPara><flowPara
         style="font-style:normal;font-variant:normal;font-weight:500;font-stretch:normal;font-size:8.72015px;line-height:0.85;font-family:Lato;-inkscape-font-specification:'Lato Medium';fill:#1a1a1a;fill-opacity:1"
         id="flowPara4206">Troika Consulting          Wise Crowds</flowPara><flowPara
         style="font-style:normal;font-variant:normal;font-weight:500;font-stretch:normal;font-size:8.72015px;line-height:0.85;font-family:Lato;-inkscape-font-specification:'Lato Medium';fill:#1a1a1a;fill-opacity:1"
         id="flowPara1">Ce que j'Attends de Vous </flowPara><flowPara
         style="font-style:normal;font-variant:normal;font-weight:500;font-stretch:normal;font-size:8.72015px;line-height:0.85;font-family:Lato;-inkscape-font-specification:'Lato Medium';fill:#1a1a1a;fill-opacity:1"
         id="flowPara2">Improv Prototyping           Simple Ethnography</flowPara></flowRoot>
    <g
       transform="matrix(0.24763427,0,0,0.24763427,136.82195,282.25562)"
       inkscape:label="simpleethnography"
       id="layer29"
       style="display:inline;enable-background:new">
      <g
         id="g1150">
        <path
           inkscape:connector-curvature="0"
           id="path1096"
           transform="matrix(0.26458334,0,0,0.26458334,303.0802,185.23034)"
           d="M 98.871094,0.00195313 C 96.594471,0.03882737 94.315093,0.53695172 92.1875,1.7285156 87.243538,4.4973981 85.25,10.416016 85.25,10.416016 L 80,8.6660156 45.25,88.416016 l -25,-37.5 c 0,0 -6.952185,-1.711486 -13.0429688,2.11914 C 1.9653557,56.331736 0,61.916016 0,61.916016 l 36.25,46.250004 -15.75,29 c 0,0 29.86328,18.28377 46.125,24.5 9.420661,3.60113 29.375,7.25 29.375,7.25 l 17,-33.5 c 0,0 13.05489,9.4429 20,13.5 9.17114,5.35748 28.5,14.25 28.5,14.25 l 2.5,-116.750004 -6.75,-3 2,-5 -3.5,-2.25 c 0,0 3.33446,-10.966247 -5.6875,-17.1875 C 146.36843,16.431152 139,16.416016 139,16.416016 c 0,0 -1.54768,-2.951566 -5.125,-4.5 -3.81471,-1.651125 -8.125,-1 -8.125,-1 0,0 -2.76637,-4.0924311 -6.0625,-5.3125004 -5.2074,-1.9275212 -9.0625,-0.6875 -9.0625,-0.6875 0,0 -3.77869,-3.5550716 -6.1875,-4.18749998 C 102.95152,0.33836917 101.40423,0.07551455 99.845703,0.01367188 99.521011,7.87985e-4 99.196326,-0.00331462 98.871094,0.00195313 Z m 0.517578,4.42382807 c 4.072078,0.1399646 6.955078,2.3125 6.955078,2.3125 0,0 -3.52143,2.262568 -4.77344,3.8886718 -1.04575,1.358211 -2.121091,4.685547 -2.121091,4.685547 l -9.810547,-3.625 c 0,0 2.408799,-6.000425 6.761719,-6.9824219 1.045488,-0.2358567 2.048571,-0.3115964 2.988281,-0.2792969 z M 115.3418,8.8046875 c 1.10597,0.018595 2.40818,0.1285347 3.19922,0.4960937 1.20918,0.5618648 2.83007,2.8281248 2.83007,2.8281248 0,0 -2.21125,0.984557 -4.08007,3.080078 -1.69762,1.903446 -2.90821,4.585938 -2.90821,4.585938 l -0.91406,-0.289063 c 0,0 0.87732,-3.779004 0.83008,-5.697265 -0.0414,-1.680945 -0.97266,-4.949219 -0.97266,-4.949219 0,0 0.90966,-0.073283 2.01563,-0.054687 z m -6.34571,1.6464845 c 0,0 1.07663,2.417583 1.14844,3.710937 0.0782,1.407761 -0.79492,4.154297 -0.79492,4.154297 l -5.74609,-2.033203 c 0,0 0.62694,-2.67966 1.5039,-3.667969 0.9848,-1.109858 3.88867,-2.164062 3.88867,-2.164062 z m 21.01563,3.935547 c 0.81378,0.01409 1.75264,0.1557 2.67187,0.572265 1.58215,0.716977 3.00586,2.828125 3.00586,2.828125 0,0 -2.94482,1.529722 -4.27343,2.511719 -0.72507,0.535899 -2.78907,4.103516 -2.78907,4.103516 l -1.19922,-0.449219 c 0,0 0.79447,-3.130217 0.82618,-4.730469 0.0302,-1.523036 -0.60743,-4.529297 -0.60743,-4.529297 0,0 1.00893,-0.330131 2.36524,-0.30664 z m -6.51953,1.367187 c 0,0 1.16653,2.596619 1.14843,3.976563 -0.0151,1.15646 -1.05078,3.30664 -1.05078,3.30664 l -5.64062,-2.078125 c 0,0 1.18812,-2.742293 2.27148,-3.703125 0.89753,-0.796006 3.27149,-1.501953 3.27149,-1.501953 z m 18.16992,4.580078 c 0,0 6.08817,-0.263945 9.11523,4.554688 2.95102,4.697801 0.73243,9.162109 0.73243,9.162109 l -9.72266,-4.597656 c 0,0 0.75291,-3.283165 0.70703,-4.949219 -0.0389,-1.41668 -0.83203,-4.169922 -0.83203,-4.169922 z m -3.98047,0.863282 c 0,0 0.58715,2.38216 0.5918,3.597656 0.004,1.038727 -0.48242,3.078125 -0.48242,3.078125 l -5.19532,-2.220703 c 0,0 0.99242,-2.152287 1.85547,-2.916016 0.89303,-0.790261 3.23047,-1.539062 3.23047,-1.539062 z"
           style="fill:#00000f;fill-opacity:1;stroke:none;stroke-width:1px;stroke-linecap:butt;stroke-linejoin:miter;stroke-opacity:1" />
        <path
           style="fill:#ffffff;fill-opacity:1;stroke:none;stroke-width:0.264583px;stroke-linecap:butt;stroke-linejoin:miter;stroke-opacity:1"
           d="m 304.55312,201.34223 c 0,0 0.76913,-0.96338 1.28819,-1.27047 0.49197,-0.29107 1.64327,-0.49041 1.64327,-0.49041 l 1.31724,1.79963 c 0,0 -1.41438,0.23126 -2.02313,0.57995 -0.38089,0.21817 -0.95343,0.90833 -0.95343,0.90833 z"
           id="path1098"
           inkscape:connector-curvature="0"
           sodipodi:nodetypes="caccacc" />
        <path
           style="fill:#ffffff;fill-opacity:1;stroke:none;stroke-width:0.264583px;stroke-linecap:butt;stroke-linejoin:miter;stroke-opacity:1"
           d="m 318.84585,219.73024 1.21608,-0.49111 0.74837,-0.6782 0.91205,3.22728 z"
           id="path1100"
           inkscape:connector-curvature="0" />
        <path
           style="fill:#fffff9;fill-opacity:1;stroke:none;stroke-width:0.264583px;stroke-linecap:butt;stroke-linejoin:miter;stroke-opacity:1"
           d="m 316.03952,209.30004 5.37882,7.76418 2.29182,7.57709 -6.87551,-4.58367 -3.36759,-4.86431 -2.99342,5.65944 c 0,0 5.11627,3.41278 7.90451,4.67721 2.959,1.34187 9.26089,3.04019 9.26089,3.04019 0,0 5.62009,-10.65958 8.32543,-16.04285 2.73161,-5.43554 7.982,-16.41184 7.982,-16.41184 0,0 -1.58313,-0.95586 -2.40709,-1.37362 -1.16793,-0.59216 -3.58709,-1.6016 -3.58709,-1.6016 0,0 -0.0647,1.18962 0.21047,1.6838 0.27778,0.49886 1.33303,1.07576 1.33303,1.07576 l -0.39757,1.14591 c 0,0 -1.70619,-1.17107 -2.15153,-2.05797 -0.3419,-0.6809 -0.28062,-2.26845 -0.28062,-2.26845 l -2.47894,-0.86529 c 0,0 0.01,1.11056 0.28065,1.56687 0.28579,0.4816 1.30961,1.05237 1.30961,1.05237 l -0.42096,0.98222 c 0,0 -1.6908,-1.10953 -2.15151,-1.96443 -0.32953,-0.61148 -0.32739,-2.05798 -0.32739,-2.05798 l -2.43216,-0.88867 c 0,0 0.10352,1.08669 0.39756,1.5201 0.28798,0.42448 1.23944,0.91206 1.23944,0.91206 l -0.39756,1.00559 c 0,0 -1.55245,-0.97442 -2.0112,-1.73056 -0.33641,-0.55449 -0.44432,-1.89428 -0.44432,-1.89428 l -2.40876,-0.91205 c 0,0 -0.001,0.82238 0.18708,1.1693 0.26064,0.48023 1.21608,1.09914 1.21608,1.09914 l -0.51451,1.02899 c 0,0 -1.42619,-1.02389 -1.87087,-1.75395 -0.31193,-0.51212 -0.49112,-1.73057 -0.49112,-1.73057 l -0.65481,-0.30402 z"
           id="path1102"
           inkscape:connector-curvature="0"
           sodipodi:nodetypes="ccccccacacscaccaccaccaccaccaccaccaccc" />
        <path
           style="fill:none;stroke:#000000;stroke-width:0.965;stroke-linecap:round;stroke-linejoin:miter;stroke-miterlimit:4;stroke-dasharray:none;stroke-opacity:1"
           d="m 323.78033,197.23282 c 0,0 0.1101,1.48671 0.65482,1.8475 1.0808,0.71586 2.79256,-0.93638 3.88207,-0.23386 0.47696,0.30754 0.60804,1.59026 0.60804,1.59026"
           id="path1118"
           inkscape:connector-curvature="0"
           sodipodi:nodetypes="caac" />
        <path
           style="fill:none;stroke:#000000;stroke-width:0.965;stroke-linecap:round;stroke-linejoin:miter;stroke-miterlimit:4;stroke-dasharray:none;stroke-opacity:1"
           d="m 322.00299,201.37216 c 0,0 0.19565,1.45861 0.74835,1.80073 0.97,0.60043 2.449,-0.8417 3.41437,-0.23386 0.62473,0.39336 0.81851,2.05797 0.81851,2.05797"
           id="path1120"
           inkscape:connector-curvature="0"
           sodipodi:nodetypes="caac" />
        <path
           style="fill:none;stroke:#000000;stroke-width:0.965;stroke-linecap:round;stroke-linejoin:miter;stroke-miterlimit:4;stroke-dasharray:none;stroke-opacity:1"
           d="m 319.66437,205.72197 c 0,0 -0.1524,1.70718 0.44434,2.10475 1.01024,0.67307 2.51642,-1.26688 3.57806,-0.6782 0.65833,0.36504 0.15027,1.75818 0.81852,2.10475 0.86268,0.44741 1.95023,-1.11496 2.82972,-0.70158 0.86142,0.40489 0.39922,2.12528 1.23947,2.57246 1.10554,0.58836 2.56447,-1.0246 3.71837,-0.53787 0.68385,0.28846 1.30963,1.80072 1.30963,1.80072"
           id="path1122"
           inkscape:connector-curvature="0"
           sodipodi:nodetypes="caaaaaac" />
        <path
           style="fill:none;stroke:#000000;stroke-width:0.965;stroke-linecap:round;stroke-linejoin:miter;stroke-miterlimit:4;stroke-dasharray:none;stroke-opacity:1"
           d="m 317.65316,210.35242 c 0,0 -0.20967,1.56412 0.32743,1.94104 1.07011,0.75097 2.74585,-1.38763 3.8587,-0.70158 0.70551,0.43493 -0.0304,1.99667 0.70157,2.38538 0.81652,0.4336 1.80158,-1.22574 2.64264,-0.8419 0.77196,0.3523 0.27746,1.90289 1.0056,2.33861 1.08768,0.65088 2.62306,-0.82576 3.78854,-0.32741 0.6526,0.27905 1.333,1.66041 1.333,1.66041"
           id="path1177"
           inkscape:connector-curvature="0"
           sodipodi:nodetypes="caaaaaac" />
        <path
           style="fill:none;stroke:#000000;stroke-width:0.965;stroke-linecap:round;stroke-linejoin:miter;stroke-miterlimit:4;stroke-dasharray:none;stroke-opacity:1"
           d="m 329.13574,220.92292 c 0,0 -0.57732,-1.43212 -1.21608,-1.73057 -1.26158,-0.58945 -2.98588,1.09516 -4.16272,0.3508 -0.73176,-0.46284 -0.1742,-1.97909 -0.91204,-2.43216 -1.02263,-0.62795 -3.5781,0.39757 -3.5781,0.39757"
           id="path1178"
           inkscape:connector-curvature="0"
           sodipodi:nodetypes="caaac" />
        <path
           style="fill:#ffffff;fill-opacity:1;stroke:#000000;stroke-width:0.565;stroke-linecap:butt;stroke-linejoin:miter;stroke-miterlimit:4;stroke-dasharray:none;stroke-opacity:1"
           d="m 333.83635,200.53026 c 0.0512,-0.27471 0.19637,-0.55869 0.42095,-0.72497 0.30241,-0.2239 0.72505,-0.29785 1.09913,-0.25725 0.39517,0.0429 0.82262,0.20804 1.07577,0.5145 0.21555,0.26093 0.28853,0.64521 0.25726,0.98221 -0.0287,0.30902 -0.14222,0.66551 -0.39757,0.8419 -0.28311,0.19556 -0.6922,0.15231 -1.029,0.0819 -0.48474,-0.1014 -1.0226,-0.298 -1.30962,-0.70158 -0.1441,-0.20261 -0.16249,-0.49225 -0.11692,-0.73666 z"
           id="path1128"
           inkscape:connector-curvature="0"
           sodipodi:nodetypes="aaaaaaaaa" />
        <path
           style="fill:#fffffb;fill-opacity:1;stroke:#000000;stroke-width:0.565;stroke-linecap:butt;stroke-linejoin:miter;stroke-miterlimit:4;stroke-dasharray:none;stroke-opacity:1"
           d="m 331.39567,200.77264 c 0,0 0.84539,0.081 1.254,0.18943 0.45026,0.11944 0.87464,0.32199 1.3036,0.50363 0.41112,0.17408 0.81139,0.37274 1.21608,0.56127 0.55227,0.25729 1.14854,0.43768 1.65406,0.77776 0.39829,0.26795 1.05874,0.97619 1.05874,0.97619 l -2.68941,-0.0935 c 0,0 -0.38376,2.21374 -0.81851,3.23897 -0.20227,0.47699 -0.81852,1.32132 -0.81852,1.32132 0,0 -0.34186,-0.9997 -0.40926,-1.52009 -0.0931,-0.71897 0.0117,-2.17491 0.0117,-2.17491 0,0 -1.35484,1.06411 -2.12812,1.42655 -0.37523,0.17587 -1.19269,0.35079 -1.19269,0.35079 0,0 0.25296,-0.94965 0.51448,-1.35639 0.58131,-0.90413 2.26846,-2.29184 2.26846,-2.29184 z"
           id="path1179"
           inkscape:connector-curvature="0"
           sodipodi:nodetypes="cssssccscscscscc" />
      </g>
    </g>
    <g
       transform="matrix(0.24954944,0,0,0.24954947,152.73284,260.34793)"
       style="display:inline;enable-background:new"
       inkscape:label="wisecrowds"
       id="layer22">
      <g
         id="g4745">
        <path
           inkscape:connector-curvature="0"
           id="path4705"
           transform="matrix(0.26458333,0,0,0.26458333,96.116803,179.55668)"
           d="m 160.11914,0.00195313 c -2.04369,-0.02657149 -4.09836,0.30948271 -5.92969,1.09765627 -2.85494,1.2287244 -5.66284,3.4398926 -6.87304,6.3027344 -1.30953,3.0977012 0.29101,10.0839842 0.29101,10.0839842 l -26.33984,5.126953 18.74023,14.671875 -27.57812,5.833985 c 0,0 -0.64486,-4.589571 -2.11328,-6.208985 -2.00138,-2.207131 -5.18526,-3.311651 -8.14063,-3.689453 -3.569302,-0.456302 -7.473435,0.124694 -10.636718,1.839844 -2.395048,1.298646 -4.553529,3.458669 -5.560546,5.990234 -0.908448,2.283666 -0.06445,7.373047 -0.06445,7.373047 l -16.970703,-0.53125 c 0,0 -2.430674,-5.995233 -2.917968,-11.84375 C 65.710556,32.271379 65.585022,29.319882 68.677734,25.175781 77.175216,13.78969 83.173828,0.86914062 83.173828,0.86914062 L 51.972656,12.890625 c 0,0 -1.733341,-6.2454842 -4.066406,-8.2207031 -2.020271,-1.7103882 -4.954532,-2.3085916 -7.601562,-2.296875 -3.857885,0.018898 -7.978265,1.1116309 -11.048829,3.4472656 -2.120504,1.6129134 -3.882015,4.0905186 -4.330078,6.7167965 -0.468661,2.747339 1.94336,8.132813 1.94336,8.132813 L 0,29.861328 c 0,0 10.046077,5.538238 15.203125,8.042969 4.639106,2.253203 10.198754,2.952083 14.142578,6.275391 1.13726,0.958337 2.054439,2.28627 2.474609,3.71289 0.711088,2.414287 -0.115234,7.548828 -0.115234,7.548828 0,0 -8.349029,4.427075 -11.345703,7.9375 -3.25028,3.807496 -5.932612,8.538552 -6.570313,13.503906 -0.995115,7.748379 1.058935,16.016866 4.595704,22.982422 5.249045,10.337836 14.074578,18.897506 23.511718,25.632816 8.999781,6.42315 19.677242,10.57763 30.404297,13.25781 15.311063,3.82552 31.429749,4.3347 47.199219,3.71289 17.28862,-0.68171 34.16768,-5.48291 51.26562,-8.13281 10.8954,-1.68858 21.70458,-4.20927 32.70508,-4.94922 3.70439,-0.24907 11.13672,0.17578 11.13672,0.17578 l -13.08203,13.25977 c 0,0 -9.35907,-1.6392 -19.97656,2.12109 -6.23324,2.20758 -11.78757,5.85146 -14.67188,11.3125 -3.80409,7.20249 -3.68431,16.57388 -1.41406,24.39648 2.22421,7.66398 7.94451,14.20704 13.96484,19.44532 5.82618,5.06933 13.0286,8.85107 20.50586,10.7832 10.55702,2.72795 22.07622,3.13999 32.70508,0.70703 9.6076,-2.19919 19.00832,-6.84836 26.33985,-13.43555 5.13044,-4.60955 9.34514,-10.71364 11.3125,-17.32422 2.13464,-7.17263 2.51969,-15.40458 0,-22.45117 -2.56577,-7.17539 -14.4961,-17.67578 -14.4961,-17.67578 l 3.35938,-8.48633 c 0,0 8.18197,-0.89813 12.19726,-1.76757 3.71808,-0.80508 10.96094,-3.18165 10.96094,-3.18165 0,0 -7.38133,-3.8208 -10.7832,-6.1875 -3.02234,-2.10258 -5.45133,-4.98597 -8.48633,-7.07031 -2.82709,-1.94154 -8.98438,-5.01367 -8.98438,-5.01367 0,0 3.94389,-4.15193 2.60938,-9.035156 -1.04512,-3.824201 -3.64202,-5.682036 -6.42969,-7.375 -2.34932,-1.426734 -5.26826,-2.074445 -8.01367,-1.941406 -2.63543,0.127748 -5.42553,0.939785 -7.47656,2.59961 -2.38133,1.927181 -4.76172,7.859372 -4.76172,7.859372 l -17.85547,-4.595701 -5.47852,2.47461 8.83789,15.203121 3.71289,11.84375 c 0,0 -7.07163,-0.70092 -10.60742,-0.52929 -18.08727,0.87791 -35.81333,5.39637 -53.74023,7.95507 -12.42425,1.77339 -24.75174,4.84592 -37.29883,5.125 -14.73128,0.32776 -29.842528,-0.0413 -44.017578,-4.06445 -9.557367,-2.7126 -18.794524,-7.23402 -26.693359,-13.25976 -8.72674,-6.6573 -16.93514,-14.79139 -21.919922,-24.570316 -3.506532,-6.87893 -6.198437,-15.016649 -4.929687,-22.632813 1.485883,-8.919496 11.451172,-15.105469 11.451172,-15.105469 l -4.400391,35.439454 c 0,0 3.677003,0.694266 6.541016,-1.238282 2.864012,-1.932548 4.731956,-6.515258 7.601562,-11.84375 2.869607,-5.328491 9.015625,-20.328125 9.015625,-20.328125 0,0 15.624734,17.92697 18.214844,19.878907 2.59011,1.951899 6.533203,1.6875 6.533203,1.6875 0,0 -2.837272,3.727621 -1.029297,9.865234 1.293392,4.390828 8.277344,11.34766 8.277344,11.34766 l -5.126953,20.50586 c 0,0 4.102446,-0.0908 5.84375,-1.0293 2.692989,-1.45168 4.370576,-4.30224 6.300781,-6.67578 1.514532,-1.86244 4.119141,-5.90625 4.119141,-5.90625 0,0 11.174189,3.94606 16.970699,5.0625 4.06715,0.78338 12.375,1.125 12.375,1.125 0,0 2.36793,1.50297 3.40235,1.36914 1.03442,-0.1338 2.07617,-1.54688 2.07617,-1.54688 0,0 14.30987,0.16219 21.39062,-0.70703 11.79829,-1.44816 23.85157,-3.00969 34.86719,-7.47656 9.50842,-3.85565 13.27011,-5.06679 16.04492,-10.908204 2.33488,-4.915238 0.89149,-11.334601 -1.41406,-16.263672 -2.16427,-4.627049 -10.86719,-10.804687 -10.86719,-10.804687 0,0 -4.11737,-28.361901 -4.48047,-32.259766 -0.36321,-3.897902 -0.20926,-6.167698 3.16211,-8.335937 3.37119,-2.16824 16.25,-10.648438 16.25,-10.648438 0,0 -6.02038,0.105821 -11.11718,-0.5 -5.09681,-0.605669 -19.11133,-4.271484 -19.11133,-4.271484 0,0 0.41204,-7.074365 -1.4668,-9.7851564 -1.66938,-2.4086174 -4.8226,-3.6385902 -7.68359,-4.27343748 -1.16783,-0.25915748 -2.39097,-0.40593211 -3.61719,-0.42187499 z m -17.59375,41.65820287 -1.98828,8.751953 -4.24219,-1.326171 z m -9.80078,11.951172 6.6875,0.875 -6.375,14.9375 -9.0625,-0.875 c 0,0 1.37571,-5.195572 2.87891,-7.767578 1.50319,-2.571969 5.87109,-7.169922 5.87109,-7.169922 z m 25.56836,6.425781 c 1.17155,-0.0092 6.12833,0.381197 10.43164,7.199219 4.91807,7.792026 14.88672,21.451172 14.88672,21.451172 l 6.39844,-0.767578 -0.41016,-7.621094 c 0,0 5.04182,4.930454 5.8125,8.1875 0.75719,3.199862 0.31221,7.006176 -1.5,9.75 -2.39271,3.622752 -7.0302,5.265682 -11.0625,6.875002 -10.72781,4.28148 -22.47933,5.54152 -33.9375,7 -6.64222,0.84548 -20.0625,1 -20.0625,1 l -0.75,-11.3125 c 0,0 8.20425,1.76925 12.375,1.875 5.65126,0.14324 11.6752,0.53048 16.875,-1.6875 4.30874,-1.83787 9.51762,-4.589077 10.6875,-9.125002 1.22827,-4.762318 -1.86968,-10.182037 -5.1875,-13.8125 -3.91612,-4.285153 -15.6875,-7.5625 -15.6875,-7.5625 l 10.875,-11.4375 c 0,0 0.0885,-0.01041 0.25586,-0.01172 z m -84.312501,6.769532 12.287109,6.984375 c 0,0 -2.582728,0.929515 -5.537109,2.75 -1.194822,0.736252 -3.582031,2.964843 -3.582031,2.964843 z m 49.494141,5.679687 8.41016,0.451172 -4.59766,10.611328 c 0,0 2.36104,0.819342 5.25,-0.25 2.88896,-1.069342 10.4375,-8.125 10.4375,-8.125 0,0 10.41202,3.563889 14.1875,7.3125 2.38719,2.370255 4.99742,5.587743 4.6875,8.9375 -0.28823,3.11675 -3.0748,5.857709 -5.8125,7.375 -4.36263,2.417802 -9.90307,2.022762 -14.875,1.625002 -4.93232,-0.39458 -14.3125,-3.937502 -14.3125,-3.937502 z m -35.263672,4.396484 -4.330079,19.888672 c 0,0 -6.349666,-5.02761 -4.517578,-12.505859 1.295547,-5.28824 8.847657,-7.382813 8.847657,-7.382813 z m 16.175782,16.087891 14.9375,20.064457 c 0,0 -9.1441,-1.42315 -12.99219,-2.47461 -3.84809,-1.05147 -10.076171,-3.625 -10.076171,-3.625 z m 124.00781,50.646487 7.95508,41.71875 6.1875,-1.50196 11.58008,-37.12304 c 0,0 8.10029,8.42432 9.89843,13.78906 1.93886,5.7843 1.82041,12.35226 0.44141,18.29492 -1.44174,6.21305 -4.60274,12.20166 -8.83789,16.9707 -3.57592,4.02678 -8.43757,6.88721 -13.3457,9.10352 -5.54226,2.50265 -11.6088,4.12283 -17.67774,4.50781 -7.91051,0.50185 -16.1158,-0.30425 -23.59961,-2.91601 -6.45494,-2.2526 -12.59915,-5.93047 -17.50195,-10.69532 -4.84067,-4.70437 -9.08774,-10.51179 -11.04883,-16.9707 -2.06309,-6.7948 -3.19445,-14.83182 -0.26562,-21.30078 2.33559,-5.15868 7.45783,-9.50557 12.90625,-11.04883 7.71503,-2.18524 12.55078,-0.17773 12.55078,-0.17773 l -11.66797,11.66797 c 0,0 8.56045,-1.33097 12.72852,-2.47461 3.71164,-1.0184 10.87109,-3.88867 10.87109,-3.88867 0,0 9.46529,9.22589 12.375,15.02539 2.48988,4.96271 5.26266,10.77449 3.97656,16.17578 -0.75503,3.17095 -3.58831,5.7137 -6.36328,7.42383 -2.79904,1.72493 -6.28851,2.32954 -9.57617,2.36718 -2.94811,0.034 -6.10038,-0.41601 -8.63281,-1.92578 -3.06365,-1.82649 -5.8044,-4.72334 -7.01563,-8.07812 -1.52712,-4.22975 -2.04573,-9.65082 0.29883,-13.48828 1.56,-2.55353 4.95905,-3.69276 7.89453,-4.27344 2.83899,-0.5616 6.43724,-0.5863 8.63477,0.91406 2.31038,1.57742 3.54947,3.79059 3.92187,5.8457 0.43756,2.41478 0.78397,4.18202 0.29883,6.57227 -0.46515,2.29274 4.50858,1.83676 4.5293,-0.39648 0.0302,-3.27904 0.41417,-6.56373 -0.88868,-9.44532 -1.21629,-2.69011 -3.60389,-4.82762 -6.07226,-6.44726 -1.32159,-0.86718 -2.89194,-1.41749 -4.46094,-1.60938 -2.43689,-0.2982 -4.93124,0.21573 -7.32617,0.75586 -2.09484,0.47225 -3.03077,0.77754 -6.07227,2.15234 -2.64797,1.19698 -5.41984,4.28498 -6.41015,7.39258 -1.59511,5.00546 -0.76667,10.96324 1.53125,15.6875 1.60426,3.29813 4.6738,5.96306 7.95508,7.60157 3.70752,1.85132 8.14095,2.14457 12.26562,2.02343 7.61911,-0.22374 14.00442,-2.655 18.14063,-7.76953 3.17196,-3.92224 3.48509,-9.83746 2.91601,-14.84961 -0.54606,-4.80933 -3.24771,-9.22339 -5.92187,-13.25781 -2.64892,-3.99632 -9.81055,-10.51758 -9.81055,-10.51758 z"
           style="fill:#000000;fill-opacity:1;stroke:none;stroke-width:1px;stroke-linecap:butt;stroke-linejoin:miter;stroke-opacity:1" />
        <path
           style="fill:#ffffff;fill-opacity:1;stroke:none;stroke-width:0.264583px;stroke-linecap:butt;stroke-linejoin:miter;stroke-opacity:1"
           d="m 104.67611,184.08984 c -0.25325,-0.35377 -0.44097,-0.80355 -0.4141,-1.2378 0.0309,-0.49926 0.26562,-1.03101 0.64796,-1.35356 0.43802,-0.36952 1.08255,-0.51902 1.65357,-0.47056 0.38693,0.0328 0.78573,0.21928 1.0507,0.50316 0.41578,0.44544 0.69356,1.09012 0.67419,1.69915 -0.0166,0.52145 -0.26573,1.0836 -0.66851,1.4152 -0.44123,0.36325 -1.10212,0.53534 -1.66207,0.42095 -0.52626,-0.1075 -0.96909,-0.53979 -1.28174,-0.97654 z"
           id="path4707"
           inkscape:connector-curvature="0"
           sodipodi:nodetypes="aaaaaaaaa" />
        <path
           style="fill:#ffffff;fill-opacity:1;stroke:none;stroke-width:0.264583px;stroke-linecap:butt;stroke-linejoin:miter;stroke-opacity:1"
           d="m 121.02298,189.25817 c 0.47101,-0.30544 1.13498,-0.30151 1.67695,-0.15519 0.4839,0.13065 0.94672,0.45582 1.2241,0.87331 0.30568,0.46006 0.46904,1.07411 0.36449,1.61648 -0.10292,0.5339 -0.44628,1.08525 -0.92458,1.34386 -0.535,0.28928 -1.26787,0.28824 -1.82411,0.0423 -0.50135,-0.22169 -0.85413,-0.74149 -1.07811,-1.24182 -0.1658,-0.37036 -0.23177,-0.8093 -0.15402,-1.20756 0.0932,-0.47724 0.3073,-1.0068 0.71528,-1.27136 z"
           id="path4709"
           inkscape:connector-curvature="0"
           sodipodi:nodetypes="aaaaaaaaa" />
        <path
           style="fill:#ffffff;fill-opacity:1;stroke:none;stroke-width:0.264583px;stroke-linecap:butt;stroke-linejoin:miter;stroke-opacity:1"
           d="m 136.57473,182.94393 c -0.13072,-0.38579 -0.10331,-0.84101 0.0428,-1.22127 0.15542,-0.40465 0.44802,-0.80303 0.83622,-0.99592 0.4777,-0.23735 1.09256,-0.24954 1.59828,-0.0799 0.47242,0.1585 0.91296,0.51951 1.14592,0.96001 0.23994,0.4537 0.29493,1.03893 0.15288,1.53213 -0.14319,0.49713 -0.48937,0.99418 -0.95199,1.22576 -0.48633,0.24346 -1.13751,0.25688 -1.63134,0.029 -0.56823,-0.26219 -0.99188,-0.85716 -1.19272,-1.44986 z"
           id="path4711"
           inkscape:connector-curvature="0"
           sodipodi:nodetypes="aaaaaaaaa" />
        <path
           style="fill:#ffffff;fill-opacity:1;stroke:none;stroke-width:0.264583px;stroke-linecap:butt;stroke-linejoin:miter;stroke-opacity:1"
           d="m 159.39069,204.57489 c 0.5163,-0.26396 1.20837,-0.20834 1.73942,0.0245 0.56055,0.2458 1.01723,0.77237 1.26285,1.333 0.23201,0.52958 0.30367,1.18339 0.11693,1.73057 -0.14804,0.43377 -0.47757,0.88304 -0.91205,1.02899 -0.52751,0.17721 -1.1484,-0.0611 -1.63703,-0.32741 -0.51863,-0.28264 -0.98136,-0.73782 -1.23379,-1.2718 -0.19391,-0.4102 -0.26536,-0.91279 -0.15343,-1.35249 0.11704,-0.45977 0.39467,-0.94942 0.8171,-1.16539 z"
           id="path4713"
           inkscape:connector-curvature="0"
           sodipodi:nodetypes="aaaaaaaaa" />
      </g>
    </g>
    <g
       transform="matrix(0.44656191,0,0,0.44656191,84.498305,216.61407)"
       inkscape:label="troikaconsulting"
       id="layer10-3"
       style="display:inline;enable-background:new">
      <g
         id="g4652">
        <path
           style="fill:#000000;fill-opacity:1;stroke:#000000;stroke-width:0.264583px;stroke-linecap:butt;stroke-linejoin:miter;stroke-opacity:1"
           d="m 66.99628,212.16275 -2.651141,-4.52646 -0.567949,0.0334 -0.868625,4.47676 -9.187391,2.27179 6.982418,2.43884 -3.274052,7.58377 6.781963,-5.74629 4.57699,2.47224 0.534541,-0.20045 -0.868627,-5.3788 z"
           id="path4640"
           inkscape:connector-curvature="0" />
        <path
           style="fill:#ffffff;fill-opacity:1;stroke:#000000;stroke-width:0.5;stroke-linecap:butt;stroke-linejoin:miter;stroke-miterlimit:4;stroke-dasharray:none;stroke-opacity:1"
           d="m 66.99628,212.16275 c 0.28975,-0.29548 0.744242,-0.46984 1.15755,-0.44884 0.450195,0.0229 0.892147,0.28948 1.204801,0.6142 0.325007,0.33755 0.535381,0.81036 0.590588,1.27568 0.05677,0.47847 0.01554,1.0396 -0.283484,1.41741 -0.317085,0.40064 -0.883844,0.66962 -1.393787,0.63783 -0.508185,-0.0317 -0.991218,-0.39781 -1.299294,-0.8032 -0.307597,-0.40476 -0.442442,-0.95657 -0.425221,-1.46466 0.01477,-0.4357 0.143617,-0.91715 0.448847,-1.22842 z"
           id="path4636"
           inkscape:connector-curvature="0"
           sodipodi:nodetypes="aaaaaaaaa" />
        <path
           style="fill:#ffffff;fill-opacity:1;stroke:#000000;stroke-width:0.5;stroke-linecap:butt;stroke-linejoin:miter;stroke-miterlimit:4;stroke-dasharray:none;stroke-opacity:1"
           d="m 65.481032,207.56947 c 0,0 1.968759,-0.80568 3.006784,-1.00226 0.832723,-0.1577 1.723796,0.098 2.53906,-0.13363 0.512963,-0.14573 1.055547,-0.36402 1.403164,-0.76841 0.803793,-0.93506 1.015407,-2.26791 1.26953,-3.4745 0.354187,-1.6817 0.334089,-5.14493 0.334089,-5.14493 0,0 1.526491,2.40996 2.104748,3.70836 0.415488,0.93292 0.968851,2.90656 0.968851,2.90656 0,0 2.63736,-0.9477 4.009044,-1.20272 1.438439,-0.26744 4.376537,-0.33409 4.376537,-0.33409 0,0 -4.195902,2.89336 -6.414469,5.17835 -0.395631,0.40748 -0.92579,0.71528 -0.73499,1.67043 0.390541,1.95505 0.907471,1.90634 1.23612,2.90656 0.346547,1.05469 0.768401,3.24065 0.768401,3.24065 z"
           id="path4642"
           inkscape:connector-curvature="0"
           sodipodi:nodetypes="caaaacacacssacc" />
        <path
           style="fill:#ffffff;fill-opacity:1;stroke:#000000;stroke-width:0.5;stroke-linecap:butt;stroke-linejoin:miter;stroke-miterlimit:4;stroke-dasharray:none;stroke-opacity:1"
           d="m 66.616928,222.03543 5.545844,-4.84426 6.681737,-2.03793 c 0,0 -1.44783,2.74751 -1.603616,4.07586 -0.04073,0.34731 -0.357378,0.83376 0.300677,1.43658 0.694239,0.63598 5.946747,4.67721 5.946747,4.67721 0,0 -1.817524,-0.0602 -2.706102,-0.23386 -1.73887,-0.33991 -5.078122,-1.57021 -5.078122,-1.57021 l -1.035669,7.11606 -3.708366,-8.31877 z"
           id="path4644"
           inkscape:connector-curvature="0"
           sodipodi:nodetypes="cccsscacccc" />
        <path
           style="fill:#ffffff;fill-opacity:1;stroke:#000000;stroke-width:0.5;stroke-linecap:butt;stroke-linejoin:miter;stroke-miterlimit:4;stroke-dasharray:none;stroke-opacity:1"
           d="m 70.657923,215.84802 c 0.272519,-0.37701 0.705993,-0.66776 1.157552,-0.77957 0.499709,-0.12374 1.096068,-0.10282 1.535527,0.16531 0.329998,0.20134 0.557221,0.59049 0.637836,0.96856 0.09152,0.42921 0.01318,0.92297 -0.212611,1.29929 -0.280364,0.46728 -0.776753,0.83757 -1.299295,0.99219 -0.492256,0.14566 -1.102931,0.15826 -1.535527,-0.11814 -0.380268,-0.24296 -0.60815,-0.73308 -0.661457,-1.18118 -0.05507,-0.4629 0.104886,-0.96865 0.377975,-1.34646 z"
           id="path4638"
           inkscape:connector-curvature="0"
           sodipodi:nodetypes="aaaaaaaaa" />
        <path
           style="fill:#000000;fill-opacity:1;stroke:#000000;stroke-width:0.264583px;stroke-linecap:butt;stroke-linejoin:miter;stroke-opacity:1"
           d="m 70.705169,211.17056 c 0.05905,-0.49901 0.395734,-0.98161 0.803199,-1.27566 0.427441,-0.30847 1.011068,-0.43087 1.535531,-0.37798 0.494148,0.0498 0.995635,0.28636 1.346538,0.63783 0.32603,0.32656 0.568767,0.79112 0.590589,1.25205 0.02415,0.51006 -0.162466,1.07619 -0.519718,1.44104 -0.383674,0.39183 -0.987238,0.60139 -1.535527,0.59059 -0.617164,-0.0122 -1.282259,-0.2787 -1.700893,-0.73234 -0.366469,-0.39711 -0.583217,-0.99891 -0.519719,-1.53553 z"
           id="path4634"
           inkscape:connector-curvature="0"
           sodipodi:nodetypes="aaaaaaaaa" />
      </g>
    </g>
    <g
       transform="matrix(0.52874827,0,0,0.52874823,-22.985341,314.77355)"
       inkscape:label="whatineedfromyou"
       id="g128"
       style="display:inline;enable-background:new">
      <g
         id="g127">
        <path
           style="fill:#ffffff;fill-opacity:1;stroke:none;stroke-width:0.264583px;stroke-linecap:butt;stroke-linejoin:miter;stroke-opacity:1"
           d="m 303.22387,5.7474527 h 18.56888 V 24.316345 h -18.56888 z"
           id="path126"
           inkscape:connector-curvature="0" />
        <path
           inkscape:connector-curvature="0"
           style="opacity:1;fill:#000505;fill-opacity:1;stroke:none;stroke-width:3.64724;stroke-linecap:round;stroke-miterlimit:4;stroke-dasharray:none;stroke-opacity:1"
           d="m 1146.043,21.722656 v 11.351563 c 0.4097,0.285785 15.568,10.842066 24.207,13.800781 1.6724,0.572772 3.5341,1.175121 5.25,0.75 2.5483,-0.631355 3.9506,-3.617729 6.375,-4.625 1.2082,-0.501982 2.5682,-0.561761 3.875,-0.625 3.2944,-0.15942 6.586,0.563119 9.875,0.316406 1.5729,-0.117959 5.1113,-0.779297 5.1113,-0.779297 0,0 0.034,1.794988 -0.2363,2.587891 -0.3133,0.920939 -1.1488,1.654233 -2,2.125 -2.6386,1.459317 -5.3641,0.537796 -8.125,1.75 -0.7096,0.311584 -2.25,1.4375 -2.25,1.4375 0,0 2.7386,3.52438 4.625,4.9375 2.4325,1.822212 5.3447,2.896067 8,4.375 2.8038,1.561674 5.1624,2.892139 8.375,4.75 1.9293,1.115724 2.1557,2.088392 1.75,3.25 -0.3137,0.898741 -1.2249,1.281972 -2.375,0.75 -4.608,-2.131313 -13.875,-6.375 -13.875,-6.375 l -0.5801,0.925781 c 0,0 9.1183,6.356011 14.2051,9.824219 1.1086,0.755864 2.3838,2.442367 1.75,3.625 -0.5762,1.075109 -2.6115,1.178735 -3.625,0.5 C 1202.2024,73.580655 1192.4414,67 1192.4414,67 l -0.8457,0.984375 c 0,0 7.5145,5.686576 12.0293,8.765625 1.1571,0.789169 2.4941,2.77665 1.625,3.875 -1.1009,1.391233 -3.8422,0.204584 -5.25,-0.875 -3.5878,-2.75122 -12.6777,-9.125 -12.6777,-9.125 L 1186.5,71.5 c 0,0 5.4799,5.043159 8.875,7.75 0.9272,0.739234 1.9412,2.514753 1.125,3.375 -1.0785,1.136629 -3.3344,-0.238829 -4.5312,-1.25 -3.6184,-3.056939 -6.1384,-5.807281 -9.8887,-7.816406 -1.6499,-0.883892 -4.0046,-1.864133 -5.6406,-2.773438 -1.6,-0.889255 -3.0659,-2.181985 -4.3887,-3.447265 -2.1296,-2.036954 -3.3251,-3.362978 -5.7715,-5.00586 -6.0737,-4.078742 -20.105,-8.772498 -20.2363,-8.816406 v 38.388672 h 70.1816 V 21.722656 Z"
           transform="scale(0.26458333)"
           id="path127" />
      </g>
    </g>
    <g
       transform="matrix(0.29038618,0,0,0.29038621,65.996722,309.37002)"
       inkscape:label="improvprototyping"
       id="layer16"
       style="display:inline;enable-background:new">
      <g
         id="g5009">
        <path
           style="fill:#000000;fill-opacity:1;stroke:#000000;stroke-width:0.264583px;stroke-linecap:butt;stroke-linejoin:miter;stroke-opacity:1"
           d="m 181.27112,75.565257 c 0,0 4.65867,-2.831534 7.2124,-3.726861 1.61951,-0.567791 3.33608,-0.895505 5.04841,-1.010067 1.94066,-0.129835 3.90684,0.0393 5.82311,0.372379 2.40629,0.41824 7.04108,2.027173 7.04108,2.027173 0,0 0.12977,5.766262 -0.39936,8.580055 -0.40121,2.133587 -0.99536,4.291552 -2.08118,6.171488 -2.44162,4.227298 -9.68218,10.988159 -9.68218,10.988159 0,0 -5.85468,-5.032477 -8.07086,-8.147182 -1.31596,-1.849489 -2.26382,-3.966078 -2.99958,-6.113402 -1.00826,-2.943943 -1.89184,-9.141742 -1.89184,-9.141742 z"
           id="path4934-2"
           inkscape:connector-curvature="0"
           sodipodi:nodetypes="caaacaacaac" />
        <path
           style="fill:#ffffff;fill-opacity:1;stroke:none;stroke-width:0.264583px;stroke-linecap:butt;stroke-linejoin:miter;stroke-opacity:1"
           d="m 194.31831,97.939785 -0.24796,-26.272206 c 0,0 4.10203,0.138193 6.11561,0.4967 1.80634,0.321608 5.30282,1.475349 5.30282,1.475349 0,0 0.005,6.453146 -0.27848,7.914053 -0.71105,3.665162 -1.35671,5.170922 -2.94111,7.5799 -2.14881,3.267082 -7.95058,8.806201 -7.95058,8.806201 z"
           id="path4936-4"
           inkscape:connector-curvature="0"
           sodipodi:nodetypes="ccacssc" />
        <path
           style="fill:#000000;fill-opacity:1;stroke:none;stroke-width:0.264583px;stroke-linecap:butt;stroke-linejoin:miter;stroke-opacity:1"
           d="m 202.83147,65.767851 c 0,0 5.32592,-1.164192 8.032,-1.181174 1.71612,-0.01077 3.44604,0.237052 5.10268,0.685081 1.87755,0.507773 3.68209,1.306593 5.38616,2.244233 2.13983,1.177405 6.00036,4.204984 6.00036,4.204984 0,0 -1.75085,5.495556 -3.16554,7.984748 -1.0727,1.887454 -2.33577,3.735281 -3.97351,5.160405 -3.68269,3.20459 -12.72713,7.245993 -12.72713,7.245993 0,0 -3.90185,-6.661742 -4.98575,-10.32753 -0.64361,-2.17672 -0.85231,-4.486445 -0.85044,-6.756323 0.003,-3.111813 1.18117,-9.260417 1.18117,-9.260417 z"
           id="path4934"
           inkscape:connector-curvature="0"
           sodipodi:nodetypes="caaacaacaac" />
        <path
           style="fill:#ffffff;fill-opacity:1;stroke:none;stroke-width:0.264583px;stroke-linecap:butt;stroke-linejoin:miter;stroke-opacity:1"
           d="m 207.90074,91.16767 8.30164,-24.92735 c 0,0 3.83455,1.463533 5.62239,2.456847 1.60383,0.891078 4.53572,3.118303 4.53572,3.118303 0,0 -2.0921,6.104608 -2.83482,7.394159 -1.86336,3.235259 -2.96325,4.449524 -5.24442,6.212983 -3.09375,2.391623 -10.38051,5.745058 -10.38051,5.745058 z"
           id="path4936"
           inkscape:connector-curvature="0"
           sodipodi:nodetypes="ccacssc" />
        <path
           style="fill:#000000;fill-opacity:1;stroke:none;stroke-width:0.264583px;stroke-linecap:butt;stroke-linejoin:miter;stroke-opacity:1"
           d="m 194.23263,89.070912 c 1.7828,0.02982 4.78294,-2.340674 4.78294,-2.340674 0,0 -0.67675,4.569551 -4.75962,4.678251 z"
           id="path4995"
           inkscape:connector-curvature="0"
           sodipodi:nodetypes="cccc" />
        <path
           style="fill:#ffffff;fill-opacity:1;stroke:none;stroke-width:0.264583px;stroke-linecap:butt;stroke-linejoin:miter;stroke-opacity:1"
           d="m 194.25599,91.408489 c -3.95401,0.10527 -4.79526,-4.845295 -4.79526,-4.845295 0,0 2.98383,2.477806 4.77194,2.507718 z"
           id="path4956"
           inkscape:connector-curvature="0"
           sodipodi:nodetypes="cccc" />
        <path
           style="fill:#ffffff;fill-opacity:1;stroke:none;stroke-width:0.264583px;stroke-linecap:butt;stroke-linejoin:miter;stroke-opacity:1"
           d="m 210.74755,82.611755 c -1.67449,-0.590263 -5.28974,0.696552 -5.28974,0.696552 0,0 2.11902,-4.096227 6.02329,-2.896924 z"
           id="path4999"
           inkscape:connector-curvature="0"
           sodipodi:nodetypes="cccc" />
        <path
           style="fill:#000007;fill-opacity:1;stroke:none;stroke-width:0.264583px;stroke-linecap:butt;stroke-linejoin:miter;stroke-opacity:1"
           d="m 211.4811,80.411383 c 3.78104,1.161451 2.97919,6.102992 2.97919,6.102992 0,0 -2.01686,-3.304822 -3.71274,-3.90262 z"
           id="path4956-9"
           inkscape:connector-curvature="0"
           sodipodi:nodetypes="cccc" />
      </g>
    </g>
  </g>
</svg>
