<?xml version="1.0" encoding="UTF-8" standalone="no"?>
<svg
   width="74mm"
   height="105mm"
   viewBox="0 0 262.20472 372.04724"
   id="svg2"
   version="1.1"
   inkscape:version="1.3 (0e150ed6c4, 2023-07-21)"
   sodipodi:docname="helping-heuristics-back.svg"
   enable-background="new"
   xmlns:inkscape="http://www.inkscape.org/namespaces/inkscape"
   xmlns:sodipodi="http://sodipodi.sourceforge.net/DTD/sodipodi-0.dtd"
   xmlns:xlink="http://www.w3.org/1999/xlink"
   xmlns="http://www.w3.org/2000/svg"
   xmlns:svg="http://www.w3.org/2000/svg"
   xmlns:rdf="http://www.w3.org/1999/02/22-rdf-syntax-ns#"
   xmlns:cc="http://creativecommons.org/ns#"
   xmlns:dc="http://purl.org/dc/elements/1.1/">
  <defs
     id="defs4" />
  <sodipodi:namedview
     id="base"
     pagecolor="#ffffff"
     bordercolor="#666666"
     borderopacity="1.0"
     inkscape:pageopacity="1"
     inkscape:pageshadow="2"
     inkscape:zoom="2"
     inkscape:cx="102.75"
     inkscape:cy="192.25"
     inkscape:document-units="mm"
     inkscape:current-layer="layer9"
     showgrid="true"
     showguides="false"
     inkscape:guide-bbox="true"
     inkscape:snap-bbox="false"
     inkscape:bbox-nodes="true"
     inkscape:object-nodes="true"
     inkscape:snap-page="true"
     inkscape:snap-grids="false"
     inkscape:window-width="1920"
     inkscape:window-height="991"
     inkscape:window-x="-9"
     inkscape:window-y="-9"
     inkscape:window-maximized="1"
     inkscape:snap-others="false"
     inkscape:snap-nodes="true"
     inkscape:showpageshadow="2"
     inkscape:pagecheckerboard="0"
     inkscape:deskcolor="#d1d1d1">
    <sodipodi:guide
       position="19.48819,143.57143"
       orientation="1,0"
       id="guide3342"
       inkscape:label=""
       inkscape:color="rgb(0,0,255)"
       inkscape:locked="false" />
    <sodipodi:guide
       position="242.71654,160.71429"
       orientation="1,0"
       id="guide3344"
       inkscape:label=""
       inkscape:color="rgb(0,0,255)"
       inkscape:locked="false" />
    <sodipodi:guide
       position="100.71429,10.629921"
       orientation="0,1"
       id="guide3346"
       inkscape:label=""
       inkscape:color="rgb(0,0,255)"
       inkscape:locked="false" />
    <sodipodi:guide
       position="75.714288,361.41732"
       orientation="0,1"
       id="guide3348"
       inkscape:label=""
       inkscape:color="rgb(0,0,255)"
       inkscape:locked="false" />
    <sodipodi:guide
       position="242.71654,289.15617"
       orientation="1,0"
       id="guide4173"
       inkscape:locked="false" />
    <sodipodi:guide
       position="-54.642858,21.259842"
       orientation="0,1"
       id="guide4176"
       inkscape:label=""
       inkscape:color="rgb(0,0,255)"
       inkscape:locked="false" />
    <sodipodi:guide
       position="0,350.7874"
       orientation="0,1"
       id="guide4178"
       inkscape:label=""
       inkscape:color="rgb(0,0,255)"
       inkscape:locked="false" />
    <sodipodi:guide
       position="30.118111,388.21428"
       orientation="1,0"
       id="guide4180"
       inkscape:label=""
       inkscape:color="rgb(0,0,255)"
       inkscape:locked="false" />
    <sodipodi:guide
       position="232.08662,385.71428"
       orientation="1,0"
       id="guide4182"
       inkscape:label=""
       inkscape:color="rgb(0,0,255)"
       inkscape:locked="false" />
    <sodipodi:guide
       position="40.748033,260.35714"
       orientation="1,0"
       id="guide4252"
       inkscape:label=""
       inkscape:color="rgb(0,0,255)"
       inkscape:locked="false" />
    <sodipodi:guide
       position="221.4567,323.92857"
       orientation="1,0"
       id="guide4254"
       inkscape:label=""
       inkscape:color="rgb(0,0,255)"
       inkscape:locked="false" />
    <sodipodi:guide
       position="-107.14286,340.15748"
       orientation="0,1"
       id="guide4256"
       inkscape:label=""
       inkscape:color="rgb(0,0,255)"
       inkscape:locked="false" />
    <sodipodi:guide
       position="-111.42857,31.889764"
       orientation="0,1"
       id="guide4258"
       inkscape:label=""
       inkscape:color="rgb(0,0,255)"
       inkscape:locked="false" />
    <sodipodi:guide
       position="-60.356616,308.26772"
       orientation="0,1"
       id="guide4262"
       inkscape:label=""
       inkscape:color="rgb(0,0,255)"
       inkscape:locked="false" />
    <sodipodi:guide
       position="-56.063468,297.63779"
       orientation="0,1"
       id="guide4269"
       inkscape:label=""
       inkscape:color="rgb(0,0,255)"
       inkscape:locked="false" />
    <sodipodi:guide
       position="93.897641,308.6016"
       orientation="1,0"
       id="guide4271"
       inkscape:label=""
       inkscape:color="rgb(0,0,255)"
       inkscape:locked="false" />
    <sodipodi:guide
       position="99.212601,340.15748"
       orientation="1,0"
       id="guide4273"
       inkscape:label=""
       inkscape:color="rgb(0,0,255)"
       inkscape:locked="false" />
    <sodipodi:guide
       position="-60.500002,279.92126"
       orientation="0,1"
       id="guide4303"
       inkscape:label=""
       inkscape:color="rgb(0,0,255)"
       inkscape:locked="false" />
    <sodipodi:guide
       position="-102.5,269.29134"
       orientation="0,1"
       id="guide4314"
       inkscape:label=""
       inkscape:color="rgb(0,0,255)"
       inkscape:locked="false" />
    <sodipodi:guide
       position="194.8819,223.95843"
       orientation="1,0"
       id="guide4201"
       inkscape:label=""
       inkscape:color="rgb(0,0,255)"
       inkscape:locked="false" />
    <sodipodi:guide
       position="184.25197,197.75"
       orientation="1,0"
       id="guide4243"
       inkscape:label=""
       inkscape:color="rgb(0,0,255)"
       inkscape:locked="false" />
    <inkscape:grid
       id="grid1"
       units="mm"
       originx="0"
       originy="0"
       spacingx="3.5433072"
       spacingy="3.543307"
       empcolor="#0099e5"
       empopacity="0.30196078"
       color="#0099e5"
       opacity="0.14901961"
       empspacing="5"
       dotted="false"
       gridanglex="30"
       gridanglez="30"
       visible="true" />
  </sodipodi:namedview>
  <metadata
     id="metadata7">
    <rdf:RDF>
      <cc:Work
         rdf:about="">
        <dc:format>image/svg+xml</dc:format>
        <dc:type
           rdf:resource="http://purl.org/dc/dcmitype/StillImage" />
        <dc:title />
      </cc:Work>
    </rdf:RDF>
  </metadata>
  <g
     inkscape:label="Cut line"
     inkscape:groupmode="layer"
     id="layer1"
     transform="translate(0,-680.31496)"
     style="display:inline"
     sodipodi:insensitive="true">
    <path
       style="fill:none;fill-rule:evenodd;stroke:#808080;stroke-width:0.70866144;stroke-linecap:butt;stroke-linejoin:miter;stroke-miterlimit:4;stroke-dasharray:2.83464575, 2.83464575;stroke-dashoffset:0;stroke-opacity:1"
       d="m 19.488189,690.94488 0,350.78742 223.228341,0 0,-350.78742 z"
       id="path3350"
       inkscape:connector-curvature="0"
       transform="translate(4.3385302e-7,8.6660179e-6)" />
  </g>
  <g
     inkscape:groupmode="layer"
     id="layer2"
     inkscape:label="Top Separator"
     style="display:inline"
     sodipodi:insensitive="true">
    <path
       inkscape:connector-curvature="0"
       style="fill:none;fill-opacity:1;stroke:none;stroke-width:0.70866144;stroke-miterlimit:4;stroke-dasharray:2.83464575, 2.83464575;stroke-dashoffset:0;stroke-opacity:1"
       d="m 42.883734,21.259066 c -7.071438,0 -12.765624,6.544709 -12.765624,14.673828 l 0,38.476559 201.96874,0 0,-38.476559 c 0,-8.129119 -5.69224,-14.673828 -12.76367,-14.673828 l -176.439446,0 z"
       id="rect4195-3" />
  </g>
  <g
     inkscape:groupmode="layer"
     id="layer8"
     inkscape:label="Separator"
     style="display:inline"
     sodipodi:insensitive="true">
    <rect
       style="display:inline;fill:#916f7c;fill-opacity:1;stroke:none;stroke-width:1;stroke-miterlimit:4;stroke-dasharray:none;stroke-dashoffset:0;stroke-opacity:1"
       id="rect4178"
       width="134.64568"
       height="17.716536"
       x="30.118084"
       y="74.409447" />
    <text
       xml:space="preserve"
       style="font-style:normal;font-weight:normal;line-height:0%;font-family:sans-serif;letter-spacing:0px;word-spacing:0px;display:inline;fill:#000000;fill-opacity:1;stroke:none;stroke-width:1px;stroke-linecap:butt;stroke-linejoin:miter;stroke-opacity:1"
       x="39.935017"
       y="87.861458"
       id="text4180"><tspan
         sodipodi:role="line"
         id="tspan4182"
         x="39.935017"
         y="87.861458"
         style="font-style:normal;font-variant:normal;font-weight:bold;font-stretch:normal;font-size:12.5px;line-height:1.25;font-family:Lato;-inkscape-font-specification:'Lato Bold';fill:#ffffff">Help</tspan></text>
    <rect
       y="74.409447"
       x="164.76376"
       height="17.716536"
       width="67.322838"
       id="rect4191"
       style="display:inline;fill:#e6e6e6;fill-opacity:1;stroke:none;stroke-width:1;stroke-miterlimit:4;stroke-dasharray:none;stroke-dashoffset:0;stroke-opacity:1" />
    <text
       xml:space="preserve"
       style="font-style:normal;font-weight:normal;line-height:0%;font-family:sans-serif;letter-spacing:0px;word-spacing:0px;fill:#1a1a1a;fill-opacity:1;stroke:none;stroke-width:1px;stroke-linecap:butt;stroke-linejoin:miter;stroke-opacity:1"
       x="184.26756"
       y="87.789589"
       id="text4193"><tspan
         sodipodi:role="line"
         id="tspan4195"
         x="184.26756"
         y="87.789589"
         style="font-style:normal;font-variant:normal;font-weight:500;font-stretch:normal;font-size:12.5px;line-height:1.25;font-family:Lato;-inkscape-font-specification:'Lato Medium';fill:#1a1a1a">15 min</tspan></text>
  </g>
  <g
     inkscape:groupmode="layer"
     id="layer7"
     inkscape:label="Title"
     sodipodi:insensitive="true">
    <path
       style="fill:none;fill-rule:evenodd;stroke:none;stroke-width:1px;stroke-linecap:butt;stroke-linejoin:miter;stroke-opacity:1"
       d="m 99.212598,31.889763 0,31.88976 122.244092,0 0,-31.88976 z"
       id="path4300"
       inkscape:connector-curvature="0" />
    <flowRoot
       xml:space="preserve"
       style="font-style:normal;font-weight:normal;line-height:0.01%;font-family:sans-serif;letter-spacing:0px;word-spacing:0px;fill:#000000;fill-opacity:1;stroke:none;stroke-width:1px;stroke-linecap:butt;stroke-linejoin:miter;stroke-opacity:1"
       id="flowRoot4306"
       transform="translate(-3.4125e-4,6.2852003)"><flowRegion
         id="flowRegion4308"><use
           x="0"
           y="0"
           xlink:href="#path4300"
           id="use4310"
           width="100%"
           height="100%" /></flowRegion><flowPara
         style="font-style:normal;font-variant:normal;font-weight:bold;font-stretch:normal;font-size:13.375px;line-height:1.25;font-family:Roboto;-inkscape-font-specification:'Roboto Bold';text-align:end;text-anchor:end"
         id="flowPara4223">Helping Heuristics</flowPara></flowRoot>
  </g>
  <g
     inkscape:groupmode="layer"
     id="layer6"
     inkscape:label="Logo"
     style="display:inline"
     sodipodi:insensitive="true">
    <path
       style="fill:none;fill-rule:evenodd;stroke:none;stroke-width:1px;stroke-linecap:butt;stroke-linejoin:miter;stroke-opacity:1"
       d="m 40.748032,31.889763 0,31.88976 53.149606,0 0,-31.88976 z"
       id="path4213"
       inkscape:connector-curvature="0" />
    <g
       transform="matrix(0.9197685,0,0,0.91976857,-158.79793,-55.190029)"
       inkscape:label="helpingheuristics"
       id="layer20">
      <g
         id="g1040">
        <path
           style="fill:#ffffff;fill-opacity:1;stroke:none;stroke-width:0.40087944;stroke-linecap:round;stroke-miterlimit:4;stroke-dasharray:none;stroke-opacity:1"
           d="m 868.77559,384.53478 c -1.66539,0.16903 -3.26812,0.92289 -4.93801,0.8497 -1.10891,-0.009 -2.15045,0.37997 -3.06459,0.93947 -1.48874,0.28249 -3.48429,1.39657 -4.7418,2.1759 -1.81118,0.99852 -2.4137,2.43646 -3.84913,3.90598 -0.54834,0.81516 -1.12451,1.59549 -1.61688,2.43897 -0.27584,1.05678 -1.70721,1.40031 -1.82428,2.52972 -1.11811,1.37909 -1.36736,3.43896 -2.22134,4.94424 -0.44507,1.93 -0.40751,4.11869 -0.92641,6.03417 -0.27225,3.19587 0.74813,6.59591 1.59601,9.71073 0.1147,1.15811 0.45885,2.34371 1.12867,3.3004 0.27916,1.30563 1.07258,2.43647 1.74775,3.55418 0.89183,1.03657 1.61626,2.23335 2.53667,3.24068 0.44366,0.7443 1.71184,1.85995 1.71184,1.85995 l 0.21057,3.14258 c 0,0 -1.77258,1.4967 -2.82942,2.09409 -0.57516,0.44567 -1.42331,0.53359 -1.81991,1.23709 -0.81098,0.34834 -1.37564,1.05527 -2.25355,1.26402 -0.77523,0.70091 -1.75904,1.09186 -2.5757,1.72841 -0.80441,0.32903 -1.3446,1.02674 -2.19279,1.26678 -0.79098,0.64401 -1.69215,1.08662 -2.45174,1.77778 -1.03141,0.59775 -1.9614,1.34276 -2.8885,2.05123 -1.18935,0.6646 -2.03348,1.80258 -3.27002,2.36819 -1.40797,1.11155 -2.64442,2.4571 -4.06759,3.59146 -2.42704,2.16791 -4.66957,4.58386 -6.56008,7.21677 -0.76389,1.31071 -2.0446,2.65915 -1.80356,4.23573 -0.23296,2.2941 1.17195,4.83613 3.17243,5.46032 1.79346,0.99999 4.99379,0.49647 6.94274,1.06316 3.86127,0.47089 7.69634,1.14343 11.57486,1.48357 2.08432,0.42353 4.19432,0.65953 6.29927,0.96541 3.03616,0.61384 6.12816,0.88641 9.14302,1.59652 2.60859,0.35098 4.98567,1.71228 7.57893,2.15109 l 3.39506,1.32614 c -0.85543,1.63714 -1.41094,3.06469 -2.32053,4.69424 -0.62014,1.12373 -3.90347,4.42156 -2.78112,5.40412 1.4541,1.31188 6.30493,-1.52869 7.88624,-1.97803 1.24948,-0.45202 2.4878,-0.91144 3.71162,-1.44253 1.28846,-0.29839 2.32106,-1.21072 3.65396,-1.35932 1.09156,-0.56083 2.18199,-1.1283 3.29592,-1.6552 1.37636,-0.43814 2.56777,-0.90642 2.56777,-0.90642 l 10.24998,3.51795 15.80903,1.14981 -9.19242,-11.13695 c 0,0 -0.18732,-0.6678 1.35347,-0.9588 2.47645,-1.04285 5.15387,-1.53668 7.70331,-2.38552 2.37943,-0.59362 4.72877,-1.32098 7.02544,-2.16026 1.74565,-0.33428 3.34904,-1.08956 5.04573,-1.58788 1.95003,-0.77226 3.9084,-1.52746 5.77804,-2.48834 1.22196,-0.27305 2.50974,-0.66807 3.70545,-1.02608 0.76522,-0.64846 2.64137,-1.0664 3.34487,-1.77623 1.34865,-1.07554 3.49585,-2.22369 4.09732,-3.96301 0.48059,-1.36576 -1.44338,-3.96096 -2.00766,-5.10872 -1.23533,-1.25044 -2.09777,-2.7027 -3.38277,-3.92341 -1.38934,-1.72568 -3.51594,-3.22555 -4.9429,-4.89813 -0.8734,-1.18809 -2.19481,-1.63468 -3.26377,-2.66165 -1.34596,-1.2235 -2.75984,-1.75931 -4.11614,-2.92657 -0.72561,-0.86288 -6.24245,-5.50112 -6.24245,-5.50112 l 0.42364,-2.0654 c 0.4494,-1.3998 1.29707,-2.6437 1.48983,-4.13147 0.81177,-1.63485 1.1473,-2.92378 1.38662,-4.69471 0.90874,-3.30613 1.02481,-7.13966 0.2832,-10.44861 -0.16859,-1.53667 0.008,-3.68092 -0.70127,-5.08349 -0.23773,-1.39028 -1.13166,-2.81323 -1.78941,-4.06139 -0.18693,-1.1347 -1.4237,-1.51134 -1.56703,-2.64987 -0.52279,-0.86209 -1.0246,-1.72411 -1.58892,-2.57052 -1.34826,-1.7156 -2.79518,-3.44514 -4.62036,-4.70909 -0.71324,-0.99063 -2.04888,-1.03725 -2.91578,-1.83026 -1.26258,-0.39996 -2.28839,-1.33725 -3.65431,-1.4484 -1.5693,-1.27139 -3.80597,-0.54433 -5.44416,-1.62206 -1.33646,-0.50731 -2.90978,-0.19361 -3.98093,0.71436 -1.09169,0.2165 -1.80636,1.14721 -2.92718,1.29129 -1.469,0.99951 -3.41321,0.48552 -4.87137,1.50779 -2.14673,0.0736 -4.25001,0.11792 -6.3826,-0.0183 -0.87132,-0.71962 -2.05476,-0.62227 -3.04906,-0.89321 -0.68088,-0.83782 -1.85436,-0.66736 -2.54634,-1.42975 -0.81649,-0.27315 -1.57974,-0.59477 -2.25805,-1.14663 -1.04089,-0.58184 -2.18716,-1.14954 -3.40744,-1.13662 z m 6.80245,3.84006 c 0.022,0.12008 -0.0268,-0.10587 0,0 z m 34.97037,2.89407 c 0.0772,0.32169 -0.17845,-0.56611 0,0 z m 3.17818,2.99139 c 0.034,0.13736 -0.0708,-0.21404 0,0 z m 7.49241,40.3559 c 0.0486,0.009 -0.046,-0.006 0,0 z m 15.45641,23.81915 c -0.24264,0.0682 0.096,-0.0358 0,0 z m -0.97745,0.18714 c -0.0793,0.30934 0.044,-0.23723 0,0 z"
           id="path1029"
           inkscape:connector-curvature="0"
           transform="scale(0.26458333,0.26458333)"
           sodipodi:nodetypes="cccccccccccccccccccccccccccccccccccccccccccccccccccccccccccccccccccccccccccccccccccccccccc" />
        <path
           style="fill:#ffffff;fill-opacity:1;stroke:#000000;stroke-width:0.60000002;stroke-linecap:butt;stroke-linejoin:miter;stroke-miterlimit:4;stroke-dasharray:none;stroke-opacity:1"
           d="m 229.60422,100.33188 c -0.33456,-0.772567 -0.26555,-1.734825 0.0234,-2.525585 0.34837,-0.953387 1.04181,-1.876092 1.94162,-2.345826 1.04264,-0.544297 2.38363,-0.608551 3.51638,-0.291983 1.08191,0.302358 2.1853,0.995739 2.72734,1.979675 0.53811,0.97678 0.6177,2.298971 0.21444,3.338699 -0.37113,0.95688 -1.26693,1.74916 -2.21755,2.13604 -1.13994,0.46393 -2.5442,0.4672 -3.69213,0.0234 -1.06228,-0.41071 -2.06089,-1.26929 -2.51349,-2.31441 z"
           id="path1007"
           inkscape:connector-curvature="0"
           sodipodi:nodetypes="aaaaaaaaa" />
        <path
           style="fill:none;stroke:#000000;stroke-width:0.60000002;stroke-linecap:round;stroke-linejoin:miter;stroke-miterlimit:4;stroke-dasharray:none;stroke-opacity:1"
           d="m 237.36875,119.21685 c 0,0 -5.16415,4.15674 -7.20292,6.73519 -0.70165,0.88738 -1.68379,2.94665 -1.68379,2.94665 0,0 2.36652,-0.6022 3.50791,-1.02899 1.96031,-0.73301 3.74515,-1.88821 5.7062,-2.61924 2.40401,-0.89615 5.6564,-1.60433 8.01839,-2.44918 1.49425,-0.53447 3.23401,-1.57522 3.31418,-2.28851 0.0772,-0.68708 -1.67561,-2.48787 -2.72649,-3.54099 -1.13686,-1.13928 -3.7067,-2.94664 -3.7067,-2.94664"
           id="path1009"
           inkscape:connector-curvature="0"
           sodipodi:nodetypes="cscsssssc" />
        <path
           style="fill:none;stroke:#000000;stroke-width:0.60000002;stroke-linecap:round;stroke-linejoin:miter;stroke-miterlimit:4;stroke-dasharray:none;stroke-opacity:1"
           d="m 239.182,109.8128 c 0,0 0.7259,1.94349 0.75354,3.04822 0.0317,1.26639 -0.8556,4.10841 -0.8556,4.10841 0,0 1.97122,-1.12692 2.68539,-1.86853 0.76057,-0.78979 1.29384,-2.06898 1.63702,-3.11035 0.42248,-1.28202 0.33628,-3.17194 0.1871,-4.51351 -0.1406,-1.26436 -1.17371,-2.65168 -1.96444,-3.64824 -1.41239,-1.78002 -4.40745,-1.98898 -4.40745,-1.98898"
           id="path1011"
           inkscape:connector-curvature="0"
           sodipodi:nodetypes="cscssssc" />
        <path
           style="fill:none;stroke:#000000;stroke-width:0.60000002;stroke-linecap:round;stroke-linejoin:miter;stroke-miterlimit:4;stroke-dasharray:none;stroke-opacity:1"
           d="m 230.43795,101.64138 c 0,0 -2.44039,-0.16166 -3.79284,0.86225 -0.90494,0.6851 -1.04251,0.88318 -1.7206,1.79338 -0.71623,0.9614 -0.9999,2.05271 -1.1967,3.23531 -0.17667,1.06161 -0.10818,1.91623 0.14311,2.96269 0.2296,0.95615 0.65845,1.68856 1.27938,2.45104 0.70293,0.86317 1.52896,1.60487 2.48411,2.17658 0.76614,0.45858 2.61405,1.46979 2.61405,1.46979 0,0 -0.90498,-2.36118 -1.18299,-3.46163 -0.17715,-0.70122 -0.31372,-2.3665 -0.31372,-2.3665"
           id="path1013"
           inkscape:connector-curvature="0"
           sodipodi:nodetypes="csssssscsc" />
        <path
           style="fill:#ffffff;fill-opacity:1;stroke:#000000;stroke-width:0.76499999;stroke-linecap:butt;stroke-linejoin:miter;stroke-miterlimit:4;stroke-dasharray:none;stroke-opacity:1"
           d="m 233.79752,114.47681 c 0,0 1.90852,-2.17501 2.60222,-3.51075 0.33465,-0.64438 0.83329,-1.51468 0.82585,-2.48508 -0.006,-0.73208 0.0413,-1.72774 -1.37909,-1.9479 -0.92338,-0.14312 -2.07921,1.3649 -2.07921,1.3649 0,0 -1.30159,-1.45607 -2.1619,-1.18065 -0.91314,0.29234 -1.09475,1.04215 -1.11734,1.6975 -0.0325,0.94136 0.63145,1.84965 1.11969,2.65515 0.65634,1.08283 2.18978,3.40683 2.18978,3.40683 z"
           id="path1015"
           inkscape:connector-curvature="0"
           sodipodi:nodetypes="cssscsssc" />
        <path
           style="fill:none;stroke:#000000;stroke-width:0.60000002;stroke-linecap:butt;stroke-linejoin:miter;stroke-miterlimit:4;stroke-dasharray:none;stroke-opacity:1"
           d="m 226.42406,114.259 c 0,0 -2.80866,1.6534 -4.34884,2.80868 -1.17456,0.88103 -1.88671,1.30976 -3.24098,2.68207 -0.56914,0.57672 -1.63233,1.667 -1.57988,2.89849 0.0318,0.74707 1.15001,1.30938 1.69045,1.36207 6.04325,0.58915 11.22102,1.94173 11.22102,1.94173"
           id="path1017"
           inkscape:connector-curvature="0"
           sodipodi:nodetypes="cssssc" />
        <path
           style="fill:none;stroke:#000000;stroke-width:0.60000002;stroke-linecap:round;stroke-linejoin:miter;stroke-miterlimit:4;stroke-dasharray:none;stroke-opacity:1"
           d="m 227.06468,120.33938 c 0,0 2.48247,0.72956 3.68415,1.14709 0.9501,0.33011 2.86963,0.883 2.86963,0.883"
           id="path1019"
           inkscape:connector-curvature="0"
           sodipodi:nodetypes="csc" />
        <path
           style="fill:none;stroke:#000000;stroke-width:0.60000002;stroke-linecap:butt;stroke-linejoin:miter;stroke-miterlimit:4;stroke-dasharray:none;stroke-opacity:1"
           d="m 238.86545,124.96982 2.43216,2.94665 c 0,0 -2.49656,0.0106 -3.69784,-0.17909 -1.14468,-0.1808 -3.27122,-0.8967 -3.27122,-0.8967"
           id="path1021"
           inkscape:connector-curvature="0"
           sodipodi:nodetypes="ccsc" />
      </g>
    </g>
  </g>
  <g
     inkscape:groupmode="layer"
     id="layer5"
     inkscape:label="Border"
     style="display:inline"
     sodipodi:insensitive="true">
    <rect
       style="fill:none;fill-opacity:1;stroke:#000000;stroke-width:0.35433072;stroke-miterlimit:4;stroke-dasharray:none;stroke-dashoffset:0;stroke-opacity:1"
       id="rect4187"
       width="201.96851"
       height="329.52756"
       x="30.118111"
       y="21.259844"
       ry="14.6735"
       rx="12.76433" />
  </g>
  <g
     inkscape:groupmode="layer"
     id="layer9"
     inkscape:label="Body">
    <text
       xml:space="preserve"
       style="font-style:normal;font-weight:normal;line-height:0%;font-family:sans-serif;letter-spacing:0px;word-spacing:0px;fill:#000000;fill-opacity:1;stroke:none;stroke-width:1px;stroke-linecap:butt;stroke-linejoin:miter;stroke-opacity:1"
       x="-62.225395"
       y="132.6916"
       id="text6165"><tspan
         sodipodi:role="line"
         id="tspan6167"
         x="-62.225395"
         y="132.6916"
         style="font-size:12.5px;line-height:1.25"> </tspan></text>
    <path
       style="fill:none;fill-rule:evenodd;stroke:none;stroke-width:1.06935px;stroke-linecap:butt;stroke-linejoin:miter;stroke-opacity:1"
       d="M 35.591782,99.47465 V 346.71998 H 193.15821 V 99.47465 H 35.591782"
       id="path4245"
       inkscape:connector-curvature="0" />
    <flowRoot
       xml:space="preserve"
       style="font-style:normal;font-weight:normal;line-height:0.85;font-family:sans-serif;letter-spacing:0px;word-spacing:0px;fill:#000000;fill-opacity:1;stroke:none;stroke-width:1px;stroke-linecap:butt;stroke-linejoin:miter;stroke-opacity:1"
       id="flowRoot4251"><flowRegion
         id="flowRegion4253"><use
           x="0"
           y="0"
           xlink:href="#path4245"
           id="use4255"
           width="100%"
           height="100%" /></flowRegion><flowPara
         id="flowPara4257"
         style="font-style:normal;font-variant:normal;font-weight:bold;font-stretch:normal;font-size:8.75px;font-family:Roboto;-inkscape-font-specification:'Roboto Bold';fill:#999999;fill-opacity:1">Etapes</flowPara><flowPara
         style="font-style:normal;font-variant:normal;font-weight:normal;font-stretch:normal;font-size:8.75px;font-family:Lato;-inkscape-font-specification:Lato;fill:#1a1a1a;fill-opacity:1"
         id="flowPara4393">Expliquer le processus.</flowPara><flowPara
         style="font-style:normal;font-variant:normal;font-weight:normal;font-stretch:normal;font-size:8.75px;font-family:Lato;-inkscape-font-specification:Lato;fill:#1a1a1a;fill-opacity:1"
         id="flowPara4376"> </flowPara><flowPara
         style="font-style:normal;font-variant:normal;font-weight:normal;font-stretch:normal;font-size:8.75px;font-family:Lato;-inkscape-font-specification:Lato;fill:#1a1a1a;fill-opacity:1"
         id="flowPara4378">&quot;Présence tranquille&quot; : Le coach accepte toutes les offres en faisant preuve d'une écoute compatissante.</flowPara><flowPara
         style="font-style:normal;font-variant:normal;font-weight:normal;font-stretch:normal;font-size:8.75px;font-family:Lato;-inkscape-font-specification:Lato;fill:#1a1a1a;fill-opacity:1"
         id="flowPara4380"> </flowPara><flowPara
         style="font-style:normal;font-variant:normal;font-weight:normal;font-stretch:normal;font-size:8.75px;font-family:Lato;-inkscape-font-specification:Lato;fill:#1a1a1a;fill-opacity:1"
         id="flowPara4382">&quot;Découverte guidée&quot; : Le coach accepte toutes les offres, en guidant l'enquête pour des découvertes mutuelles.</flowPara><flowPara
         style="font-style:normal;font-variant:normal;font-weight:normal;font-stretch:normal;font-size:8.75px;font-family:Lato;-inkscape-font-specification:Lato;fill:#1a1a1a;fill-opacity:1"
         id="flowPara4384"> </flowPara><flowPara
         style="font-style:normal;font-variant:normal;font-weight:normal;font-stretch:normal;font-size:8.75px;font-family:Lato;-inkscape-font-specification:Lato;fill:#1a1a1a;fill-opacity:1"
         id="flowPara4386">&quot;Provocation aimante&quot; : Le coach donne des conseils, accepte et bloque si nécessaire lorsqu'il voit quelque chose que le client ne voit pas.</flowPara><flowPara
         style="font-style:normal;font-variant:normal;font-weight:normal;font-stretch:normal;font-size:8.75px;font-family:Lato;-inkscape-font-specification:Lato;fill:#1a1a1a;fill-opacity:1"
         id="flowPara4388"> </flowPara><flowPara
         style="font-style:normal;font-variant:normal;font-weight:normal;font-stretch:normal;font-size:8.75px;font-family:Lato;-inkscape-font-specification:Lato;fill:#1a1a1a;fill-opacity:1"
         id="flowPara4390">La &quot;pleine conscience du processus&quot; : Le coach et le client acceptent toutes les offres de l'un et de l'autre, tout en remarquant comment les nouvelles possibilités sont amplifiées.</flowPara><flowPara
         style="font-style:normal;font-variant:normal;font-weight:normal;font-stretch:normal;font-size:8.75px;font-family:Lato;-inkscape-font-specification:Lato;fill:#1a1a1a;fill-opacity:1"
         id="flowPara4396" /><flowPara
         style="font-style:normal;font-variant:normal;font-weight:normal;font-stretch:normal;font-size:8.75px;font-family:Lato;-inkscape-font-specification:Lato;fill:#1a1a1a;fill-opacity:1"
         id="flowPara4398">Débriefing en groupe.</flowPara></flowRoot>
    <text
       xml:space="preserve"
       style="font-style:normal;font-weight:normal;line-height:0%;font-family:sans-serif;letter-spacing:0px;word-spacing:0px;fill:#000000;fill-opacity:1;stroke:none;stroke-width:1px;stroke-linecap:butt;stroke-linejoin:miter;stroke-opacity:1"
       x="93.897636"
       y="183.54724"
       id="text4267"><tspan
         sodipodi:role="line"
         id="tspan4269"
         x="93.897636"
         y="183.54724"
         style="font-size:8.75px;line-height:1.25"> </tspan></text>
  </g>
  <g
     inkscape:groupmode="layer"
     id="layer4"
     inkscape:label="Body Right"
     style="display:inline">
    <text
       xml:space="preserve"
       style="font-style:normal;font-weight:normal;line-height:0%;font-family:sans-serif;letter-spacing:0px;word-spacing:0px;fill:#1a1a1a;fill-opacity:1;stroke:none;stroke-width:1px;stroke-linecap:butt;stroke-linejoin:miter;stroke-opacity:1"
       x="200.49702"
       y="179.32092"
       id="text4197"><tspan
         sodipodi:role="line"
         id="tspan4199"
         x="200.49702"
         y="179.32092"
         style="font-style:normal;font-variant:normal;font-weight:500;font-stretch:normal;font-size:8.75px;line-height:1.25;font-family:Lato;-inkscape-font-specification:'Lato Medium';fill:#1a1a1a">2 min</tspan></text>
    <text
       id="text4227"
       y="118.99852"
       x="200.49702"
       style="font-style:normal;font-weight:normal;line-height:0%;font-family:sans-serif;letter-spacing:0px;word-spacing:0px;fill:#1a1a1a;fill-opacity:1;stroke:none;stroke-width:1px;stroke-linecap:butt;stroke-linejoin:miter;stroke-opacity:1"
       xml:space="preserve"><tspan
         style="font-style:normal;font-variant:normal;font-weight:500;font-stretch:normal;font-size:8.75px;line-height:1.25;font-family:Lato;-inkscape-font-specification:'Lato Medium';fill:#1a1a1a"
         y="118.99852"
         x="200.49702"
         id="tspan4229"
         sodipodi:role="line">2 min</tspan></text>
    <text
       id="text4231"
       y="138.80949"
       x="200.49702"
       style="font-style:normal;font-weight:normal;line-height:0%;font-family:sans-serif;letter-spacing:0px;word-spacing:0px;fill:#1a1a1a;fill-opacity:1;stroke:none;stroke-width:1px;stroke-linecap:butt;stroke-linejoin:miter;stroke-opacity:1"
       xml:space="preserve"><tspan
         style="font-style:normal;font-variant:normal;font-weight:500;font-stretch:normal;font-size:8.75px;line-height:1.25;font-family:Lato;-inkscape-font-specification:'Lato Medium';fill:#1a1a1a"
         y="138.80949"
         x="200.49702"
         id="tspan4233"
         sodipodi:role="line">2 min</tspan></text>
    <text
       id="text4235"
       y="221.18332"
       x="200.49702"
       style="font-style:normal;font-weight:normal;line-height:0%;font-family:sans-serif;letter-spacing:0px;word-spacing:0px;fill:#1a1a1a;fill-opacity:1;stroke:none;stroke-width:1px;stroke-linecap:butt;stroke-linejoin:miter;stroke-opacity:1"
       xml:space="preserve"><tspan
         style="font-style:normal;font-variant:normal;font-weight:500;font-stretch:normal;font-size:8.75px;line-height:1.25;font-family:Lato;-inkscape-font-specification:'Lato Medium';fill:#1a1a1a"
         y="221.18332"
         x="200.49702"
         id="tspan4237"
         sodipodi:role="line">2 min</tspan></text>
    <path
       style="fill:none;fill-rule:evenodd;stroke:none;stroke-width:1px;stroke-linecap:butt;stroke-linejoin:miter;stroke-opacity:1"
       d="m 194.88189,102.7559 0,237.40158 26.5748,0 0,-237.40158 z"
       id="path4239"
       inkscape:connector-curvature="0" />
    <text
       xml:space="preserve"
       style="font-style:normal;font-weight:normal;line-height:0%;font-family:sans-serif;letter-spacing:0px;word-spacing:0px;fill:#1a1a1a;fill-opacity:1;stroke:none;stroke-width:1px;stroke-linecap:butt;stroke-linejoin:miter;stroke-opacity:1"
       x="200.49702"
       y="271.95135"
       id="text4397"><tspan
         sodipodi:role="line"
         id="tspan4399"
         x="200.49702"
         y="271.95135"
         style="font-style:normal;font-variant:normal;font-weight:500;font-stretch:normal;font-size:8.75px;line-height:1.25;font-family:Lato;-inkscape-font-specification:'Lato Medium';fill:#1a1a1a">2 min</tspan></text>
    <text
       id="text4225"
       y="332.29608"
       x="200.49702"
       style="font-style:normal;font-weight:normal;line-height:0%;font-family:sans-serif;letter-spacing:0px;word-spacing:0px;fill:#1a1a1a;fill-opacity:1;stroke:none;stroke-width:1px;stroke-linecap:butt;stroke-linejoin:miter;stroke-opacity:1"
       xml:space="preserve"><tspan
         style="font-style:normal;font-variant:normal;font-weight:500;font-stretch:normal;font-size:8.75px;line-height:1.25;font-family:Lato;-inkscape-font-specification:'Lato Medium';fill:#1a1a1a"
         y="332.29608"
         x="200.49702"
         id="tspan4227"
         sodipodi:role="line">5 min</tspan></text>
  </g>
  <text
     xml:space="preserve"
     style="font-style:normal;font-weight:normal;line-height:0%;font-family:sans-serif;letter-spacing:0px;word-spacing:0px;fill:#000000;fill-opacity:1;stroke:none;stroke-width:1px;stroke-linecap:butt;stroke-linejoin:miter;stroke-opacity:1"
     x="293.09576"
     y="257.1424"
     id="text4321"><tspan
       sodipodi:role="line"
       id="tspan4323"
       x="293.09576"
       y="257.1424"
       style="font-size:8.75px;line-height:1.25"> </tspan></text>
</svg>
