<?xml version="1.0" encoding="UTF-8" standalone="no"?>
<svg
   width="74mm"
   height="105mm"
   viewBox="0 0 262.20472 372.04724"
   id="svg2"
   version="1.1"
   inkscape:version="1.3 (0e150ed6c4, 2023-07-21)"
   sodipodi:docname="main-back.svg"
   enable-background="new"
   xmlns:inkscape="http://www.inkscape.org/namespaces/inkscape"
   xmlns:sodipodi="http://sodipodi.sourceforge.net/DTD/sodipodi-0.dtd"
   xmlns:xlink="http://www.w3.org/1999/xlink"
   xmlns="http://www.w3.org/2000/svg"
   xmlns:svg="http://www.w3.org/2000/svg"
   xmlns:rdf="http://www.w3.org/1999/02/22-rdf-syntax-ns#"
   xmlns:cc="http://creativecommons.org/ns#"
   xmlns:dc="http://purl.org/dc/elements/1.1/">
  <defs
     id="defs4" />
  <sodipodi:namedview
     id="base"
     pagecolor="#ffffff"
     bordercolor="#666666"
     borderopacity="1.0"
     inkscape:pageopacity="1"
     inkscape:pageshadow="2"
     inkscape:zoom="1.4142136"
     inkscape:cx="167.23075"
     inkscape:cy="193.3937"
     inkscape:document-units="mm"
     inkscape:current-layer="layer9"
     showgrid="false"
     showguides="false"
     inkscape:guide-bbox="true"
     inkscape:snap-bbox="false"
     inkscape:bbox-nodes="true"
     inkscape:object-nodes="true"
     inkscape:snap-page="true"
     inkscape:snap-grids="false"
     inkscape:window-width="1920"
     inkscape:window-height="991"
     inkscape:window-x="-9"
     inkscape:window-y="-9"
     inkscape:window-maximized="1"
     inkscape:snap-others="false"
     inkscape:snap-nodes="true"
     inkscape:showpageshadow="2"
     inkscape:pagecheckerboard="0"
     inkscape:deskcolor="#d1d1d1">
    <sodipodi:guide
       position="19.48819,143.57143"
       orientation="1,0"
       id="guide3342"
       inkscape:label=""
       inkscape:color="rgb(0,0,255)"
       inkscape:locked="false" />
    <sodipodi:guide
       position="242.71654,160.71429"
       orientation="1,0"
       id="guide3344"
       inkscape:label=""
       inkscape:color="rgb(0,0,255)"
       inkscape:locked="false" />
    <sodipodi:guide
       position="100.71429,10.629921"
       orientation="0,1"
       id="guide3346"
       inkscape:label=""
       inkscape:color="rgb(0,0,255)"
       inkscape:locked="false" />
    <sodipodi:guide
       position="75.714288,361.41732"
       orientation="0,1"
       id="guide3348"
       inkscape:label=""
       inkscape:color="rgb(0,0,255)"
       inkscape:locked="false" />
    <sodipodi:guide
       position="242.71654,289.15617"
       orientation="1,0"
       id="guide4173"
       inkscape:locked="false" />
    <sodipodi:guide
       position="-54.642858,21.259842"
       orientation="0,1"
       id="guide4176"
       inkscape:label=""
       inkscape:color="rgb(0,0,255)"
       inkscape:locked="false" />
    <sodipodi:guide
       position="0,350.7874"
       orientation="0,1"
       id="guide4178"
       inkscape:label=""
       inkscape:color="rgb(0,0,255)"
       inkscape:locked="false" />
    <sodipodi:guide
       position="30.118111,388.21428"
       orientation="1,0"
       id="guide4180"
       inkscape:label=""
       inkscape:color="rgb(0,0,255)"
       inkscape:locked="false" />
    <sodipodi:guide
       position="232.08662,385.71428"
       orientation="1,0"
       id="guide4182"
       inkscape:label=""
       inkscape:color="rgb(0,0,255)"
       inkscape:locked="false" />
    <sodipodi:guide
       position="40.748033,260.35714"
       orientation="1,0"
       id="guide4252"
       inkscape:label=""
       inkscape:color="rgb(0,0,255)"
       inkscape:locked="false" />
    <sodipodi:guide
       position="221.4567,323.92857"
       orientation="1,0"
       id="guide4254"
       inkscape:label=""
       inkscape:color="rgb(0,0,255)"
       inkscape:locked="false" />
    <sodipodi:guide
       position="-107.14286,340.15748"
       orientation="0,1"
       id="guide4256"
       inkscape:label=""
       inkscape:color="rgb(0,0,255)"
       inkscape:locked="false" />
    <sodipodi:guide
       position="-111.42857,31.889764"
       orientation="0,1"
       id="guide4258"
       inkscape:label=""
       inkscape:color="rgb(0,0,255)"
       inkscape:locked="false" />
    <sodipodi:guide
       position="-60.356616,308.26772"
       orientation="0,1"
       id="guide4262"
       inkscape:label=""
       inkscape:color="rgb(0,0,255)"
       inkscape:locked="false" />
    <sodipodi:guide
       position="-56.063468,297.63779"
       orientation="0,1"
       id="guide4269"
       inkscape:label=""
       inkscape:color="rgb(0,0,255)"
       inkscape:locked="false" />
    <sodipodi:guide
       position="93.897641,308.6016"
       orientation="1,0"
       id="guide4271"
       inkscape:label=""
       inkscape:color="rgb(0,0,255)"
       inkscape:locked="false" />
    <sodipodi:guide
       position="99.212601,340.15748"
       orientation="1,0"
       id="guide4273"
       inkscape:label=""
       inkscape:color="rgb(0,0,255)"
       inkscape:locked="false" />
    <sodipodi:guide
       position="-60.500002,279.92126"
       orientation="0,1"
       id="guide4303"
       inkscape:label=""
       inkscape:color="rgb(0,0,255)"
       inkscape:locked="false" />
    <sodipodi:guide
       position="-102.5,269.29134"
       orientation="0,1"
       id="guide4314"
       inkscape:label=""
       inkscape:color="rgb(0,0,255)"
       inkscape:locked="false" />
    <sodipodi:guide
       position="194.8819,223.95843"
       orientation="1,0"
       id="guide4201"
       inkscape:label=""
       inkscape:color="rgb(0,0,255)"
       inkscape:locked="false" />
    <sodipodi:guide
       position="184.25197,197.75"
       orientation="1,0"
       id="guide4243"
       inkscape:label=""
       inkscape:color="rgb(0,0,255)"
       inkscape:locked="false" />
    <sodipodi:guide
       position="68.74219,102.76562"
       orientation="0,1"
       id="guide4308"
       inkscape:locked="false" />
    <sodipodi:guide
       position="82.812503,85.3125"
       orientation="0,1"
       id="guide4392"
       inkscape:locked="false" />
  </sodipodi:namedview>
  <metadata
     id="metadata7">
    <rdf:RDF>
      <cc:Work
         rdf:about="">
        <dc:format>image/svg+xml</dc:format>
        <dc:type
           rdf:resource="http://purl.org/dc/dcmitype/StillImage" />
        <dc:title />
      </cc:Work>
    </rdf:RDF>
  </metadata>
  <g
     inkscape:label="Cut line"
     inkscape:groupmode="layer"
     id="layer1"
     transform="translate(0,-680.31496)"
     style="display:inline"
     sodipodi:insensitive="true">
    <path
       style="fill:none;fill-rule:evenodd;stroke:#808080;stroke-width:0.70866144;stroke-linecap:butt;stroke-linejoin:miter;stroke-miterlimit:4;stroke-dasharray:2.83464575, 2.83464575;stroke-dashoffset:0;stroke-opacity:1"
       d="m 19.488189,690.94488 0,350.78742 223.228341,0 0,-350.78742 z"
       id="path3350"
       inkscape:connector-curvature="0"
       transform="translate(4.3385302e-7,8.6660179e-6)" />
  </g>
  <g
     inkscape:groupmode="layer"
     id="layer2"
     inkscape:label="Top Separator"
     style="display:inline"
     sodipodi:insensitive="true">
    <path
       inkscape:connector-curvature="0"
       style="fill:none;fill-opacity:1;stroke:none;stroke-width:0.70866144;stroke-miterlimit:4;stroke-dasharray:2.83464575, 2.83464575;stroke-dashoffset:0;stroke-opacity:1"
       d="m 42.883734,21.259066 c -7.071438,0 -12.765624,6.544709 -12.765624,14.673828 l 0,38.476559 201.96874,0 0,-38.476559 c 0,-8.129119 -5.69224,-14.673828 -12.76367,-14.673828 l -176.439446,0 z"
       id="rect4195-3" />
  </g>
  <g
     inkscape:groupmode="layer"
     id="layer8"
     inkscape:label="Separator"
     style="display:inline"
     sodipodi:insensitive="true">
    <rect
       style="display:inline;fill:#e6e6e6;fill-opacity:1;stroke:none;stroke-width:1;stroke-miterlimit:4;stroke-dasharray:none;stroke-dashoffset:0;stroke-opacity:1"
       id="rect4178"
       width="201.96851"
       height="17.716536"
       x="30.118084"
       y="74.409447" />
    <text
       xml:space="preserve"
       style="font-style:normal;font-weight:normal;line-height:0%;font-family:sans-serif;letter-spacing:0px;word-spacing:0px;fill:#1a1a1a;fill-opacity:1;stroke:none;stroke-width:1px;stroke-linecap:butt;stroke-linejoin:miter;stroke-opacity:1"
       x="40.392563"
       y="86.392403"
       id="text4193"><tspan
         sodipodi:role="line"
         id="tspan4195"
         x="40.392563"
         y="86.392403"
         style="font-style:normal;font-variant:normal;font-weight:500;font-stretch:normal;font-size:11.25px;line-height:1.25;font-family:Lato;-inkscape-font-specification:'Lato Medium';fill:#1a1a1a">github.com/vpapadopou</tspan></text>
  </g>
  <g
     inkscape:groupmode="layer"
     id="g1"
     inkscape:label="Separator2"
     style="display:inline"
     sodipodi:insensitive="true">
    <rect
       style="display:inline;fill:#e6e6e6;fill-opacity:1;stroke:none;stroke-width:1;stroke-miterlimit:4;stroke-dasharray:none;stroke-dashoffset:0;stroke-opacity:1"
       id="rect1"
       width="201.96851"
       height="17.716536"
       x="30.118084"
       y="95.034447" />
    <text
       xml:space="preserve"
       style="font-style:normal;font-weight:normal;line-height:0%;font-family:sans-serif;letter-spacing:0px;word-spacing:0px;fill:#1a1a1a;fill-opacity:1;stroke:none;stroke-width:1px;stroke-linecap:butt;stroke-linejoin:miter;stroke-opacity:1"
       x="40.392563"
       y="107.0174"
       id="text1"><tspan
         sodipodi:role="line"
         id="tspan1"
         x="40.392563"
         y="107.0174"
         style="font-style:normal;font-variant:normal;font-weight:500;font-stretch:normal;font-size:11.25px;line-height:1.25;font-family:Lato;-inkscape-font-specification:'Lato Medium';fill:#1a1a1a">github.com/s31db</tspan></text>
  </g>
  <g
     inkscape:groupmode="layer"
     id="layer7"
     inkscape:label="Title"
     sodipodi:insensitive="true">
    <path
       style="fill:none;fill-rule:evenodd;stroke:none;stroke-width:1px;stroke-linecap:butt;stroke-linejoin:miter;stroke-opacity:1"
       d="m 99.212598,31.889763 0,31.88976 122.244092,0 0,-31.88976 z"
       id="path4300"
       inkscape:connector-curvature="0" />
    <flowRoot
       xml:space="preserve"
       style="font-style:normal;font-weight:normal;line-height:0.01%;font-family:sans-serif;text-align:end;letter-spacing:0px;word-spacing:0px;text-anchor:end;fill:#000000;fill-opacity:1;stroke:none;stroke-width:1px;stroke-linecap:butt;stroke-linejoin:miter;stroke-opacity:1"
       id="flowRoot4271"
       transform="translate(-3.4125e-4,-0.74843003)"><flowRegion
         id="flowRegion4273"><use
           x="0"
           y="0"
           xlink:href="#path4300"
           id="use4275"
           width="100%"
           height="100%" /></flowRegion><flowPara
         style="font-style:normal;font-variant:normal;font-weight:bold;font-stretch:normal;font-size:13.375px;line-height:1.25;font-family:Roboto;-inkscape-font-specification:'Roboto Bold';text-align:end;text-anchor:end"
         id="flowPara4277">Liberating Structures Cards FR</flowPara></flowRoot>
  </g>
  <g
     inkscape:groupmode="layer"
     id="layer6"
     inkscape:label="Logo"
     style="display:inline"
     sodipodi:insensitive="true">
    <path
       style="fill:none;fill-rule:evenodd;stroke:none;stroke-width:1px;stroke-linecap:butt;stroke-linejoin:miter;stroke-opacity:1"
       d="m 40.748032,31.889763 0,31.88976 53.149606,0 0,-31.88976 z"
       id="path4213"
       inkscape:connector-curvature="0" />
    <g
       transform="matrix(0.53317819,0,0,0.53317819,39.31214,29.47142)"
       inkscape:label="menu"
       id="layer9-3">
      <g
         id="g4578">
        <path
           style="fill:#000000;fill-opacity:1;stroke:none;stroke-width:0.26458332px;stroke-linecap:butt;stroke-linejoin:miter;stroke-opacity:1"
           d="m 15.434815,33.276333 15.033911,-9.354434 c 0,0 1.604126,-4.039742 2.739511,-5.879929 1.073974,-1.740654 2.39234,-3.335208 3.808593,-4.810852 1.60755,-1.674963 5.278572,-4.5435818 5.278572,-4.5435818 L 55.592061,20.380578 c 0,0 -4.608004,2.388837 -6.548104,4.07586 -1.598876,1.39031 -2.959568,3.076764 -4.075858,4.87767 -1.050848,1.695328 -2.405428,5.479023 -2.405428,5.479023 L 45.101732,55.25925 26.125596,64.346415 11.158503,53.78927 Z"
           id="path4548"
           inkscape:connector-curvature="0"
           sodipodi:nodetypes="ccaaccaaccccc" />
        <path
           style="fill:#ffffff;fill-opacity:1;stroke:none;stroke-width:0.26458332px;stroke-linecap:butt;stroke-linejoin:miter;stroke-opacity:1"
           d="m 32.205977,24.65689 c 0,0 1.400918,-3.669484 2.405425,-5.34539 1.012308,-1.688922 2.262823,-3.239389 3.608139,-4.677217 1.218224,-1.301996 4.009043,-3.541321 4.009043,-3.541321 l 10.089425,8.886712 c 0,0 -3.182871,1.90023 -4.543581,3.140417 -1.58916,1.448403 -2.994021,3.126825 -4.142679,4.944485 -0.942368,1.491222 -2.204974,4.810853 -2.204974,4.810853 z"
           id="path4550"
           inkscape:connector-curvature="0"
           sodipodi:nodetypes="caaccaacc" />
        <path
           style="fill:#ffffff;fill-opacity:1;stroke:none;stroke-width:0.26458332px;stroke-linecap:butt;stroke-linejoin:miter;stroke-opacity:1"
           d="m 17.10525,36.416749 9.822155,8.218538 -1.469983,16.102989 -11.358955,-7.483547 z"
           id="path4552"
           inkscape:connector-curvature="0" />
        <path
           style="fill:#ffffff;fill-opacity:1;stroke:none;stroke-width:0.26458332px;stroke-linecap:butt;stroke-linejoin:miter;stroke-opacity:1"
           d="m 28.798292,44.434836 11.893494,-7.750818 2.539058,17.372521 -15.568448,7.015823 z"
           id="path4554"
           inkscape:connector-curvature="0" />
        <path
           style="fill:#ffffff;fill-opacity:1;stroke:none;stroke-width:0.26458332px;stroke-linecap:butt;stroke-linejoin:miter;stroke-opacity:1"
           d="m 18.308222,33.592629 c -0.09154,0.711031 0.816526,2.27033 1.606398,3.141927 0.773001,0.85298 1.867853,1.368264 2.905692,1.866257 1.070896,0.513854 2.216274,0.887191 3.378162,1.133928 1.222505,0.259609 2.488559,0.474721 3.732515,0.354354 1.160644,-0.112306 2.305671,-0.482693 3.354538,-0.992188 0.955137,-0.463965 1.883212,-1.057912 2.598587,-1.842635 0.625118,-0.685716 1.301007,-1.486358 1.393788,-2.409597 0.10632,-1.057962 -0.334182,-2.20774 -1.015812,-3.023809 -0.743309,-0.889914 -1.946644,-1.31297 -3.047434,-1.677271 -1.267641,-0.41952 -2.634558,-0.596653 -3.96875,-0.54334 -1.24857,0.04989 -2.57475,0.186691 -3.661643,0.803198 -0.949718,0.538699 -1.945641,1.335735 -2.244233,2.385975 -0.248329,0.873449 0.02542,1.923578 0.54334,2.669458 0.534633,0.769947 1.505061,1.167904 2.385975,1.488282 1.061212,0.38595 2.236906,0.63379 3.35454,0.472469 0.941719,-0.135929 1.99448,-0.446075 2.598584,-1.181174 0.544499,-0.662568 0.865263,-1.691672 0.590589,-2.504094 -0.254466,-0.752653 -1.080467,-1.28754 -1.842635,-1.511906 -0.859231,-0.252939 -1.937116,-0.208582 -2.669455,0.307108 -0.538445,0.379156 -1.079713,1.146148 -0.874072,1.771763 0.08028,0.244243 0.428942,0.332161 0.685082,0.354351 0.287822,0.02493 0.639528,-0.0399 0.826824,-0.259861 0.283736,-0.33322 -0.153808,-1.027204 0.188989,-1.299292 0.365202,-0.289872 0.984958,-0.10607 1.393785,0.118115 0.477813,0.262014 0.898305,0.762506 0.992188,1.299295 0.08109,0.463656 -0.108048,0.998755 -0.425223,1.346538 -0.39715,0.435476 -1.043349,0.628662 -1.630021,0.685083 -0.880863,0.08471 -1.799054,-0.164073 -2.598587,-0.54334 -0.66779,-0.316774 -1.339471,-0.762892 -1.724517,-1.393788 -0.322622,-0.528615 -0.518004,-1.215761 -0.377976,-1.819011 0.162408,-0.699663 0.717332,-1.314664 1.322917,-1.700892 0.919614,-0.586509 2.098497,-0.722009 3.189174,-0.73233 1.150516,-0.01089 2.316164,0.266027 3.378163,0.708705 0.818455,0.34116 1.632144,0.801358 2.220608,1.46466 0.560901,0.632234 1.137935,1.422686 1.13393,2.267857 -0.0035,0.74308 -0.515866,1.434617 -1.015812,1.984375 -0.659885,0.725631 -1.587536,1.176992 -2.480469,1.582775 -0.866586,0.39381 -1.793009,0.710205 -2.740326,0.803198 -1.140899,0.111995 -2.310699,-0.03949 -3.425409,-0.307105 -1.089144,-0.261474 -2.151285,-0.686821 -3.118304,-1.252045 -0.793111,-0.463575 -1.57014,-1.011783 -2.149739,-1.724518 -0.624355,-0.76777 -0.943949,-2.213123 -1.346541,-2.645833 -0.168023,-0.180592 -0.527057,-0.123463 -0.779576,-0.05906 -0.245505,0.06262 -0.605483,0.162123 -0.637834,0.413414 z"
           id="path4556"
           inkscape:connector-curvature="0"
           sodipodi:nodetypes="caaaaaaaaaaaaaaaaaaaaaaaaaaaaaaaaaaaaaaaaasasc" />
        <path
           style="fill:#000000;fill-opacity:1;stroke:none;stroke-width:0.26458332px;stroke-linecap:butt;stroke-linejoin:miter;stroke-opacity:1"
           d="m 2.6930802,27.497762 0,-7.9375 c 0,0 3.2661631,-0.715585 4.9136905,-0.614211 1.6698728,0.102749 3.3177573,0.59549 4.8664433,1.228423 1.705247,0.696919 3.313323,1.66242 4.771949,2.787574 1.869348,1.441977 5.008185,5.008186 5.008185,5.008186 0,0 -4.086917,-1.981475 -6.236607,-2.693082 -1.367191,-0.452578 -2.768984,-0.882922 -4.204985,-0.992187 -1.575379,-0.11987 -3.2281852,-0.128603 -4.7247026,0.377976 -1.6509988,0.558872 -4.3939732,2.834821 -4.3939732,2.834821 z"
           id="path4558"
           inkscape:connector-curvature="0"
           sodipodi:nodetypes="ccaaacaaac" />
        <path
           style="fill:#000000;fill-opacity:1;stroke:none;stroke-width:0.26458332px;stroke-linecap:butt;stroke-linejoin:miter;stroke-opacity:1"
           d="m 8.315476,10.961304 3.685268,-4.9609375 c 0,0 3.3499,1.4788297 4.677455,2.6930805 1.234793,1.1294062 2.104519,2.628705 2.882069,4.110491 0.905311,1.725262 1.54337,3.594461 2.031622,5.480655 0.57491,2.220968 1.039434,6.803571 1.039434,6.803571 0,0 -2.156306,-4.089584 -3.449033,-6.000372 C 18.17065,17.592479 17.127898,16.088158 15.827753,14.83556 14.943029,13.983191 13.932412,13.245488 12.85119,12.662197 11.430081,11.895546 8.315476,10.961304 8.315476,10.961304 Z"
           id="path4560"
           inkscape:connector-curvature="0"
           sodipodi:nodetypes="ccaaacaaac" />
        <path
           style="fill:#000000;fill-opacity:1;stroke:none;stroke-width:0.26458332px;stroke-linecap:butt;stroke-linejoin:miter;stroke-opacity:1"
           d="m 30.946801,4.5357089 4.771949,5.1971725 c 0,0 -3.321194,2.2095996 -4.630209,3.6852676 -1.313887,1.48116 -2.256686,3.272807 -3.118302,5.055432 -1.166396,2.413192 -2.740329,7.559523 -2.740329,7.559523 0,0 -0.216272,-5.535096 0.141741,-8.268229 0.3056,-2.333005 0.79633,-4.678706 1.700894,-6.850818 0.956333,-2.296423 3.874256,-6.3783481 3.874256,-6.3783481 z"
           id="path4562"
           inkscape:connector-curvature="0"
           sodipodi:nodetypes="ccaacaac" />
        <path
           style="fill:#000000;fill-opacity:1;stroke:none;stroke-width:0.26458332px;stroke-linecap:butt;stroke-linejoin:miter;stroke-opacity:1"
           d="m 55.992966,37.051514 c 0,0 -3.397774,-2.283136 -5.311982,-2.939965 -1.631314,-0.559759 -5.11153,-0.801807 -5.11153,-0.801807 l -0.200453,0.801807 c 0,0 3.245744,0.557344 4.744034,1.202713 1.489643,0.641644 4.10927,2.605879 4.10927,2.605879 z"
           id="path4564"
           inkscape:connector-curvature="0"
           sodipodi:nodetypes="caccacc" />
        <path
           style="fill:#000000;fill-opacity:1;stroke:none;stroke-width:0.26458332px;stroke-linecap:butt;stroke-linejoin:miter;stroke-opacity:1"
           d="m 57.596582,27.262767 -0.835216,1.670436 c 0,0 -3.564752,0.06911 -5.278575,0.501129 -1.500164,0.378164 -4.276312,1.804069 -4.276312,1.804069 l -0.100224,-0.801806 c 0,0 2.760915,-1.799847 4.309721,-2.305201 1.977828,-0.645339 6.180606,-0.868627 6.180606,-0.868627 z"
           id="path4566"
           inkscape:connector-curvature="0"
           sodipodi:nodetypes="ccaccac" />
      </g>
    </g>
  </g>
  <g
     inkscape:groupmode="layer"
     id="layer5"
     inkscape:label="Border"
     style="display:inline"
     sodipodi:insensitive="true">
    <rect
       style="fill:none;fill-opacity:1;stroke:#000000;stroke-width:0.35433072;stroke-miterlimit:4;stroke-dasharray:none;stroke-dashoffset:0;stroke-opacity:1"
       id="rect4187"
       width="201.96851"
       height="329.52756"
       x="30.118111"
       y="21.259844"
       ry="14.6735"
       rx="12.76433" />
  </g>
  <g
     inkscape:groupmode="layer"
     id="layer9"
     inkscape:label="Body"
     style="display:inline">
    <text
       xml:space="preserve"
       style="font-style:normal;font-weight:normal;line-height:0%;font-family:sans-serif;letter-spacing:0px;word-spacing:0px;fill:#000000;fill-opacity:1;stroke:none;stroke-width:1px;stroke-linecap:butt;stroke-linejoin:miter;stroke-opacity:1"
       x="-62.225395"
       y="132.6916"
       id="text6165"><tspan
         sodipodi:role="line"
         id="tspan6167"
         x="-62.225395"
         y="132.6916"
         style="font-size:12.5px;line-height:1.25"> </tspan></text>
    <text
       xml:space="preserve"
       style="font-style:normal;font-weight:normal;line-height:0%;font-family:sans-serif;letter-spacing:0px;word-spacing:0px;fill:#000000;fill-opacity:1;stroke:none;stroke-width:1px;stroke-linecap:butt;stroke-linejoin:miter;stroke-opacity:1"
       x="93.897636"
       y="183.54724"
       id="text4267"><tspan
         sodipodi:role="line"
         id="tspan4269"
         x="93.897636"
         y="183.54724"
         style="font-size:8.75px;line-height:1.25"> </tspan></text>
    <path
       style="fill:none;fill-rule:evenodd;stroke:none;stroke-width:1.05256px;stroke-linecap:butt;stroke-linejoin:miter;stroke-opacity:1"
       d="M 33.455994,102.7559 V 346.12369 H 228.74873 V 102.7559 H 33.455994"
       id="path4361"
       inkscape:connector-curvature="0" />
    <flowRoot
       xml:space="preserve"
       style="font-style:normal;font-weight:normal;line-height:0.85;font-family:sans-serif;letter-spacing:0px;word-spacing:0px;fill:#000000;fill-opacity:1;stroke:none;stroke-width:1px;stroke-linecap:butt;stroke-linejoin:miter;stroke-opacity:1"
       id="flowRoot4363"
       transform="translate(0,11.25)"><flowRegion
   id="flowRegion4365"
   style="line-height:0.85"><use
     x="0"
     y="0"
     xlink:href="#path4361"
     id="use4367"
     width="100%"
     height="100%" /></flowRegion><flowPara
   id="flowPara4369"
   style="font-style:normal;font-variant:normal;font-weight:bold;font-stretch:normal;font-size:8.75px;line-height:0.85;font-family:Roboto;-inkscape-font-specification:'Roboto Bold';fill:#999999;fill-opacity:1">License</flowPara><flowPara
   style="font-style:normal;font-variant:normal;font-weight:normal;font-stretch:normal;font-size:8.75px;line-height:0.85;font-family:Lato;-inkscape-font-specification:Lato"
   id="flowPara4384">The Liberating Structures, the LS cards, the LS SVG icons and this card deck are licensed under:</flowPara><flowPara
   style="font-style:normal;font-variant:normal;font-weight:normal;font-stretch:normal;font-size:8.75px;line-height:0.85;font-family:Lato;-inkscape-font-specification:Lato"
   id="flowPara4388"> </flowPara><flowPara
   style="font-style:normal;font-variant:normal;font-weight:normal;font-stretch:normal;font-size:8.75px;line-height:0.85;font-family:Lato;-inkscape-font-specification:Lato"
   id="flowPara4390">Creative Commons Attribution Non Commercial 3.0 Unported (CC-BY-NC-3.0)</flowPara><flowPara
   style="font-style:normal;font-variant:normal;font-weight:normal;font-stretch:normal;font-size:8.75px;line-height:0.85;font-family:Lato;-inkscape-font-specification:Lato"
   id="flowPara4392"> </flowPara><flowPara
   style="font-style:normal;font-variant:normal;font-weight:bold;font-stretch:normal;font-size:8.75px;line-height:0.85;font-family:Roboto;-inkscape-font-specification:'Roboto Bold';fill:#999999;fill-opacity:1"
   id="flowPara4394">Closing thoughts</flowPara><flowPara
   style="font-style:normal;font-variant:normal;font-weight:normal;font-stretch:normal;font-size:8.75px;line-height:0.85;font-family:Lato;-inkscape-font-specification:Lato"
   id="flowPara4400">Please keep this card with the deck, I'd really appreciate it. Have fun :)</flowPara><flowPara
   style="font-style:normal;font-variant:normal;font-weight:normal;font-stretch:normal;font-size:8.75px;line-height:0.85;font-family:Lato;-inkscape-font-specification:Lato"
   id="flowPara3" /><flowPara
   id="flowPara84369"
   style="font-style:normal;font-variant:normal;font-weight:bold;font-stretch:normal;font-size:8.75px;line-height:0.85;font-family:Roboto;-inkscape-font-specification:'Roboto Bold';fill:#999999;fill-opacity:1">Licence</flowPara><flowPara
   style="font-style:normal;font-variant:normal;font-weight:normal;font-stretch:normal;font-size:8.75px;line-height:0.85;font-family:Lato;-inkscape-font-specification:Lato"
   id="flowPara84384">Les Structures libératrices, les cartes LS, les icônes SVG LS et ce jeu de cartes sont sous licence :</flowPara><flowPara
   style="font-style:normal;font-variant:normal;font-weight:normal;font-stretch:normal;font-size:8.75px;line-height:0.85;font-family:Lato;-inkscape-font-specification:Lato"
   id="flowPara84388"> </flowPara><flowPara
   style="font-style:normal;font-variant:normal;font-weight:normal;font-stretch:normal;font-size:8.75px;line-height:0.85;font-family:Lato;-inkscape-font-specification:Lato"
   id="flowPara84390">Creative Commons Attribution Non Commercial 3.0 Unported (CC-BY-NC-3.0)</flowPara><flowPara
   style="font-style:normal;font-variant:normal;font-weight:normal;font-stretch:normal;font-size:8.75px;line-height:0.85;font-family:Lato;-inkscape-font-specification:Lato"
   id="flowPara84392"> </flowPara><flowPara
   style="font-style:normal;font-variant:normal;font-weight:bold;font-stretch:normal;font-size:8.75px;line-height:0.85;font-family:Roboto;-inkscape-font-specification:'Roboto Bold';fill:#999999;fill-opacity:1"
   id="flowPara84394">Réflexion pour finir</flowPara><flowPara
   style="font-style:normal;font-variant:normal;font-weight:normal;font-stretch:normal;font-size:8.75px;line-height:0.85;font-family:Lato;-inkscape-font-specification:Lato"
   id="flowPara84400">Conservez cette carte avec le jeu de cartes, je vous en serais reconnaissant. Amusez-vous bien :)</flowPara><flowPara
   style="font-style:normal;font-variant:normal;font-weight:normal;font-stretch:normal;font-size:8.75px;line-height:0.85;font-family:Lato;-inkscape-font-specification:Lato"
   id="flowPara1" />&#10;  </flowRoot>
    <text
       xml:space="preserve"
       style="font-style:normal;font-weight:normal;line-height:0%;font-family:sans-serif;letter-spacing:0px;word-spacing:0px;fill:#000000;fill-opacity:1;stroke:none;stroke-width:1px;stroke-linecap:butt;stroke-linejoin:miter;stroke-opacity:1"
       x="293.09576"
       y="257.1424"
       id="text4321"><tspan
         sodipodi:role="line"
         id="tspan4323"
         x="293.09576"
         y="257.1424"
         style="font-size:8.75px;line-height:1.25"> </tspan></text>
  </g>
</svg>
