<?xml version="1.0" encoding="UTF-8" standalone="no"?>
<svg
   width="74mm"
   height="105mm"
   viewBox="0 0 262.20472 372.04724"
   id="svg2"
   version="1.1"
   inkscape:version="1.3.2 (091e20e, 2023-11-25, custom)"
   sodipodi:docname="nine-whys-front.svg"
   enable-background="new"
   style="background-color:white"
   xmlns:inkscape="http://www.inkscape.org/namespaces/inkscape"
   xmlns:sodipodi="http://sodipodi.sourceforge.net/DTD/sodipodi-0.dtd"
   xmlns="http://www.w3.org/2000/svg"
   xmlns:svg="http://www.w3.org/2000/svg"
   xmlns:rdf="http://www.w3.org/1999/02/22-rdf-syntax-ns#"
   xmlns:cc="http://creativecommons.org/ns#"
   xmlns:dc="http://purl.org/dc/elements/1.1/">
  <defs
     id="defs4" />
  <sodipodi:namedview
     id="base"
     pagecolor="#ffffff"
     bordercolor="#666666"
     borderopacity="1.0"
     inkscape:pageopacity="1"
     inkscape:pageshadow="2"
     inkscape:zoom="2.0000001"
     inkscape:cx="118.74999"
     inkscape:cy="181.24999"
     inkscape:document-units="mm"
     inkscape:current-layer="layer9"
     showgrid="false"
     showguides="false"
     inkscape:guide-bbox="true"
     inkscape:snap-bbox="false"
     inkscape:bbox-nodes="true"
     inkscape:object-nodes="true"
     inkscape:snap-page="true"
     inkscape:snap-grids="false"
     inkscape:window-width="1920"
     inkscape:window-height="1017"
     inkscape:window-x="-8"
     inkscape:window-y="-8"
     inkscape:window-maximized="1"
     inkscape:snap-others="false"
     inkscape:snap-nodes="true"
     inkscape:showpageshadow="2"
     inkscape:pagecheckerboard="0"
     inkscape:deskcolor="#d1d1d1">
    <sodipodi:guide
       position="19.48819,143.57143"
       orientation="1,0"
       id="guide3342"
       inkscape:label=""
       inkscape:color="rgb(0,0,255)"
       inkscape:locked="false" />
    <sodipodi:guide
       position="242.71654,160.71429"
       orientation="1,0"
       id="guide3344"
       inkscape:label=""
       inkscape:color="rgb(0,0,255)"
       inkscape:locked="false" />
    <sodipodi:guide
       position="100.71429,10.629921"
       orientation="0,1"
       id="guide3346"
       inkscape:label=""
       inkscape:color="rgb(0,0,255)"
       inkscape:locked="false" />
    <sodipodi:guide
       position="75.714288,361.41732"
       orientation="0,1"
       id="guide3348"
       inkscape:label=""
       inkscape:color="rgb(0,0,255)"
       inkscape:locked="false" />
    <sodipodi:guide
       position="242.71654,289.15617"
       orientation="1,0"
       id="guide4173"
       inkscape:locked="false" />
    <sodipodi:guide
       position="-54.642858,21.259842"
       orientation="0,1"
       id="guide4176"
       inkscape:label=""
       inkscape:color="rgb(0,0,255)"
       inkscape:locked="false" />
    <sodipodi:guide
       position="0,350.7874"
       orientation="0,1"
       id="guide4178"
       inkscape:label=""
       inkscape:color="rgb(0,0,255)"
       inkscape:locked="false" />
    <sodipodi:guide
       position="30.118111,388.21428"
       orientation="1,0"
       id="guide4180"
       inkscape:label=""
       inkscape:color="rgb(0,0,255)"
       inkscape:locked="false" />
    <sodipodi:guide
       position="232.08662,385.71428"
       orientation="1,0"
       id="guide4182"
       inkscape:label=""
       inkscape:color="rgb(0,0,255)"
       inkscape:locked="false" />
    <sodipodi:guide
       position="40.748033,260.35714"
       orientation="1,0"
       id="guide4252"
       inkscape:label=""
       inkscape:color="rgb(0,0,255)"
       inkscape:locked="false" />
    <sodipodi:guide
       position="221.4567,323.92857"
       orientation="1,0"
       id="guide4254"
       inkscape:label=""
       inkscape:color="rgb(0,0,255)"
       inkscape:locked="false" />
    <sodipodi:guide
       position="-107.14286,340.15748"
       orientation="0,1"
       id="guide4256"
       inkscape:label=""
       inkscape:color="rgb(0,0,255)"
       inkscape:locked="false" />
    <sodipodi:guide
       position="-111.42857,31.889764"
       orientation="0,1"
       id="guide4258"
       inkscape:label=""
       inkscape:color="rgb(0,0,255)"
       inkscape:locked="false" />
    <sodipodi:guide
       position="-60.356616,230.31496"
       orientation="0,1"
       id="guide4262"
       inkscape:label=""
       inkscape:color="rgb(0,0,255)"
       inkscape:locked="false" />
    <sodipodi:guide
       position="-56.063468,258.66142"
       orientation="0,1"
       id="guide4269"
       inkscape:label=""
       inkscape:color="rgb(0,0,255)"
       inkscape:locked="false" />
    <sodipodi:guide
       position="93.897641,308.6016"
       orientation="1,0"
       id="guide4271"
       inkscape:label=""
       inkscape:color="rgb(0,0,255)"
       inkscape:locked="false" />
    <sodipodi:guide
       position="109.84252,340.15748"
       orientation="1,0"
       id="guide4273"
       inkscape:label=""
       inkscape:color="rgb(0,0,255)"
       inkscape:locked="false" />
    <sodipodi:guide
       position="-60.500002,219.68504"
       orientation="0,1"
       id="guide4303"
       inkscape:label=""
       inkscape:color="rgb(0,0,255)"
       inkscape:locked="false" />
  </sodipodi:namedview>
  <metadata
     id="metadata7">
    <rdf:RDF>
      <cc:Work
         rdf:about="">
        <dc:format>image/svg+xml</dc:format>
        <dc:type
           rdf:resource="http://purl.org/dc/dcmitype/StillImage" />
        <dc:title />
      </cc:Work>
    </rdf:RDF>
  </metadata>
  <g
     inkscape:label="Cut line"
     inkscape:groupmode="layer"
     id="layer1"
     transform="translate(0,-680.31496)"
     style="display:inline"
     sodipodi:insensitive="true">
    <path
       style="fill:none;fill-rule:evenodd;stroke:#808080;stroke-width:0.708661;stroke-linecap:butt;stroke-linejoin:miter;stroke-miterlimit:4;stroke-dasharray:2.83465, 2.83465;stroke-dashoffset:0;stroke-opacity:1"
       d="M 19.488189,690.94488 V 1041.7323 H 242.71653 V 690.94488 Z"
       id="path3350"
       inkscape:connector-curvature="0"
       transform="translate(4.3385302e-7)" />
  </g>
  <g
     inkscape:groupmode="layer"
     id="layer6"
     inkscape:label="Logo"
     style="display:inline"
     sodipodi:insensitive="true">
    <path
       style="fill:none;fill-rule:evenodd;stroke:none;stroke-width:1px;stroke-linecap:butt;stroke-linejoin:miter;stroke-opacity:1"
       d="M 40.748032,31.889763 V 113.38582 H 93.897638 V 31.889763 H 40.748032"
       id="path4275"
       inkscape:connector-curvature="0" />
    <g
       transform="matrix(1.6592045,0,0,1.6592045,32.908663,-296.1733)"
       style="display:inline;opacity:1"
       inkscape:label="9whys"
       id="layer4-3">
      <g
         id="g4631">
        <circle
           style="opacity:1;fill:#ffffff;fill-opacity:1;stroke:none;stroke-width:0.265;stroke-miterlimit:4;stroke-dasharray:none;stroke-opacity:1"
           id="path4619"
           cx="18.34137"
           cy="210.97716"
           r="6.3142428" />
        <g
           id="g864">
          <path
             transform="scale(0.26458333)"
             id="path909"
             d="M 78.392578,762.5 A 60.535706,60.535706 0 0 0 17.857422,823.03516 60.535706,60.535706 0 0 0 78.392578,883.57227 60.535706,60.535706 0 0 0 138.92773,823.03516 60.535706,60.535706 0 0 0 78.392578,762.5 Z M 69.375,776.07227 a 21.517857,21.517857 0 0 1 2.148438,0.10742 21.517857,21.517857 0 0 1 2.126953,0.32031 21.517857,21.517857 0 0 1 2.083984,0.5332 21.517857,21.517857 0 0 1 2.019531,0.73633 21.517857,21.517857 0 0 1 1.9375,0.93555 21.517857,21.517857 0 0 1 1.833985,1.125 21.517857,21.517857 0 0 1 1.710937,1.30078 21.517857,21.517857 0 0 1 1.574219,1.4668 21.517857,21.517857 0 0 1 1.419922,1.61523 21.517857,21.517857 0 0 1 1.251953,1.75 21.517857,21.517857 0 0 1 1.070312,1.86523 21.517857,21.517857 0 0 1 0.876954,1.96485 21.517857,21.517857 0 0 1 0.679687,2.04101 21.517857,21.517857 0 0 1 0.470703,2.09766 21.517857,21.517857 0 0 1 0.259766,2.13477 21.517857,21.517857 0 0 1 0.05273,1.52343 21.517857,21.517857 0 0 1 -0.107422,2.14844 21.517857,21.517857 0 0 1 -0.320312,2.125 21.517857,21.517857 0 0 1 -0.533203,2.08399 21.517857,21.517857 0 0 1 -0.738282,2.02148 21.517857,21.517857 0 0 1 -0.935547,1.9375 21.517857,21.517857 0 0 1 -1.123046,1.83203 21.517857,21.517857 0 0 1 -1.302735,1.71289 21.517857,21.517857 0 0 1 -1.464843,1.57422 21.517857,21.517857 0 0 1 -1.617188,1.41992 21.517857,21.517857 0 0 1 -1.748047,1.25 21.517857,21.517857 0 0 1 -1.867187,1.07031 21.517857,21.517857 0 0 1 -1.962891,0.87891 21.517857,21.517857 0 0 1 -2.041016,0.67774 21.517857,21.517857 0 0 1 -2.097656,0.47265 21.517857,21.517857 0 0 1 -2.136719,0.25781 21.517857,21.517857 0 0 1 -1.52148,0.0547 A 21.517857,21.517857 0 0 1 67.226562,819 a 21.517857,21.517857 0 0 1 -2.126953,-0.32227 21.517857,21.517857 0 0 1 -2.083984,-0.53125 21.517857,21.517857 0 0 1 -2.019531,-0.73828 21.517857,21.517857 0 0 1 -1.9375,-0.93554 21.517857,21.517857 0 0 1 -1.833985,-1.12305 21.517857,21.517857 0 0 1 -1.710937,-1.30273 21.517857,21.517857 0 0 1 -1.574219,-1.4668 21.517857,21.517857 0 0 1 -1.419922,-1.61524 21.517857,21.517857 0 0 1 -1.251953,-1.75 21.517857,21.517857 0 0 1 -1.070312,-1.86523 21.517857,21.517857 0 0 1 -0.876954,-1.96289 21.517857,21.517857 0 0 1 -0.679687,-2.04102 21.517857,21.517857 0 0 1 -0.470703,-2.09961 21.517857,21.517857 0 0 1 -0.259766,-2.13476 21.517857,21.517857 0 0 1 -0.05273,-1.52149 21.517857,21.517857 0 0 1 0.107422,-2.14843 21.517857,21.517857 0 0 1 0.320312,-2.12696 21.517857,21.517857 0 0 1 0.533203,-2.08398 21.517857,21.517857 0 0 1 0.738282,-2.02149 21.517857,21.517857 0 0 1 0.935547,-1.93554 21.517857,21.517857 0 0 1 1.123046,-1.83399 21.517857,21.517857 0 0 1 1.302735,-1.71289 21.517857,21.517857 0 0 1 1.464843,-1.57422 A 21.517857,21.517857 0 0 1 56,780.73438 a 21.517857,21.517857 0 0 1 1.748047,-1.25196 21.517857,21.517857 0 0 1 1.867187,-1.07031 21.517857,21.517857 0 0 1 1.962891,-0.87891 21.517857,21.517857 0 0 1 2.041016,-0.67773 21.517857,21.517857 0 0 1 2.097656,-0.4707 21.517857,21.517857 0 0 1 2.136719,-0.25977 21.517857,21.517857 0 0 1 1.521484,-0.0527 z"
             style="fill:#000000;fill-opacity:1;stroke:none;stroke-width:3.76288;stroke-miterlimit:4;stroke-dasharray:none;stroke-opacity:1"
             inkscape:connector-curvature="0" />
          <g
             id="text838"
             style="font-style:normal;font-weight:normal;font-size:10.5833px;line-height:1.25;font-family:sans-serif;letter-spacing:0px;word-spacing:0px;fill:#000000;fill-opacity:1;stroke:none;stroke-width:0.264583"
             aria-label="9">
            <path
               id="path844"
               style="font-style:normal;font-variant:normal;font-weight:bold;font-stretch:normal;font-family:JournalSans;-inkscape-font-specification:'JournalSans Bold';stroke-width:0.264583"
               d="m 19.712653,212.47476 c 0.211667,-0.37042 0.370417,-0.65617 0.47625,-0.86784 0.116417,-0.22225 0.232834,-0.52916 0.34925,-0.93133 0.127,-0.40217 0.1905,-0.78317 0.1905,-1.15358 0,-0.59267 -0.232833,-1.09009 -0.687916,-1.50284 -0.455084,-0.41275 -1.016,-0.61383 -1.693334,-0.61383 -0.709083,0 -1.269999,0.22225 -1.693333,0.67733 -0.423333,0.45509 -0.635,0.97367 -0.635,1.56634 0,0.60325 0.1905,1.10066 0.5715,1.50283 0.391584,0.39158 0.846667,0.59267 1.386417,0.59267 0.201083,0 0.359833,-0.0106 0.455083,-0.0317 l -1.799166,2.88925 h 1.852083 z m -0.889,-2.3495 c -0.243416,0.30691 -0.645583,0.30691 -0.899583,0 -0.243416,-0.30692 -0.243416,-0.79375 0,-1.10067 0.254,-0.30692 0.656167,-0.30692 0.899583,0 0.243417,0.30692 0.243417,0.79375 0,1.10067 z"
               inkscape:connector-curvature="0" />
          </g>
          <g
             id="text842"
             style="font-style:normal;font-weight:normal;font-size:10.5833px;line-height:1.25;font-family:sans-serif;letter-spacing:0px;word-spacing:0px;fill:#000000;fill-opacity:1;stroke:none;stroke-width:0.264583"
             aria-label="whys">
            <path
               id="path847"
               style="font-style:normal;font-variant:normal;font-weight:bold;font-stretch:normal;font-size:8.46667px;font-family:sans-serif;-inkscape-font-specification:'sans-serif Bold';letter-spacing:-0.291042px;fill:#ffffff;fill-opacity:1;stroke-width:0.264583"
               d="m 17.537816,222.0152 -1.438672,4.64261 h -1.579232 l -0.946712,-3.12953 -0.930176,3.12953 H 11.043122 L 9.6168528,222.0152 h 1.5626952 l 0.79375,3.1998 0.992187,-3.1998 h 1.318783 l 0.942578,3.1998 0.781348,-3.1998 z"
               inkscape:connector-curvature="0" />
            <path
               id="path849"
               style="font-style:normal;font-variant:normal;font-weight:bold;font-stretch:normal;font-size:8.46667px;font-family:sans-serif;-inkscape-font-specification:'sans-serif Bold';letter-spacing:-0.291042px;fill:#ffffff;fill-opacity:1;stroke-width:0.264583"
               d="m 22.807159,226.65781 h -1.49655 v -2.30271 q 0,-0.28112 -0.02894,-0.5581 -0.02894,-0.28112 -0.09922,-0.41341 -0.08268,-0.15296 -0.243913,-0.22324 -0.157096,-0.0703 -0.44235,-0.0703 -0.202572,0 -0.413412,0.0661 -0.206705,0.0662 -0.450618,0.21084 v 3.29076 h -1.488281 v -6.43269 h 1.488281 v 2.30271 q 0.396875,-0.31006 0.760677,-0.47543 0.367936,-0.16536 0.81442,-0.16536 0.752409,0 1.174089,0.43821 0.425814,0.43822 0.425814,1.31052 z"
               inkscape:connector-curvature="0" />
            <path
               id="path851"
               style="font-style:normal;font-variant:normal;font-weight:bold;font-stretch:normal;font-size:8.46667px;font-family:sans-serif;-inkscape-font-specification:'sans-serif Bold';letter-spacing:-0.291042px;fill:#ffffff;fill-opacity:1;stroke-width:0.264583"
               d="m 25.984639,225.01656 1.058333,-3.00136 h 1.529622 l -2.579687,6.34586 h -1.612304 l 0.735872,-1.73633 -1.806608,-4.60953 h 1.562695 z"
               inkscape:connector-curvature="0" />
            <path
               id="path853"
               style="font-style:normal;font-variant:normal;font-weight:bold;font-stretch:normal;font-size:8.46667px;font-family:sans-serif;-inkscape-font-specification:'sans-serif Bold';letter-spacing:-0.291042px;fill:#ffffff;fill-opacity:1;stroke-width:0.264583"
               d="m 33.139138,225.18606 q 0,0.71934 -0.644922,1.16169 -0.644922,0.43821 -1.765267,0.43821 -0.620117,0 -1.124479,-0.11575 -0.504362,-0.11576 -0.810287,-0.25632 v -1.22369 h 0.136426 q 0.111621,0.0785 0.256315,0.17363 0.148828,0.0909 0.417546,0.19844 0.23151,0.0951 0.525032,0.16536 0.293522,0.0661 0.628386,0.0661 0.438216,0 0.649056,-0.0951 0.21084,-0.0992 0.21084,-0.28939 0,-0.16949 -0.124024,-0.24391 -0.124023,-0.0786 -0.471289,-0.14883 -0.165365,-0.0372 -0.450618,-0.0786 -0.28112,-0.0455 -0.512631,-0.10748 -0.632519,-0.16537 -0.938444,-0.51263 -0.305924,-0.3514 -0.305924,-0.8723 0,-0.66973 0.632519,-1.11208 0.636654,-0.44648 1.736328,-0.44648 0.520899,0 0.996322,0.10749 0.479557,0.10335 0.748275,0.22324 v 1.17409 H 32.80014 q -0.330729,-0.22738 -0.756543,-0.36794 -0.421679,-0.14469 -0.855761,-0.14469 -0.359668,0 -0.607715,0.0992 -0.243913,0.0992 -0.243913,0.28112 0,0.16537 0.111621,0.25219 0.111621,0.0868 0.525033,0.17363 0.227376,0.0455 0.487825,0.0909 0.264583,0.0413 0.529167,0.10749 0.587044,0.15296 0.868164,0.48369 0.28112,0.32659 0.28112,0.81855 z"
               inkscape:connector-curvature="0" />
          </g>
        </g>
      </g>
    </g>
  </g>
  <g
     inkscape:groupmode="layer"
     id="layer9"
     inkscape:label="Title"
     style="display:inline"
     sodipodi:insensitive="true">
    <path
       style="fill:none;fill-rule:evenodd;stroke:none;stroke-width:1px;stroke-linecap:butt;stroke-linejoin:miter;stroke-opacity:1"
       d="M 109.84252,113.38582 H 221.45669 V 31.889763 H 109.84252 Z"
       id="path4349_nwf"
       inkscape:connector-curvature="0" />
    <text
       xml:space="preserve"
       style="font-style:normal;font-weight:normal;line-height:0.01%;font-family:sans-serif;text-align:start;letter-spacing:0px;word-spacing:0px;text-anchor:start;fill:#000000;fill-opacity:1;stroke:none;stroke-width:1px;stroke-linecap:butt;stroke-linejoin:miter;stroke-opacity:1"
       x="-18.158264"
       y="56.138397"
       id="text70"><tspan
         sodipodi:role="line"
         x="132.24988"
         y="56.138397"
         id="tspan66"><tspan
           x="132.24988"
           y="56.138397"
           style="font-weight:bold;font-size:13.75px;line-height:1.25;font-family:Roboto;-inkscape-font-specification:'Roboto Bold';text-align:start;text-anchor:start"
           id="tspan64">Neuf Pourquoi</tspan><tspan
           dx="0"
           x="221.45703"
           y="56.138397"
           style="font-weight:bold;font-size:13.75px;line-height:1.25;font-family:Roboto;-inkscape-font-specification:'Roboto Bold';text-align:start;text-anchor:start"
           id="tspan65" /></tspan><tspan
         sodipodi:role="line"
         x="121.30452"
         y="69.432144"
         id="tspan68"><tspan
           x="121.30452"
           y="69.432144"
           style="font-size:8.75px;line-height:125%;font-family:Lato;-inkscape-font-specification:Lato;text-align:start;text-anchor:start;fill:#1a1a1a"
           id="tspan67">Clarifiez l'objectif de votre </tspan></tspan><tspan
         sodipodi:role="line"
         x="170.80327"
         y="80.369644"
         id="tspan70"><tspan
           x="170.80327"
           y="80.369644"
           style="font-size:8.75px;line-height:125%;font-family:Lato;-inkscape-font-specification:Lato;text-align:start;text-anchor:start;fill:#1a1a1a"
           id="tspan69">collaboration</tspan></tspan></text>
    <text
       xml:space="preserve"
       style="font-style:italic;font-variant:normal;font-weight:normal;font-stretch:normal;font-size:9.88772px;line-height:1.15;font-family:Roboto;-inkscape-font-specification:'Roboto, Italic';font-variant-ligatures:normal;font-variant-caps:normal;font-variant-numeric:normal;font-variant-east-asian:normal;font-variation-settings:normal;direction:ltr;display:inline;vector-effect:none;fill:#000000;fill-opacity:0.6;stroke:none;stroke-width:0.878906px;stroke-linecap:butt;stroke-linejoin:miter;stroke-miterlimit:4;stroke-dasharray:none;stroke-dashoffset:0;stroke-opacity:1;-inkscape-stroke:none;enable-background:new;stop-color:#000000"
       x="175.02763"
       y="94.603287"
       id="text5"
       inkscape:label="enTitle"><tspan
         sodipodi:role="line"
         id="tspan5"
         x="175.02763"
         y="94.603287"
         style="stroke-width:0.878906px">Nine Whys</tspan></text>
  </g>
  <g
     inkscape:groupmode="layer"
     id="layer8"
     inkscape:label="Separator"
     style="display:inline"
     transform="translate(0,-13.125)"
     sodipodi:insensitive="true">
    <rect
       style="display:inline;fill:#9955ff;fill-opacity:1;stroke:none;stroke-width:1;stroke-miterlimit:4;stroke-dasharray:none;stroke-dashoffset:0;stroke-opacity:1"
       id="rect4178"
       width="134.64568"
       height="17.716536"
       x="30.118111"
       y="124.01575" />
    <text
       xml:space="preserve"
       style="font-style:normal;font-weight:normal;line-height:0%;font-family:sans-serif;letter-spacing:0px;word-spacing:0px;display:inline;fill:#000000;fill-opacity:1;stroke:none;stroke-width:1px;stroke-linecap:butt;stroke-linejoin:miter;stroke-opacity:1"
       x="39.935043"
       y="137.46776"
       id="text4180"><tspan
         sodipodi:role="line"
         id="tspan4182"
         x="39.935043"
         y="137.46776"
         style="font-style:normal;font-variant:normal;font-weight:bold;font-stretch:normal;font-size:12.5px;line-height:1.25;font-family:Lato;-inkscape-font-specification:'Lato Bold';fill:#ffffff">Analyse</tspan></text>
    <rect
       y="124.01575"
       x="164.76379"
       height="17.716536"
       width="67.322838"
       id="rect4191"
       style="display:inline;fill:#e6e6e6;fill-opacity:1;stroke:none;stroke-width:1;stroke-miterlimit:4;stroke-dasharray:none;stroke-dashoffset:0;stroke-opacity:1" />
    <text
       xml:space="preserve"
       style="font-style:normal;font-weight:normal;line-height:0%;font-family:sans-serif;letter-spacing:0px;word-spacing:0px;fill:#1a1a1a;fill-opacity:1;stroke:none;stroke-width:1px;stroke-linecap:butt;stroke-linejoin:miter;stroke-opacity:1"
       x="184.26759"
       y="137.39589"
       id="text4193"><tspan
         sodipodi:role="line"
         id="tspan4195"
         x="184.26759"
         y="137.39589"
         style="font-style:normal;font-variant:normal;font-weight:500;font-stretch:normal;font-size:12.5px;line-height:1.25;font-family:Lato;-inkscape-font-specification:'Lato Medium';fill:#1a1a1a">20 min</tspan></text>
  </g>
  <g
     inkscape:groupmode="layer"
     id="layer5"
     inkscape:label="Border"
     style="display:inline"
     sodipodi:insensitive="true">
    <rect
       style="fill:none;fill-opacity:1;stroke:#000000;stroke-width:0.354331;stroke-miterlimit:4;stroke-dasharray:none;stroke-dashoffset:0;stroke-opacity:1"
       id="rect4187"
       width="201.96851"
       height="329.52756"
       x="30.118111"
       y="21.259844"
       ry="14.6735"
       rx="12.76433" />
  </g>
  <g
     inkscape:groupmode="layer"
     id="layer4"
     inkscape:label="Body"
     style="display:inline"
     sodipodi:insensitive="true">
    <path
       style="fill:none;fill-rule:evenodd;stroke:none;stroke-width:1.02344px;stroke-linecap:butt;stroke-linejoin:miter;stroke-opacity:1"
       d="M 40.748032,152.3622 V 349.06373 H 221.45669 V 152.3622 Z"
       id="path4305_nwf"
       inkscape:connector-curvature="0" />
    <text
       xml:space="preserve"
       style="font-style:normal;font-weight:normal;font-size:12.0411px;line-height:0.01%;font-family:sans-serif;letter-spacing:0px;word-spacing:0px;fill:#000000;fill-opacity:1;stroke:none;stroke-width:1.00342px;stroke-linecap:butt;stroke-linejoin:miter;stroke-opacity:1"
       x="40.886887"
       y="148.28699"
       id="text63"
       transform="scale(0.99658864,1.003423)"><tspan
         sodipodi:role="line"
         x="40.886887"
         y="148.28699"
         id="tspan3"
         style="stroke-width:1.00342px"><tspan
           x="40.886887"
           y="148.28699"
           style="font-weight:bold;font-size:8.75px;line-height:1.25;font-family:Roboto;-inkscape-font-specification:'Roboto Bold';fill:#999999;stroke-width:1.00342px"
           id="tspan1">Invitation</tspan><tspan
           dx="0"
           x="77.852219"
           y="148.28699"
           style="font-weight:bold;font-size:8.75px;line-height:1.25;font-family:Roboto;-inkscape-font-specification:'Roboto Bold';fill:#999999;stroke-width:1.00342px"
           id="tspan2" /></tspan><tspan
         sodipodi:role="line"
         x="40.886887"
         y="159.70575"
         id="tspan7"
         style="stroke-width:1.00342px"><tspan
           x="40.886887"
           y="159.70575"
           style="font-weight:500;font-size:8.75px;line-height:1.25;font-family:Lato;-inkscape-font-specification:'Lato Medium';fill:#1a1a1a;stroke-width:1.00342px"
           id="tspan4">Demander</tspan><tspan
           dx="0"
           x="81.548126"
           y="159.70575"
           style="font-weight:500;font-size:8.75px;line-height:1.25;font-family:Lato;-inkscape-font-specification:'Lato Medium';fill:#1a1a1a;stroke-width:1.00342px"
           id="tspan6" /></tspan><tspan
         sodipodi:role="line"
         x="40.886887"
         y="170.64325"
         id="tspan9"
         style="stroke-width:1.00342px"><tspan
           x="40.886887"
           y="170.64325"
           style="font-weight:500;font-size:8.75px;line-height:1.25;font-family:Lato;-inkscape-font-specification:'Lato Medium';fill:#1a1a1a;stroke-width:1.00342px"
           id="tspan8">- Que faites-vous lorsque vous travaillez sur ... </tspan></tspan><tspan
         sodipodi:role="line"
         x="40.886887"
         y="181.58076"
         id="tspan11"
         style="stroke-width:1.00342px"><tspan
           x="40.886887"
           y="181.58076"
           style="font-weight:500;font-size:8.75px;line-height:1.25;font-family:Lato;-inkscape-font-specification:'Lato Medium';fill:#1a1a1a;stroke-width:1.00342px"
           id="tspan10">(le sujet ou le défi en question) ? Veuillez </tspan></tspan><tspan
         sodipodi:role="line"
         x="40.886887"
         y="192.51826"
         id="tspan14"
         style="stroke-width:1.00342px"><tspan
           x="40.886887"
           y="192.51826"
           style="font-weight:500;font-size:8.75px;line-height:1.25;font-family:Lato;-inkscape-font-specification:'Lato Medium';fill:#1a1a1a;stroke-width:1.00342px"
           id="tspan12">dresser une courte liste d'activités.</tspan><tspan
           dx="0"
           x="172.85442"
           y="192.51826"
           style="font-weight:500;font-size:8.75px;line-height:1.25;font-family:Lato;-inkscape-font-specification:'Lato Medium';fill:#1a1a1a;stroke-width:1.00342px"
           id="tspan13" /></tspan><tspan
         sodipodi:role="line"
         x="40.886887"
         y="203.45576"
         id="tspan17"
         style="stroke-width:1.00342px"><tspan
           x="40.886887"
           y="203.45576"
           style="font-weight:500;font-size:8.75px;line-height:1.25;font-family:Lato;-inkscape-font-specification:'Lato Medium';fill:#1a1a1a;stroke-width:1.00342px"
           id="tspan15">- &quot;Pourquoi est-ce important pour vous ?&quot;</tspan><tspan
           dx="0"
           x="197.62563"
           y="203.45576"
           style="font-weight:500;font-size:8.75px;line-height:1.25;font-family:Lato;-inkscape-font-specification:'Lato Medium';fill:#1a1a1a;stroke-width:1.00342px"
           id="tspan16" /></tspan><tspan
         sodipodi:role="line"
         x="40.886887"
         y="214.39328"
         id="tspan19"
         style="stroke-width:1.00342px"><tspan
           x="40.886887"
           y="214.39328"
           style="font-weight:500;font-size:8.75px;line-height:1.25;font-family:Lato;-inkscape-font-specification:'Lato Medium';fill:#1a1a1a;stroke-width:1.00342px"
           id="tspan18">- Continuez à demander &quot;Pourquoi ? jusqu'à </tspan></tspan><tspan
         sodipodi:role="line"
         x="40.886887"
         y="225.33078"
         id="tspan21"
         style="stroke-width:1.00342px"><tspan
           x="40.886887"
           y="225.33078"
           style="font-weight:500;font-size:8.75px;line-height:1.25;font-family:Lato;-inkscape-font-specification:'Lato Medium';fill:#1a1a1a;stroke-width:1.00342px"
           id="tspan20">neuf fois ou jusqu'à ce que les participants aient </tspan></tspan><tspan
         sodipodi:role="line"
         x="40.886887"
         y="236.26828"
         id="tspan24"
         style="stroke-width:1.00342px"><tspan
           x="40.886887"
           y="236.26828"
           style="font-weight:500;font-size:8.75px;line-height:1.25;font-family:Lato;-inkscape-font-specification:'Lato Medium';fill:#1a1a1a;stroke-width:1.00342px"
           id="tspan22">atteint l'objectif fondamental de ce travail.</tspan><tspan
           dx="0"
           x="201.09938"
           y="236.26828"
           style="font-weight:500;font-size:8.75px;line-height:1.25;font-family:Lato;-inkscape-font-specification:'Lato Medium';fill:#1a1a1a;stroke-width:1.00342px"
           id="tspan23" /></tspan><tspan
         sodipodi:role="line"
         x="40.886887"
         y="247.20576"
         id="tspan27"
         style="stroke-width:1.00342px"><tspan
           x="40.886887"
           y="247.20576"
           style="font-weight:500;font-size:8.75px;line-height:1.25;font-family:Lato;-inkscape-font-specification:'Lato Medium';fill:#1a1a1a;stroke-width:1.00342px"
           id="tspan25"> </tspan><tspan
           dx="0"
           x="42.575642"
           y="247.20576"
           style="font-weight:500;font-size:8.75px;line-height:1.25;font-family:Lato;-inkscape-font-specification:'Lato Medium';fill:#1a1a1a;stroke-width:1.00342px"
           id="tspan26" /></tspan><tspan
         sodipodi:role="line"
         x="40.886887"
         y="257.66202"
         id="tspan30"
         style="stroke-width:1.00342px"><tspan
           x="40.886887"
           y="257.66202"
           style="font-weight:bold;font-size:8.75px;line-height:1.25;font-family:Roboto;-inkscape-font-specification:'Roboto Bold';fill:#999999;stroke-width:1.00342px"
           id="tspan28">Personnes</tspan><tspan
           dx="0"
           x="82.872353"
           y="257.66202"
           style="font-weight:bold;font-size:8.75px;line-height:1.25;font-family:Roboto;-inkscape-font-specification:'Roboto Bold';fill:#999999;stroke-width:1.00342px"
           id="tspan29" /></tspan><tspan
         sodipodi:role="line"
         x="40.886887"
         y="269.08078"
         id="tspan32"
         style="stroke-width:1.00342px"><tspan
           x="40.886887"
           y="269.08078"
           style="font-weight:500;font-size:8.75px;line-height:1.25;font-family:Lato;-inkscape-font-specification:'Lato Medium';fill:#1a1a1a;stroke-width:1.00342px"
           id="tspan31">Commencez par des paires, puis des groupes de </tspan></tspan><tspan
         sodipodi:role="line"
         x="40.886887"
         y="280.01828"
         id="tspan35"
         style="stroke-width:1.00342px"><tspan
           x="40.886887"
           y="280.01828"
           style="font-weight:500;font-size:8.75px;line-height:1.25;font-family:Lato;-inkscape-font-specification:'Lato Medium';fill:#1a1a1a;stroke-width:1.00342px"
           id="tspan33">quatre, puis le groupe entier.</tspan><tspan
           dx="0"
           x="149.10689"
           y="280.01828"
           style="font-weight:500;font-size:8.75px;line-height:1.25;font-family:Lato;-inkscape-font-specification:'Lato Medium';fill:#1a1a1a;stroke-width:1.00342px"
           id="tspan34" /></tspan><tspan
         sodipodi:role="line"
         x="40.886887"
         y="286.24905"
         id="tspan37"
         style="stroke-width:1.00342px"><tspan
           x="40.886887"
           y="286.24905"
           style="font-weight:500;font-size:8.75px;line-height:1.25;font-family:Lato;-inkscape-font-specification:'Lato Medium';fill:#1a1a1a;stroke-width:1.00342px"
           id="tspan36" /></tspan><tspan
         sodipodi:role="line"
         x="40.886887"
         y="286.25024"
         id="tspan39"
         style="stroke-width:1.00342px"><tspan
           x="40.886887"
           y="286.25024"
           style="font-weight:500;font-size:8.75px;line-height:1.25;font-family:Lato;-inkscape-font-specification:'Lato Medium';fill:#1a1a1a;stroke-width:1.00342px"
           id="tspan38" /></tspan><tspan
         sodipodi:role="line"
         x="40.886887"
         y="286.25143"
         id="tspan41"
         style="stroke-width:1.00342px"><tspan
           x="40.886887"
           y="286.25143"
           style="font-weight:500;font-size:8.75px;line-height:1.25;font-family:Lato;-inkscape-font-specification:'Lato Medium';fill:#1a1a1a;stroke-width:1.00342px"
           id="tspan40" /></tspan><tspan
         sodipodi:role="line"
         x="40.886887"
         y="286.25262"
         id="tspan43"
         style="stroke-width:1.00342px"><tspan
           x="40.886887"
           y="286.25262"
           style="font-weight:500;font-size:8.75px;line-height:1.25;font-family:Lato;-inkscape-font-specification:'Lato Medium';fill:#1a1a1a;stroke-width:1.00342px"
           id="tspan42" /></tspan><tspan
         sodipodi:role="line"
         x="40.886887"
         y="290.96054"
         id="tspan46"
         style="stroke-width:1.00342px"><tspan
           x="40.886887"
           y="290.96054"
           style="font-weight:500;font-size:8.75px;line-height:1.25;font-family:Lato;-inkscape-font-specification:'Lato Medium';fill:#1a1a1a;stroke-width:1.00342px"
           id="tspan44"> </tspan><tspan
           dx="0"
           x="42.575642"
           y="290.96054"
           style="font-weight:500;font-size:8.75px;line-height:1.25;font-family:Lato;-inkscape-font-specification:'Lato Medium';fill:#1a1a1a;stroke-width:1.00342px"
           id="tspan45" /></tspan><tspan
         sodipodi:role="line"
         x="40.886887"
         y="297.19131"
         id="tspan48"
         style="stroke-width:1.00342px"><tspan
           x="40.886887"
           y="297.19131"
           style="font-weight:500;font-size:8.75px;line-height:1.25;font-family:Lato;-inkscape-font-specification:'Lato Medium';fill:#1a1a1a;stroke-width:1.00342px"
           id="tspan47" /></tspan><tspan
         sodipodi:role="line"
         x="40.886887"
         y="297.1925"
         id="tspan50"
         style="stroke-width:1.00342px"><tspan
           x="40.886887"
           y="297.1925"
           style="font-weight:500;font-size:8.75px;line-height:1.25;font-family:Lato;-inkscape-font-specification:'Lato Medium';fill:#1a1a1a;stroke-width:1.00342px"
           id="tspan49" /></tspan><tspan
         sodipodi:role="line"
         x="40.886887"
         y="297.1937"
         id="tspan52"
         style="stroke-width:1.00342px"><tspan
           x="40.886887"
           y="297.1937"
           style="font-weight:500;font-size:8.75px;line-height:1.25;font-family:Lato;-inkscape-font-specification:'Lato Medium';fill:#1a1a1a;stroke-width:1.00342px"
           id="tspan51" /></tspan><tspan
         sodipodi:role="line"
         x="40.886887"
         y="301.42035"
         id="tspan55"
         style="stroke-width:1.00342px"><tspan
           x="40.886887"
           y="301.42035"
           style="font-weight:bold;font-size:8.75px;line-height:1.25;font-family:Roboto;-inkscape-font-specification:'Roboto Bold';fill:#999999;stroke-width:1.00342px"
           id="tspan53">Espace et matériel</tspan><tspan
           dx="0"
           x="113.77508"
           y="301.42035"
           style="font-weight:bold;font-size:8.75px;line-height:1.25;font-family:Roboto;-inkscape-font-specification:'Roboto Bold';fill:#999999;stroke-width:1.00342px"
           id="tspan54" /></tspan><tspan
         sodipodi:role="line"
         x="40.886887"
         y="312.83908"
         id="tspan57"
         style="stroke-width:1.00342px"><tspan
           x="40.886887"
           y="312.83908"
           style="font-weight:500;font-size:8.75px;line-height:1.25;font-family:Lato;-inkscape-font-specification:'Lato Medium';fill:#1a1a1a;stroke-width:1.00342px"
           id="tspan56">- Chaises pour que les personnes puissent </tspan></tspan><tspan
         sodipodi:role="line"
         x="40.886887"
         y="323.77658"
         id="tspan60"
         style="stroke-width:1.00342px"><tspan
           x="40.886887"
           y="323.77658"
           style="font-weight:500;font-size:8.75px;line-height:1.25;font-family:Lato;-inkscape-font-specification:'Lato Medium';fill:#1a1a1a;stroke-width:1.00342px"
           id="tspan58">s'asseoir face à face</tspan><tspan
           dx="0"
           x="115.27943"
           y="323.77658"
           style="font-weight:500;font-size:8.75px;line-height:1.25;font-family:Lato;-inkscape-font-specification:'Lato Medium';fill:#1a1a1a;stroke-width:1.00342px"
           id="tspan59" /></tspan><tspan
         sodipodi:role="line"
         x="40.886887"
         y="334.71408"
         id="tspan63"
         style="stroke-width:1.00342px"><tspan
           x="40.886887"
           y="334.71408"
           style="font-weight:500;font-size:8.75px;line-height:1.25;font-family:Lato;-inkscape-font-specification:'Lato Medium';fill:#1a1a1a;stroke-width:1.00342px"
           id="tspan61">- Pas de tables ni d'équipement nécessaires </tspan><tspan
           dx="0"
           x="205.59694"
           y="334.71408"
           style="font-weight:500;font-size:8.75px;line-height:1.25;font-family:Lato;-inkscape-font-specification:'Lato Medium';fill:#1a1a1a;stroke-width:1.00342px"
           id="tspan62" /></tspan></text>
  </g>
</svg>
