<?xml version="1.0" encoding="UTF-8" standalone="no"?>
<svg
   width="74mm"
   height="105mm"
   viewBox="0 0 262.20472 372.04724"
   id="svg2"
   version="1.1"
   inkscape:version="1.3.1 (91b66b0783, 2023-11-16)"
   sodipodi:docname="nine-whys-back.svg"
   enable-background="new"
   xmlns:inkscape="http://www.inkscape.org/namespaces/inkscape"
   xmlns:sodipodi="http://sodipodi.sourceforge.net/DTD/sodipodi-0.dtd"
   xmlns:xlink="http://www.w3.org/1999/xlink"
   xmlns="http://www.w3.org/2000/svg"
   xmlns:svg="http://www.w3.org/2000/svg"
   xmlns:rdf="http://www.w3.org/1999/02/22-rdf-syntax-ns#"
   xmlns:cc="http://creativecommons.org/ns#"
   xmlns:dc="http://purl.org/dc/elements/1.1/">
  <defs
     id="defs4" />
  <sodipodi:namedview
     id="base"
     pagecolor="#ffffff"
     bordercolor="#666666"
     borderopacity="1.0"
     inkscape:pageopacity="1"
     inkscape:pageshadow="2"
     inkscape:zoom="2"
     inkscape:cx="-2.75"
     inkscape:cy="55.75"
     inkscape:document-units="mm"
     inkscape:current-layer="layer7"
     showgrid="false"
     showguides="false"
     inkscape:guide-bbox="true"
     inkscape:snap-bbox="false"
     inkscape:bbox-nodes="true"
     inkscape:object-nodes="true"
     inkscape:snap-page="true"
     inkscape:snap-grids="false"
     inkscape:window-width="1920"
     inkscape:window-height="1017"
     inkscape:window-x="-8"
     inkscape:window-y="-8"
     inkscape:window-maximized="1"
     inkscape:snap-others="false"
     inkscape:snap-nodes="true"
     inkscape:showpageshadow="2"
     inkscape:pagecheckerboard="0"
     inkscape:deskcolor="#d1d1d1">
    <sodipodi:guide
       position="19.48819,143.57143"
       orientation="1,0"
       id="guide3342"
       inkscape:label=""
       inkscape:color="rgb(0,0,255)"
       inkscape:locked="false" />
    <sodipodi:guide
       position="242.71654,160.71429"
       orientation="1,0"
       id="guide3344"
       inkscape:label=""
       inkscape:color="rgb(0,0,255)"
       inkscape:locked="false" />
    <sodipodi:guide
       position="100.71429,10.629921"
       orientation="0,1"
       id="guide3346"
       inkscape:label=""
       inkscape:color="rgb(0,0,255)"
       inkscape:locked="false" />
    <sodipodi:guide
       position="75.714288,361.41732"
       orientation="0,1"
       id="guide3348"
       inkscape:label=""
       inkscape:color="rgb(0,0,255)"
       inkscape:locked="false" />
    <sodipodi:guide
       position="242.71654,289.15617"
       orientation="1,0"
       id="guide4173"
       inkscape:locked="false" />
    <sodipodi:guide
       position="-54.642858,21.259842"
       orientation="0,1"
       id="guide4176"
       inkscape:label=""
       inkscape:color="rgb(0,0,255)"
       inkscape:locked="false" />
    <sodipodi:guide
       position="0,350.7874"
       orientation="0,1"
       id="guide4178"
       inkscape:label=""
       inkscape:color="rgb(0,0,255)"
       inkscape:locked="false" />
    <sodipodi:guide
       position="30.118111,388.21428"
       orientation="1,0"
       id="guide4180"
       inkscape:label=""
       inkscape:color="rgb(0,0,255)"
       inkscape:locked="false" />
    <sodipodi:guide
       position="232.08662,385.71428"
       orientation="1,0"
       id="guide4182"
       inkscape:label=""
       inkscape:color="rgb(0,0,255)"
       inkscape:locked="false" />
    <sodipodi:guide
       position="40.748033,260.35714"
       orientation="1,0"
       id="guide4252"
       inkscape:label=""
       inkscape:color="rgb(0,0,255)"
       inkscape:locked="false" />
    <sodipodi:guide
       position="221.4567,323.92857"
       orientation="1,0"
       id="guide4254"
       inkscape:label=""
       inkscape:color="rgb(0,0,255)"
       inkscape:locked="false" />
    <sodipodi:guide
       position="-107.14286,340.15748"
       orientation="0,1"
       id="guide4256"
       inkscape:label=""
       inkscape:color="rgb(0,0,255)"
       inkscape:locked="false" />
    <sodipodi:guide
       position="-111.42857,31.889764"
       orientation="0,1"
       id="guide4258"
       inkscape:label=""
       inkscape:color="rgb(0,0,255)"
       inkscape:locked="false" />
    <sodipodi:guide
       position="-60.356616,308.26772"
       orientation="0,1"
       id="guide4262"
       inkscape:label=""
       inkscape:color="rgb(0,0,255)"
       inkscape:locked="false" />
    <sodipodi:guide
       position="-56.063468,297.63779"
       orientation="0,1"
       id="guide4269"
       inkscape:label=""
       inkscape:color="rgb(0,0,255)"
       inkscape:locked="false" />
    <sodipodi:guide
       position="93.897641,308.6016"
       orientation="1,0"
       id="guide4271"
       inkscape:label=""
       inkscape:color="rgb(0,0,255)"
       inkscape:locked="false" />
    <sodipodi:guide
       position="99.212601,340.15748"
       orientation="1,0"
       id="guide4273"
       inkscape:label=""
       inkscape:color="rgb(0,0,255)"
       inkscape:locked="false" />
    <sodipodi:guide
       position="-60.500002,279.92126"
       orientation="0,1"
       id="guide4303"
       inkscape:label=""
       inkscape:color="rgb(0,0,255)"
       inkscape:locked="false" />
    <sodipodi:guide
       position="-102.5,269.29134"
       orientation="0,1"
       id="guide4314"
       inkscape:label=""
       inkscape:color="rgb(0,0,255)"
       inkscape:locked="false" />
    <sodipodi:guide
       position="194.8819,223.95843"
       orientation="1,0"
       id="guide4201"
       inkscape:label=""
       inkscape:color="rgb(0,0,255)"
       inkscape:locked="false" />
    <sodipodi:guide
       position="184.25197,197.75"
       orientation="1,0"
       id="guide4243"
       inkscape:label=""
       inkscape:color="rgb(0,0,255)"
       inkscape:locked="false" />
    <sodipodi:guide
       position="68.74219,102.76562"
       orientation="0,1"
       id="guide4308"
       inkscape:locked="false" />
    <inkscape:grid
       id="grid1"
       units="mm"
       originx="0"
       originy="0"
       spacingx="3.5433072"
       spacingy="3.543307"
       empcolor="#0099e5"
       empopacity="0.30196078"
       color="#0099e5"
       opacity="0.14901961"
       empspacing="5"
       dotted="false"
       gridanglex="30"
       gridanglez="30"
       visible="false" />
  </sodipodi:namedview>
  <metadata
     id="metadata7">
    <rdf:RDF>
      <cc:Work
         rdf:about="">
        <dc:format>image/svg+xml</dc:format>
        <dc:type
           rdf:resource="http://purl.org/dc/dcmitype/StillImage" />
        <dc:title />
      </cc:Work>
    </rdf:RDF>
  </metadata>
  <g
     inkscape:label="Cut line"
     inkscape:groupmode="layer"
     id="layer1"
     transform="translate(0,-680.31496)"
     style="display:inline"
     sodipodi:insensitive="true">
    <path
       style="fill:none;fill-rule:evenodd;stroke:#808080;stroke-width:0.70866144;stroke-linecap:butt;stroke-linejoin:miter;stroke-miterlimit:4;stroke-dasharray:2.83464575, 2.83464575;stroke-dashoffset:0;stroke-opacity:1"
       d="m 19.488189,690.94488 0,350.78742 223.228341,0 0,-350.78742 z"
       id="path3350"
       inkscape:connector-curvature="0"
       transform="translate(4.3385302e-7,8.6660179e-6)" />
  </g>
  <g
     inkscape:groupmode="layer"
     id="layer2"
     inkscape:label="Top Separator"
     style="display:inline"
     sodipodi:insensitive="true">
    <path
       inkscape:connector-curvature="0"
       style="fill:none;fill-opacity:1;stroke:none;stroke-width:0.70866144;stroke-miterlimit:4;stroke-dasharray:2.83464575, 2.83464575;stroke-dashoffset:0;stroke-opacity:1"
       d="m 42.883734,21.259066 c -7.071438,0 -12.765624,6.544709 -12.765624,14.673828 l 0,38.476559 201.96874,0 0,-38.476559 c 0,-8.129119 -5.69224,-14.673828 -12.76367,-14.673828 l -176.439446,0 z"
       id="rect4195-3" />
  </g>
  <g
     inkscape:groupmode="layer"
     id="layer8"
     inkscape:label="Separator"
     style="display:inline"
     sodipodi:insensitive="true">
    <rect
       style="display:inline;fill:#9955ff;fill-opacity:1;stroke:none;stroke-width:1;stroke-miterlimit:4;stroke-dasharray:none;stroke-dashoffset:0;stroke-opacity:1"
       id="rect4178"
       width="134.64568"
       height="17.716536"
       x="30.118084"
       y="74.409447" />
    <text
       xml:space="preserve"
       style="font-style:normal;font-weight:normal;font-size:11.25px;line-height:125%;font-family:sans-serif;letter-spacing:0px;word-spacing:0px;display:inline;fill:#000000;fill-opacity:1;stroke:none;stroke-width:1px;stroke-linecap:butt;stroke-linejoin:miter;stroke-opacity:1"
       x="39.935017"
       y="87.861458"
       id="text4180"><tspan
         sodipodi:role="line"
         id="tspan4182"
         x="39.935017"
         y="87.861458"
         style="font-style:normal;font-variant:normal;font-weight:bold;font-stretch:normal;font-size:12.5px;font-family:Lato;-inkscape-font-specification:'Lato Bold';fill:#ffffff">Analyse</tspan></text>
    <rect
       y="74.409447"
       x="164.76376"
       height="17.716536"
       width="67.322838"
       id="rect4191"
       style="display:inline;fill:#e6e6e6;fill-opacity:1;stroke:none;stroke-width:1;stroke-miterlimit:4;stroke-dasharray:none;stroke-dashoffset:0;stroke-opacity:1" />
    <text
       xml:space="preserve"
       style="font-style:normal;font-weight:normal;font-size:12.5px;line-height:125%;font-family:sans-serif;letter-spacing:0px;word-spacing:0px;fill:#1a1a1a;fill-opacity:1;stroke:none;stroke-width:1px;stroke-linecap:butt;stroke-linejoin:miter;stroke-opacity:1"
       x="184.26756"
       y="87.789589"
       id="text4193"><tspan
         sodipodi:role="line"
         id="tspan4195"
         x="184.26756"
         y="87.789589"
         style="font-style:normal;font-variant:normal;font-weight:500;font-stretch:normal;font-size:12.5px;font-family:Lato;-inkscape-font-specification:'Lato Medium';fill:#1a1a1a">20 min</tspan></text>
  </g>
  <g
     inkscape:groupmode="layer"
     id="layer7"
     inkscape:label="Title"
     sodipodi:insensitive="true">
    <path
       style="fill:none;fill-rule:evenodd;stroke:none;stroke-width:1px;stroke-linecap:butt;stroke-linejoin:miter;stroke-opacity:1"
       d="m 99.212598,31.889763 v 31.88976 H 221.45669 v -31.88976 z"
       id="path4300_nwb"
       inkscape:connector-curvature="0" />
    <flowRoot
       xml:space="preserve"
       style="font-style:normal;font-weight:normal;font-size:12.5px;line-height:125%;font-family:sans-serif;text-align:end;letter-spacing:0px;word-spacing:0px;text-anchor:end;fill:#000000;fill-opacity:1;stroke:none;stroke-width:1px;stroke-linecap:butt;stroke-linejoin:miter;stroke-opacity:1"
       id="flowRoot4271"
       transform="translate(0,6.2492812)"><flowRegion
         id="flowRegion4273"><use
           x="0"
           y="0"
           xlink:href="#path4300_nwb"
           id="use4275"
           width="100%"
           height="100%" /></flowRegion><flowPara
         style="font-style:normal;font-variant:normal;font-weight:bold;font-stretch:normal;font-size:13.375px;font-family:Roboto;-inkscape-font-specification:'Roboto Bold';text-align:end;text-anchor:end"
         id="flowPara4277">Neuf Pourquoi</flowPara></flowRoot>
    <text
       xml:space="preserve"
       style="font-style:italic;font-variant:normal;font-weight:normal;font-stretch:normal;font-size:9.88772px;line-height:1.15;font-family:Roboto;-inkscape-font-specification:'Roboto, Italic';font-variant-ligatures:normal;font-variant-caps:normal;font-variant-numeric:normal;font-variant-east-asian:normal;font-variation-settings:normal;direction:ltr;display:inline;vector-effect:none;fill:#000000;fill-opacity:0.6;stroke:none;stroke-width:0.878906px;stroke-linecap:butt;stroke-linejoin:miter;stroke-miterlimit:4;stroke-dasharray:none;stroke-dashoffset:0;stroke-opacity:1;-inkscape-stroke:none;enable-background:new;stop-color:#000000"
       x="172.6163"
       y="63.381554"
       id="text5"
       inkscape:label="enTitle"><tspan
         sodipodi:role="line"
         id="tspan5"
         x="172.6163"
         y="63.381554"
         style="stroke-width:0.878906px">Nine Whys</tspan></text>
  </g>
  <g
     inkscape:groupmode="layer"
     id="layer6"
     inkscape:label="Logo"
     style="display:inline"
     sodipodi:insensitive="true">
    <path
       style="fill:none;fill-rule:evenodd;stroke:none;stroke-width:1px;stroke-linecap:butt;stroke-linejoin:miter;stroke-opacity:1"
       d="m 40.748032,31.889763 0,31.88976 53.149606,0 0,-31.88976 z"
       id="path4213"
       inkscape:connector-curvature="0" />
    <g
       transform="matrix(0.99550659,0,0,0.99550659,36.044486,-168.94851)"
       style="display:inline;opacity:1"
       inkscape:label="9whys"
       id="layer4-6">
      <g
         id="g4631">
        <circle
           style="opacity:1;fill:#ffffff;fill-opacity:1;stroke:none;stroke-width:0.26499999;stroke-miterlimit:4;stroke-dasharray:none;stroke-opacity:1"
           id="path4619"
           cx="18.34137"
           cy="210.97716"
           r="6.3142428" />
        <g
           id="g864">
          <path
             transform="scale(0.26458333,0.26458333)"
             id="path909"
             d="M 78.392578,762.5 A 60.535706,60.535706 0 0 0 17.857422,823.03516 60.535706,60.535706 0 0 0 78.392578,883.57227 60.535706,60.535706 0 0 0 138.92773,823.03516 60.535706,60.535706 0 0 0 78.392578,762.5 Z M 69.375,776.07227 a 21.517857,21.517857 0 0 1 2.148438,0.10742 21.517857,21.517857 0 0 1 2.126953,0.32031 21.517857,21.517857 0 0 1 2.083984,0.5332 21.517857,21.517857 0 0 1 2.019531,0.73633 21.517857,21.517857 0 0 1 1.9375,0.93555 21.517857,21.517857 0 0 1 1.833985,1.125 21.517857,21.517857 0 0 1 1.710937,1.30078 21.517857,21.517857 0 0 1 1.574219,1.4668 21.517857,21.517857 0 0 1 1.419922,1.61523 21.517857,21.517857 0 0 1 1.251953,1.75 21.517857,21.517857 0 0 1 1.070312,1.86523 21.517857,21.517857 0 0 1 0.876954,1.96485 21.517857,21.517857 0 0 1 0.679687,2.04101 21.517857,21.517857 0 0 1 0.470703,2.09766 21.517857,21.517857 0 0 1 0.259766,2.13477 21.517857,21.517857 0 0 1 0.05273,1.52343 21.517857,21.517857 0 0 1 -0.107422,2.14844 21.517857,21.517857 0 0 1 -0.320312,2.125 21.517857,21.517857 0 0 1 -0.533203,2.08399 21.517857,21.517857 0 0 1 -0.738282,2.02148 21.517857,21.517857 0 0 1 -0.935547,1.9375 21.517857,21.517857 0 0 1 -1.123046,1.83203 21.517857,21.517857 0 0 1 -1.302735,1.71289 21.517857,21.517857 0 0 1 -1.464843,1.57422 21.517857,21.517857 0 0 1 -1.617188,1.41992 21.517857,21.517857 0 0 1 -1.748047,1.25 21.517857,21.517857 0 0 1 -1.867187,1.07031 21.517857,21.517857 0 0 1 -1.962891,0.87891 21.517857,21.517857 0 0 1 -2.041016,0.67774 21.517857,21.517857 0 0 1 -2.097656,0.47265 21.517857,21.517857 0 0 1 -2.136719,0.25781 21.517857,21.517857 0 0 1 -1.52148,0.0547 A 21.517857,21.517857 0 0 1 67.226562,819 a 21.517857,21.517857 0 0 1 -2.126953,-0.32227 21.517857,21.517857 0 0 1 -2.083984,-0.53125 21.517857,21.517857 0 0 1 -2.019531,-0.73828 21.517857,21.517857 0 0 1 -1.9375,-0.93554 21.517857,21.517857 0 0 1 -1.833985,-1.12305 21.517857,21.517857 0 0 1 -1.710937,-1.30273 21.517857,21.517857 0 0 1 -1.574219,-1.4668 21.517857,21.517857 0 0 1 -1.419922,-1.61524 21.517857,21.517857 0 0 1 -1.251953,-1.75 21.517857,21.517857 0 0 1 -1.070312,-1.86523 21.517857,21.517857 0 0 1 -0.876954,-1.96289 21.517857,21.517857 0 0 1 -0.679687,-2.04102 21.517857,21.517857 0 0 1 -0.470703,-2.09961 21.517857,21.517857 0 0 1 -0.259766,-2.13476 21.517857,21.517857 0 0 1 -0.05273,-1.52149 21.517857,21.517857 0 0 1 0.107422,-2.14843 21.517857,21.517857 0 0 1 0.320312,-2.12696 21.517857,21.517857 0 0 1 0.533203,-2.08398 21.517857,21.517857 0 0 1 0.738282,-2.02149 21.517857,21.517857 0 0 1 0.935547,-1.93554 21.517857,21.517857 0 0 1 1.123046,-1.83399 21.517857,21.517857 0 0 1 1.302735,-1.71289 21.517857,21.517857 0 0 1 1.464843,-1.57422 A 21.517857,21.517857 0 0 1 56,780.73438 a 21.517857,21.517857 0 0 1 1.748047,-1.25196 21.517857,21.517857 0 0 1 1.867187,-1.07031 21.517857,21.517857 0 0 1 1.962891,-0.87891 21.517857,21.517857 0 0 1 2.041016,-0.67773 21.517857,21.517857 0 0 1 2.097656,-0.4707 21.517857,21.517857 0 0 1 2.136719,-0.25977 21.517857,21.517857 0 0 1 1.521484,-0.0527 z"
             style="fill:#000000;fill-opacity:1;stroke:none;stroke-width:3.7628777;stroke-miterlimit:4;stroke-dasharray:none;stroke-opacity:1"
             inkscape:connector-curvature="0" />
          <g
             id="text838"
             style="font-style:normal;font-weight:normal;font-size:10.58333302px;line-height:1.25;font-family:sans-serif;letter-spacing:0px;word-spacing:0px;fill:#000000;fill-opacity:1;stroke:none;stroke-width:0.26458332"
             aria-label="9">
            <path
               id="path844"
               style="font-style:normal;font-variant:normal;font-weight:bold;font-stretch:normal;font-family:JournalSans;-inkscape-font-specification:'JournalSans Bold';stroke-width:0.26458332"
               d="m 19.712653,212.47476 c 0.211667,-0.37042 0.370417,-0.65617 0.47625,-0.86784 0.116417,-0.22225 0.232834,-0.52916 0.34925,-0.93133 0.127,-0.40217 0.1905,-0.78317 0.1905,-1.15358 0,-0.59267 -0.232833,-1.09009 -0.687916,-1.50284 -0.455084,-0.41275 -1.016,-0.61383 -1.693334,-0.61383 -0.709083,0 -1.269999,0.22225 -1.693333,0.67733 -0.423333,0.45509 -0.635,0.97367 -0.635,1.56634 0,0.60325 0.1905,1.10066 0.5715,1.50283 0.391584,0.39158 0.846667,0.59267 1.386417,0.59267 0.201083,0 0.359833,-0.0106 0.455083,-0.0317 l -1.799166,2.88925 1.852083,0 z m -0.889,-2.3495 c -0.243416,0.30691 -0.645583,0.30691 -0.899583,0 -0.243416,-0.30692 -0.243416,-0.79375 0,-1.10067 0.254,-0.30692 0.656167,-0.30692 0.899583,0 0.243417,0.30692 0.243417,0.79375 0,1.10067 z"
               inkscape:connector-curvature="0" />
          </g>
          <g
             id="text842"
             style="font-style:normal;font-weight:normal;font-size:10.58333302px;line-height:1.25;font-family:sans-serif;letter-spacing:0px;word-spacing:0px;fill:#000000;fill-opacity:1;stroke:none;stroke-width:0.26458332"
             aria-label="whys">
            <path
               id="path847"
               style="font-style:normal;font-variant:normal;font-weight:bold;font-stretch:normal;font-size:8.46666622px;font-family:sans-serif;-inkscape-font-specification:'sans-serif Bold';letter-spacing:-0.29104167px;fill:#ffffff;fill-opacity:1;stroke-width:0.26458332"
               d="m 17.537816,222.0152 -1.438672,4.64261 -1.579232,0 -0.946712,-3.12953 -0.930176,3.12953 -1.599902,0 -1.4262692,-4.64261 1.5626952,0 0.79375,3.1998 0.992187,-3.1998 1.318783,0 0.942578,3.1998 0.781348,-3.1998 z"
               inkscape:connector-curvature="0" />
            <path
               id="path849"
               style="font-style:normal;font-variant:normal;font-weight:bold;font-stretch:normal;font-size:8.46666622px;font-family:sans-serif;-inkscape-font-specification:'sans-serif Bold';letter-spacing:-0.29104167px;fill:#ffffff;fill-opacity:1;stroke-width:0.26458332"
               d="m 22.807159,226.65781 -1.49655,0 0,-2.30271 q 0,-0.28112 -0.02894,-0.5581 -0.02894,-0.28112 -0.09922,-0.41341 -0.08268,-0.15296 -0.243913,-0.22324 -0.157096,-0.0703 -0.44235,-0.0703 -0.202572,0 -0.413412,0.0661 -0.206705,0.0662 -0.450618,0.21084 l 0,3.29076 -1.488281,0 0,-6.43269 1.488281,0 0,2.30271 q 0.396875,-0.31006 0.760677,-0.47543 0.367936,-0.16536 0.81442,-0.16536 0.752409,0 1.174089,0.43821 0.425814,0.43822 0.425814,1.31052 z"
               inkscape:connector-curvature="0" />
            <path
               id="path851"
               style="font-style:normal;font-variant:normal;font-weight:bold;font-stretch:normal;font-size:8.46666622px;font-family:sans-serif;-inkscape-font-specification:'sans-serif Bold';letter-spacing:-0.29104167px;fill:#ffffff;fill-opacity:1;stroke-width:0.26458332"
               d="m 25.984639,225.01656 1.058333,-3.00136 1.529622,0 -2.579687,6.34586 -1.612304,0 0.735872,-1.73633 -1.806608,-4.60953 1.562695,0 z"
               inkscape:connector-curvature="0" />
            <path
               id="path853"
               style="font-style:normal;font-variant:normal;font-weight:bold;font-stretch:normal;font-size:8.46666622px;font-family:sans-serif;-inkscape-font-specification:'sans-serif Bold';letter-spacing:-0.29104167px;fill:#ffffff;fill-opacity:1;stroke-width:0.26458332"
               d="m 33.139138,225.18606 q 0,0.71934 -0.644922,1.16169 -0.644922,0.43821 -1.765267,0.43821 -0.620117,0 -1.124479,-0.11575 -0.504362,-0.11576 -0.810287,-0.25632 l 0,-1.22369 0.136426,0 q 0.111621,0.0785 0.256315,0.17363 0.148828,0.0909 0.417546,0.19844 0.23151,0.0951 0.525032,0.16536 0.293522,0.0661 0.628386,0.0661 0.438216,0 0.649056,-0.0951 0.21084,-0.0992 0.21084,-0.28939 0,-0.16949 -0.124024,-0.24391 -0.124023,-0.0786 -0.471289,-0.14883 -0.165365,-0.0372 -0.450618,-0.0786 -0.28112,-0.0455 -0.512631,-0.10748 -0.632519,-0.16537 -0.938444,-0.51263 -0.305924,-0.3514 -0.305924,-0.8723 0,-0.66973 0.632519,-1.11208 0.636654,-0.44648 1.736328,-0.44648 0.520899,0 0.996322,0.10749 0.479557,0.10335 0.748275,0.22324 l 0,1.17409 -0.128158,0 q -0.330729,-0.22738 -0.756543,-0.36794 -0.421679,-0.14469 -0.855761,-0.14469 -0.359668,0 -0.607715,0.0992 -0.243913,0.0992 -0.243913,0.28112 0,0.16537 0.111621,0.25219 0.111621,0.0868 0.525033,0.17363 0.227376,0.0455 0.487825,0.0909 0.264583,0.0413 0.529167,0.10749 0.587044,0.15296 0.868164,0.48369 0.28112,0.32659 0.28112,0.81855 z"
               inkscape:connector-curvature="0" />
          </g>
        </g>
      </g>
    </g>
  </g>
  <g
     inkscape:groupmode="layer"
     id="layer5"
     inkscape:label="Border"
     style="display:inline"
     sodipodi:insensitive="true">
    <rect
       style="fill:none;fill-opacity:1;stroke:#000000;stroke-width:0.35433072;stroke-miterlimit:4;stroke-dasharray:none;stroke-dashoffset:0;stroke-opacity:1"
       id="rect4187"
       width="201.96851"
       height="329.52756"
       x="30.118111"
       y="21.259844"
       ry="14.6735"
       rx="12.76433" />
  </g>
  <g
     inkscape:groupmode="layer"
     id="layer9"
     inkscape:label="Body"
     style="display:inline"
     sodipodi:insensitive="true">
    <path
       style="fill:none;fill-rule:evenodd;stroke:none;stroke-width:1.09749px;stroke-linecap:butt;stroke-linejoin:miter;stroke-opacity:1"
       d="M 35.123032,95.72465 V 340.15748 H 203.00196 V 95.72465 H 35.123032"
       id="path4245_nwb"
       inkscape:connector-curvature="0" />
    <flowRoot
       xml:space="preserve"
       style="font-style:normal;font-weight:normal;font-size:8.75px;line-height:125%;font-family:sans-serif;letter-spacing:0px;word-spacing:0px;fill:#000000;fill-opacity:1;stroke:none;stroke-width:1px;stroke-linecap:butt;stroke-linejoin:miter;stroke-opacity:1"
       id="flowRoot4251"><flowRegion
         id="flowRegion4253"><use
           x="0"
           y="0"
           xlink:href="#path4245_nwb"
           id="use4255"
           width="100%"
           height="100%" /></flowRegion><flowPara
         id="flowPara4257"
         style="font-style:normal;font-variant:normal;font-weight:bold;font-stretch:normal;font-family:Roboto;-inkscape-font-specification:'Roboto Bold';fill:#999999;fill-opacity:1">Etapes</flowPara><flowPara
         style="font-style:normal;font-variant:normal;font-weight:normal;font-stretch:normal;font-family:Lato;-inkscape-font-specification:Lato;fill:#1a1a1a"
         id="flowPara4399">Chaque personne est interrogée par son partenaire.</flowPara><flowPara
         style="font-style:normal;font-variant:normal;font-weight:normal;font-stretch:normal;font-family:Lato;-inkscape-font-specification:Lato;fill:#1a1a1a"
         id="flowPara4408">En commençant par &quot;Que faites-vous lorsque vous travaillez sur... ?&quot;, l'enquêteur cherche à obtenir une réponse plus approfondie en répétant la question : &quot;Pourquoi est-ce important pour vous ?&quot;</flowPara><flowPara
         style="font-style:normal;font-variant:normal;font-weight:normal;font-stretch:normal;font-family:Lato;-inkscape-font-specification:Lato;fill:#1a1a1a"
         id="flowPara4302" /><flowPara
         style="font-style:normal;font-variant:normal;font-weight:normal;font-stretch:normal;font-family:Lato;-inkscape-font-specification:Lato;fill:#1a1a1a;fill-opacity:1"
         id="flowPara4419">Inverser les rôles</flowPara><flowPara
         style="font-style:normal;font-variant:normal;font-weight:normal;font-stretch:normal;font-family:Lato;-inkscape-font-specification:Lato;fill:#1a1a1a;fill-opacity:1"
         id="flowPara4376" /><flowPara
         style="font-style:normal;font-variant:normal;font-weight:normal;font-stretch:normal;font-family:Lato;-inkscape-font-specification:Lato;fill:#1a1a1a;fill-opacity:1"
         id="flowPara4378">Chaque paire partage son expérience et ses connaissances avec une autre paire.</flowPara><flowPara
         style="font-style:normal;font-variant:normal;font-weight:normal;font-stretch:normal;font-family:Lato;-inkscape-font-specification:Lato;fill:#1a1a1a;fill-opacity:1"
         id="flowPara4380" /><flowPara
         style="font-style:normal;font-variant:normal;font-weight:normal;font-stretch:normal;font-family:Lato;-inkscape-font-specification:Lato;fill:#1a1a1a;fill-opacity:1"
         id="flowPara4412">Invitez l'ensemble du groupe à réfléchir en posant la question suivante : &quot;Comment nos objectifs influencent-ils les mesures que nous prenons ?&quot;</flowPara></flowRoot>
  </g>
  <g
     inkscape:groupmode="layer"
     id="layer4"
     inkscape:label="Body Right"
     style="display:inline"
     sodipodi:insensitive="true">
    <text
       id="text4227"
       y="113.84227"
       x="204.24702"
       style="font-style:normal;font-weight:normal;font-size:8.75px;line-height:125%;font-family:sans-serif;letter-spacing:0px;word-spacing:0px;fill:#1a1a1a;fill-opacity:1;stroke:none;stroke-width:1px;stroke-linecap:butt;stroke-linejoin:miter;stroke-opacity:1"
       xml:space="preserve"><tspan
         style="font-style:normal;font-variant:normal;font-weight:500;font-stretch:normal;font-family:Lato;-inkscape-font-specification:'Lato Medium';fill:#1a1a1a"
         y="113.84227"
         x="204.24702"
         id="tspan4229"
         sodipodi:role="line">5 min</tspan></text>
    <text
       id="text4231"
       y="203.51848"
       x="203.30952"
       style="font-style:normal;font-weight:normal;font-size:8.75px;line-height:125%;font-family:sans-serif;letter-spacing:0px;word-spacing:0px;fill:#1a1a1a;fill-opacity:1;stroke:none;stroke-width:1px;stroke-linecap:butt;stroke-linejoin:miter;stroke-opacity:1"
       xml:space="preserve"><tspan
         style="font-style:normal;font-variant:normal;font-weight:500;font-stretch:normal;font-family:Lato;-inkscape-font-specification:'Lato Medium';fill:#1a1a1a"
         y="203.51848"
         x="203.30952"
         id="tspan4233"
         sodipodi:role="line">5 min</tspan></text>
    <path
       style="fill:none;fill-rule:evenodd;stroke:none;stroke-width:1px;stroke-linecap:butt;stroke-linejoin:miter;stroke-opacity:1"
       d="m 194.88189,102.7559 v 237.40158 h 26.5748 V 102.7559 Z"
       id="path4239"
       inkscape:connector-curvature="0" />
    <text
       xml:space="preserve"
       style="font-style:normal;font-weight:normal;font-size:8.75px;line-height:125%;font-family:sans-serif;letter-spacing:0px;word-spacing:0px;fill:#1a1a1a;fill-opacity:1;stroke:none;stroke-width:1px;stroke-linecap:butt;stroke-linejoin:miter;stroke-opacity:1"
       x="203.77827"
       y="225.38591"
       id="text4424"><tspan
         sodipodi:role="line"
         id="tspan4426"
         x="203.77827"
         y="225.38591"
         style="font-style:normal;font-variant:normal;font-weight:500;font-stretch:normal;font-family:Lato;-inkscape-font-specification:'Lato Medium';fill:#1a1a1a">5 min</tspan></text>
    <text
       id="text4428"
       y="257.80112"
       x="204.24702"
       style="font-style:normal;font-weight:normal;font-size:8.75px;line-height:125%;font-family:sans-serif;letter-spacing:0px;word-spacing:0px;fill:#1a1a1a;fill-opacity:1;stroke:none;stroke-width:1px;stroke-linecap:butt;stroke-linejoin:miter;stroke-opacity:1"
       xml:space="preserve"><tspan
         style="font-style:normal;font-variant:normal;font-weight:500;font-stretch:normal;font-family:Lato;-inkscape-font-specification:'Lato Medium';fill:#1a1a1a"
         y="257.80112"
         x="204.24702"
         id="tspan4430"
         sodipodi:role="line">5 min</tspan></text>
  </g>
  <g
     inkscape:groupmode="layer"
     id="layer10"
     inkscape:label="String With"
     style="display:inline"
     sodipodi:insensitive="true">
    <path
       style="fill:none;fill-rule:evenodd;stroke:none;stroke-width:1px;stroke-linecap:butt;stroke-linejoin:miter;stroke-opacity:1"
       d="m 40.748032,269.28162 v 70.87586 H 221.45669 v -70.87586 z"
       id="path4343_nwb"
       inkscape:connector-curvature="0" />
    <flowRoot
       xml:space="preserve"
       style="font-style:normal;font-weight:normal;font-size:8.75px;line-height:125%;font-family:sans-serif;letter-spacing:0px;word-spacing:0px;fill:#000000;fill-opacity:1;stroke:none;stroke-width:1px;stroke-linecap:butt;stroke-linejoin:miter;stroke-opacity:1"
       id="flowRoot4351"
       transform="translate(-6.09375,32.375)"><flowRegion
         id="flowRegion4353"><use
           x="0"
           y="0"
           xlink:href="#path4343_nwb"
           id="use4355"
           width="100%"
           height="100%" /></flowRegion><flowPara
         id="flowPara4357"
         style="font-style:normal;font-variant:normal;font-weight:bold;font-stretch:normal;font-family:Roboto;-inkscape-font-specification:'Roboto Bold';fill:#999999;fill-opacity:1">Fonctionne avec</flowPara><flowPara
         id="flowPara4359"
         style="font-style:normal;font-variant:normal;font-weight:normal;font-stretch:normal;font-family:Lato;-inkscape-font-specification:Lato;fill:#1a1a1a">Purpose-To-Practice        </flowPara><flowPara
         style="font-style:normal;font-variant:normal;font-weight:normal;font-stretch:normal;font-family:Lato;-inkscape-font-specification:Lato;fill:#1a1a1a"
         id="flowPara1">Relations Génératrices           Wise Crowds</flowPara><flowPara
         style="font-style:normal;font-variant:normal;font-weight:normal;font-stretch:normal;font-family:Lato;-inkscape-font-specification:Lato;fill:#1a1a1a"
         id="flowPara2">What, So What, Now What?</flowPara></flowRoot>
    <g
       transform="matrix(0.25296197,0,0,0.25296197,20.273919,264.80336)"
       inkscape:label="purposetopractice"
       id="layer27"
       style="display:inline;enable-background:new">
      <path
   sodipodi:nodetypes="ccccsccccccscccccsccccssccccsasscaasscccccssccccsccccscccsccccacsccc"
   inkscape:connector-curvature="0"
   id="path4757"
   transform="scale(0.26458333)"
   d="m 1478.0293,707.9707 c -8.8838,4.3e-4 -16.0855,7.20211 -16.0859,16.08594 0.01,1.20009 0.1474,2.39568 0.4199,3.56445 L 1462,727.75 c 0,0 -20.2606,10.19621 -32,35 -9.9044,20.92661 -8.25,42.5 -8.25,42.5 l 0.031,0.0996 c -5.4014,2.74215 -8.8045,8.28612 -8.8046,14.34375 4e-4,8.88383 7.2021,16.08551 16.0859,16.08594 0.8019,-0.005 1.6023,-0.0693 2.3945,-0.19336 l 0.293,0.91406 c 0,0 8.082,16.13969 27.5,27.75 17.5874,10.51579 40.25,10 40.25,10 l 0.3223,-0.0801 c 1.9224,6.97869 8.2692,11.81392 15.5078,11.81446 8.8838,-4.3e-4 16.0855,-7.20211 16.0859,-16.08594 -0.01,-1.20816 -0.1496,-2.41171 -0.4258,-3.58789 0.723,-0.55087 16.9274,-8.56404 27.5098,-27.81055 9.2166,-16.76257 6.5952,-31.75689 6.7031,-33.60156 6.0741,-2.45684 10.0512,-8.35215 10.0547,-14.9043 -4e-4,-8.88462 -7.2033,-16.08661 -16.0879,-16.08594 -1.6057,0.006 -3.2016,0.25205 -4.7344,0.73047 -0.3353,-0.61491 -7.7499,-15.14742 -29.3105,-22.26367 -9.3806,-3.09614 -19.4896,-3.04525 -28.9473,-0.1934 -15.2393,4.59524 -18.2922,12.26601 -19.3105,13.23047 -1.5145,-0.46104 -3.0888,-0.696 -4.6719,-0.69727 -8.8846,4.3e-4 -16.0866,7.20329 -16.0859,16.08789 0.01,5.70853 3.0388,10.98577 7.9668,13.86719 0.3852,2.17535 -0.3582,17.6701 11.6738,28.83008 8.5958,7.97277 23.2967,12.18043 34.25,8 10.1289,-3.86578 18.8925,-12.24106 18.6893,-26.61872 -0.1317,-9.31486 -5.5307,-15.25481 -12.4267,-18.29289 -8.5128,-3.75035 -13.8384,-0.81066 -13.8384,-0.81066 0,0 15.7393,4.84821 18.7981,11.53293 2.7671,6.04739 0.9442,14.50588 -3.2223,19.68934 -5.0898,6.3321 -11.1988,10.61976 -22.6438,9.01517 -10.3684,-1.45364 -18.6948,-11.45213 -21.1768,-16.92158 -2.2209,-4.89386 -2.9622,-10.84191 -2.9372,-12.25179 0.3172,0.025 0.635,0.0407 0.9531,0.0469 8.8846,6.7e-4 16.0875,-7.20132 16.0879,-16.08594 -0.01,-4.50693 -1.9046,-8.80418 -5.2305,-11.8457 L 1483.25,768.5 c 0,0 5.0575,-8.51004 16.1875,-10.6875 14.8806,-2.91122 24.481,0.71805 34.9375,6.375 7.8079,4.22409 14.375,12.8125 14.375,12.8125 l 0.1953,0.58984 c -3.7074,3.0526 -5.857,7.60192 -5.8613,12.4043 0.01,8.52435 6.667,15.56131 15.1777,16.04297 0.051,0.83996 2.6726,17.58246 -5.6367,30.71289 -12.0771,19.08431 -23.1797,23.03734 -24.1914,23.84961 -3.0109,-4.25122 -7.894,-6.78123 -13.1035,-6.78906 -7.8349,0.009 -14.5239,5.66112 -15.8399,13.38476 l -0.2402,0.0547 c 0,0 -18.1813,2.35874 -38.25,-8.25 -14.0155,-7.4089 -22.7228,-24.16224 -23.6641,-25.5293 4.8419,-2.90306 7.8077,-8.13183 7.8145,-13.77734 -0.01,-8.70005 -6.9324,-15.81688 -15.6289,-16.06445 0.047,-1.09466 -3.234,-15.28712 6.7285,-37.87891 9.7855,-22.19021 28.5,-31.75 28.5,-31.75 l 0.5195,-0.16797 c 3.0405,3.9733 7.7566,6.30572 12.7598,6.31055 8.7148,-0.008 15.8385,-6.95416 16.0664,-15.66602 0.2824,-0.0737 9.3899,-1.87505 14.1543,-2.10156 5.5639,-0.26451 10,0.1875 16.6875,0.875 -2.625,-2.3125 -8.1511,-5.99614 -16.1875,-6.5625 -5.4183,-0.38185 -15.6981,0.15189 -16.293,0.27344 -2.7038,-5.5006 -8.2985,-8.98676 -14.4277,-8.99024 z"
   style="fill:#000000;fill-opacity:1;stroke:none;stroke-width:1px;stroke-linecap:butt;stroke-linejoin:miter;stroke-opacity:1" />

    </g>
    <g
       transform="matrix(0.52119106,0,0,0.52119106,-44.906831,271.39958)"
       inkscape:label="generativerelationship"
       id="g61"
       style="display:inline;enable-background:new">
      <g
   id="g60">
        <path
   style="fill:#000000;fill-opacity:1;stroke:none;stroke-width:0.264583px;stroke-linecap:butt;stroke-linejoin:miter;stroke-opacity:1"
   d="m 326.7022,112.1958 6.91584,-1.81996 -2.66927,-4.40833 4.32744,2.70971 1.81997,-7.0776 1.81996,7.0776 4.16565,-2.50749 -2.46703,4.20611 7.03715,1.81996 -7.11806,1.77951 2.54794,4.16568 -4.20611,-2.34572 -1.69862,6.71361 -1.86039,-6.7945 -4.24657,2.50749 2.54794,-4.287 z"
   id="path52"
   inkscape:connector-curvature="0" />

        <path
   style="fill:#ffffff;fill-opacity:1;stroke:none;stroke-width:0.264583px;stroke-linecap:butt;stroke-linejoin:miter;stroke-opacity:1"
   d="m 329.53325,112.15536 4.12522,-1.05153 c 0,0 -0.17713,0.61429 -0.18198,0.93019 -0.006,0.41662 0.20222,1.23353 0.20222,1.23353 z"
   id="path53"
   inkscape:connector-curvature="0"
   sodipodi:nodetypes="ccacc" />

        <path
   style="fill:#ffffff;fill-opacity:1;stroke:none;stroke-width:0.264583px;stroke-linecap:butt;stroke-linejoin:miter;stroke-opacity:1"
   d="m 336.02443,115.53239 c 0,0 0.73652,0.18414 1.11217,0.18199 0.39008,-0.002 1.15266,-0.20222 1.15266,-0.20222 l -1.1122,4.34767 z"
   id="path54"
   inkscape:connector-curvature="0"
   sodipodi:nodetypes="caccc" />

        <path
   style="fill:#ffffff;fill-opacity:1;stroke:none;stroke-width:0.264583px;stroke-linecap:butt;stroke-linejoin:miter;stroke-opacity:1"
   d="m 340.49343,111.18471 4.30723,0.99087 -4.26681,1.03131 c 0,0 0.19318,-0.70956 0.18201,-1.07175 -0.01,-0.32522 -0.22243,-0.95043 -0.22243,-0.95043 z"
   id="path55"
   inkscape:connector-curvature="0"
   sodipodi:nodetypes="cccac" />

        <path
   style="fill:#ffffff;fill-opacity:1;stroke:none;stroke-width:0.264583px;stroke-linecap:butt;stroke-linejoin:miter;stroke-opacity:1"
   d="m 336.04464,108.67722 1.05154,-3.96346 0.99086,3.98368 c 0,0 -0.6946,-0.20073 -1.05153,-0.20222 -0.33581,-0.001 -0.99087,0.182 -0.99087,0.182 z"
   id="path56"
   inkscape:connector-curvature="0"
   sodipodi:nodetypes="cccac" />

        <circle
   style="opacity:1;fill:#ffffff;fill-opacity:1;stroke:none;stroke-width:0.062813;stroke-linecap:round;stroke-miterlimit:4;stroke-dasharray:none;stroke-opacity:1"
   id="circle56"
   cx="337.07593"
   cy="112.11491"
   r="2.8725784" />

        <circle
   style="opacity:1;fill:#000000;fill-opacity:1;stroke:none;stroke-width:0.045;stroke-linecap:round;stroke-miterlimit:4;stroke-dasharray:none;stroke-opacity:1"
   id="circle57"
   cx="337.06586"
   cy="112.12502"
   r="2.0424526" />

        <path
   inkscape:connector-curvature="0"
   style="fill:#000000;fill-opacity:1;stroke:#000000;stroke-width:1px;stroke-linecap:butt;stroke-linejoin:miter;stroke-opacity:1"
   d="m 1273.2578,465.46484 -6.7558,17.40235 3.4589,-0.0547 1.1875,-3.1875 h 6 l 1.0801,3.13281 h 3.3516 l -6.8106,-17.29297 z m 0.2442,6.26758 1,0.0391 1.6738,4.98633 -4.2793,-0.0293 z"
   transform="scale(0.26458333)"
   id="path57" />

        <path
   style="fill:#000000;fill-opacity:1;stroke:none;stroke-width:0.264583px;stroke-linecap:butt;stroke-linejoin:miter;stroke-opacity:1"
   d="m 347.45,109.26365 h 3.88227 v 0.7482 h -1.47619 v 3.96346 h -0.95041 v -3.94323 H 347.45 Z"
   id="path58"
   inkscape:connector-curvature="0"
   sodipodi:nodetypes="ccccccccc" />

        <path
   inkscape:connector-curvature="0"
   style="fill:#000000;fill-opacity:1;stroke:none;stroke-width:1px;stroke-linecap:butt;stroke-linejoin:miter;stroke-opacity:1"
   d="m 1223.0508,412.88086 v 17.83398 h 3.0801 v -6.91796 h 2.2695 l 4.4316,7.08007 h 3.5137 l -5.0098,-7.66797 c 2.5586,-1.10483 3.2529,-2.88258 3.2793,-5.08593 0.03,-2.38349 -2.006,-5.24219 -4.8632,-5.24219 z m 2.9726,3.18945 h 2.961 c 1.0343,0 2.1295,1.18149 2.1738,2.21485 0.045,1.05044 -0.9564,2.43359 -2.0078,2.43359 h -3.127 z"
   transform="scale(0.26458333)"
   id="path59" />

        <path
   style="fill:none;stroke:#000000;stroke-width:0.765;stroke-linecap:butt;stroke-linejoin:miter;stroke-miterlimit:4;stroke-dasharray:none;stroke-opacity:1"
   d="m 335.92452,100.61916 c 0,0 0.80415,0.34653 1.2297,0.34318 0.55296,-0.004 0.98921,-0.58668 0.98664,-1.07242 -0.003,-0.542873 -0.53364,-0.915654 -1.11533,-1.18681 -0.45276,-0.211051 -1.00786,-0.430449 -1.00092,-1.115316 0.007,-0.672407 0.45234,-0.935328 1.04381,-0.958028 0.31334,-0.01203 0.88654,0.314577 0.88654,0.314577"
   id="path60"
   inkscape:connector-curvature="0"
   sodipodi:nodetypes="csasssc" />

      </g>

    </g>
    <g
       transform="matrix(0.24954944,0,0,0.24954947,168.67036,277.22295)"
       style="display:inline;enable-background:new"
       inkscape:label="wisecrowds"
       id="layer22">
      <g
   id="g4745">
        <path
   inkscape:connector-curvature="0"
   id="path4705"
   transform="matrix(0.26458333,0,0,0.26458333,96.116803,179.55668)"
   d="m 160.11914,0.00195313 c -2.04369,-0.02657149 -4.09836,0.30948271 -5.92969,1.09765627 -2.85494,1.2287244 -5.66284,3.4398926 -6.87304,6.3027344 -1.30953,3.0977012 0.29101,10.0839842 0.29101,10.0839842 l -26.33984,5.126953 18.74023,14.671875 -27.57812,5.833985 c 0,0 -0.64486,-4.589571 -2.11328,-6.208985 -2.00138,-2.207131 -5.18526,-3.311651 -8.14063,-3.689453 -3.569302,-0.456302 -7.473435,0.124694 -10.636718,1.839844 -2.395048,1.298646 -4.553529,3.458669 -5.560546,5.990234 -0.908448,2.283666 -0.06445,7.373047 -0.06445,7.373047 l -16.970703,-0.53125 c 0,0 -2.430674,-5.995233 -2.917968,-11.84375 C 65.710556,32.271379 65.585022,29.319882 68.677734,25.175781 77.175216,13.78969 83.173828,0.86914062 83.173828,0.86914062 L 51.972656,12.890625 c 0,0 -1.733341,-6.2454842 -4.066406,-8.2207031 -2.020271,-1.7103882 -4.954532,-2.3085916 -7.601562,-2.296875 -3.857885,0.018898 -7.978265,1.1116309 -11.048829,3.4472656 -2.120504,1.6129134 -3.882015,4.0905186 -4.330078,6.7167965 -0.468661,2.747339 1.94336,8.132813 1.94336,8.132813 L 0,29.861328 c 0,0 10.046077,5.538238 15.203125,8.042969 4.639106,2.253203 10.198754,2.952083 14.142578,6.275391 1.13726,0.958337 2.054439,2.28627 2.474609,3.71289 0.711088,2.414287 -0.115234,7.548828 -0.115234,7.548828 0,0 -8.349029,4.427075 -11.345703,7.9375 -3.25028,3.807496 -5.932612,8.538552 -6.570313,13.503906 -0.995115,7.748379 1.058935,16.016866 4.595704,22.982422 5.249045,10.337836 14.074578,18.897506 23.511718,25.632816 8.999781,6.42315 19.677242,10.57763 30.404297,13.25781 15.311063,3.82552 31.429749,4.3347 47.199219,3.71289 17.28862,-0.68171 34.16768,-5.48291 51.26562,-8.13281 10.8954,-1.68858 21.70458,-4.20927 32.70508,-4.94922 3.70439,-0.24907 11.13672,0.17578 11.13672,0.17578 l -13.08203,13.25977 c 0,0 -9.35907,-1.6392 -19.97656,2.12109 -6.23324,2.20758 -11.78757,5.85146 -14.67188,11.3125 -3.80409,7.20249 -3.68431,16.57388 -1.41406,24.39648 2.22421,7.66398 7.94451,14.20704 13.96484,19.44532 5.82618,5.06933 13.0286,8.85107 20.50586,10.7832 10.55702,2.72795 22.07622,3.13999 32.70508,0.70703 9.6076,-2.19919 19.00832,-6.84836 26.33985,-13.43555 5.13044,-4.60955 9.34514,-10.71364 11.3125,-17.32422 2.13464,-7.17263 2.51969,-15.40458 0,-22.45117 -2.56577,-7.17539 -14.4961,-17.67578 -14.4961,-17.67578 l 3.35938,-8.48633 c 0,0 8.18197,-0.89813 12.19726,-1.76757 3.71808,-0.80508 10.96094,-3.18165 10.96094,-3.18165 0,0 -7.38133,-3.8208 -10.7832,-6.1875 -3.02234,-2.10258 -5.45133,-4.98597 -8.48633,-7.07031 -2.82709,-1.94154 -8.98438,-5.01367 -8.98438,-5.01367 0,0 3.94389,-4.15193 2.60938,-9.035156 -1.04512,-3.824201 -3.64202,-5.682036 -6.42969,-7.375 -2.34932,-1.426734 -5.26826,-2.074445 -8.01367,-1.941406 -2.63543,0.127748 -5.42553,0.939785 -7.47656,2.59961 -2.38133,1.927181 -4.76172,7.859372 -4.76172,7.859372 l -17.85547,-4.595701 -5.47852,2.47461 8.83789,15.203121 3.71289,11.84375 c 0,0 -7.07163,-0.70092 -10.60742,-0.52929 -18.08727,0.87791 -35.81333,5.39637 -53.74023,7.95507 -12.42425,1.77339 -24.75174,4.84592 -37.29883,5.125 -14.73128,0.32776 -29.842528,-0.0413 -44.017578,-4.06445 -9.557367,-2.7126 -18.794524,-7.23402 -26.693359,-13.25976 -8.72674,-6.6573 -16.93514,-14.79139 -21.919922,-24.570316 -3.506532,-6.87893 -6.198437,-15.016649 -4.929687,-22.632813 1.485883,-8.919496 11.451172,-15.105469 11.451172,-15.105469 l -4.400391,35.439454 c 0,0 3.677003,0.694266 6.541016,-1.238282 2.864012,-1.932548 4.731956,-6.515258 7.601562,-11.84375 2.869607,-5.328491 9.015625,-20.328125 9.015625,-20.328125 0,0 15.624734,17.92697 18.214844,19.878907 2.59011,1.951899 6.533203,1.6875 6.533203,1.6875 0,0 -2.837272,3.727621 -1.029297,9.865234 1.293392,4.390828 8.277344,11.34766 8.277344,11.34766 l -5.126953,20.50586 c 0,0 4.102446,-0.0908 5.84375,-1.0293 2.692989,-1.45168 4.370576,-4.30224 6.300781,-6.67578 1.514532,-1.86244 4.119141,-5.90625 4.119141,-5.90625 0,0 11.174189,3.94606 16.970699,5.0625 4.06715,0.78338 12.375,1.125 12.375,1.125 0,0 2.36793,1.50297 3.40235,1.36914 1.03442,-0.1338 2.07617,-1.54688 2.07617,-1.54688 0,0 14.30987,0.16219 21.39062,-0.70703 11.79829,-1.44816 23.85157,-3.00969 34.86719,-7.47656 9.50842,-3.85565 13.27011,-5.06679 16.04492,-10.908204 2.33488,-4.915238 0.89149,-11.334601 -1.41406,-16.263672 -2.16427,-4.627049 -10.86719,-10.804687 -10.86719,-10.804687 0,0 -4.11737,-28.361901 -4.48047,-32.259766 -0.36321,-3.897902 -0.20926,-6.167698 3.16211,-8.335937 3.37119,-2.16824 16.25,-10.648438 16.25,-10.648438 0,0 -6.02038,0.105821 -11.11718,-0.5 -5.09681,-0.605669 -19.11133,-4.271484 -19.11133,-4.271484 0,0 0.41204,-7.074365 -1.4668,-9.7851564 -1.66938,-2.4086174 -4.8226,-3.6385902 -7.68359,-4.27343748 -1.16783,-0.25915748 -2.39097,-0.40593211 -3.61719,-0.42187499 z m -17.59375,41.65820287 -1.98828,8.751953 -4.24219,-1.326171 z m -9.80078,11.951172 6.6875,0.875 -6.375,14.9375 -9.0625,-0.875 c 0,0 1.37571,-5.195572 2.87891,-7.767578 1.50319,-2.571969 5.87109,-7.169922 5.87109,-7.169922 z m 25.56836,6.425781 c 1.17155,-0.0092 6.12833,0.381197 10.43164,7.199219 4.91807,7.792026 14.88672,21.451172 14.88672,21.451172 l 6.39844,-0.767578 -0.41016,-7.621094 c 0,0 5.04182,4.930454 5.8125,8.1875 0.75719,3.199862 0.31221,7.006176 -1.5,9.75 -2.39271,3.622752 -7.0302,5.265682 -11.0625,6.875002 -10.72781,4.28148 -22.47933,5.54152 -33.9375,7 -6.64222,0.84548 -20.0625,1 -20.0625,1 l -0.75,-11.3125 c 0,0 8.20425,1.76925 12.375,1.875 5.65126,0.14324 11.6752,0.53048 16.875,-1.6875 4.30874,-1.83787 9.51762,-4.589077 10.6875,-9.125002 1.22827,-4.762318 -1.86968,-10.182037 -5.1875,-13.8125 -3.91612,-4.285153 -15.6875,-7.5625 -15.6875,-7.5625 l 10.875,-11.4375 c 0,0 0.0885,-0.01041 0.25586,-0.01172 z m -84.312501,6.769532 12.287109,6.984375 c 0,0 -2.582728,0.929515 -5.537109,2.75 -1.194822,0.736252 -3.582031,2.964843 -3.582031,2.964843 z m 49.494141,5.679687 8.41016,0.451172 -4.59766,10.611328 c 0,0 2.36104,0.819342 5.25,-0.25 2.88896,-1.069342 10.4375,-8.125 10.4375,-8.125 0,0 10.41202,3.563889 14.1875,7.3125 2.38719,2.370255 4.99742,5.587743 4.6875,8.9375 -0.28823,3.11675 -3.0748,5.857709 -5.8125,7.375 -4.36263,2.417802 -9.90307,2.022762 -14.875,1.625002 -4.93232,-0.39458 -14.3125,-3.937502 -14.3125,-3.937502 z m -35.263672,4.396484 -4.330079,19.888672 c 0,0 -6.349666,-5.02761 -4.517578,-12.505859 1.295547,-5.28824 8.847657,-7.382813 8.847657,-7.382813 z m 16.175782,16.087891 14.9375,20.064457 c 0,0 -9.1441,-1.42315 -12.99219,-2.47461 -3.84809,-1.05147 -10.076171,-3.625 -10.076171,-3.625 z m 124.00781,50.646487 7.95508,41.71875 6.1875,-1.50196 11.58008,-37.12304 c 0,0 8.10029,8.42432 9.89843,13.78906 1.93886,5.7843 1.82041,12.35226 0.44141,18.29492 -1.44174,6.21305 -4.60274,12.20166 -8.83789,16.9707 -3.57592,4.02678 -8.43757,6.88721 -13.3457,9.10352 -5.54226,2.50265 -11.6088,4.12283 -17.67774,4.50781 -7.91051,0.50185 -16.1158,-0.30425 -23.59961,-2.91601 -6.45494,-2.2526 -12.59915,-5.93047 -17.50195,-10.69532 -4.84067,-4.70437 -9.08774,-10.51179 -11.04883,-16.9707 -2.06309,-6.7948 -3.19445,-14.83182 -0.26562,-21.30078 2.33559,-5.15868 7.45783,-9.50557 12.90625,-11.04883 7.71503,-2.18524 12.55078,-0.17773 12.55078,-0.17773 l -11.66797,11.66797 c 0,0 8.56045,-1.33097 12.72852,-2.47461 3.71164,-1.0184 10.87109,-3.88867 10.87109,-3.88867 0,0 9.46529,9.22589 12.375,15.02539 2.48988,4.96271 5.26266,10.77449 3.97656,16.17578 -0.75503,3.17095 -3.58831,5.7137 -6.36328,7.42383 -2.79904,1.72493 -6.28851,2.32954 -9.57617,2.36718 -2.94811,0.034 -6.10038,-0.41601 -8.63281,-1.92578 -3.06365,-1.82649 -5.8044,-4.72334 -7.01563,-8.07812 -1.52712,-4.22975 -2.04573,-9.65082 0.29883,-13.48828 1.56,-2.55353 4.95905,-3.69276 7.89453,-4.27344 2.83899,-0.5616 6.43724,-0.5863 8.63477,0.91406 2.31038,1.57742 3.54947,3.79059 3.92187,5.8457 0.43756,2.41478 0.78397,4.18202 0.29883,6.57227 -0.46515,2.29274 4.50858,1.83676 4.5293,-0.39648 0.0302,-3.27904 0.41417,-6.56373 -0.88868,-9.44532 -1.21629,-2.69011 -3.60389,-4.82762 -6.07226,-6.44726 -1.32159,-0.86718 -2.89194,-1.41749 -4.46094,-1.60938 -2.43689,-0.2982 -4.93124,0.21573 -7.32617,0.75586 -2.09484,0.47225 -3.03077,0.77754 -6.07227,2.15234 -2.64797,1.19698 -5.41984,4.28498 -6.41015,7.39258 -1.59511,5.00546 -0.76667,10.96324 1.53125,15.6875 1.60426,3.29813 4.6738,5.96306 7.95508,7.60157 3.70752,1.85132 8.14095,2.14457 12.26562,2.02343 7.61911,-0.22374 14.00442,-2.655 18.14063,-7.76953 3.17196,-3.92224 3.48509,-9.83746 2.91601,-14.84961 -0.54606,-4.80933 -3.24771,-9.22339 -5.92187,-13.25781 -2.64892,-3.99632 -9.81055,-10.51758 -9.81055,-10.51758 z"
   style="fill:#000000;fill-opacity:1;stroke:none;stroke-width:1px;stroke-linecap:butt;stroke-linejoin:miter;stroke-opacity:1" />

        <path
   style="fill:#ffffff;fill-opacity:1;stroke:none;stroke-width:0.264583px;stroke-linecap:butt;stroke-linejoin:miter;stroke-opacity:1"
   d="m 104.67611,184.08984 c -0.25325,-0.35377 -0.44097,-0.80355 -0.4141,-1.2378 0.0309,-0.49926 0.26562,-1.03101 0.64796,-1.35356 0.43802,-0.36952 1.08255,-0.51902 1.65357,-0.47056 0.38693,0.0328 0.78573,0.21928 1.0507,0.50316 0.41578,0.44544 0.69356,1.09012 0.67419,1.69915 -0.0166,0.52145 -0.26573,1.0836 -0.66851,1.4152 -0.44123,0.36325 -1.10212,0.53534 -1.66207,0.42095 -0.52626,-0.1075 -0.96909,-0.53979 -1.28174,-0.97654 z"
   id="path4707"
   inkscape:connector-curvature="0"
   sodipodi:nodetypes="aaaaaaaaa" />

        <path
   style="fill:#ffffff;fill-opacity:1;stroke:none;stroke-width:0.264583px;stroke-linecap:butt;stroke-linejoin:miter;stroke-opacity:1"
   d="m 121.02298,189.25817 c 0.47101,-0.30544 1.13498,-0.30151 1.67695,-0.15519 0.4839,0.13065 0.94672,0.45582 1.2241,0.87331 0.30568,0.46006 0.46904,1.07411 0.36449,1.61648 -0.10292,0.5339 -0.44628,1.08525 -0.92458,1.34386 -0.535,0.28928 -1.26787,0.28824 -1.82411,0.0423 -0.50135,-0.22169 -0.85413,-0.74149 -1.07811,-1.24182 -0.1658,-0.37036 -0.23177,-0.8093 -0.15402,-1.20756 0.0932,-0.47724 0.3073,-1.0068 0.71528,-1.27136 z"
   id="path4709"
   inkscape:connector-curvature="0"
   sodipodi:nodetypes="aaaaaaaaa" />

        <path
   style="fill:#ffffff;fill-opacity:1;stroke:none;stroke-width:0.264583px;stroke-linecap:butt;stroke-linejoin:miter;stroke-opacity:1"
   d="m 136.57473,182.94393 c -0.13072,-0.38579 -0.10331,-0.84101 0.0428,-1.22127 0.15542,-0.40465 0.44802,-0.80303 0.83622,-0.99592 0.4777,-0.23735 1.09256,-0.24954 1.59828,-0.0799 0.47242,0.1585 0.91296,0.51951 1.14592,0.96001 0.23994,0.4537 0.29493,1.03893 0.15288,1.53213 -0.14319,0.49713 -0.48937,0.99418 -0.95199,1.22576 -0.48633,0.24346 -1.13751,0.25688 -1.63134,0.029 -0.56823,-0.26219 -0.99188,-0.85716 -1.19272,-1.44986 z"
   id="path4711"
   inkscape:connector-curvature="0"
   sodipodi:nodetypes="aaaaaaaaa" />

        <path
   style="fill:#ffffff;fill-opacity:1;stroke:none;stroke-width:0.264583px;stroke-linecap:butt;stroke-linejoin:miter;stroke-opacity:1"
   d="m 159.39069,204.57489 c 0.5163,-0.26396 1.20837,-0.20834 1.73942,0.0245 0.56055,0.2458 1.01723,0.77237 1.26285,1.333 0.23201,0.52958 0.30367,1.18339 0.11693,1.73057 -0.14804,0.43377 -0.47757,0.88304 -0.91205,1.02899 -0.52751,0.17721 -1.1484,-0.0611 -1.63703,-0.32741 -0.51863,-0.28264 -0.98136,-0.73782 -1.23379,-1.2718 -0.19391,-0.4102 -0.26536,-0.91279 -0.15343,-1.35249 0.11704,-0.45977 0.39467,-0.94942 0.8171,-1.16539 z"
   id="path4713"
   inkscape:connector-curvature="0"
   sodipodi:nodetypes="aaaaaaaaa" />

      </g>

    </g>
    <g
       transform="matrix(0.42830165,0,0,0.42830165,109.82942,329.0784)"
       inkscape:label="what3debrief"
       id="layer8-3"
       style="display:inline;enable-background:new">
      <g
   id="g981">
        <g
   aria-label="w"
   transform="scale(1.0680496,0.93628615)"
   style="font-style:normal;font-weight:normal;font-size:11.3035px;line-height:1.25;font-family:sans-serif;letter-spacing:0px;word-spacing:0px;fill:#000000;fill-opacity:1;stroke:none;stroke-width:0.282588"
   id="text956">
          <path
   inkscape:connector-curvature="0"
   d="m 82.849002,43.390842 3.070037,-8.861963 3.038388,8.861963 h 3.766334 l 4.589231,-15.255236 h -4.620881 l -2.183841,8.956913 -2.658589,-8.956913 h -3.892934 l -2.658589,8.956913 -2.18384,-8.956913 h -4.620881 l 4.589231,15.255236 z"
   style="font-style:normal;font-variant:normal;font-weight:bold;font-stretch:normal;font-size:31.6499px;font-family:JournalSans;-inkscape-font-specification:'JournalSans Bold';stroke-width:0.282588"
   id="path966" />

        </g>

        <g
   aria-label="w"
   transform="scale(1.0702434,0.93436691)"
   style="font-style:normal;font-weight:normal;font-size:11.3267px;line-height:1.25;font-family:sans-serif;letter-spacing:0px;word-spacing:0px;fill:#000000;fill-opacity:1;stroke:none;stroke-width:0.283169"
   id="text960">
          <path
   inkscape:connector-curvature="0"
   d="m 83.686807,27.676067 2.050895,-5.920111 2.029752,5.920111 h 2.516048 L 93.349273,17.485019 H 90.262358 L 88.803474,23.46856 87.027441,17.485019 H 84.42682 l -1.776033,5.983541 -1.458884,-5.983541 h -3.086915 l 3.065771,10.191048 z"
   style="font-style:normal;font-variant:normal;font-weight:bold;font-stretch:normal;font-size:21.1433px;font-family:'Journal Sans';-inkscape-font-specification:'Journal Sans Bold';stroke-width:0.283169"
   id="path969" />

        </g>

        <g
   aria-label="w"
   transform="scale(1.0726655,0.93225707)"
   style="font-style:normal;font-weight:normal;font-size:11.3524px;line-height:1.25;font-family:sans-serif;letter-spacing:0px;word-spacing:0px;fill:#000000;fill-opacity:1;stroke:none;stroke-width:0.283809"
   id="text964">
          <path
   inkscape:connector-curvature="0"
   d="m 84.182436,17.274492 1.358123,-3.920354 1.344121,3.920354 h 1.666151 l 2.030183,-6.748609 h -2.044185 l -0.966087,3.962358 -1.176106,-3.962358 H 84.67248 l -1.176106,3.962358 -0.966087,-3.962358 h -2.044185 l 2.030184,6.748609 z"
   style="font-style:normal;font-variant:normal;font-weight:bold;font-stretch:normal;font-size:14.0013px;font-family:'Journal Sans';-inkscape-font-specification:'Journal Sans Bold';stroke-width:0.283809"
   id="path972" />

        </g>

      </g>

    </g>
  </g>
</svg>
