<?xml version="1.0" encoding="UTF-8" standalone="no"?>
<svg
   width="74mm"
   height="105mm"
   viewBox="0 0 262.20472 372.04724"
   id="svg2"
   version="1.1"
   inkscape:version="1.3.1 (91b66b0783, 2023-11-16)"
   sodipodi:docname="social-network-webbing-front.svg"
   enable-background="new"
   xmlns:inkscape="http://www.inkscape.org/namespaces/inkscape"
   xmlns:sodipodi="http://sodipodi.sourceforge.net/DTD/sodipodi-0.dtd"
   xmlns:xlink="http://www.w3.org/1999/xlink"
   xmlns="http://www.w3.org/2000/svg"
   xmlns:svg="http://www.w3.org/2000/svg"
   xmlns:rdf="http://www.w3.org/1999/02/22-rdf-syntax-ns#"
   xmlns:cc="http://creativecommons.org/ns#"
   xmlns:dc="http://purl.org/dc/elements/1.1/">
  <defs
     id="defs4" />
  <sodipodi:namedview
     id="base"
     pagecolor="#ffffff"
     bordercolor="#666666"
     borderopacity="1.0"
     inkscape:pageopacity="1"
     inkscape:pageshadow="2"
     inkscape:zoom="2"
     inkscape:cx="-2.25"
     inkscape:cy="197.75"
     inkscape:document-units="mm"
     inkscape:current-layer="layer4"
     showgrid="false"
     showguides="false"
     inkscape:guide-bbox="true"
     inkscape:snap-bbox="false"
     inkscape:bbox-nodes="true"
     inkscape:object-nodes="true"
     inkscape:snap-page="true"
     inkscape:snap-grids="false"
     inkscape:window-width="1920"
     inkscape:window-height="1017"
     inkscape:window-x="-8"
     inkscape:window-y="-8"
     inkscape:window-maximized="1"
     inkscape:snap-others="false"
     inkscape:snap-nodes="true"
     inkscape:showpageshadow="2"
     inkscape:pagecheckerboard="0"
     inkscape:deskcolor="#d1d1d1">
    <sodipodi:guide
       position="19.48819,143.57143"
       orientation="1,0"
       id="guide3342"
       inkscape:label=""
       inkscape:color="rgb(0,0,255)"
       inkscape:locked="false" />
    <sodipodi:guide
       position="242.71654,160.71429"
       orientation="1,0"
       id="guide3344"
       inkscape:label=""
       inkscape:color="rgb(0,0,255)"
       inkscape:locked="false" />
    <sodipodi:guide
       position="100.71429,10.629921"
       orientation="0,1"
       id="guide3346"
       inkscape:label=""
       inkscape:color="rgb(0,0,255)"
       inkscape:locked="false" />
    <sodipodi:guide
       position="75.714288,361.41732"
       orientation="0,1"
       id="guide3348"
       inkscape:label=""
       inkscape:color="rgb(0,0,255)"
       inkscape:locked="false" />
    <sodipodi:guide
       position="242.71654,289.15617"
       orientation="1,0"
       id="guide4173"
       inkscape:locked="false" />
    <sodipodi:guide
       position="-54.642858,21.259842"
       orientation="0,1"
       id="guide4176"
       inkscape:label=""
       inkscape:color="rgb(0,0,255)"
       inkscape:locked="false" />
    <sodipodi:guide
       position="0,350.7874"
       orientation="0,1"
       id="guide4178"
       inkscape:label=""
       inkscape:color="rgb(0,0,255)"
       inkscape:locked="false" />
    <sodipodi:guide
       position="30.118111,388.21428"
       orientation="1,0"
       id="guide4180"
       inkscape:label=""
       inkscape:color="rgb(0,0,255)"
       inkscape:locked="false" />
    <sodipodi:guide
       position="232.08662,385.71428"
       orientation="1,0"
       id="guide4182"
       inkscape:label=""
       inkscape:color="rgb(0,0,255)"
       inkscape:locked="false" />
    <sodipodi:guide
       position="40.748033,260.35714"
       orientation="1,0"
       id="guide4252"
       inkscape:label=""
       inkscape:color="rgb(0,0,255)"
       inkscape:locked="false" />
    <sodipodi:guide
       position="221.4567,323.92857"
       orientation="1,0"
       id="guide4254"
       inkscape:label=""
       inkscape:color="rgb(0,0,255)"
       inkscape:locked="false" />
    <sodipodi:guide
       position="-107.14286,340.15748"
       orientation="0,1"
       id="guide4256"
       inkscape:label=""
       inkscape:color="rgb(0,0,255)"
       inkscape:locked="false" />
    <sodipodi:guide
       position="-111.42857,31.889764"
       orientation="0,1"
       id="guide4258"
       inkscape:label=""
       inkscape:color="rgb(0,0,255)"
       inkscape:locked="false" />
    <sodipodi:guide
       position="-60.356616,230.31496"
       orientation="0,1"
       id="guide4262"
       inkscape:label=""
       inkscape:color="rgb(0,0,255)"
       inkscape:locked="false" />
    <sodipodi:guide
       position="-56.063468,258.66142"
       orientation="0,1"
       id="guide4269"
       inkscape:label=""
       inkscape:color="rgb(0,0,255)"
       inkscape:locked="false" />
    <sodipodi:guide
       position="93.897641,308.6016"
       orientation="1,0"
       id="guide4271"
       inkscape:label=""
       inkscape:color="rgb(0,0,255)"
       inkscape:locked="false" />
    <sodipodi:guide
       position="109.84252,340.15748"
       orientation="1,0"
       id="guide4273"
       inkscape:label=""
       inkscape:color="rgb(0,0,255)"
       inkscape:locked="false" />
    <sodipodi:guide
       position="-60.500002,219.68504"
       orientation="0,1"
       id="guide4303"
       inkscape:label=""
       inkscape:color="rgb(0,0,255)"
       inkscape:locked="false" />
    <sodipodi:guide
       position="29.347657,248.03516"
       orientation="0,1"
       id="guide4207"
       inkscape:label=""
       inkscape:color="rgb(0,0,255)"
       inkscape:locked="false" />
    <sodipodi:guide
       position="154.13386,219.68504"
       orientation="1,0"
       id="guide4219"
       inkscape:label=""
       inkscape:color="rgb(0,0,255)"
       inkscape:locked="false" />
  </sodipodi:namedview>
  <metadata
     id="metadata7">
    <rdf:RDF>
      <cc:Work
         rdf:about="">
        <dc:format>image/svg+xml</dc:format>
        <dc:type
           rdf:resource="http://purl.org/dc/dcmitype/StillImage" />
        <dc:title />
      </cc:Work>
    </rdf:RDF>
  </metadata>
  <g
     inkscape:label="Cut line"
     inkscape:groupmode="layer"
     id="layer1"
     transform="translate(0,-680.31496)"
     style="display:inline"
     sodipodi:insensitive="true">
    <path
       style="fill:none;fill-rule:evenodd;stroke:#808080;stroke-width:0.70866144;stroke-linecap:butt;stroke-linejoin:miter;stroke-miterlimit:4;stroke-dasharray:2.83464575, 2.83464575;stroke-dashoffset:0;stroke-opacity:1"
       d="m 19.488189,690.94488 0,350.78742 223.228341,0 0,-350.78742 z"
       id="path3350"
       inkscape:connector-curvature="0"
       transform="translate(4.3385302e-7,8.6660179e-6)" />
  </g>
  <g
     inkscape:groupmode="layer"
     id="layer6"
     inkscape:label="Logo"
     style="display:inline"
     sodipodi:insensitive="true">
    <path
       style="fill:none;fill-rule:evenodd;stroke:none;stroke-width:1px;stroke-linecap:butt;stroke-linejoin:miter;stroke-opacity:1"
       d="m 40.748032,31.889763 0,81.496057 53.149606,0 0,-81.496057 -53.149606,0"
       id="path4275"
       inkscape:connector-curvature="0" />
    <g
       transform="matrix(1.1449383,0,0,1.1449382,-235.64334,-171.4158)"
       style="display:inline"
       inkscape:label="socialnetworkwebbing"
       id="layer25">
      <g
         id="g4871">
        <circle
           style="opacity:1;fill:none;fill-opacity:1;stroke:#000000;stroke-width:0.95200002;stroke-linecap:round;stroke-miterlimit:4;stroke-dasharray:1.90400011, 3.80800021;stroke-dashoffset:0;stroke-opacity:1"
           id="path4776"
           cx="264.28568"
           cy="214.67628"
           r="18.362152" />
        <path
           style="fill:#000000;fill-opacity:1;stroke:none;stroke-width:0.26458332px;stroke-linecap:butt;stroke-linejoin:miter;stroke-opacity:1"
           d="m 244.68859,222.84058 3.50791,-0.46772 c 0,0 0.13282,-0.66847 0.3274,-0.93544 0.21306,-0.29231 0.52159,-0.54211 0.8653,-0.65481 0.52597,-0.17247 1.13409,-0.14803 1.66041,0.0234 0.37223,0.12124 0.74419,0.35081 0.95883,0.67821 0.20956,0.31964 0.2339,1.12252 0.2339,1.12252 l 4.23288,1.12253 0.0935,0.46773 c 0,0 -1.5556,0.77129 -2.54908,1.3213 -0.39599,0.21923 -0.51564,0.70916 -0.5145,0.94714 0.004,0.73723 0.25725,6.5715 0.25725,6.5715 l -1.05237,0.0234 -2.78295,-4.30304 c 0,0 -1.42825,1.43388 -2.22167,2.05797 -0.7868,0.61888 -2.50231,1.66041 -2.50231,1.66041 l -0.6782,-0.21047 c 0,0 2.68032,-5.06235 2.80633,-5.5425 0.0843,-0.32105 0.075,-0.75162 -0.1637,-0.98222 -0.5395,-0.5211 -2.50232,-2.36199 -2.50232,-2.36199 z"
           id="path4778"
           inkscape:connector-curvature="0"
           sodipodi:nodetypes="ccaaaacccsscccsccsscc" />
        <path
           style="fill:#ffffff;fill-opacity:1;stroke:none;stroke-width:0.26458332px;stroke-linecap:butt;stroke-linejoin:miter;stroke-opacity:1"
           d="m 249.07213,222.53111 c -0.0861,-0.24435 -0.11634,-0.54573 0,-0.77721 0.1203,-0.23937 0.38673,-0.40814 0.64493,-0.47956 0.37374,-0.10338 0.80953,-0.0553 1.15755,0.11576 0.24496,0.12039 0.45663,0.34362 0.56224,0.59531 0.11311,0.26959 0.15136,0.60909 0.0331,0.87643 -0.11081,0.25042 -0.36737,0.44636 -0.62839,0.52917 -0.36913,0.1171 -0.81576,0.0829 -1.15755,-0.0992 -0.2872,-0.15299 -0.50372,-0.45378 -0.61183,-0.7607 z"
           id="path4780"
           inkscape:connector-curvature="0"
           sodipodi:nodetypes="aaaaaaaaa" />
        <path
           style="fill:#000000;fill-opacity:1;stroke:none;stroke-width:0.26458332px;stroke-linecap:butt;stroke-linejoin:miter;stroke-opacity:1"
           d="m 269.44276,225.53043 3.50791,-0.46772 c 0,0 0.13282,-0.66847 0.3274,-0.93544 0.21306,-0.29231 0.52159,-0.54211 0.8653,-0.65481 0.52597,-0.17247 1.13409,-0.14803 1.66041,0.0234 0.37223,0.12124 0.74419,0.35081 0.95883,0.67821 0.20956,0.31964 0.2339,1.12252 0.2339,1.12252 l 4.23288,1.12253 0.0935,0.46773 c 0,0 -1.5556,0.77129 -2.54908,1.3213 -0.39599,0.21923 -0.51564,0.70916 -0.5145,0.94714 0.004,0.73723 0.25725,6.57151 0.25725,6.57151 l -1.05237,0.0234 -2.78295,-4.30304 c 0,0 -1.42825,1.43388 -2.22167,2.05797 -0.7868,0.61887 -2.50231,1.6604 -2.50231,1.6604 l -0.6782,-0.21046 c 0,0 2.68032,-5.06236 2.80633,-5.54251 0.0843,-0.32105 0.075,-0.75162 -0.1637,-0.98222 -0.5395,-0.5211 -2.50232,-2.36199 -2.50232,-2.36199 z"
           id="path4778-0"
           inkscape:connector-curvature="0"
           sodipodi:nodetypes="ccaaaacccsscccsccsscc" />
        <path
           style="fill:#ffffff;fill-opacity:1;stroke:none;stroke-width:0.26458332px;stroke-linecap:butt;stroke-linejoin:miter;stroke-opacity:1"
           d="m 273.8263,225.22096 c -0.0861,-0.24435 -0.11634,-0.54573 0,-0.77721 0.1203,-0.23937 0.38673,-0.40814 0.64493,-0.47956 0.37374,-0.10338 0.80953,-0.0553 1.15755,0.11576 0.24496,0.12039 0.45663,0.34362 0.56224,0.59531 0.11311,0.26959 0.15136,0.60909 0.0331,0.87643 -0.11081,0.25042 -0.36737,0.44636 -0.62839,0.52917 -0.36913,0.1171 -0.81576,0.0829 -1.15755,-0.0992 -0.2872,-0.15299 -0.50372,-0.45378 -0.61183,-0.7607 z"
           id="path4780-7"
           inkscape:connector-curvature="0"
           sodipodi:nodetypes="aaaaaaaaa" />
        <path
           style="fill:#000000;fill-opacity:1;stroke:none;stroke-width:0.26458332px;stroke-linecap:butt;stroke-linejoin:miter;stroke-opacity:1"
           d="m 275.94409,206.07322 3.50791,-0.46772 c 0,0 0.13282,-0.66847 0.3274,-0.93544 0.21306,-0.29231 0.52159,-0.54211 0.8653,-0.65481 0.52597,-0.17247 1.13409,-0.14803 1.66041,0.0234 0.37223,0.12124 0.74419,0.35081 0.95883,0.67821 0.20956,0.31964 0.2339,1.12252 0.2339,1.12252 l 4.23288,1.12253 0.0935,0.46773 c 0,0 -1.5556,0.77129 -2.54908,1.3213 -0.39599,0.21923 -0.51564,0.70916 -0.5145,0.94714 0.004,0.73723 0.25725,6.5715 0.25725,6.5715 l -1.05237,0.0234 -2.78295,-4.30304 c 0,0 -1.42825,1.43388 -2.22167,2.05797 -0.7868,0.61887 -2.50231,1.6604 -2.50231,1.6604 l -0.6782,-0.21046 c 0,0 2.68032,-5.06235 2.80633,-5.5425 0.0843,-0.32105 0.075,-0.75162 -0.1637,-0.98222 -0.5395,-0.5211 -2.50232,-2.36199 -2.50232,-2.36199 z"
           id="path4778-5"
           inkscape:connector-curvature="0"
           sodipodi:nodetypes="ccaaaacccsscccsccsscc" />
        <path
           style="fill:#ffffff;fill-opacity:1;stroke:none;stroke-width:0.26458332px;stroke-linecap:butt;stroke-linejoin:miter;stroke-opacity:1"
           d="m 280.32763,205.76375 c -0.0861,-0.24435 -0.11634,-0.54573 0,-0.77721 0.1203,-0.23937 0.38673,-0.40814 0.64493,-0.47956 0.37374,-0.10338 0.80953,-0.0553 1.15755,0.11576 0.24496,0.12039 0.45663,0.34362 0.56224,0.59531 0.11311,0.26959 0.15136,0.60909 0.0331,0.87643 -0.11081,0.25042 -0.36737,0.44636 -0.62839,0.52917 -0.36913,0.1171 -0.81576,0.0829 -1.15755,-0.0992 -0.2872,-0.15299 -0.50372,-0.45378 -0.61183,-0.7607 z"
           id="path4780-2"
           inkscape:connector-curvature="0"
           sodipodi:nodetypes="aaaaaaaaa" />
        <path
           style="fill:#000000;fill-opacity:1;stroke:none;stroke-width:0.26458332px;stroke-linecap:butt;stroke-linejoin:miter;stroke-opacity:1"
           d="m 260.46251,192.74315 3.50791,-0.46772 c 0,0 0.13282,-0.66847 0.3274,-0.93544 0.21306,-0.29231 0.52159,-0.54211 0.8653,-0.65481 0.52597,-0.17247 1.13409,-0.14803 1.66041,0.0234 0.37223,0.12124 0.74419,0.35081 0.95883,0.67821 0.20956,0.31964 0.2339,1.12252 0.2339,1.12252 l 4.23288,1.12253 0.0935,0.46773 c 0,0 -1.5556,0.77129 -2.54908,1.3213 -0.39599,0.21923 -0.51564,0.70916 -0.5145,0.94714 0.004,0.73723 0.25725,6.5715 0.25725,6.5715 l -1.05237,0.0234 -2.78295,-4.30304 c 0,0 -1.42825,1.43388 -2.22167,2.05797 -0.7868,0.61888 -2.50231,1.66041 -2.50231,1.66041 l -0.6782,-0.21047 c 0,0 2.68032,-5.06235 2.80633,-5.5425 0.0843,-0.32105 0.075,-0.75162 -0.1637,-0.98222 -0.5395,-0.5211 -2.50232,-2.36199 -2.50232,-2.36199 z"
           id="path4778-04"
           inkscape:connector-curvature="0"
           sodipodi:nodetypes="ccaaaacccsscccsccsscc" />
        <path
           style="fill:#ffffff;fill-opacity:1;stroke:none;stroke-width:0.26458332px;stroke-linecap:butt;stroke-linejoin:miter;stroke-opacity:1"
           d="m 264.84605,192.43368 c -0.0861,-0.24435 -0.11634,-0.54573 0,-0.77721 0.1203,-0.23937 0.38673,-0.40814 0.64493,-0.47956 0.37374,-0.10338 0.80953,-0.0553 1.15755,0.11576 0.24496,0.12039 0.45663,0.34362 0.56224,0.59531 0.11311,0.26959 0.15136,0.60909 0.0331,0.87643 -0.11081,0.25042 -0.36737,0.44636 -0.62839,0.52917 -0.36913,0.1171 -0.81576,0.0829 -1.15755,-0.0992 -0.2872,-0.15299 -0.50372,-0.45378 -0.61183,-0.7607 z"
           id="path4780-3"
           inkscape:connector-curvature="0"
           sodipodi:nodetypes="aaaaaaaaa" />
        <path
           style="fill:#000000;fill-opacity:1;stroke:none;stroke-width:0.26458332px;stroke-linecap:butt;stroke-linejoin:miter;stroke-opacity:1"
           d="m 241.56655,202.89271 3.50791,-0.46772 c 0,0 0.13282,-0.66847 0.3274,-0.93544 0.21306,-0.29231 0.52159,-0.54211 0.8653,-0.65481 0.52597,-0.17247 1.13409,-0.14803 1.66041,0.0234 0.37223,0.12124 0.74419,0.35081 0.95883,0.67821 0.20956,0.31964 0.2339,1.12252 0.2339,1.12252 l 4.23288,1.12253 0.0935,0.46773 c 0,0 -1.5556,0.77129 -2.54908,1.3213 -0.39599,0.21923 -0.51564,0.70916 -0.5145,0.94714 0.004,0.73723 0.25725,6.5715 0.25725,6.5715 l -1.05237,0.0234 -2.78295,-4.30304 c 0,0 -1.42825,1.43388 -2.22167,2.05797 -0.7868,0.61888 -2.50231,1.66041 -2.50231,1.66041 l -0.6782,-0.21047 c 0,0 2.68032,-5.06235 2.80633,-5.5425 0.0843,-0.32105 0.075,-0.75162 -0.1637,-0.98222 -0.5395,-0.5211 -2.50232,-2.36199 -2.50232,-2.36199 z"
           id="path4778-2"
           inkscape:connector-curvature="0"
           sodipodi:nodetypes="ccaaaacccsscccsccsscc" />
        <path
           style="fill:#ffffff;fill-opacity:1;stroke:none;stroke-width:0.26458332px;stroke-linecap:butt;stroke-linejoin:miter;stroke-opacity:1"
           d="m 245.95009,202.58324 c -0.0861,-0.24435 -0.11634,-0.54573 0,-0.77721 0.1203,-0.23937 0.38673,-0.40814 0.64493,-0.47956 0.37374,-0.10338 0.80953,-0.0553 1.15755,0.11576 0.24496,0.12039 0.45663,0.34362 0.56224,0.59531 0.11311,0.26959 0.15136,0.60909 0.0331,0.87643 -0.11081,0.25042 -0.36737,0.44636 -0.62839,0.52917 -0.36913,0.1171 -0.81576,0.0829 -1.15755,-0.0992 -0.2872,-0.15299 -0.50372,-0.45378 -0.61183,-0.7607 z"
           id="path4780-8"
           inkscape:connector-curvature="0"
           sodipodi:nodetypes="aaaaaaaaa" />
        <path
           style="fill:#ffffff;fill-opacity:1;stroke:#000000;stroke-width:0.465;stroke-linecap:butt;stroke-linejoin:miter;stroke-miterlimit:4;stroke-dasharray:none;stroke-opacity:1"
           d="m 265.42669,207.51601 -3.95221,-0.52917 c 0,0 1.04113,1.03697 1.72806,1.69499 0.61193,0.58616 0.60984,1.13722 0.63665,1.69498 0.0617,1.2836 0.13229,3.853 0.13229,3.853 l 4.63021,0.23151 c 0,0 -0.005,-1.906 -0.0359,-3.00729 -0.0163,-0.57342 0.43268,-0.87323 0.72394,-0.96347 1.33231,-0.41279 2.86648,-0.76552 2.86648,-0.76552 l -4.001,-1.5145"
           id="path4852"
           inkscape:connector-curvature="0"
           sodipodi:nodetypes="ccssccsscc" />
        <path
           style="fill:#ffffff;fill-opacity:1;stroke:#000000;stroke-width:0.465;stroke-linecap:butt;stroke-linejoin:miter;stroke-miterlimit:4;stroke-dasharray:none;stroke-opacity:1"
           d="m 265.42669,207.51601 c -0.0241,-0.33592 0.12523,-0.70487 0.3638,-0.94258 0.22988,-0.22905 0.58525,-0.33439 0.90951,-0.34727 0.43049,-0.0171 0.89246,0.10951 1.24023,0.36381 0.23077,0.16875 0.43539,0.42861 0.47956,0.71106 0.0488,0.31195 -0.0715,0.6597 -0.26459,0.90951 -0.22373,0.28945 -0.58064,0.50886 -0.94257,0.56224 -0.42719,0.063 -0.91356,-0.0521 -1.25677,-0.31419 -0.28639,-0.21867 -0.50339,-0.58318 -0.52917,-0.94258 z"
           id="path4850"
           inkscape:connector-curvature="0"
           sodipodi:nodetypes="aaaaaaaaa" />
        <path
           style="fill:#ffffff;fill-opacity:1;stroke:#000000;stroke-width:0.465;stroke-linecap:butt;stroke-linejoin:miter;stroke-miterlimit:4;stroke-dasharray:none;stroke-opacity:1"
           d="m 258.34606,209.86131 -4.23288,0.25725 c 0,0 2.50862,1.93065 3.48453,3.15711 0.18905,0.23758 0.23894,0.63285 0.152,0.92375 -0.66705,2.23192 -2.09305,5.5659 -2.09305,5.5659 0,0 1.7236,-1.2837 2.24507,-1.80073 0.95445,-0.94632 1.53178,-1.95275 1.53178,-1.95275 l 2.8648,5.0514 c 0,0 -0.31332,-5.06944 0.0819,-7.46016 0.0906,-0.54822 0.39704,-1.2631 0.76004,-1.6838 0.76049,-0.88138 2.57247,-2.36199 2.57247,-2.36199 l -4.39657,0.23387"
           id="path4848"
           inkscape:connector-curvature="0"
           sodipodi:nodetypes="ccsscsccsscc" />
        <path
           style="fill:#ffffff;fill-opacity:1;stroke:#000000;stroke-width:0.465;stroke-linecap:butt;stroke-linejoin:miter;stroke-miterlimit:4;stroke-dasharray:none;stroke-opacity:1"
           d="m 258.34606,209.86131 c -0.15482,-0.32354 -0.14934,-0.73992 -0.0234,-1.07576 0.12594,-0.33584 0.39559,-0.65315 0.72497,-0.79513 0.40811,-0.17591 0.91809,-0.13578 1.33301,0.0234 0.3663,0.14053 0.71763,0.41865 0.88867,0.77174 0.14629,0.302 0.16797,0.69268 0.0468,1.0056 -0.13137,0.33926 -0.43817,0.62654 -0.77174,0.77174 -0.40052,0.17434 -0.89667,0.18921 -1.30962,0.0468 -0.36612,-0.12626 -0.72152,-0.39905 -0.88869,-0.74839 z"
           id="path4846"
           inkscape:connector-curvature="0"
           sodipodi:nodetypes="aaaaaaaaa" />
        <path
           style="fill:#ffffff;fill-opacity:1;stroke:#000000;stroke-width:0.465;stroke-linecap:butt;stroke-linejoin:miter;stroke-miterlimit:4;stroke-dasharray:none;stroke-opacity:1"
           d="m 268.17991,213.21721 4.19781,1.39147 c 0,0 -1.13698,0.4791 -1.63702,0.77174 -0.47096,0.27562 -1.26287,0.91206 -1.26287,0.91206 l 0.1637,6.78196 -2.99342,-4.34981 c 0,0 -1.61344,1.55553 -2.55492,2.25091 -0.70329,0.51945 -2.30937,1.44409 -2.30937,1.44409 0,0 1.51011,-3.26242 2.32609,-4.89855 0.25302,-0.50734 0.25601,-1.00097 -0.12262,-1.37743 -0.97738,-0.97178 -2.39057,-2.33009 -2.39057,-2.33009 l 3.80024,-0.58466"
           id="path4842"
           inkscape:connector-curvature="0"
           sodipodi:nodetypes="ccscccscsscc" />
        <path
           style="fill:#ffffff;fill-opacity:1;stroke:#000000;stroke-width:0.465;stroke-linecap:butt;stroke-linejoin:miter;stroke-miterlimit:4;stroke-dasharray:none;stroke-opacity:1"
           d="m 267.49002,213.9071 c -0.41491,0.18031 -0.93484,0.21101 -1.35639,0.0468 -0.32103,-0.12505 -0.59246,-0.41208 -0.73667,-0.72497 -0.11612,-0.25195 -0.14083,-0.56529 -0.0585,-0.83021 0.10207,-0.32843 0.33993,-0.64446 0.64312,-0.80682 0.36211,-0.19392 0.83482,-0.22484 1.22778,-0.10523 0.3395,0.10334 0.65611,0.35726 0.8302,0.6665 0.1755,0.31175 0.25528,0.72526 0.14033,1.06404 -0.1045,0.30797 -0.3916,0.56027 -0.68987,0.68989 z"
           id="path4844"
           inkscape:connector-curvature="0"
           sodipodi:nodetypes="aaaaaaaaa" />
      </g>
    </g>
  </g>
  <g
     inkscape:groupmode="layer"
     id="layer9"
     inkscape:label="Title"
     style="display:inline"
     sodipodi:insensitive="true">
    <path
       style="fill:none;fill-rule:evenodd;stroke:none;stroke-width:1px;stroke-linecap:butt;stroke-linejoin:miter;stroke-opacity:1"
       d="m 109.84252,113.38582 111.61417,0 0,-81.496057 -111.61417,0 z"
       id="path4349_snwf"
       inkscape:connector-curvature="0" />
    <flowRoot
       xml:space="preserve"
       style="font-style:normal;font-weight:normal;line-height:0.01%;font-family:sans-serif;text-align:end;letter-spacing:0px;word-spacing:0px;text-anchor:end;fill:#000000;fill-opacity:1;stroke:none;stroke-width:1px;stroke-linecap:butt;stroke-linejoin:miter;stroke-opacity:1"
       id="flowRoot4357"
       transform="translate(0,0.23339617)"><flowRegion
         id="flowRegion4359"><use
           x="0"
           y="0"
           xlink:href="#path4349_snwf"
           id="use4361"
           width="100%"
           height="100%" /></flowRegion><flowPara
         id="flowPara4363"
         style="font-style:normal;font-variant:normal;font-weight:bold;font-stretch:normal;font-size:13.75px;line-height:1.25;font-family:Roboto;-inkscape-font-specification:'Roboto Bold';text-align:end;text-anchor:end">Social Network Webbing</flowPara><flowPara
         id="flowPara4365"
         style="font-style:normal;font-variant:normal;font-weight:normal;font-stretch:normal;font-size:8.75px;line-height:125%;font-family:Lato;-inkscape-font-specification:Lato;text-align:end;letter-spacing:0px;text-anchor:end;fill:#1a1a1a">Cartographier les connexions informelles et décider comment renforcer le réseau pour atteindre un objectif.</flowPara></flowRoot>
  </g>
  <g
     inkscape:groupmode="layer"
     id="layer8"
     inkscape:label="Separator"
     style="display:inline"
     sodipodi:insensitive="true">
    <path
       style="fill:#37abc8;fill-rule:evenodd;stroke:#000000;stroke-width:0;stroke-linecap:butt;stroke-linejoin:miter;stroke-miterlimit:4;stroke-dasharray:none;stroke-opacity:1"
       d="m 30.11811,124.01208 v 17.7202 h 62.007874 l 10.629926,-17.7202 z"
       id="path4215"
       inkscape:connector-curvature="0" />
    <text
       xml:space="preserve"
       style="font-style:normal;font-weight:normal;line-height:0%;font-family:sans-serif;letter-spacing:0px;word-spacing:0px;display:inline;fill:#000000;fill-opacity:1;stroke:none;stroke-width:1px;stroke-linecap:butt;stroke-linejoin:miter;stroke-opacity:1"
       x="39.935043"
       y="137.46776"
       id="text4180"><tspan
         sodipodi:role="line"
         id="tspan4182"
         x="39.935043"
         y="137.46776"
         style="font-style:normal;font-variant:normal;font-weight:bold;font-stretch:normal;font-size:12.5px;line-height:1.25;font-family:Lato;-inkscape-font-specification:'Lato Bold';fill:#ffffff">Partagé</tspan></text>
    <rect
       y="124.01575"
       x="164.76379"
       height="17.716536"
       width="67.322838"
       id="rect4191"
       style="display:inline;fill:#e6e6e6;fill-opacity:1;stroke:none;stroke-width:1;stroke-miterlimit:4;stroke-dasharray:none;stroke-dashoffset:0;stroke-opacity:1" />
    <text
       xml:space="preserve"
       style="font-style:normal;font-weight:normal;line-height:0%;font-family:sans-serif;letter-spacing:0px;word-spacing:0px;fill:#1a1a1a;fill-opacity:1;stroke:none;stroke-width:1px;stroke-linecap:butt;stroke-linejoin:miter;stroke-opacity:1"
       x="184.26759"
       y="137.39589"
       id="text4193"><tspan
         sodipodi:role="line"
         id="tspan4195"
         x="184.26759"
         y="137.39589"
         style="font-style:normal;font-variant:normal;font-weight:500;font-stretch:normal;font-size:12.5px;line-height:1.25;font-family:Lato;-inkscape-font-specification:'Lato Medium';fill:#1a1a1a">60 min</tspan></text>
    <path
       inkscape:connector-curvature="0"
       id="path4217"
       d="m 164.75591,141.73228 v -17.7202 h -62.00787 l -10.629926,17.7202 z"
       style="fill:#916f7c;fill-opacity:1;fill-rule:evenodd;stroke:#000000;stroke-width:0;stroke-linecap:butt;stroke-linejoin:miter;stroke-miterlimit:4;stroke-dasharray:none;stroke-opacity:1" />
    <text
       id="text4197"
       y="137.46776"
       x="118.29826"
       style="font-style:normal;font-weight:normal;line-height:0%;font-family:sans-serif;letter-spacing:0px;word-spacing:0px;display:inline;fill:#000000;fill-opacity:1;stroke:none;stroke-width:1px;stroke-linecap:butt;stroke-linejoin:miter;stroke-opacity:1"
       xml:space="preserve"><tspan
         style="font-style:normal;font-variant:normal;font-weight:bold;font-stretch:normal;font-size:12.5px;line-height:1.25;font-family:Lato;-inkscape-font-specification:'Lato Bold';fill:#ffffff"
         y="137.46776"
         x="118.29826"
         id="tspan4199"
         sodipodi:role="line">Aide</tspan></text>
  </g>
  <g
     inkscape:groupmode="layer"
     id="layer5"
     inkscape:label="Border"
     style="display:inline"
     sodipodi:insensitive="true">
    <rect
       style="fill:none;fill-opacity:1;stroke:#000000;stroke-width:0.35433072;stroke-miterlimit:4;stroke-dasharray:none;stroke-dashoffset:0;stroke-opacity:1"
       id="rect4187"
       width="201.96851"
       height="329.52756"
       x="30.118111"
       y="21.259844"
       ry="14.6735"
       rx="12.76433" />
  </g>
  <g
     inkscape:groupmode="layer"
     id="layer4"
     inkscape:label="Body"
     style="display:inline"
     sodipodi:insensitive="true">
    <path
       style="fill:none;fill-rule:evenodd;stroke:none;stroke-width:1px;stroke-linecap:butt;stroke-linejoin:miter;stroke-opacity:1"
       d="M 40.748032,152.3622 V 340.15748 H 221.45669 V 152.3622 Z"
       id="path4305_snwf"
       inkscape:connector-curvature="0" />
    <flowRoot
       xml:space="preserve"
       style="font-style:normal;font-weight:normal;line-height:0.01%;font-family:sans-serif;letter-spacing:0px;word-spacing:0px;fill:#000000;fill-opacity:1;stroke:none;stroke-width:1px;stroke-linecap:butt;stroke-linejoin:miter;stroke-opacity:1"
       id="flowRoot4319"
       transform="matrix(1,0,0,1.0068578,-0.17251487,-4.5759283)"><flowRegion
         id="flowRegion4321"><use
           x="0"
           y="0"
           xlink:href="#path4305_snwf"
           id="use4323"
           width="100%"
           height="100%"
           transform="matrix(1,0,0,0.99318888,0.17251487,4.5447611)" /></flowRegion><flowPara
         id="flowPara4325"
         style="font-style:normal;font-variant:normal;font-weight:bold;font-stretch:normal;font-size:8.72015px;line-height:1.25;font-family:Roboto;-inkscape-font-specification:'Roboto Bold';fill:#999999;fill-opacity:1">Invitation</flowPara><flowPara
         style="font-style:normal;font-variant:normal;font-weight:500;font-stretch:normal;font-size:8.72015px;line-height:1.25;font-family:Lato;-inkscape-font-specification:'Lato Medium';fill:#1a1a1a;fill-opacity:1"
         id="flowPara4310">Inviter les membres d'un groupe de travail central ayant un objectif commun à créer une carte de leur réseau et à décider de la manière de l'étendre et de le renforcer.</flowPara><flowPara
         style="font-style:normal;font-variant:normal;font-weight:500;font-stretch:normal;font-size:8.72015px;line-height:1.25;font-family:Lato;-inkscape-font-specification:'Lato Medium';fill:#1a1a1a;fill-opacity:1"
         id="flowPara4200"> </flowPara><flowPara
         style="font-style:normal;font-variant:normal;font-weight:bold;font-stretch:normal;font-size:8.72015px;line-height:1.25;font-family:Roboto;-inkscape-font-specification:'Roboto Bold';fill:#999999;fill-opacity:1"
         id="flowPara4212">Personnes</flowPara><flowPara
         style="font-style:normal;font-variant:normal;font-weight:500;font-stretch:normal;font-size:8.72015px;line-height:1.25;font-family:Lato;-inkscape-font-specification:'Lato Medium';fill:#1a1a1a;fill-opacity:1"
         id="flowPara4312">- 1-2-4-Tous pour générer les noms des groupes clés</flowPara><flowPara
         style="font-style:normal;font-variant:normal;font-weight:500;font-stretch:normal;font-size:8.72015px;line-height:1.25;font-family:Lato;-inkscape-font-specification:'Lato Medium';fill:#1a1a1a;fill-opacity:1"
         id="flowPara4221">- L'ensemble du groupe génère des noms de personnes dans le réseau et construit la carte.</flowPara><flowPara
         style="font-style:normal;font-variant:normal;font-weight:500;font-stretch:normal;font-size:8.72015px;line-height:1.25;font-family:Lato;-inkscape-font-specification:'Lato Medium';fill:#1a1a1a;fill-opacity:1"
         id="flowPara4214"> </flowPara><flowPara
         style="font-style:normal;font-variant:normal;font-weight:bold;font-stretch:normal;font-size:8.72015px;line-height:1.25;font-family:Roboto;-inkscape-font-specification:'Roboto Bold';fill:#999999;fill-opacity:1"
         id="flowPara4202">Espace et matériel</flowPara><flowPara
         style="font-style:normal;font-variant:normal;font-weight:500;font-stretch:normal;font-size:8.72015px;line-height:1.25;font-family:Lato;-inkscape-font-specification:'Lato Medium';fill:#1a1a1a;fill-opacity:1"
         id="flowPara4210">- Mur ouvert avec du papier de tapisserie ou plusieurs pages de tableau à feuilles mobiles</flowPara><flowPara
         style="font-style:normal;font-variant:normal;font-weight:500;font-stretch:normal;font-size:8.72015px;line-height:1.25;font-family:Lato;-inkscape-font-specification:'Lato Medium';fill:#1a1a1a;fill-opacity:1"
         id="flowPara4201">- Post-it notes in at least 8 colors</flowPara><flowPara
         style="font-style:normal;font-variant:normal;font-weight:500;font-stretch:normal;font-size:8.72015px;line-height:1.25;font-family:Lato;-inkscape-font-specification:'Lato Medium';fill:#1a1a1a;fill-opacity:1"
         id="flowPara4318">- Stylos noirs à pointe grasse </flowPara><flowPara
         style="font-style:normal;font-variant:normal;font-weight:500;font-stretch:normal;font-size:8.72015px;line-height:1.25;font-family:Lato;-inkscape-font-specification:'Lato Medium';fill:#1a1a1a;fill-opacity:1"
         id="flowPara4206" /></flowRoot>
  </g>
</svg>
