<?xml version="1.0" encoding="UTF-8" standalone="no"?>
<!-- Created with Inkscape (http://www.inkscape.org/) -->

<svg
   width="74mm"
   height="105mm"
   viewBox="0 0 262.20472 372.04724"
   id="svg2"
   version="1.1"
   inkscape:version="1.3.1 (91b66b0783, 2023-11-16)"
   sodipodi:docname="appreciative-interviews-front.svg"
   enable-background="new"
   xmlns:inkscape="http://www.inkscape.org/namespaces/inkscape"
   xmlns:sodipodi="http://sodipodi.sourceforge.net/DTD/sodipodi-0.dtd"
   xmlns:xlink="http://www.w3.org/1999/xlink"
   xmlns="http://www.w3.org/2000/svg"
   xmlns:svg="http://www.w3.org/2000/svg"
   xmlns:rdf="http://www.w3.org/1999/02/22-rdf-syntax-ns#"
   xmlns:cc="http://creativecommons.org/ns#"
   xmlns:dc="http://purl.org/dc/elements/1.1/">
  <defs
     id="defs4" />
  <sodipodi:namedview
     id="base"
     pagecolor="#ffffff"
     bordercolor="#666666"
     borderopacity="1.0"
     inkscape:pageopacity="1"
     inkscape:pageshadow="2"
     inkscape:zoom="2"
     inkscape:cx="-131.75"
     inkscape:cy="168.25"
     inkscape:document-units="mm"
     inkscape:current-layer="layer4"
     showgrid="false"
     showguides="false"
     inkscape:guide-bbox="true"
     inkscape:snap-bbox="false"
     inkscape:bbox-nodes="true"
     inkscape:object-nodes="true"
     inkscape:snap-page="true"
     inkscape:snap-grids="false"
     inkscape:window-width="1920"
     inkscape:window-height="1017"
     inkscape:window-x="-8"
     inkscape:window-y="-8"
     inkscape:window-maximized="1"
     inkscape:snap-others="false"
     inkscape:snap-nodes="true"
     inkscape:showpageshadow="2"
     inkscape:pagecheckerboard="0"
     inkscape:deskcolor="#d1d1d1">
    <sodipodi:guide
       position="19.48819,143.57143"
       orientation="1,0"
       id="guide3342"
       inkscape:label=""
       inkscape:color="rgb(0,0,255)"
       inkscape:locked="false" />
    <sodipodi:guide
       position="242.71654,160.71429"
       orientation="1,0"
       id="guide3344"
       inkscape:label=""
       inkscape:color="rgb(0,0,255)"
       inkscape:locked="false" />
    <sodipodi:guide
       position="100.71429,10.629921"
       orientation="0,1"
       id="guide3346"
       inkscape:label=""
       inkscape:color="rgb(0,0,255)"
       inkscape:locked="false" />
    <sodipodi:guide
       position="75.714288,361.41732"
       orientation="0,1"
       id="guide3348"
       inkscape:label=""
       inkscape:color="rgb(0,0,255)"
       inkscape:locked="false" />
    <sodipodi:guide
       position="242.71654,289.15617"
       orientation="1,0"
       id="guide4173"
       inkscape:locked="false" />
    <sodipodi:guide
       position="-54.642858,21.259842"
       orientation="0,1"
       id="guide4176"
       inkscape:label=""
       inkscape:color="rgb(0,0,255)"
       inkscape:locked="false" />
    <sodipodi:guide
       position="0,350.7874"
       orientation="0,1"
       id="guide4178"
       inkscape:label=""
       inkscape:color="rgb(0,0,255)"
       inkscape:locked="false" />
    <sodipodi:guide
       position="30.118111,388.21428"
       orientation="1,0"
       id="guide4180"
       inkscape:label=""
       inkscape:color="rgb(0,0,255)"
       inkscape:locked="false" />
    <sodipodi:guide
       position="232.08662,385.71428"
       orientation="1,0"
       id="guide4182"
       inkscape:label=""
       inkscape:color="rgb(0,0,255)"
       inkscape:locked="false" />
    <sodipodi:guide
       position="40.748033,260.35714"
       orientation="1,0"
       id="guide4252"
       inkscape:label=""
       inkscape:color="rgb(0,0,255)"
       inkscape:locked="false" />
    <sodipodi:guide
       position="221.4567,323.92857"
       orientation="1,0"
       id="guide4254"
       inkscape:label=""
       inkscape:color="rgb(0,0,255)"
       inkscape:locked="false" />
    <sodipodi:guide
       position="-107.14286,340.15748"
       orientation="0,1"
       id="guide4256"
       inkscape:label=""
       inkscape:color="rgb(0,0,255)"
       inkscape:locked="false" />
    <sodipodi:guide
       position="-111.42857,31.889764"
       orientation="0,1"
       id="guide4258"
       inkscape:label=""
       inkscape:color="rgb(0,0,255)"
       inkscape:locked="false" />
    <sodipodi:guide
       position="-60.356616,230.31496"
       orientation="0,1"
       id="guide4262"
       inkscape:label=""
       inkscape:color="rgb(0,0,255)"
       inkscape:locked="false" />
    <sodipodi:guide
       position="-56.063468,258.66142"
       orientation="0,1"
       id="guide4269"
       inkscape:label=""
       inkscape:color="rgb(0,0,255)"
       inkscape:locked="false" />
    <sodipodi:guide
       position="93.897641,308.6016"
       orientation="1,0"
       id="guide4271"
       inkscape:label=""
       inkscape:color="rgb(0,0,255)"
       inkscape:locked="false" />
    <sodipodi:guide
       position="109.84252,340.15748"
       orientation="1,0"
       id="guide4273"
       inkscape:label=""
       inkscape:color="rgb(0,0,255)"
       inkscape:locked="false" />
    <sodipodi:guide
       position="-60.500002,219.68504"
       orientation="0,1"
       id="guide4303"
       inkscape:label=""
       inkscape:color="rgb(0,0,255)"
       inkscape:locked="false" />
    <sodipodi:guide
       position="29.347657,248.03516"
       orientation="0,1"
       id="guide4207"
       inkscape:label=""
       inkscape:color="rgb(0,0,255)"
       inkscape:locked="false" />
    <sodipodi:guide
       position="154.13386,219.68504"
       orientation="1,0"
       id="guide4219"
       inkscape:label=""
       inkscape:color="rgb(0,0,255)"
       inkscape:locked="false" />
  </sodipodi:namedview>
  <metadata
     id="metadata7">
    <rdf:RDF>
      <cc:Work
         rdf:about="">
        <dc:format>image/svg+xml</dc:format>
        <dc:type
           rdf:resource="http://purl.org/dc/dcmitype/StillImage" />
        <dc:title />
      </cc:Work>
    </rdf:RDF>
  </metadata>
  <g
     inkscape:label="Cut line"
     inkscape:groupmode="layer"
     id="layer1"
     transform="translate(0,-680.31496)"
     style="display:inline"
     sodipodi:insensitive="true">
    <path
       style="fill:none;fill-rule:evenodd;stroke:#808080;stroke-width:0.70866144;stroke-linecap:butt;stroke-linejoin:miter;stroke-miterlimit:4;stroke-dasharray:2.83464575, 2.83464575;stroke-dashoffset:0;stroke-opacity:1"
       d="m 19.488189,690.94488 0,350.78742 223.228341,0 0,-350.78742 z"
       id="path3350"
       inkscape:connector-curvature="0"
       transform="translate(4.3385302e-7,8.6660179e-6)" />
  </g>
  <g
     inkscape:groupmode="layer"
     id="layer6"
     inkscape:label="Logo"
     style="display:inline"
     sodipodi:insensitive="true">
    <path
       style="fill:none;fill-rule:evenodd;stroke:none;stroke-width:1px;stroke-linecap:butt;stroke-linejoin:miter;stroke-opacity:1"
       d="m 40.748032,31.889763 0,81.496057 53.149606,0 0,-81.496057 -53.149606,0"
       id="path4275"
       inkscape:connector-curvature="0" />
    <g
       transform="matrix(0.89867335,0,0,0.89867329,-12.182271,3.1544518)"
       inkscape:label="appreciativeinterviews"
       id="layer11">
      <g
         id="g4701">
        <path
           style="fill:#000000;fill-opacity:1;stroke:#000000;stroke-width:0.26458332px;stroke-linecap:butt;stroke-linejoin:miter;stroke-opacity:1"
           d="m 70.893241,95.8174 0.467722,-11.225318 c 0,0 -6.465837,-2.040554 -8.68626,-4.409948 -2.087764,-2.227835 -3.383066,-5.374102 -3.608139,-8.418991 -0.225802,-3.054757 0.619976,-6.351199 2.33861,-8.886711 1.849538,-2.728636 4.920166,-4.584295 7.951269,-5.879928 3.197103,-1.366589 6.8015,-1.765151 10.27841,-1.776393 2.629508,-0.0085 5.280471,0.482304 7.781852,1.293153 1.673754,0.542564 4.724463,2.354125 4.724463,2.354125 0,0 8.330862,-0.3121 12.494852,-0.200451 1.9194,0.05147 3.86376,0.02298 5.74629,0.400904 1.42943,0.286961 2.95876,0.552309 4.14268,1.403165 0.95498,0.686321 1.6635,1.730354 2.13816,2.806329 0.70354,1.594809 0.76812,3.409893 0.93544,5.14494 0.34423,3.569583 0.41981,7.182892 0.13364,10.757598 -0.12448,1.554893 -0.40998,3.100546 -0.80181,4.610399 -0.25479,0.981792 -0.3028,2.138576 -1.00226,2.873147 -0.69591,0.730845 -1.79768,1.104034 -2.80634,1.135896 -2.65961,0.08401 -8.01808,0.200451 -8.01808,0.200451 l 0.23387,11.22532 c 0,0 -2.88984,-2.845609 -4.2274,-4.367447 -1.798257,-2.046013 -5.093634,-6.39015 -5.093634,-6.39015 0,0 -5.459973,-0.03637 -8.720652,-0.07087 -0.924247,-0.0098 -2.194351,-0.04671 -3.070936,-0.613516 C 83.242412,87.147759 82.185379,84.92617 82.185379,84.92617 L 80.38131,84.85935 c 0,0 -3.777851,5.235581 -5.946749,7.617182 -1.092687,1.199846 -3.54132,3.340869 -3.54132,3.340868 z"
           id="path4655"
           inkscape:connector-curvature="0"
           sodipodi:nodetypes="ccaaaaaacaaaaaaaasccacsaccac" />
        <path
           style="fill:#ffffff;fill-opacity:1;stroke:#000000;stroke-width:0.26458332px;stroke-linecap:butt;stroke-linejoin:miter;stroke-opacity:1"
           d="m 72.964579,91.073368 0.286842,-8.009981 c 0,0 -5.553808,-0.87537 -9.039918,-4.2176 -1.864203,-1.787263 -2.938911,-4.507968 -3.140416,-7.082644 -0.208661,-2.666119 0.582855,-5.52907 2.071338,-7.750815 1.574431,-2.350033 4.163823,-3.995744 6.748555,-5.144939 2.981699,-1.32569 6.359079,-1.86124 9.621703,-1.80407 6.033003,0.105715 9.500228,2.138156 9.500228,2.138156 0,0 -3.045557,0.322975 -4.422107,0.935445 -0.830335,0.369442 -1.6223,0.906167 -2.204974,1.603616 -0.522987,0.626005 -0.917319,1.401221 -1.06433,2.203584 -0.577625,3.152593 -0.456932,10.171755 -0.07157,15.235754 0.09753,1.281552 0.601359,3.80859 0.601359,3.80859 L 79.312232,83.1221 c 0,0 -2.147587,3.134598 -3.34087,4.610398 -0.942008,1.165034 -3.006783,3.34087 -3.006783,3.34087 z"
           id="path4657"
           inkscape:connector-curvature="0"
           sodipodi:nodetypes="ccsaaascaasaccac" />
        <path
           style="fill:#ffffff;fill-opacity:1;stroke:#000000;stroke-width:0.26458332px;stroke-linecap:butt;stroke-linejoin:miter;stroke-opacity:1"
           d="m 83.722177,82.520741 c 0,0 3.847149,-0.911341 5.545844,-1.870884 1.499753,-0.847166 2.885969,-1.980255 3.942226,-3.34087 1.093397,-1.408456 2.036813,-3.053529 2.338607,-4.810853 0.429764,-2.502485 0.05968,-5.20025 -0.853804,-7.569358 -0.599352,-1.55441 -2.919002,-4.056864 -2.919002,-4.056864 0,0 -4.379344,0.170602 -6.316617,1.069078 -0.845968,0.392346 -1.673515,0.995548 -2.138156,1.804069 -0.450647,0.784171 -0.398962,1.770874 -0.467722,2.672694 -0.32179,4.220456 -0.146286,8.482849 0.267269,12.695303 0.112697,1.147928 0.601355,3.407685 0.601355,3.407685 z"
           id="path4659"
           inkscape:connector-curvature="0"
           sodipodi:nodetypes="caaaacaaaac" />
        <path
           style="fill:#ffffff;fill-opacity:1;stroke:#000000;stroke-width:0.26458332px;stroke-linecap:butt;stroke-linejoin:miter;stroke-opacity:1"
           d="m 84.123082,84.525264 c 0,0 0.429097,1.031168 0.88009,1.292458 1.565693,0.907109 3.779668,0.682566 5.730779,0.660763 2.245047,-0.02509 6.318294,-0.01552 6.318294,-0.01552 l 6.276785,8.342386 c 0,0 -0.17025,-7.560273 -0.0719,-8.11831 0.0773,-0.43867 0.29248,-0.537627 0.83285,-0.546003 3.0431,-0.04717 3.86364,0.01753 5.79354,-0.05535 1.35114,-0.05102 3.38546,0.0317 4.04749,-0.267272 0.93857,-0.423865 1.11347,-1.86278 1.39575,-2.896771 0.55922,-2.048409 0.48713,-4.224807 0.53454,-6.34765 0.0632,-2.830088 0.0179,-5.676981 -0.33409,-8.485807 -0.17272,-1.37835 -0.30652,-2.805536 -0.86862,-4.075861 -0.35516,-0.802651 -0.82647,-1.622598 -1.53681,-2.138156 -0.83229,-0.604065 -1.92761,-0.754455 -2.93996,-0.935443 -2.87516,-0.514023 -5.83281,-0.347715 -8.75308,-0.400904 -2.382861,-0.0434 -7.149455,0.06682 -7.149455,0.06682 0,0 2.336617,3.626819 2.873147,5.679477 0.524299,2.005864 0.648652,4.176141 0.267269,6.214014 -0.398116,2.127282 -1.324734,4.202473 -2.605876,5.946749 -1.224176,1.666717 -2.881839,3.049616 -4.677217,4.075858 -1.834419,1.048557 -6.013566,2.004521 -6.013566,2.004521 z"
           id="path4661"
           inkscape:connector-curvature="0"
           sodipodi:nodetypes="cssccssasaaaaaaacaaaacc" />
        <path
           style="fill:none;stroke:#000000;stroke-width:1.06500006;stroke-linecap:round;stroke-linejoin:miter;stroke-miterlimit:4;stroke-dasharray:none;stroke-opacity:1"
           d="m 98.288368,78.578516 c 0,0 2.766222,0.179752 4.142672,0.06682 1.73726,-0.142535 3.40624,-0.811669 5.14494,-0.935443 1.1783,-0.08388 3.54132,0.133634 3.54132,0.133634"
           id="path4663"
           inkscape:connector-curvature="0"
           sodipodi:nodetypes="caac" />
        <path
           style="fill:none;stroke:#000000;stroke-width:1.06500006;stroke-linecap:round;stroke-linejoin:miter;stroke-miterlimit:4;stroke-dasharray:none;stroke-opacity:1"
           d="m 99.958802,73.968117 c 0,0 1.562808,0.221956 2.338608,0.133636 1.10648,-0.125966 2.10481,-0.777955 3.20724,-0.935445 0.7717,-0.110243 2.3386,0 2.3386,0"
           id="path4665"
           inkscape:connector-curvature="0"
           sodipodi:nodetypes="caac" />
        <path
           style="fill:none;stroke:#000000;stroke-width:1.06500006;stroke-linecap:round;stroke-linejoin:miter;stroke-miterlimit:4;stroke-dasharray:none;stroke-opacity:1"
           d="m 99.891984,69.357718 c 0,0 1.917646,0.135662 2.873146,0.06682 1.86988,-0.134723 3.67403,-0.830883 5.54584,-0.935442 0.8018,-0.04479 2.40543,0.133633 2.40543,0.133633"
           id="path4667"
           inkscape:connector-curvature="0"
           sodipodi:nodetypes="caac" />
        <path
           style="fill:none;stroke:#000000;stroke-width:1.06500006;stroke-linecap:round;stroke-linejoin:miter;stroke-miterlimit:4;stroke-dasharray:none;stroke-opacity:1"
           d="m 67.084651,66.818657 c 0,0 1.829959,0.151028 2.739512,0.06682 1.496291,-0.138529 2.915457,-0.77868 4.409948,-0.935442 1.018942,-0.10688 3.073598,0 3.073598,0"
           id="path4669"
           inkscape:connector-curvature="0"
           sodipodi:nodetypes="caac" />
        <path
           style="fill:none;stroke:#000000;stroke-width:1.06500006;stroke-linecap:round;stroke-linejoin:miter;stroke-miterlimit:4;stroke-dasharray:none;stroke-opacity:1"
           d="m 67.084651,71.362241 c 0,0 2.230857,0.0896 3.34087,0 1.799316,-0.145242 3.544686,-0.741751 5.34539,-0.868627 1.088878,-0.07672 3.274052,0.06682 3.274052,0.06682"
           id="path4671"
           inkscape:connector-curvature="0"
           sodipodi:nodetypes="caac" />
        <path
           style="fill:none;stroke:#000000;stroke-width:1.06500006;stroke-linecap:round;stroke-linejoin:miter;stroke-miterlimit:4;stroke-dasharray:none;stroke-opacity:1"
           d="m 67.151469,75.905822 c 0,0 1.647046,0.251668 2.472243,0.200451 1.748248,-0.108507 3.398306,-0.937066 5.144936,-1.069078 0.822938,-0.0622 2.472246,0.133636 2.472246,0.133636"
           id="path4673"
           inkscape:connector-curvature="0"
           sodipodi:nodetypes="caac" />
        <path
           style="fill:#000000;fill-opacity:1;stroke:#000000;stroke-width:0.26458332px;stroke-linecap:butt;stroke-linejoin:miter;stroke-opacity:1"
           d="m 88.466212,63.544605 c 0.649312,0.0069 1.35556,0.434366 1.670436,1.002263 0.604904,1.09098 0.05971,2.500749 -0.06682,3.741772 -0.183872,1.803498 -1.00226,5.34539 -1.00226,5.34539 -0.291361,0.241808 -0.841801,0.238475 -1.135896,0 0,0 -0.953617,-3.555411 -1.135896,-5.378799 -0.125179,-1.252202 -0.603046,-2.689546 0.03341,-3.775181 0.317854,-0.54218 1.008579,-0.94213 1.637026,-0.935445 z"
           id="path4675"
           inkscape:connector-curvature="0"
           sodipodi:nodetypes="aaassaaa" />
        <circle
           style="opacity:1;fill:#000000;fill-opacity:1;stroke:none;stroke-width:0.5;stroke-miterlimit:4;stroke-dasharray:none;stroke-opacity:1"
           id="path4679"
           cx="88.4161"
           cy="76.457069"
           r="1.8541822" />
      </g>
    </g>
  </g>
  <g
     inkscape:groupmode="layer"
     id="layer9"
     inkscape:label="Title"
     style="display:inline"
     sodipodi:insensitive="true">
    <path
       style="fill:none;fill-rule:evenodd;stroke:none;stroke-width:1px;stroke-linecap:butt;stroke-linejoin:miter;stroke-opacity:1"
       d="m 109.84252,113.38582 111.61417,0 0,-81.496057 -111.61417,0 z"
       id="path4349_aif"
       inkscape:connector-curvature="0" />
    <flowRoot
       xml:space="preserve"
       style="font-style:normal;font-weight:normal;line-height:0.01%;font-family:sans-serif;text-align:end;letter-spacing:0px;word-spacing:0px;text-anchor:end;fill:#000000;fill-opacity:1;stroke:none;stroke-width:1px;stroke-linecap:butt;stroke-linejoin:miter;stroke-opacity:1"
       id="flowRoot4357"
       transform="translate(0,11.802285)"><flowRegion
         id="flowRegion4359"><use
           x="0"
           y="0"
           xlink:href="#path4349_aif"
           id="use4361"
           width="100%"
           height="100%" /></flowRegion><flowPara
         id="flowPara4363"
         style="font-style:normal;font-variant:normal;font-weight:bold;font-stretch:normal;font-size:13.75px;line-height:1.25;font-family:Roboto;-inkscape-font-specification:'Roboto Bold';text-align:end;text-anchor:end">Appreciative Interviews</flowPara><flowPara
         id="flowPara4365"
         style="font-style:normal;font-variant:normal;font-weight:normal;font-stretch:normal;font-size:8.75px;line-height:125%;font-family:Lato;-inkscape-font-specification:Lato;text-align:end;letter-spacing:0px;text-anchor:end;fill:#1a1a1a">Discover &amp; build on the root causes of success</flowPara></flowRoot>
  </g>
  <g
     inkscape:groupmode="layer"
     id="layer8"
     inkscape:label="Separator"
     style="display:inline"
     sodipodi:insensitive="true">
    <path
       style="fill:#37abc8;fill-rule:evenodd;stroke:#000000;stroke-width:0;stroke-linecap:butt;stroke-linejoin:miter;stroke-miterlimit:4;stroke-dasharray:none;stroke-opacity:1"
       d="m 30.11811,124.01208 0,17.7202 62.007874,0 10.629926,-17.7202 z"
       id="path4215"
       inkscape:connector-curvature="0" />
    <text
       xml:space="preserve"
       style="font-style:normal;font-weight:normal;line-height:0%;font-family:sans-serif;letter-spacing:0px;word-spacing:0px;display:inline;fill:#000000;fill-opacity:1;stroke:none;stroke-width:1px;stroke-linecap:butt;stroke-linejoin:miter;stroke-opacity:1"
       x="39.935043"
       y="137.46776"
       id="text4180"><tspan
         sodipodi:role="line"
         id="tspan4182"
         x="39.935043"
         y="137.46776"
         style="font-style:normal;font-variant:normal;font-weight:bold;font-stretch:normal;font-size:12.5px;line-height:1.25;font-family:Lato;-inkscape-font-specification:'Lato Bold';fill:#ffffff">Share</tspan></text>
    <rect
       y="124.01575"
       x="164.76379"
       height="17.716536"
       width="67.322838"
       id="rect4191"
       style="display:inline;fill:#e6e6e6;fill-opacity:1;stroke:none;stroke-width:1;stroke-miterlimit:4;stroke-dasharray:none;stroke-dashoffset:0;stroke-opacity:1" />
    <text
       xml:space="preserve"
       style="font-style:normal;font-weight:normal;line-height:0%;font-family:sans-serif;letter-spacing:0px;word-spacing:0px;fill:#1a1a1a;fill-opacity:1;stroke:none;stroke-width:1px;stroke-linecap:butt;stroke-linejoin:miter;stroke-opacity:1"
       x="184.26759"
       y="137.39589"
       id="text4193"><tspan
         sodipodi:role="line"
         id="tspan4195"
         x="184.26759"
         y="137.39589"
         style="font-style:normal;font-variant:normal;font-weight:500;font-stretch:normal;font-size:12.5px;line-height:1.25;font-family:Lato;-inkscape-font-specification:'Lato Medium';fill:#1a1a1a">60 min</tspan></text>
    <path
       inkscape:connector-curvature="0"
       id="path4217"
       d="m 164.75591,141.73228 0,-17.7202 -62.00787,0 -10.629926,17.7202 z"
       style="fill:#71c837;fill-opacity:1;fill-rule:evenodd;stroke:#000000;stroke-width:0;stroke-linecap:butt;stroke-linejoin:miter;stroke-miterlimit:4;stroke-dasharray:none;stroke-opacity:1" />
    <text
       id="text4197"
       y="137.46776"
       x="118.29826"
       style="font-style:normal;font-weight:normal;line-height:0%;font-family:sans-serif;letter-spacing:0px;word-spacing:0px;display:inline;fill:#000000;fill-opacity:1;stroke:none;stroke-width:1px;stroke-linecap:butt;stroke-linejoin:miter;stroke-opacity:1"
       xml:space="preserve"><tspan
         style="font-style:normal;font-variant:normal;font-weight:bold;font-stretch:normal;font-size:12.5px;line-height:1.25;font-family:Lato;-inkscape-font-specification:'Lato Bold';fill:#ffffff"
         y="137.46776"
         x="118.29826"
         id="tspan4199"
         sodipodi:role="line">Reveal</tspan></text>
  </g>
  <g
     inkscape:groupmode="layer"
     id="layer5"
     inkscape:label="Border"
     style="display:inline"
     sodipodi:insensitive="true">
    <rect
       style="fill:none;fill-opacity:1;stroke:#000000;stroke-width:0.35433072;stroke-miterlimit:4;stroke-dasharray:none;stroke-dashoffset:0;stroke-opacity:1"
       id="rect4187"
       width="201.96851"
       height="329.52756"
       x="30.118111"
       y="21.259844"
       ry="14.6735"
       rx="12.76433" />
  </g>
  <g
     inkscape:groupmode="layer"
     id="layer4"
     inkscape:label="Body"
     style="display:inline">
    <path
       style="fill:none;fill-rule:evenodd;stroke:none;stroke-width:1px;stroke-linecap:butt;stroke-linejoin:miter;stroke-opacity:1"
       d="m 40.748032,152.3622 0,187.79528 180.708658,0 0,-187.79528 z"
       id="path4305_aif"
       inkscape:connector-curvature="0" />
    
    <flowRoot
       xml:space="preserve"
       style="font-style:normal;font-weight:normal;line-height:0.01%;font-family:sans-serif;letter-spacing:0px;word-spacing:0px;fill:#000000;fill-opacity:1;stroke:none;stroke-width:1px;stroke-linecap:butt;stroke-linejoin:miter;stroke-opacity:1"
       id="flowRoot4319"
       transform="matrix(1,0,0,1.0068578,-0.17251487,-4.5759283)"><flowRegion
         id="flowRegion4321"><use
           x="0"
           y="0"
           xlink:href="#path4305_aif"
           id="use4323"
           width="100%"
           height="100%"
           transform="matrix(1,0,0,0.99318888,0.17251487,4.5447611)" /></flowRegion><flowPara
         id="flowPara4325"
         style="font-style:normal;font-variant:normal;font-weight:bold;font-stretch:normal;font-size:8.72015px;line-height:1.25;font-family:Roboto;-inkscape-font-specification:'Roboto Bold';fill:#999999;fill-opacity:1">Invitation</flowPara><flowPara
         style="font-style:normal;font-variant:normal;font-weight:500;font-stretch:normal;font-size:8.72015px;line-height:1.25;font-family:Lato;-inkscape-font-specification:'Lato Medium';fill:#1a1a1a;fill-opacity:1"
         id="flowPara4398">Ask:</flowPara><flowPara
         style="font-style:normal;font-variant:normal;font-weight:500;font-stretch:normal;font-size:8.72015px;line-height:1.25;font-family:Lato;-inkscape-font-specification:'Lato Medium';fill:#1a1a1a;fill-opacity:1"
         id="flowPara4286">“Please tell a story about a time when you worked on a challenge with others and you are proud of what you accomplished. What is the story and what made the success possible? Pair up preferably with someone you don’t know well.”</flowPara><flowPara
         style="font-style:normal;font-variant:normal;font-weight:500;font-stretch:normal;font-size:8.72015px;line-height:1.25;font-family:Lato;-inkscape-font-specification:'Lato Medium';fill:#1a1a1a;fill-opacity:1"
         id="flowPara4200"> </flowPara><flowPara
         style="font-style:normal;font-variant:normal;font-weight:bold;font-stretch:normal;font-size:8.72015px;line-height:1.25;font-family:Roboto;-inkscape-font-specification:'Roboto Bold';fill:#999999;fill-opacity:1"
         id="flowPara4212">People</flowPara><flowPara
         style="font-style:normal;font-variant:normal;font-weight:500;font-stretch:normal;font-size:8.72015px;line-height:1.25;font-family:Lato;-inkscape-font-specification:'Lato Medium';fill:#1a1a1a;fill-opacity:1"
         id="flowPara4413">- Start with pairs, then groups of 4</flowPara><flowPara
         style="font-style:normal;font-variant:normal;font-weight:500;font-stretch:normal;font-size:8.72015px;line-height:1.25;font-family:Lato;-inkscape-font-specification:'Lato Medium';fill:#1a1a1a;fill-opacity:1"
         id="flowPara4221">- Encourage groups to be diverse</flowPara><flowPara
         style="font-style:normal;font-variant:normal;font-weight:500;font-stretch:normal;font-size:8.72015px;line-height:1.25;font-family:Lato;-inkscape-font-specification:'Lato Medium';fill:#1a1a1a;fill-opacity:1"
         id="flowPara4214"> </flowPara><flowPara
         style="font-style:normal;font-variant:normal;font-weight:bold;font-stretch:normal;font-size:8.72015px;line-height:1.25;font-family:Roboto;-inkscape-font-specification:'Roboto Bold';fill:#999999;fill-opacity:1"
         id="flowPara4202">Space &amp; Materials</flowPara><flowPara
         style="font-style:normal;font-variant:normal;font-weight:500;font-stretch:normal;font-size:8.72015px;line-height:1.25;font-family:Lato;-inkscape-font-specification:'Lato Medium';fill:#1a1a1a;fill-opacity:1"
         id="flowPara4210">- Chairs for people to sit in pairs face-to-face</flowPara><flowPara
         style="font-style:normal;font-variant:normal;font-weight:500;font-stretch:normal;font-size:8.72015px;line-height:1.25;font-family:Lato;-inkscape-font-specification:'Lato Medium';fill:#1a1a1a;fill-opacity:1"
         id="flowPara4201">- Paper for participants to take notes </flowPara><flowPara
         style="font-style:normal;font-variant:normal;font-weight:500;font-stretch:normal;font-size:8.72015px;line-height:1.25;font-family:Lato;-inkscape-font-specification:'Lato Medium';fill:#1a1a1a;fill-opacity:1"
         id="flowPara4206" /></flowRoot>
  </g>
</svg>
