<?xml version="1.0" encoding="UTF-8" standalone="no"?>
<!-- Created with Inkscape (http://www.inkscape.org/) -->

<svg
   width="74mm"
   height="105mm"
   viewBox="0 0 262.20472 372.04724"
   id="svg2"
   version="1.1"
   inkscape:version="1.3.2 (091e20e, 2023-11-25, custom)"
   sodipodi:docname="appreciative-interviews-back.svg"
   enable-background="new"
   xmlns:inkscape="http://www.inkscape.org/namespaces/inkscape"
   xmlns:sodipodi="http://sodipodi.sourceforge.net/DTD/sodipodi-0.dtd"
   xmlns="http://www.w3.org/2000/svg"
   xmlns:svg="http://www.w3.org/2000/svg"
   xmlns:rdf="http://www.w3.org/1999/02/22-rdf-syntax-ns#"
   xmlns:cc="http://creativecommons.org/ns#"
   xmlns:dc="http://purl.org/dc/elements/1.1/">
  <defs
     id="defs4" />
  <sodipodi:namedview
     id="base"
     pagecolor="#ffffff"
     bordercolor="#666666"
     borderopacity="1.0"
     inkscape:pageopacity="1"
     inkscape:pageshadow="2"
     inkscape:zoom="2"
     inkscape:cx="-39.25"
     inkscape:cy="193.75"
     inkscape:document-units="mm"
     inkscape:current-layer="layer10"
     showgrid="false"
     showguides="false"
     inkscape:guide-bbox="true"
     inkscape:snap-bbox="false"
     inkscape:bbox-nodes="true"
     inkscape:object-nodes="true"
     inkscape:snap-page="true"
     inkscape:snap-grids="false"
     inkscape:window-width="1920"
     inkscape:window-height="1017"
     inkscape:window-x="-8"
     inkscape:window-y="-8"
     inkscape:window-maximized="1"
     inkscape:snap-others="false"
     inkscape:snap-nodes="true"
     inkscape:showpageshadow="2"
     inkscape:pagecheckerboard="0"
     inkscape:deskcolor="#d1d1d1">
    <sodipodi:guide
       position="19.48819,143.57143"
       orientation="1,0"
       id="guide3342"
       inkscape:label=""
       inkscape:color="rgb(0,0,255)"
       inkscape:locked="false" />
    <sodipodi:guide
       position="242.71654,160.71429"
       orientation="1,0"
       id="guide3344"
       inkscape:label=""
       inkscape:color="rgb(0,0,255)"
       inkscape:locked="false" />
    <sodipodi:guide
       position="100.71429,10.629921"
       orientation="0,1"
       id="guide3346"
       inkscape:label=""
       inkscape:color="rgb(0,0,255)"
       inkscape:locked="false" />
    <sodipodi:guide
       position="75.714288,361.41732"
       orientation="0,1"
       id="guide3348"
       inkscape:label=""
       inkscape:color="rgb(0,0,255)"
       inkscape:locked="false" />
    <sodipodi:guide
       position="242.71654,289.15617"
       orientation="1,0"
       id="guide4173"
       inkscape:locked="false" />
    <sodipodi:guide
       position="-54.642858,21.259842"
       orientation="0,1"
       id="guide4176"
       inkscape:label=""
       inkscape:color="rgb(0,0,255)"
       inkscape:locked="false" />
    <sodipodi:guide
       position="0,350.7874"
       orientation="0,1"
       id="guide4178"
       inkscape:label=""
       inkscape:color="rgb(0,0,255)"
       inkscape:locked="false" />
    <sodipodi:guide
       position="30.118111,388.21428"
       orientation="1,0"
       id="guide4180"
       inkscape:label=""
       inkscape:color="rgb(0,0,255)"
       inkscape:locked="false" />
    <sodipodi:guide
       position="232.08662,385.71428"
       orientation="1,0"
       id="guide4182"
       inkscape:label=""
       inkscape:color="rgb(0,0,255)"
       inkscape:locked="false" />
    <sodipodi:guide
       position="40.748033,260.35714"
       orientation="1,0"
       id="guide4252"
       inkscape:label=""
       inkscape:color="rgb(0,0,255)"
       inkscape:locked="false" />
    <sodipodi:guide
       position="221.4567,323.92857"
       orientation="1,0"
       id="guide4254"
       inkscape:label=""
       inkscape:color="rgb(0,0,255)"
       inkscape:locked="false" />
    <sodipodi:guide
       position="-107.14286,340.15748"
       orientation="0,1"
       id="guide4256"
       inkscape:label=""
       inkscape:color="rgb(0,0,255)"
       inkscape:locked="false" />
    <sodipodi:guide
       position="-111.42857,31.889764"
       orientation="0,1"
       id="guide4258"
       inkscape:label=""
       inkscape:color="rgb(0,0,255)"
       inkscape:locked="false" />
    <sodipodi:guide
       position="-60.356616,308.26772"
       orientation="0,1"
       id="guide4262"
       inkscape:label=""
       inkscape:color="rgb(0,0,255)"
       inkscape:locked="false" />
    <sodipodi:guide
       position="-56.063468,297.63779"
       orientation="0,1"
       id="guide4269"
       inkscape:label=""
       inkscape:color="rgb(0,0,255)"
       inkscape:locked="false" />
    <sodipodi:guide
       position="93.897641,308.6016"
       orientation="1,0"
       id="guide4271"
       inkscape:label=""
       inkscape:color="rgb(0,0,255)"
       inkscape:locked="false" />
    <sodipodi:guide
       position="99.212601,340.15748"
       orientation="1,0"
       id="guide4273"
       inkscape:label=""
       inkscape:color="rgb(0,0,255)"
       inkscape:locked="false" />
    <sodipodi:guide
       position="-60.500002,279.92126"
       orientation="0,1"
       id="guide4303"
       inkscape:label=""
       inkscape:color="rgb(0,0,255)"
       inkscape:locked="false" />
    <sodipodi:guide
       position="-102.5,269.29134"
       orientation="0,1"
       id="guide4314"
       inkscape:label=""
       inkscape:color="rgb(0,0,255)"
       inkscape:locked="false" />
    <sodipodi:guide
       position="194.8819,223.95843"
       orientation="1,0"
       id="guide4201"
       inkscape:label=""
       inkscape:color="rgb(0,0,255)"
       inkscape:locked="false" />
    <sodipodi:guide
       position="184.25197,197.75"
       orientation="1,0"
       id="guide4243"
       inkscape:label=""
       inkscape:color="rgb(0,0,255)"
       inkscape:locked="false" />
    <sodipodi:guide
       position="68.74219,102.76562"
       orientation="0,1"
       id="guide4308"
       inkscape:locked="false" />
  </sodipodi:namedview>
  <metadata
     id="metadata7">
    <rdf:RDF>
      <cc:Work
         rdf:about="">
        <dc:format>image/svg+xml</dc:format>
        <dc:type
           rdf:resource="http://purl.org/dc/dcmitype/StillImage" />
        <dc:title />
      </cc:Work>
    </rdf:RDF>
  </metadata>
  <g
     inkscape:label="Cut line"
     inkscape:groupmode="layer"
     id="layer1"
     transform="translate(0,-680.31496)"
     style="display:inline"
     sodipodi:insensitive="true">
    <path
       style="fill:none;fill-rule:evenodd;stroke:#808080;stroke-width:0.708661;stroke-linecap:butt;stroke-linejoin:miter;stroke-miterlimit:4;stroke-dasharray:2.83465, 2.83465;stroke-dashoffset:0;stroke-opacity:1"
       d="M 19.488189,690.94488 V 1041.7323 H 242.71653 V 690.94488 Z"
       id="path3350"
       inkscape:connector-curvature="0"
       transform="translate(4.3385302e-7)" />
  </g>
  <g
     inkscape:groupmode="layer"
     id="layer2"
     inkscape:label="Top Separator"
     style="display:inline"
     sodipodi:insensitive="true">
    <path
       inkscape:connector-curvature="0"
       style="fill:none;fill-opacity:1;stroke:none;stroke-width:0.708661;stroke-miterlimit:4;stroke-dasharray:2.83465, 2.83465;stroke-dashoffset:0;stroke-opacity:1"
       d="m 42.883734,21.259066 c -7.071438,0 -12.765624,6.544709 -12.765624,14.673828 V 74.409453 H 232.08685 V 35.932894 c 0,-8.129119 -5.69224,-14.673828 -12.76367,-14.673828 z"
       id="rect4195-3" />
  </g>
  <g
     inkscape:groupmode="layer"
     id="layer8"
     inkscape:label="Separator"
     style="display:inline"
     sodipodi:insensitive="true">
    <path
       style="display:inline;fill:#37abc8;fill-rule:evenodd;stroke:#000000;stroke-width:0;stroke-linecap:butt;stroke-linejoin:miter;stroke-miterlimit:4;stroke-dasharray:none;stroke-opacity:1"
       d="M 30.118104,74.4155 V 92.1357 H 92.125978 L 102.7559,74.4155 Z"
       id="path4215"
       inkscape:connector-curvature="0" />
    <text
       xml:space="preserve"
       style="font-style:normal;font-weight:normal;line-height:0%;font-family:sans-serif;letter-spacing:0px;word-spacing:0px;display:inline;fill:#000000;fill-opacity:1;stroke:none;stroke-width:1px;stroke-linecap:butt;stroke-linejoin:miter;stroke-opacity:1"
       x="39.935036"
       y="87.871178"
       id="text4180-3"><tspan
         sodipodi:role="line"
         id="tspan4182-6"
         x="39.935036"
         y="87.871178"
         style="font-style:normal;font-variant:normal;font-weight:bold;font-stretch:normal;font-size:12.5px;line-height:1.25;font-family:Lato;-inkscape-font-specification:'Lato Bold';fill:#ffffff">Share</tspan></text>
    <rect
       y="74.419167"
       x="164.76379"
       height="17.716536"
       width="67.322838"
       id="rect4191-7"
       style="display:inline;fill:#e6e6e6;fill-opacity:1;stroke:none;stroke-width:1;stroke-miterlimit:4;stroke-dasharray:none;stroke-dashoffset:0;stroke-opacity:1" />
    <text
       xml:space="preserve"
       style="font-style:normal;font-weight:normal;line-height:0%;font-family:sans-serif;letter-spacing:0px;word-spacing:0px;display:inline;fill:#1a1a1a;fill-opacity:1;stroke:none;stroke-width:1px;stroke-linecap:butt;stroke-linejoin:miter;stroke-opacity:1"
       x="184.26759"
       y="87.799309"
       id="text4193-5"><tspan
         sodipodi:role="line"
         id="tspan4195-3"
         x="184.26759"
         y="87.799309"
         style="font-style:normal;font-variant:normal;font-weight:500;font-stretch:normal;font-size:12.5px;line-height:1.25;font-family:Lato;-inkscape-font-specification:'Lato Medium';fill:#1a1a1a">60 min</tspan></text>
    <path
       inkscape:connector-curvature="0"
       id="path4217"
       d="M 164.7559,92.1357 V 74.4155 H 102.74803 L 92.118108,92.1357 Z"
       style="display:inline;fill:#71c837;fill-opacity:1;fill-rule:evenodd;stroke:#000000;stroke-width:0;stroke-linecap:butt;stroke-linejoin:miter;stroke-miterlimit:4;stroke-dasharray:none;stroke-opacity:1" />
    <text
       id="text4197"
       y="87.871178"
       x="118.29826"
       style="font-style:normal;font-weight:normal;line-height:0%;font-family:sans-serif;letter-spacing:0px;word-spacing:0px;display:inline;fill:#000000;fill-opacity:1;stroke:none;stroke-width:1px;stroke-linecap:butt;stroke-linejoin:miter;stroke-opacity:1"
       xml:space="preserve"><tspan
         style="font-style:normal;font-variant:normal;font-weight:bold;font-stretch:normal;font-size:12.5px;line-height:1.25;font-family:Lato;-inkscape-font-specification:'Lato Bold';fill:#ffffff"
         y="87.871178"
         x="118.29826"
         id="tspan4199"
         sodipodi:role="line">Reveal</tspan></text>
  </g>
  <g
     inkscape:groupmode="layer"
     id="layer7"
     inkscape:label="Title"
     sodipodi:insensitive="true">
    <path
       style="fill:none;fill-rule:evenodd;stroke:none;stroke-width:1px;stroke-linecap:butt;stroke-linejoin:miter;stroke-opacity:1"
       d="m 99.212598,31.889763 v 31.88976 H 221.45669 v -31.88976 z"
       id="path4300_aib"
       inkscape:connector-curvature="0" />
    <text
       xml:space="preserve"
       style="font-style:normal;font-weight:normal;line-height:0.01%;font-family:sans-serif;text-align:start;letter-spacing:0px;word-spacing:0px;text-anchor:start;fill:#000000;fill-opacity:1;stroke:none;stroke-width:1px;stroke-linecap:butt;stroke-linejoin:miter;stroke-opacity:1"
       x="54.863831"
       y="42.763687"
       id="text58"><tspan
         sodipodi:role="line"
         x="146.06592"
         y="42.763687"
         id="tspan56"><tspan
           x="146.06592"
           y="42.763687"
           style="font-weight:bold;font-size:13.375px;line-height:1.25;font-family:Roboto;-inkscape-font-specification:'Roboto Bold';text-align:start;text-anchor:start"
           id="tspan55">Appreciative </tspan></tspan><tspan
         sodipodi:role="line"
         x="159.08173"
         y="59.482437"
         id="tspan58"><tspan
           x="159.08173"
           y="59.482437"
           style="font-weight:bold;font-size:13.375px;line-height:1.25;font-family:Roboto;-inkscape-font-specification:'Roboto Bold';text-align:start;text-anchor:start"
           id="tspan57">Interviews</tspan></tspan></text>
  </g>
  <g
     inkscape:groupmode="layer"
     id="layer6"
     inkscape:label="Logo"
     style="display:inline"
     sodipodi:insensitive="true">
    <path
       style="fill:none;fill-rule:evenodd;stroke:none;stroke-width:1px;stroke-linecap:butt;stroke-linejoin:miter;stroke-opacity:1"
       d="m 40.748032,31.889763 v 31.88976 h 53.149606 v -31.88976 z"
       id="path4213"
       inkscape:connector-curvature="0" />
    <g
       transform="matrix(0.71726949,0,0,0.71726942,-1.497898,-7.6229691)"
       inkscape:label="appreciativeinterviews"
       id="layer11">
      <g
         id="g4701">
        <path
           style="fill:#000000;fill-opacity:1;stroke:#000000;stroke-width:0.264583px;stroke-linecap:butt;stroke-linejoin:miter;stroke-opacity:1"
           d="m 70.893241,95.8174 0.467722,-11.225318 c 0,0 -6.465837,-2.040554 -8.68626,-4.409948 -2.087764,-2.227835 -3.383066,-5.374102 -3.608139,-8.418991 -0.225802,-3.054757 0.619976,-6.351199 2.33861,-8.886711 1.849538,-2.728636 4.920166,-4.584295 7.951269,-5.879928 3.197103,-1.366589 6.8015,-1.765151 10.27841,-1.776393 2.629508,-0.0085 5.280471,0.482304 7.781852,1.293153 1.673754,0.542564 4.724463,2.354125 4.724463,2.354125 0,0 8.330862,-0.3121 12.494852,-0.200451 1.9194,0.05147 3.86376,0.02298 5.74629,0.400904 1.42943,0.286961 2.95876,0.552309 4.14268,1.403165 0.95498,0.686321 1.6635,1.730354 2.13816,2.806329 0.70354,1.594809 0.76812,3.409893 0.93544,5.14494 0.34423,3.569583 0.41981,7.182892 0.13364,10.757598 -0.12448,1.554893 -0.40998,3.100546 -0.80181,4.610399 -0.25479,0.981792 -0.3028,2.138576 -1.00226,2.873147 -0.69591,0.730845 -1.79768,1.104034 -2.80634,1.135896 -2.65961,0.08401 -8.01808,0.200451 -8.01808,0.200451 l 0.23387,11.22532 c 0,0 -2.88984,-2.845609 -4.2274,-4.367447 -1.798257,-2.046013 -5.093634,-6.39015 -5.093634,-6.39015 0,0 -5.459973,-0.03637 -8.720652,-0.07087 -0.924247,-0.0098 -2.194351,-0.04671 -3.070936,-0.613516 C 83.242412,87.147759 82.185379,84.92617 82.185379,84.92617 L 80.38131,84.85935 c 0,0 -3.777851,5.235581 -5.946749,7.617182 -1.092687,1.199846 -3.54132,3.340869 -3.54132,3.340868 z"
           id="path4655"
           inkscape:connector-curvature="0"
           sodipodi:nodetypes="ccaaaaaacaaaaaaaasccacsaccac" />
        <path
           style="fill:#ffffff;fill-opacity:1;stroke:#000000;stroke-width:0.264583px;stroke-linecap:butt;stroke-linejoin:miter;stroke-opacity:1"
           d="m 72.964579,91.073368 0.286842,-8.009981 c 0,0 -5.553808,-0.87537 -9.039918,-4.2176 -1.864203,-1.787263 -2.938911,-4.507968 -3.140416,-7.082644 -0.208661,-2.666119 0.582855,-5.52907 2.071338,-7.750815 1.574431,-2.350033 4.163823,-3.995744 6.748555,-5.144939 2.981699,-1.32569 6.359079,-1.86124 9.621703,-1.80407 6.033003,0.105715 9.500228,2.138156 9.500228,2.138156 0,0 -3.045557,0.322975 -4.422107,0.935445 -0.830335,0.369442 -1.6223,0.906167 -2.204974,1.603616 -0.522987,0.626005 -0.917319,1.401221 -1.06433,2.203584 -0.577625,3.152593 -0.456932,10.171755 -0.07157,15.235754 0.09753,1.281552 0.601359,3.80859 0.601359,3.80859 L 79.312232,83.1221 c 0,0 -2.147587,3.134598 -3.34087,4.610398 -0.942008,1.165034 -3.006783,3.34087 -3.006783,3.34087 z"
           id="path4657"
           inkscape:connector-curvature="0"
           sodipodi:nodetypes="ccsaaascaasaccac" />
        <path
           style="fill:#ffffff;fill-opacity:1;stroke:#000000;stroke-width:0.264583px;stroke-linecap:butt;stroke-linejoin:miter;stroke-opacity:1"
           d="m 83.722177,82.520741 c 0,0 3.847149,-0.911341 5.545844,-1.870884 1.499753,-0.847166 2.885969,-1.980255 3.942226,-3.34087 1.093397,-1.408456 2.036813,-3.053529 2.338607,-4.810853 0.429764,-2.502485 0.05968,-5.20025 -0.853804,-7.569358 -0.599352,-1.55441 -2.919002,-4.056864 -2.919002,-4.056864 0,0 -4.379344,0.170602 -6.316617,1.069078 -0.845968,0.392346 -1.673515,0.995548 -2.138156,1.804069 -0.450647,0.784171 -0.398962,1.770874 -0.467722,2.672694 -0.32179,4.220456 -0.146286,8.482849 0.267269,12.695303 0.112697,1.147928 0.601355,3.407685 0.601355,3.407685 z"
           id="path4659"
           inkscape:connector-curvature="0"
           sodipodi:nodetypes="caaaacaaaac" />
        <path
           style="fill:#ffffff;fill-opacity:1;stroke:#000000;stroke-width:0.264583px;stroke-linecap:butt;stroke-linejoin:miter;stroke-opacity:1"
           d="m 84.123082,84.525264 c 0,0 0.429097,1.031168 0.88009,1.292458 1.565693,0.907109 3.779668,0.682566 5.730779,0.660763 2.245047,-0.02509 6.318294,-0.01552 6.318294,-0.01552 l 6.276785,8.342386 c 0,0 -0.17025,-7.560273 -0.0719,-8.11831 0.0773,-0.43867 0.29248,-0.537627 0.83285,-0.546003 3.0431,-0.04717 3.86364,0.01753 5.79354,-0.05535 1.35114,-0.05102 3.38546,0.0317 4.04749,-0.267272 0.93857,-0.423865 1.11347,-1.86278 1.39575,-2.896771 0.55922,-2.048409 0.48713,-4.224807 0.53454,-6.34765 0.0632,-2.830088 0.0179,-5.676981 -0.33409,-8.485807 -0.17272,-1.37835 -0.30652,-2.805536 -0.86862,-4.075861 -0.35516,-0.802651 -0.82647,-1.622598 -1.53681,-2.138156 -0.83229,-0.604065 -1.92761,-0.754455 -2.93996,-0.935443 -2.87516,-0.514023 -5.83281,-0.347715 -8.75308,-0.400904 -2.382861,-0.0434 -7.149455,0.06682 -7.149455,0.06682 0,0 2.336617,3.626819 2.873147,5.679477 0.524299,2.005864 0.648652,4.176141 0.267269,6.214014 -0.398116,2.127282 -1.324734,4.202473 -2.605876,5.946749 -1.224176,1.666717 -2.881839,3.049616 -4.677217,4.075858 -1.834419,1.048557 -6.013566,2.004521 -6.013566,2.004521 z"
           id="path4661"
           inkscape:connector-curvature="0"
           sodipodi:nodetypes="cssccssasaaaaaaacaaaacc" />
        <path
           style="fill:none;stroke:#000000;stroke-width:1.065;stroke-linecap:round;stroke-linejoin:miter;stroke-miterlimit:4;stroke-dasharray:none;stroke-opacity:1"
           d="m 98.288368,78.578516 c 0,0 2.766222,0.179752 4.142672,0.06682 1.73726,-0.142535 3.40624,-0.811669 5.14494,-0.935443 1.1783,-0.08388 3.54132,0.133634 3.54132,0.133634"
           id="path4663"
           inkscape:connector-curvature="0"
           sodipodi:nodetypes="caac" />
        <path
           style="fill:none;stroke:#000000;stroke-width:1.065;stroke-linecap:round;stroke-linejoin:miter;stroke-miterlimit:4;stroke-dasharray:none;stroke-opacity:1"
           d="m 99.958802,73.968117 c 0,0 1.562808,0.221956 2.338608,0.133636 1.10648,-0.125966 2.10481,-0.777955 3.20724,-0.935445 0.7717,-0.110243 2.3386,0 2.3386,0"
           id="path4665"
           inkscape:connector-curvature="0"
           sodipodi:nodetypes="caac" />
        <path
           style="fill:none;stroke:#000000;stroke-width:1.065;stroke-linecap:round;stroke-linejoin:miter;stroke-miterlimit:4;stroke-dasharray:none;stroke-opacity:1"
           d="m 99.891984,69.357718 c 0,0 1.917646,0.135662 2.873146,0.06682 1.86988,-0.134723 3.67403,-0.830883 5.54584,-0.935442 0.8018,-0.04479 2.40543,0.133633 2.40543,0.133633"
           id="path4667"
           inkscape:connector-curvature="0"
           sodipodi:nodetypes="caac" />
        <path
           style="fill:none;stroke:#000000;stroke-width:1.065;stroke-linecap:round;stroke-linejoin:miter;stroke-miterlimit:4;stroke-dasharray:none;stroke-opacity:1"
           d="m 67.084651,66.818657 c 0,0 1.829959,0.151028 2.739512,0.06682 1.496291,-0.138529 2.915457,-0.77868 4.409948,-0.935442 1.018942,-0.10688 3.073598,0 3.073598,0"
           id="path4669"
           inkscape:connector-curvature="0"
           sodipodi:nodetypes="caac" />
        <path
           style="fill:none;stroke:#000000;stroke-width:1.065;stroke-linecap:round;stroke-linejoin:miter;stroke-miterlimit:4;stroke-dasharray:none;stroke-opacity:1"
           d="m 67.084651,71.362241 c 0,0 2.230857,0.0896 3.34087,0 1.799316,-0.145242 3.544686,-0.741751 5.34539,-0.868627 1.088878,-0.07672 3.274052,0.06682 3.274052,0.06682"
           id="path4671"
           inkscape:connector-curvature="0"
           sodipodi:nodetypes="caac" />
        <path
           style="fill:none;stroke:#000000;stroke-width:1.065;stroke-linecap:round;stroke-linejoin:miter;stroke-miterlimit:4;stroke-dasharray:none;stroke-opacity:1"
           d="m 67.151469,75.905822 c 0,0 1.647046,0.251668 2.472243,0.200451 1.748248,-0.108507 3.398306,-0.937066 5.144936,-1.069078 0.822938,-0.0622 2.472246,0.133636 2.472246,0.133636"
           id="path4673"
           inkscape:connector-curvature="0"
           sodipodi:nodetypes="caac" />
        <path
           style="fill:#000000;fill-opacity:1;stroke:#000000;stroke-width:0.264583px;stroke-linecap:butt;stroke-linejoin:miter;stroke-opacity:1"
           d="m 88.466212,63.544605 c 0.649312,0.0069 1.35556,0.434366 1.670436,1.002263 0.604904,1.09098 0.05971,2.500749 -0.06682,3.741772 -0.183872,1.803498 -1.00226,5.34539 -1.00226,5.34539 -0.291361,0.241808 -0.841801,0.238475 -1.135896,0 0,0 -0.953617,-3.555411 -1.135896,-5.378799 -0.125179,-1.252202 -0.603046,-2.689546 0.03341,-3.775181 0.317854,-0.54218 1.008579,-0.94213 1.637026,-0.935445 z"
           id="path4675"
           inkscape:connector-curvature="0"
           sodipodi:nodetypes="aaassaaa" />
        <circle
           style="opacity:1;fill:#000000;fill-opacity:1;stroke:none;stroke-width:0.5;stroke-miterlimit:4;stroke-dasharray:none;stroke-opacity:1"
           id="path4679"
           cx="88.4161"
           cy="76.457069"
           r="1.8541822" />
      </g>
    </g>
  </g>
  <g
     inkscape:groupmode="layer"
     id="layer5"
     inkscape:label="Border"
     style="display:inline"
     sodipodi:insensitive="true">
    <rect
       style="fill:none;fill-opacity:1;stroke:#000000;stroke-width:0.354331;stroke-miterlimit:4;stroke-dasharray:none;stroke-dashoffset:0;stroke-opacity:1"
       id="rect4187"
       width="201.96851"
       height="329.52756"
       x="30.118111"
       y="21.259844"
       ry="14.6735"
       rx="12.76433" />
  </g>
  <g
     inkscape:groupmode="layer"
     id="layer9"
     inkscape:label="Body"
     style="display:inline"
     sodipodi:insensitive="true">
    <path
       style="fill:none;fill-rule:evenodd;stroke:none;stroke-width:1px;stroke-linecap:butt;stroke-linejoin:miter;stroke-opacity:1"
       d="M 40.748032,102.7559 V 340.15748 H 184.25196 V 102.7559 H 40.748032"
       id="path4245_aib"
       inkscape:connector-curvature="0" />
    <text
       xml:space="preserve"
       style="font-style:normal;font-weight:normal;line-height:0.01%;font-family:sans-serif;letter-spacing:0px;word-spacing:0px;fill:#000000;fill-opacity:1;stroke:none;stroke-width:1px;stroke-linecap:butt;stroke-linejoin:miter;stroke-opacity:1"
       x="40.748047"
       y="110.41211"
       id="text54"><tspan
         sodipodi:role="line"
         x="40.748047"
         y="110.41211"
         id="tspan8"><tspan
           x="40.748047"
           y="110.41211"
           style="font-weight:bold;font-size:8.75px;line-height:1.25;font-family:Roboto;-inkscape-font-specification:'Roboto Bold';fill:#999999"
           id="tspan6">Steps</tspan><tspan
           dx="4.4989014"
           style="font-weight:bold;font-size:8.75px;line-height:1.25;font-family:Roboto;-inkscape-font-specification:'Roboto Bold';fill:#999999"
           id="tspan7" /></tspan><tspan
         sodipodi:role="line"
         x="40.748047"
         y="121.83086"
         id="tspan10"><tspan
           x="40.748047"
           style="font-size:8.75px;line-height:1.25;font-family:Lato;-inkscape-font-specification:Lato;fill:#1a1a1a"
           id="tspan9">In pairs, participants take turns </tspan></tspan><tspan
         sodipodi:role="line"
         x="40.748047"
         y="132.76836"
         id="tspan12"><tspan
           x="40.748047"
           style="font-size:8.75px;line-height:1.25;font-family:Lato;-inkscape-font-specification:Lato;fill:#1a1a1a"
           id="tspan11">conducting an interview and telling a </tspan></tspan><tspan
         sodipodi:role="line"
         x="40.748047"
         y="143.70586"
         id="tspan14"><tspan
           x="40.748047"
           style="font-size:8.75px;line-height:1.25;font-family:Lato;-inkscape-font-specification:Lato;fill:#1a1a1a"
           id="tspan13">success story. Pay attention to what </tspan></tspan><tspan
         sodipodi:role="line"
         x="40.748047"
         y="154.64336"
         id="tspan17"><tspan
           x="40.748047"
           style="font-size:8.75px;line-height:1.25;font-family:Lato;-inkscape-font-specification:Lato;fill:#1a1a1a"
           id="tspan15">made success possible</tspan><tspan
           dx="4.5849991"
           style="font-size:8.75px;line-height:1.25;font-family:Lato;-inkscape-font-specification:Lato;fill:#1a1a1a"
           id="tspan16" /></tspan><tspan
         sodipodi:role="line"
         x="40.748047"
         y="165.58086"
         id="tspan20"><tspan
           x="40.748047"
           style="font-size:8.75px;line-height:1.25;font-family:Lato;-inkscape-font-specification:Lato;fill:#1a1a1a"
           id="tspan18"> </tspan><tspan
           dx="1.6887569"
           style="font-size:8.75px;line-height:1.25;font-family:Lato;-inkscape-font-specification:Lato;fill:#1a1a1a"
           id="tspan19" /></tspan><tspan
         sodipodi:role="line"
         x="40.748047"
         y="176.51836"
         id="tspan22"><tspan
           x="40.748047"
           style="font-size:8.75px;line-height:1.25;font-family:Lato;-inkscape-font-specification:Lato;fill:#1a1a1a"
           id="tspan21">In groups of 4, each person retells the </tspan></tspan><tspan
         sodipodi:role="line"
         x="40.748047"
         y="187.45586"
         id="tspan24"><tspan
           x="40.748047"
           style="font-size:8.75px;line-height:1.25;font-family:Lato;-inkscape-font-specification:Lato;fill:#1a1a1a"
           id="tspan23">story of their partner. Listen for </tspan></tspan><tspan
         sodipodi:role="line"
         x="40.748047"
         y="198.39336"
         id="tspan26"><tspan
           x="40.748047"
           style="font-size:8.75px;line-height:1.25;font-family:Lato;-inkscape-font-specification:Lato;fill:#1a1a1a"
           id="tspan25">patterns in conditions/assets </tspan></tspan><tspan
         sodipodi:role="line"
         x="40.748047"
         y="209.33086"
         id="tspan29"><tspan
           x="40.748047"
           style="font-size:8.75px;line-height:1.25;font-family:Lato;-inkscape-font-specification:Lato;fill:#1a1a1a"
           id="tspan27">supporting success and take notes</tspan><tspan
           dx="3.7975082"
           style="font-size:8.75px;line-height:1.25;font-family:Lato;-inkscape-font-specification:Lato;fill:#1a1a1a"
           id="tspan28" /></tspan><tspan
         sodipodi:role="line"
         x="40.748047"
         y="220.26836"
         id="tspan32"><tspan
           x="40.748047"
           style="font-size:8.75px;line-height:1.25;font-family:Lato;-inkscape-font-specification:Lato;fill:#1a1a1a"
           id="tspan30"> </tspan><tspan
           dx="1.6887569"
           style="font-size:8.75px;line-height:1.25;font-family:Lato;-inkscape-font-specification:Lato;fill:#1a1a1a"
           id="tspan31" /></tspan><tspan
         sodipodi:role="line"
         x="40.748047"
         y="231.20586"
         id="tspan34"><tspan
           x="40.748047"
           style="font-size:8.75px;line-height:1.25;font-family:Lato;-inkscape-font-specification:Lato;fill:#1a1a1a"
           id="tspan33">Collect insights and patterns for the </tspan></tspan><tspan
         sodipodi:role="line"
         x="40.748047"
         y="242.14336"
         id="tspan37"><tspan
           x="40.748047"
           style="font-size:8.75px;line-height:1.25;font-family:Lato;-inkscape-font-specification:Lato;fill:#1a1a1a"
           id="tspan35">whole group on a flip chart</tspan><tspan
           dx="3.2637405"
           style="font-size:8.75px;line-height:1.25;font-family:Lato;-inkscape-font-specification:Lato;fill:#1a1a1a"
           id="tspan36" /></tspan><tspan
         sodipodi:role="line"
         x="40.748047"
         y="253.08086"
         id="tspan40"><tspan
           x="40.748047"
           style="font-size:8.75px;line-height:1.25;font-family:Lato;-inkscape-font-specification:Lato;fill:#1a1a1a"
           id="tspan38"> </tspan><tspan
           dx="1.6887569"
           style="font-size:8.75px;line-height:1.25;font-family:Lato;-inkscape-font-specification:Lato;fill:#1a1a1a"
           id="tspan39" /></tspan><tspan
         sodipodi:role="line"
         x="40.748047"
         y="264.01837"
         id="tspan42"><tspan
           x="40.748047"
           style="font-size:8.75px;line-height:1.25;font-family:Lato;-inkscape-font-specification:Lato;fill:#1a1a1a"
           id="tspan41">Ask: “How are we investing in the </tspan></tspan><tspan
         sodipodi:role="line"
         x="40.748047"
         y="274.95587"
         id="tspan44"><tspan
           x="40.748047"
           style="font-size:8.75px;line-height:1.25;font-family:Lato;-inkscape-font-specification:Lato;fill:#1a1a1a"
           id="tspan43">assets and conditions that foster </tspan></tspan><tspan
         sodipodi:role="line"
         x="40.748047"
         y="285.89337"
         id="tspan46"><tspan
           x="40.748047"
           style="font-size:8.75px;line-height:1.25;font-family:Lato;-inkscape-font-specification:Lato;fill:#1a1a1a"
           id="tspan45">success?” and “What opportunities do </tspan></tspan><tspan
         sodipodi:role="line"
         x="40.748047"
         y="296.83087"
         id="tspan49"><tspan
           x="40.748047"
           style="font-size:8.75px;line-height:1.25;font-family:Lato;-inkscape-font-specification:Lato;fill:#1a1a1a"
           id="tspan47">you see to do more?”</tspan><tspan
           dx="3.1849976"
           style="font-size:8.75px;line-height:1.25;font-family:Lato;-inkscape-font-specification:Lato;fill:#1a1a1a"
           id="tspan48" /></tspan><tspan
         sodipodi:role="line"
         x="40.748047"
         y="307.76837"
         id="tspan52"><tspan
           x="40.748047"
           style="font-size:8.75px;line-height:1.25;font-family:Lato;-inkscape-font-specification:Lato;fill:#1a1a1a"
           id="tspan50">Use 1-2-4-All to discuss</tspan><tspan
           dx="3.797493"
           style="font-size:8.75px;line-height:1.25;font-family:Lato;-inkscape-font-specification:Lato;fill:#1a1a1a"
           id="tspan51" /></tspan><tspan
         sodipodi:role="line"
         x="40.748047"
         y="318.70587"
         id="tspan54"><tspan
           x="40.748047"
           style="font-size:8.75px;line-height:1.25;font-family:Lato;-inkscape-font-specification:Lato;fill:#1a1a1a"
           id="tspan53"> </tspan></tspan></text>
  </g>
  <g
     inkscape:groupmode="layer"
     id="layer4"
     inkscape:label="Body Right"
     style="display:inline"
     sodipodi:insensitive="true">
    <text
       id="text4227"
       y="122.74852"
       x="195.42134"
       style="font-style:normal;font-weight:normal;line-height:0%;font-family:sans-serif;letter-spacing:0px;word-spacing:0px;fill:#1a1a1a;fill-opacity:1;stroke:none;stroke-width:1px;stroke-linecap:butt;stroke-linejoin:miter;stroke-opacity:1"
       xml:space="preserve"><tspan
         style="font-style:normal;font-variant:normal;font-weight:500;font-stretch:normal;font-size:8.75px;line-height:1.25;font-family:Lato;-inkscape-font-specification:'Lato Medium';fill:#1a1a1a"
         y="122.74852"
         x="195.42134"
         id="tspan4229"
         sodipodi:role="line">20 min</tspan></text>
    <text
       id="text4231"
       y="177.32204"
       x="195.42134"
       style="font-style:normal;font-weight:normal;line-height:0%;font-family:sans-serif;letter-spacing:0px;word-spacing:0px;fill:#1a1a1a;fill-opacity:1;stroke:none;stroke-width:1px;stroke-linecap:butt;stroke-linejoin:miter;stroke-opacity:1"
       xml:space="preserve"><tspan
         style="font-style:normal;font-variant:normal;font-weight:500;font-stretch:normal;font-size:8.75px;line-height:1.25;font-family:Lato;-inkscape-font-specification:'Lato Medium';fill:#1a1a1a"
         y="177.32204"
         x="195.42134"
         id="tspan4233"
         sodipodi:role="line">15 min</tspan></text>
    <path
       style="fill:none;fill-rule:evenodd;stroke:none;stroke-width:1px;stroke-linecap:butt;stroke-linejoin:miter;stroke-opacity:1"
       d="m 194.88189,102.7559 v 237.40158 h 26.5748 V 102.7559 Z"
       id="path4239"
       inkscape:connector-curvature="0" />
    <text
       xml:space="preserve"
       style="font-style:normal;font-weight:normal;line-height:0%;font-family:sans-serif;letter-spacing:0px;word-spacing:0px;fill:#1a1a1a;fill-opacity:1;stroke:none;stroke-width:1px;stroke-linecap:butt;stroke-linejoin:miter;stroke-opacity:1"
       x="195.42134"
       y="231.9926"
       id="text4424"><tspan
         sodipodi:role="line"
         id="tspan4426"
         x="195.42134"
         y="231.9926"
         style="font-style:normal;font-variant:normal;font-weight:500;font-stretch:normal;font-size:8.75px;line-height:1.25;font-family:Lato;-inkscape-font-specification:'Lato Medium';fill:#1a1a1a">15 min</tspan></text>
    <text
       id="text4428"
       y="264.76987"
       x="195.42134"
       style="font-style:normal;font-weight:normal;line-height:0%;font-family:sans-serif;letter-spacing:0px;word-spacing:0px;fill:#1a1a1a;fill-opacity:1;stroke:none;stroke-width:1px;stroke-linecap:butt;stroke-linejoin:miter;stroke-opacity:1"
       xml:space="preserve"><tspan
         style="font-style:normal;font-variant:normal;font-weight:500;font-stretch:normal;font-size:8.75px;line-height:1.25;font-family:Lato;-inkscape-font-specification:'Lato Medium';fill:#1a1a1a"
         y="264.76987"
         x="195.42134"
         id="tspan4430"
         sodipodi:role="line">10 min</tspan></text>
  </g>
  <g
     inkscape:groupmode="layer"
     id="layer10"
     inkscape:label="String With"
     style="display:inline"
     sodipodi:insensitive="true">
    <path
       style="fill:none;fill-rule:evenodd;stroke:none;stroke-width:1px;stroke-linecap:butt;stroke-linejoin:miter;stroke-opacity:1"
       d="m 40.748032,269.28162 v 70.87586 H 221.45669 v -70.87586 z"
       id="path4343_aib"
       inkscape:connector-curvature="0" />
    <text
       xml:space="preserve"
       style="font-style:normal;font-weight:normal;line-height:0.01%;font-family:sans-serif;letter-spacing:0px;word-spacing:0px;fill:#000000;fill-opacity:1;stroke:none;stroke-width:1px;stroke-linecap:butt;stroke-linejoin:miter;stroke-opacity:1"
       x="40.748047"
       y="326.34375"
       id="text5"><tspan
         sodipodi:role="line"
         x="40.748047"
         y="326.34375"
         id="tspan3"><tspan
           x="40.748047"
           y="326.34375"
           style="font-weight:bold;font-size:8.75px;line-height:1.25;font-family:Roboto;-inkscape-font-specification:'Roboto Bold';fill:#999999"
           id="tspan1">String With</tspan><tspan
           dx="0"
           x="84.493774"
           y="326.34375"
           style="font-weight:bold;font-size:8.75px;line-height:1.25;font-family:Roboto;-inkscape-font-specification:'Roboto Bold';fill:#999999"
           id="tspan2" /></tspan><tspan
         sodipodi:role="line"
         x="40.748047"
         y="337.76251"
         id="tspan5"><tspan
           x="40.748047"
           y="337.76251"
           style="font-size:8.75px;line-height:1.25;font-family:Lato;-inkscape-font-specification:Lato;fill:#1a1a1a"
           id="tspan4">Min Specs</tspan></tspan></text>
    <g
       transform="matrix(0.23497936,0,0,0.23497936,40.458259,326.71048)"
       style="display:inline"
       inkscape:label="minspecs"
       id="layer15">
      <g
         id="g4931">
        <path
           style="fill:#000000;fill-opacity:1;stroke:#000000;stroke-width:0.264583px;stroke-linecap:butt;stroke-linejoin:miter;stroke-opacity:1"
           d="m 171.11931,20.380578 c 0,0 4.53662,-5.327516 7.34991,-7.349912 3.25125,-2.337227 6.90764,-4.2449275 10.7576,-5.3453905 4.25961,-1.2175549 8.85329,-1.9569432 13.22984,-1.2695301 3.66627,0.5758524 7.48299,1.9069159 10.22306,4.4099476 3.03163,2.769365 4.67295,6.899701 5.87993,10.824415 1.12504,3.65828 1.1359,11.425772 1.1359,11.425772 0,0 -6.88219,1.126325 -10.3567,1.336349 -2.93469,0.177394 -8.81989,-0.06682 -8.81989,-0.06682 0,0 -0.77788,6.068749 -0.80181,9.120571 -0.0267,3.40527 0.73499,10.189652 0.73499,10.189652 0,0 -3.21306,2.052263 -7.96273,1.642758 -4.77826,-0.41197 -7.20481,-3.045923 -7.20481,-3.045923 0,0 2.11785,-7.132278 2.93996,-10.757598 0.6908,-3.046284 1.67044,-9.220798 1.67044,-9.220798 0,0 -6.91194,-2.649047 -10.02261,-4.610402 -3.21067,-2.02441 -8.75308,-7.283091 -8.75308,-7.283091 z"
           id="path4913"
           inkscape:connector-curvature="0"
           sodipodi:nodetypes="caaaaacacacscacac" />
        <path
           style="fill:#ffffff;fill-opacity:1;stroke:#000000;stroke-width:0.264583px;stroke-linecap:butt;stroke-linejoin:miter;stroke-opacity:1"
           d="m 186.55413,51.383842 c 0,0 2.63131,-8.479543 3.4745,-12.828936 0.84575,-4.362584 1.57595,-13.237948 1.57595,-13.237948 0,0 2.43752,-0.384739 3.63581,-0.192346 1.69361,0.271921 4.79533,1.866833 4.79533,1.866833 0,0 -0.30531,5.484601 -0.51902,8.222591 -0.22455,2.876802 -0.76546,5.734119 -0.80181,8.619442 -0.0374,2.968777 0.60136,8.886714 0.60136,8.886714 0,0 -2.61488,1.336888 -6.48129,0.907766 -4.57971,-0.50829 -6.28083,-2.244116 -6.28083,-2.244116 z"
           id="path4915"
           inkscape:connector-curvature="0"
           sodipodi:nodetypes="cacacaacsc" />
        <path
           style="fill:#ffffff;fill-opacity:1;stroke:#000000;stroke-width:0.264583px;stroke-linecap:butt;stroke-linejoin:miter;stroke-opacity:1"
           d="m 173.34933,19.654756 c 0,0 9.81731,-1.278425 14.69382,-0.755952 4.96491,0.531945 9.83139,2.042247 14.45759,3.921503 5.5909,2.271135 15.82775,8.787947 15.82775,8.787947 0,0 -0.24414,-7.653672 -1.41741,-11.244792 -1.02897,-3.149456 -2.32877,-6.508125 -4.81919,-8.693453 -2.83792,-2.4902509 -6.7855,-3.7239095 -10.53609,-4.1577377 -4.85425,-0.5614876 -10.18423,0.4574982 -14.50484,2.126116 -2.80258,1.0823567 -5.65114,2.6198587 -8.12593,4.4734117 -2.0976,1.571045 -5.5757,5.542957 -5.5757,5.542957 z"
           id="path4917"
           inkscape:connector-curvature="0"
           sodipodi:nodetypes="caacaaasac" />
        <circle
           style="opacity:1;fill:#000008;fill-opacity:1;stroke:none;stroke-width:0.104396;stroke-linecap:round;stroke-miterlimit:4;stroke-dasharray:none;stroke-opacity:1"
           id="path4919"
           cx="186.43719"
           cy="14.3169"
           r="1.5869129" />
        <circle
           style="opacity:1;fill:#000008;fill-opacity:1;stroke:none;stroke-width:0.10708;stroke-linecap:round;stroke-miterlimit:4;stroke-dasharray:none;stroke-opacity:1"
           id="path4921"
           cx="203.10814"
           cy="11.711022"
           r="2.0212257" />
        <circle
           style="opacity:1;fill:#000008;fill-opacity:1;stroke:none;stroke-width:0.105376;stroke-linecap:round;stroke-miterlimit:4;stroke-dasharray:none;stroke-opacity:1"
           id="path4923"
           cx="210.10727"
           cy="21.249203"
           r="1.6370258" />
      </g>
    </g>
  </g>
</svg>
