<?xml version="1.0" encoding="UTF-8" standalone="no"?>
<!-- Created with Inkscape (http://www.inkscape.org/) -->

<svg
   width="74mm"
   height="105mm"
   viewBox="0 0 262.20472 372.04724"
   id="svg2"
   version="1.1"
   inkscape:version="1.3.2 (091e20e, 2023-11-25, custom)"
   sodipodi:docname="impromptu-networking-back.svg"
   enable-background="new"
   style="background-color:white"
   xmlns:inkscape="http://www.inkscape.org/namespaces/inkscape"
   xmlns:sodipodi="http://sodipodi.sourceforge.net/DTD/sodipodi-0.dtd"
   xmlns="http://www.w3.org/2000/svg"
   xmlns:svg="http://www.w3.org/2000/svg"
   xmlns:rdf="http://www.w3.org/1999/02/22-rdf-syntax-ns#"
   xmlns:cc="http://creativecommons.org/ns#"
   xmlns:dc="http://purl.org/dc/elements/1.1/">
  <defs
     id="defs4" />
  <sodipodi:namedview
     id="base"
     pagecolor="#ffffff"
     bordercolor="#666666"
     borderopacity="1.0"
     inkscape:pageopacity="1"
     inkscape:pageshadow="2"
     inkscape:zoom="2"
     inkscape:cx="178.75"
     inkscape:cy="179.25"
     inkscape:document-units="mm"
     inkscape:current-layer="layer7"
     showgrid="false"
     showguides="false"
     inkscape:guide-bbox="true"
     inkscape:snap-bbox="false"
     inkscape:bbox-nodes="true"
     inkscape:object-nodes="true"
     inkscape:snap-page="true"
     inkscape:snap-grids="false"
     inkscape:window-width="1920"
     inkscape:window-height="1017"
     inkscape:window-x="-8"
     inkscape:window-y="-8"
     inkscape:window-maximized="1"
     inkscape:snap-others="false"
     inkscape:snap-nodes="true"
     inkscape:showpageshadow="2"
     inkscape:pagecheckerboard="0"
     inkscape:deskcolor="#d1d1d1">
    <sodipodi:guide
       position="19.48819,143.57143"
       orientation="1,0"
       id="guide3342"
       inkscape:label=""
       inkscape:color="rgb(0,0,255)"
       inkscape:locked="false" />
    <sodipodi:guide
       position="242.71654,160.71429"
       orientation="1,0"
       id="guide3344"
       inkscape:label=""
       inkscape:color="rgb(0,0,255)"
       inkscape:locked="false" />
    <sodipodi:guide
       position="100.71429,10.629921"
       orientation="0,1"
       id="guide3346"
       inkscape:label=""
       inkscape:color="rgb(0,0,255)"
       inkscape:locked="false" />
    <sodipodi:guide
       position="75.714288,361.41732"
       orientation="0,1"
       id="guide3348"
       inkscape:label=""
       inkscape:color="rgb(0,0,255)"
       inkscape:locked="false" />
    <sodipodi:guide
       position="242.71654,289.15617"
       orientation="1,0"
       id="guide4173"
       inkscape:locked="false" />
    <sodipodi:guide
       position="-54.642858,21.259842"
       orientation="0,1"
       id="guide4176"
       inkscape:label=""
       inkscape:color="rgb(0,0,255)"
       inkscape:locked="false" />
    <sodipodi:guide
       position="0,350.7874"
       orientation="0,1"
       id="guide4178"
       inkscape:label=""
       inkscape:color="rgb(0,0,255)"
       inkscape:locked="false" />
    <sodipodi:guide
       position="30.118111,388.21428"
       orientation="1,0"
       id="guide4180"
       inkscape:label=""
       inkscape:color="rgb(0,0,255)"
       inkscape:locked="false" />
    <sodipodi:guide
       position="232.08662,385.71428"
       orientation="1,0"
       id="guide4182"
       inkscape:label=""
       inkscape:color="rgb(0,0,255)"
       inkscape:locked="false" />
    <sodipodi:guide
       position="40.748033,260.35714"
       orientation="1,0"
       id="guide4252"
       inkscape:label=""
       inkscape:color="rgb(0,0,255)"
       inkscape:locked="false" />
    <sodipodi:guide
       position="221.4567,323.92857"
       orientation="1,0"
       id="guide4254"
       inkscape:label=""
       inkscape:color="rgb(0,0,255)"
       inkscape:locked="false" />
    <sodipodi:guide
       position="-107.14286,340.15748"
       orientation="0,1"
       id="guide4256"
       inkscape:label=""
       inkscape:color="rgb(0,0,255)"
       inkscape:locked="false" />
    <sodipodi:guide
       position="-111.42857,31.889764"
       orientation="0,1"
       id="guide4258"
       inkscape:label=""
       inkscape:color="rgb(0,0,255)"
       inkscape:locked="false" />
    <sodipodi:guide
       position="-60.356616,308.26772"
       orientation="0,1"
       id="guide4262"
       inkscape:label=""
       inkscape:color="rgb(0,0,255)"
       inkscape:locked="false" />
    <sodipodi:guide
       position="-56.063468,297.63779"
       orientation="0,1"
       id="guide4269"
       inkscape:label=""
       inkscape:color="rgb(0,0,255)"
       inkscape:locked="false" />
    <sodipodi:guide
       position="93.897641,308.6016"
       orientation="1,0"
       id="guide4271"
       inkscape:label=""
       inkscape:color="rgb(0,0,255)"
       inkscape:locked="false" />
    <sodipodi:guide
       position="99.212601,340.15748"
       orientation="1,0"
       id="guide4273"
       inkscape:label=""
       inkscape:color="rgb(0,0,255)"
       inkscape:locked="false" />
    <sodipodi:guide
       position="-60.500002,279.92126"
       orientation="0,1"
       id="guide4303"
       inkscape:label=""
       inkscape:color="rgb(0,0,255)"
       inkscape:locked="false" />
    <sodipodi:guide
       position="-102.5,269.29134"
       orientation="0,1"
       id="guide4314"
       inkscape:label=""
       inkscape:color="rgb(0,0,255)"
       inkscape:locked="false" />
    <sodipodi:guide
       position="194.8819,223.95843"
       orientation="1,0"
       id="guide4201"
       inkscape:label=""
       inkscape:color="rgb(0,0,255)"
       inkscape:locked="false" />
    <sodipodi:guide
       position="184.25197,197.75"
       orientation="1,0"
       id="guide4243"
       inkscape:label=""
       inkscape:color="rgb(0,0,255)"
       inkscape:locked="false" />
    <sodipodi:guide
       position="68.74219,102.76562"
       orientation="0,1"
       id="guide4308"
       inkscape:locked="false" />
    <sodipodi:guide
       position="140.3607,216.55145"
       orientation="0,1"
       id="guide4421"
       inkscape:locked="false" />
  </sodipodi:namedview>
  <metadata
     id="metadata7">
    <rdf:RDF>
      <cc:Work
         rdf:about="">
        <dc:format>image/svg+xml</dc:format>
        <dc:type
           rdf:resource="http://purl.org/dc/dcmitype/StillImage" />
        <dc:title />
      </cc:Work>
    </rdf:RDF>
  </metadata>
  <g
     inkscape:label="Cut line"
     inkscape:groupmode="layer"
     id="layer1"
     transform="translate(0,-680.31496)"
     style="display:inline"
     sodipodi:insensitive="true">
    <path
       style="fill:none;fill-rule:evenodd;stroke:#808080;stroke-width:0.708661;stroke-linecap:butt;stroke-linejoin:miter;stroke-miterlimit:4;stroke-dasharray:2.83465, 2.83465;stroke-dashoffset:0;stroke-opacity:1"
       d="M 19.488189,690.94488 V 1041.7323 H 242.71653 V 690.94488 Z"
       id="path3350"
       inkscape:connector-curvature="0"
       transform="translate(4.3385302e-7)" />
  </g>
  <g
     inkscape:groupmode="layer"
     id="layer2"
     inkscape:label="Top Separator"
     style="display:inline"
     sodipodi:insensitive="true">
    <path
       inkscape:connector-curvature="0"
       style="fill:none;fill-opacity:1;stroke:none;stroke-width:0.708661;stroke-miterlimit:4;stroke-dasharray:2.83465, 2.83465;stroke-dashoffset:0;stroke-opacity:1"
       d="m 42.883734,21.259066 c -7.071438,0 -12.765624,6.544709 -12.765624,14.673828 V 74.409453 H 232.08685 V 35.932894 c 0,-8.129119 -5.69224,-14.673828 -12.76367,-14.673828 z"
       id="rect4195-3" />
  </g>
  <g
     inkscape:groupmode="layer"
     id="layer8"
     inkscape:label="Separator"
     style="display:inline"
     sodipodi:insensitive="true">
    <rect
       style="display:inline;fill:#37abc8;fill-opacity:1;stroke:none;stroke-width:1;stroke-miterlimit:4;stroke-dasharray:none;stroke-dashoffset:0;stroke-opacity:1"
       id="rect4178"
       width="134.64568"
       height="17.716536"
       x="30.118084"
       y="74.409447" />
    <text
       xml:space="preserve"
       style="font-style:normal;font-weight:normal;line-height:0%;font-family:sans-serif;letter-spacing:0px;word-spacing:0px;display:inline;fill:#000000;fill-opacity:1;stroke:none;stroke-width:1px;stroke-linecap:butt;stroke-linejoin:miter;stroke-opacity:1"
       x="39.935017"
       y="87.861458"
       id="text4180"><tspan
         sodipodi:role="line"
         id="tspan4182"
         x="39.935017"
         y="87.861458"
         style="font-style:normal;font-variant:normal;font-weight:bold;font-stretch:normal;font-size:12.5px;line-height:1.25;font-family:Lato;-inkscape-font-specification:'Lato Bold';fill:#ffffff">Share</tspan></text>
    <rect
       y="74.409447"
       x="164.76376"
       height="17.716536"
       width="67.322838"
       id="rect4191"
       style="display:inline;fill:#e6e6e6;fill-opacity:1;stroke:none;stroke-width:1;stroke-miterlimit:4;stroke-dasharray:none;stroke-dashoffset:0;stroke-opacity:1" />
    <text
       xml:space="preserve"
       style="font-style:normal;font-weight:normal;line-height:0%;font-family:sans-serif;letter-spacing:0px;word-spacing:0px;fill:#1a1a1a;fill-opacity:1;stroke:none;stroke-width:1px;stroke-linecap:butt;stroke-linejoin:miter;stroke-opacity:1"
       x="184.26756"
       y="87.789589"
       id="text4193"><tspan
         sodipodi:role="line"
         id="tspan4195"
         x="184.26756"
         y="87.789589"
         style="font-style:normal;font-variant:normal;font-weight:500;font-stretch:normal;font-size:12.5px;line-height:1.25;font-family:Lato;-inkscape-font-specification:'Lato Medium';fill:#1a1a1a">20 min</tspan></text>
  </g>
  <g
     inkscape:groupmode="layer"
     id="layer7"
     inkscape:label="Title"
     sodipodi:insensitive="true">
    <path
       style="fill:none;fill-rule:evenodd;stroke:none;stroke-width:1px;stroke-linecap:butt;stroke-linejoin:miter;stroke-opacity:1"
       d="m 99.212598,31.889763 v 31.88976 H 221.45669 v -31.88976 z"
       id="path4300_inb"
       inkscape:connector-curvature="0" />
    <text
       xml:space="preserve"
       style="font-style:normal;font-weight:normal;line-height:0.01%;font-family:sans-serif;text-align:start;letter-spacing:0px;word-spacing:0px;text-anchor:start;fill:#000000;fill-opacity:1;stroke:none;stroke-width:1px;stroke-linecap:butt;stroke-linejoin:miter;stroke-opacity:1"
       x="87.080078"
       y="41.258347"
       id="text27"><tspan
         sodipodi:role="line"
         x="155.13062"
         y="41.258347"
         id="tspan25"><tspan
           x="155.13062"
           y="41.258347"
           style="font-weight:bold;font-size:13.375px;line-height:1.25;font-family:Roboto;-inkscape-font-specification:'Roboto Bold';text-align:start;text-anchor:start"
           id="tspan24">Impromptu </tspan></tspan><tspan
         sodipodi:role="line"
         x="152.17871"
         y="57.977097"
         id="tspan27"><tspan
           x="152.17871"
           y="57.977097"
           style="font-weight:bold;font-size:13.375px;line-height:1.25;font-family:Roboto;-inkscape-font-specification:'Roboto Bold';text-align:start;text-anchor:start"
           id="tspan26">Networking</tspan></tspan></text>
  </g>
  <g
     inkscape:groupmode="layer"
     id="layer6"
     inkscape:label="Logo"
     style="display:inline"
     sodipodi:insensitive="true">
    <path
       style="fill:none;fill-rule:evenodd;stroke:none;stroke-width:1px;stroke-linecap:butt;stroke-linejoin:miter;stroke-opacity:1"
       d="m 40.748032,31.889763 v 31.88976 h 53.149606 v -31.88976 z"
       id="path4213"
       inkscape:connector-curvature="0" />
    <g
       transform="matrix(0.66086864,0,0,0.66086864,38.844133,-61.519852)"
       style="display:inline"
       inkscape:label="ImpromptuNetworking"
       id="layer2-3">
      <g
         id="g4617">
        <path
           style="opacity:1;fill:#ffffff;fill-opacity:1;stroke:none;stroke-width:0.063234;stroke-miterlimit:4;stroke-dasharray:none;stroke-opacity:1"
           d="m 68.475035,556.96498 c -0.685595,0.0149 -1.164509,0.60013 -1.836451,0.67278 -0.955538,0.2641 -1.974688,0.13552 -2.915287,0.44367 -0.397547,0.14324 -0.636502,0.52101 -0.930494,0.77734 -0.600994,0.13824 -1.290604,0.28789 -1.61982,0.87828 -0.08532,0.30535 -0.314491,0.43132 -0.564643,0.59096 -0.358881,0.23865 -0.470015,0.68303 -0.666826,1.01854 -0.687506,0.54655 -0.959389,1.40692 -1.112623,2.23696 -0.260452,0.65448 -0.812154,1.18736 -0.846397,1.92905 -0.215206,2.19769 -0.231977,4.4181 -0.08965,6.62149 0.02901,0.71137 0.265731,1.4398 0.81829,1.91425 0.325583,0.48132 0.297992,1.13371 0.755518,1.54174 0.263817,0.22239 0.537066,0.40096 0.661272,0.74006 0.20564,0.40117 0.608239,0.63774 0.968758,0.85286 0.260558,0.44075 0.718855,0.70139 1.160837,0.91088 0.329526,0.41149 0.918473,0.86338 1.337909,0.90954 0.581244,0.14157 1.124669,0.39368 1.593531,0.76353 0.985639,0.45154 2.089531,0.5488 3.137737,0.79054 0.754583,0.0943 1.484424,0.31043 2.227465,0.4518 1.312063,0.0322 2.658888,0.083 3.91841,-0.35241 1.111622,-0.327 2.26193,-0.49416 3.384973,-0.76354 0.54672,-0.17889 0.892224,-0.69339 1.470838,-0.81138 0.561476,-0.15656 1.171824,-0.37404 1.47392,-0.91323 0.495541,-0.18183 0.95478,-0.50382 1.207694,-0.97772 0.621715,-0.25022 0.992939,-0.85043 1.238153,-1.43261 0.610434,-0.43146 0.746337,-1.18623 0.886102,-1.86666 0.315694,-1.07574 0.876133,-2.14276 0.679806,-3.30001 -0.162244,-0.96576 -0.693331,-1.84888 -0.697857,-2.85057 -0.01195,-0.69747 -0.318311,-1.34253 -0.780995,-1.85259 -0.379218,-0.48943 -0.453924,-1.16503 -0.984627,-1.54494 -0.279466,-0.27161 -0.307303,-0.73038 -0.60656,-1.00313 -0.437804,-0.42314 -0.843881,-0.87833 -1.243731,-1.33522 -0.305583,-0.2177 -0.618615,-0.40032 -0.874852,-0.68089 -0.267987,-0.20206 -0.564585,-0.33612 -0.691767,-0.66772 -0.325018,-0.44407 -0.851148,-0.69295 -1.371327,-0.80016 -0.508728,-0.53129 -1.176703,-0.87499 -1.904024,-0.98265 -0.474601,-0.03 -0.672935,-0.54207 -1.099429,-0.68585 -1.028911,-0.46131 -2.199977,-0.27305 -3.277025,-0.5491 -0.965702,-0.10957 -1.82285,-0.68919 -2.806825,-0.67389 z m 14.525381,8.38592 c 0.04795,0.20416 0.01274,0.0608 0,0 z m -2.105389,12.63838 c -0.09007,0.19311 0.07392,-0.17071 0,0 z"
           id="path4592"
           inkscape:connector-curvature="0"
           transform="scale(0.26458333)" />
        <path
           style="opacity:1;fill:#ffffff;fill-opacity:1;stroke:none;stroke-width:0.126468;stroke-miterlimit:4;stroke-dasharray:none;stroke-opacity:1"
           d="m 142.52554,537.33011 c -1.52505,0.005 -3.00902,0.43176 -4.48896,0.73566 -0.70172,0.2465 -1.0041,0.96901 -1.66961,1.26984 -0.4823,0.68264 -1.2611,1.17038 -1.48909,2.02302 -1.36643,1.24704 -0.88244,3.28264 -1.61684,4.83201 -0.39618,1.37729 -0.51865,3.00129 0.17634,4.30104 0.5858,0.71275 0.36191,1.81427 1.15812,2.41514 0.5012,0.6388 0.73103,1.49491 1.47034,1.92536 0.29755,0.93133 1.33128,1.08503 1.9387,1.72055 0.50277,0.39378 1.12418,0.58421 1.5083,1.11705 0.64956,0.47025 1.5301,0.43606 2.12487,1.02076 2.03054,0.8775 4.33992,0.69008 6.49176,0.4994 0.95914,-0.0792 1.87673,-0.39987 2.71824,-0.82691 0.71359,-0.32032 1.51134,-0.54035 2.0023,-1.1998 0.90243,-0.3808 1.43103,-1.2257 2.04842,-1.93029 0.34909,-0.58837 1.13931,-0.94515 1.14357,-1.74508 0.34778,-1.00418 1.16386,-1.86511 1.00005,-3.0053 0.0183,-1.36261 -0.0509,-2.77281 -0.75589,-3.97945 -0.31294,-0.77704 -0.3311,-1.72803 -1.07822,-2.26323 -0.64328,-1.0829 -1.32867,-2.19671 -2.3128,-2.99568 -0.6585,-0.41173 -1.13473,-1.10238 -1.89305,-1.38304 -0.39137,-0.71045 -1.22262,-0.84952 -1.91894,-1.05331 -1.12094,-1.13351 -2.82234,-0.91313 -4.24728,-1.30141 -0.76373,-0.12024 -1.53705,-0.18236 -2.31033,-0.17633 z"
           id="path4594"
           inkscape:connector-curvature="0"
           transform="scale(0.26458333)" />
        <path
           style="opacity:1;fill:#ffffff;fill-opacity:1;stroke:none;stroke-width:0.0894263;stroke-miterlimit:4;stroke-dasharray:none;stroke-opacity:1"
           d="m 147.85957,570.91327 c -0.93538,0.014 -1.97337,0.0286 -2.6852,0.72998 -0.77689,0.31116 -1.7869,0.38232 -2.17389,1.25854 -0.57225,0.27989 -0.97253,0.81742 -1.21757,1.39352 -1.02434,0.84839 -0.88034,2.28093 -1.10909,3.45215 -0.70376,0.15818 -1.39841,0.40407 -1.99376,0.80183 -1.17297,0.29397 -2.48853,0.25508 -3.49365,1.00655 -1.10162,0.3954 -2.49119,0.11387 -3.36513,1.04144 -1.2022,0.2993 -2.55998,0.21327 -3.59288,0.99487 -1.11034,0.24761 -2.3541,0.21646 -3.27811,0.9729 -1.14648,0.37807 -2.49547,0.20961 -3.48441,0.99697 -1.1577,0.33644 -2.56377,0.12712 -3.48232,1.0444 -1.197,0.27482 -2.51789,0.25684 -3.54719,1.013 -1.09991,0.25772 -2.42558,0.12165 -3.27201,1.00708 -1.13178,0.24027 -2.4185,0.15306 -3.35815,0.91553 -1.22919,0.3607 -2.68152,0.20143 -3.69298,1.09933 -1.11735,0.2596 -2.39873,0.16208 -3.32449,0.94134 -1.151631,0.3057 -2.491387,0.19429 -3.447967,0.99749 -1.126065,0.25088 -2.354001,0.29399 -3.337751,0.95075 -1.198403,0.42655 -2.700656,0.13489 -3.673445,1.08189 -1.074999,0.27194 -2.301151,0.21125 -3.218296,0.90821 -1.175789,0.33344 -2.485575,0.30809 -3.519811,1.03341 -0.958924,0.29856 -2.036521,0.19197 -2.927595,0.68115 -0.581669,0.54712 -1.454736,0.42472 -2.180001,0.60634 -0.440363,0.0147 -1.004074,0.2984 -1.294966,-0.16692 -0.704177,-0.75871 -1.465903,-1.47095 -2.333138,-2.03244 -0.998617,-1.01468 -2.562815,-0.81077 -3.861258,-0.92756 -1.347373,-0.005 -2.901926,-0.0591 -3.947406,0.94186 -0.793971,0.44803 -1.555856,0.98374 -2.041015,1.77595 -0.697226,0.6371 -1.131102,1.48744 -1.320789,2.40727 -0.383304,1.05736 -0.592299,2.20752 -0.254267,3.30946 0.37558,1.22812 0.360681,2.74795 1.499198,3.57788 0.314729,0.40879 0.51676,0.96027 1.046693,1.16999 0.725369,0.41177 1.337793,1.0656 2.198284,1.22398 2.04279,0.48564 4.294246,0.52534 6.247036,-0.32296 0.588085,-0.38919 1.15857,-0.80663 1.831578,-1.0512 0.420974,0.34512 1.026905,0.3292 1.364397,0.78404 0.627862,0.4704 1.4069,0.68969 1.958879,1.25959 0.557272,0.28142 1.107058,0.56033 1.587787,0.96924 0.488088,0.36406 1.106651,0.46948 1.524309,0.92878 0.564866,0.37367 1.210479,0.61673 1.695557,1.10317 0.399039,0.28984 0.927911,0.32333 1.24564,0.73242 0.64559,0.48687 1.411767,0.77671 2.024449,1.30563 0.535008,0.24476 1.087546,0.44498 1.514718,0.87193 0.515307,0.33359 1.09422,0.55048 1.505476,1.02242 0.566426,0.35746 1.25321,0.5141 1.725203,1.01982 0.884714,0.40301 1.558916,1.17062 2.511509,1.46379 0.437448,0.27708 0.754357,0.80634 1.327777,0.86757 0.735042,0.31632 1.281545,0.95583 2.063336,1.18077 0.517368,0.50659 1.216822,0.76628 1.784839,1.18443 0.51222,0.6706 1.4352,0.67451 2.01469,1.25802 0.58601,0.35883 1.18326,0.67995 1.72804,1.09886 0.90325,0.37377 1.57273,1.13952 2.49681,1.46689 0.64208,0.61712 1.52087,0.89099 2.16187,1.50495 0.55234,0.36448 1.25437,0.44548 1.70532,0.96261 0.4848,0.30201 1.0113,0.52624 1.37556,0.98284 0.53643,0.39556 1.26793,0.44666 1.71334,0.9879 0.52435,0.33904 1.12269,0.54201 1.58046,0.98546 0.61342,0.38286 1.25294,0.71185 1.82373,1.15635 0.90008,0.33141 1.59216,1.02665 2.46809,1.41236 0.72363,0.66161 1.66122,1.01326 2.43809,1.60382 0.51728,0.22398 1.00206,0.47832 1.42343,0.85742 0.57638,0.3544 1.2021,0.62453 1.68413,1.11158 0.47216,0.26382 1.02703,0.36771 1.38463,0.81264 0.5788,0.39795 1.23601,0.64876 1.76322,1.12113 0.63997,0.35369 1.26818,0.71316 1.85425,1.14833 0.83339,0.33377 1.48361,0.98813 2.31707,1.33004 0.52208,0.57135 1.27874,0.76529 1.89836,1.19054 0.49078,0.59194 1.32607,0.64431 1.84483,1.19838 0.65531,0.42914 1.38476,0.73562 1.95549,1.28288 0.28541,0.2817 0.10907,0.84213 0.17939,1.23888 0.091,0.98744 -0.18184,2.05877 0.23088,2.97963 0.37179,0.464 0.73173,0.93285 0.89788,1.52027 0.24075,0.78624 0.96244,1.18959 1.57209,1.64777 1.03387,1.02575 2.54584,1.27823 3.93381,1.42823 1.45103,0.0634 2.94473,-0.277 4.20044,-1.00918 1.10886,-0.7919 2.1539,-1.79307 2.59434,-3.10773 0.85709,-1.17542 0.77992,-2.75753 0.55298,-4.12389 -0.27879,-0.74134 -0.71435,-1.41415 -0.99296,-2.1596 -0.4406,-0.85085 -1.29277,-1.36971 -1.9744,-2.01049 -0.90652,-0.65329 -2.05666,-0.78422 -3.08088,-1.16909 -1.39262,-0.17091 -2.77191,0.30043 -4.06913,0.74916 -0.47014,0.14873 -0.81001,0.56604 -1.25558,0.72772 -0.55731,0.0892 -0.82732,-0.55228 -1.333,-0.6747 -0.6232,-0.12234 -0.86735,-0.86677 -1.52292,-0.94988 -0.6986,-0.25299 -1.11745,-0.93831 -1.85547,-1.12165 -0.62275,-0.42601 -1.25261,-0.86757 -1.93185,-1.19036 -0.47771,-0.79395 -1.53849,-0.67752 -2.12733,-1.33668 -0.50118,-0.43329 -1.1582,-0.58617 -1.64332,-1.04393 -0.68968,-0.38579 -1.33523,-0.83672 -2.00938,-1.24262 -0.76467,-0.21005 -1.20925,-0.91391 -1.9447,-1.19166 -0.48387,-0.25535 -0.80709,-0.78523 -1.392,-0.88754 -0.743,-0.1295 -1.12215,-0.87238 -1.83507,-1.09131 -0.60607,-0.46345 -1.22287,-0.97473 -1.9812,-1.1949 -0.42417,-0.39134 -0.92782,-0.70427 -1.47775,-0.89181 -0.51587,-0.3977 -1.02762,-0.81011 -1.64969,-1.03794 -0.57843,-0.51266 -1.32687,-0.78398 -1.93586,-1.23675 -0.51288,-0.55053 -1.31786,-0.6138 -1.85699,-1.13349 -0.51776,-0.34736 -1.09272,-0.59382 -1.49349,-1.08226 -0.5053,-0.33892 -1.1179,-0.48005 -1.57838,-0.90108 -0.48653,-0.42449 -1.14504,-0.55941 -1.5604,-1.06844 -0.5211,-0.41254 -1.2506,-0.45531 -1.68014,-1.00777 -0.40861,-0.46286 -1.08165,-0.43334 -1.47729,-0.88728 -0.60251,-0.47305 -1.37045,-0.6824 -1.89541,-1.25715 -0.62315,-0.31418 -1.28534,-0.56148 -1.83018,-1.02086 -0.49939,-0.23022 -0.93253,-0.53803 -1.35986,-0.87803 -0.5431,-0.33452 -1.183548,-0.49189 -1.624932,-0.97779 -0.535935,-0.34061 -1.104624,-0.60714 -1.578718,-1.03794 -0.541668,-0.35367 -1.171908,-0.49897 -1.637661,-0.96331 -0.591399,-0.40309 -1.274941,-0.64489 -1.804199,-1.13595 -0.91626,-0.43716 -1.707395,-1.08237 -2.620675,-1.52693 -0.520305,-0.69939 -1.493173,-0.71754 -2.064732,-1.35724 -0.478236,-0.34423 -1.052978,-0.52531 -1.436071,-0.98947 -0.573195,-0.33499 -1.260901,-0.48317 -1.725551,-0.99732 -0.579693,-0.35685 -1.187133,-0.6532 -1.726074,-1.07352 -0.539538,-0.27361 -1.095158,-0.50523 -1.527623,-0.94238 -0.518389,-0.34989 -1.149615,-0.5027 -1.55692,-1.00307 -0.530694,-0.40819 -1.234204,-0.47397 -1.707589,-0.96436 -0.547129,-0.35687 -1.180953,-0.60631 -1.533676,-1.19471 -0.275203,-0.36543 0.003,-0.91628 0.128996,-1.31802 0.219473,-0.40827 0.06697,-1.00915 0.571115,-1.1996 0.553166,-0.36501 1.312991,-0.25496 1.951206,-0.43021 1.863406,-0.29092 3.632333,-0.96802 5.460297,-1.41062 1.650373,-0.52641 3.329498,-0.95005 4.976895,-1.48413 2.010597,-0.52427 3.999615,-1.12753 5.991729,-1.71672 1.400509,-0.45966 2.853893,-0.73532 4.242303,-1.24041 1.27487,-0.33009 2.53569,-0.70579 3.7969,-1.0852 1.51649,-0.39067 2.977,-0.90549 4.47332,-1.26369 1.71255,-0.6479 3.53581,-0.93981 5.25568,-1.57131 1.28144,-0.31953 2.55792,-0.65464 3.79558,-1.1197 1.41284,-0.28922 2.77594,-0.76318 4.16009,-1.1576 1.48014,-0.39391 2.92222,-0.92281 4.42052,-1.25297 1.63904,-0.58016 3.35544,-0.89712 4.98552,-1.50234 1.77649,-0.36443 3.45089,-1.0896 5.22653,-1.45438 1.14672,-0.45756 2.35897,-0.71036 3.55364,-1.01266 0.55008,0.0863 0.63512,0.71086 1.08974,0.96767 0.66162,0.39078 1.15717,1.0672 1.94326,1.2644 1.28422,0.45093 2.64,1.03232 4.02267,0.65089 0.96503,-0.14919 1.87179,-0.52239 2.74501,-0.92966 0.67685,-0.53182 1.43572,-1.11597 1.84256,-1.85738 0.0744,-0.055 -0.11807,0.0827 0.13005,-0.0994 0.93908,-0.5665 0.69382,-1.82601 1.14838,-2.69582 0.48652,-1.35767 -0.16142,-2.75935 -0.43631,-4.08883 -0.46971,-1.13829 -1.45826,-1.93176 -2.25447,-2.8193 -0.76213,-0.568 -1.76232,-0.63027 -2.56086,-1.14293 -0.43408,-0.20451 -0.91661,-0.26955 -1.39265,-0.25024 z m 5.34755,11.10735 c -0.006,0.002 0.0134,-0.0158 0,0 z m -0.002,8.7e-4 c -0.0502,0.0366 0.0169,-0.022 0,0 z m -61.49885,32.83377 c -0.069,-0.14666 -0.03948,-0.11483 0,0 z m 11.89628,3.04357 c 0.11304,0.0233 -0.11026,-0.0175 0,0 z m -7.278011,0.1906 c -0.09408,-0.0165 -0.171064,-0.0425 0,0 z m 16.090781,9.99965 c -0.007,-2.4e-4 -0.0323,-0.007 0,0 z m 13.64328,3.99763 c 0.0306,0.0689 -0.0221,-0.0434 0,0 z m 11.12026,6.87343 c 0.0967,0.19329 -0.0579,-0.0965 0,0 z m 1.19001,5.19741 c -0.0148,-3.8e-4 -0.0624,-0.0145 0,0 z"
           id="path4598"
           inkscape:connector-curvature="0"
           transform="scale(0.26458333)" />
        <path
           style="opacity:1;fill:#ffffff;fill-opacity:1;stroke:none;stroke-width:0.0894263;stroke-miterlimit:4;stroke-dasharray:none;stroke-opacity:1"
           d="m 139.87548,594.0346 c -0.82934,-0.0712 -1.53899,0.37653 -2.2801,0.65325 -0.97471,0.26084 -2.17877,0.0461 -2.88854,0.92146 -0.3377,0.45688 -1.0316,0.35526 -1.38462,0.82764 -0.2287,0.3262 -0.47632,0.57835 -0.83706,0.75858 -0.43119,0.31799 -0.62092,0.83334 -1.07125,1.12705 -0.55734,0.5028 -0.37729,1.37194 -0.96366,1.85181 -0.6933,0.94212 -0.50455,2.21368 -1.00063,3.22527 -0.82045,0.89357 -0.48956,2.14414 -0.55367,3.23783 0.0517,1.09875 -0.11909,2.21947 0.11457,3.30026 0.21301,0.50647 0.82251,0.72363 0.83553,1.31616 0.12903,0.70681 0.48784,1.36712 1.04714,1.80587 0.62392,1.20967 1.70859,2.07953 2.57464,3.09588 0.37244,0.66134 1.20253,0.75985 1.60575,1.38201 0.45624,0.47244 1.15671,0.56144 1.56546,1.08155 0.81922,0.55054 1.86119,0.63391 2.65346,1.23971 1.28479,0.49294 2.70492,0.42192 4.02344,0.79241 1.85175,0.11508 3.69328,-0.27129 5.51454,-0.55728 0.94989,-0.1343 1.64307,-0.89085 2.59372,-1.03312 0.56986,-0.13449 1.08303,-0.4723 1.43258,-0.91222 0.74923,-0.215 1.08329,-0.96855 1.7266,-1.32568 0.45501,-0.44608 0.77633,-1.00589 1.18007,-1.49763 0.15358,-0.37916 0.38506,-0.67678 0.70591,-0.9307 0.72394,-0.91212 0.58248,-2.16792 0.93789,-3.22848 0.33859,-1.09611 0.41841,-2.27115 0.0549,-3.37256 -0.33773,-0.9663 -0.30886,-2.01207 -0.6203,-2.97782 -0.26905,-0.54518 -0.7966,-0.94789 -0.83461,-1.60208 -0.10454,-0.54637 -0.56466,-0.90061 -0.9143,-1.26256 -0.6459,-1.43903 -1.96056,-2.40157 -2.98794,-3.54823 -0.83075,-0.46965 -1.45448,-1.3075 -2.43704,-1.50025 -0.66481,-0.22189 -1.10969,-0.84731 -1.84187,-0.92616 -0.37874,-0.0919 -0.80551,-0.0918 -1.00725,-0.47869 -0.92914,-0.82982 -2.28521,-0.52508 -3.41449,-0.77393 -1.21009,-0.11237 -2.29346,-0.76433 -3.52887,-0.68935 z m -5.28164,22.95602 c -0.0702,-0.0182 -0.20858,-0.0694 0,0 z m 18.29049,0.98633 c -0.0453,0.0977 0.0477,-0.11251 0,0 z"
           id="path4600"
           inkscape:connector-curvature="0"
           transform="scale(0.26458333)" />
        <g
           id="g4520">
          <path
             sodipodi:nodetypes="ccaaaaaaccacacaaaaaacacaaaacacazccccacaaccaaaaacaccacaaccssaac"
             inkscape:connector-curvature="0"
             id="path4497"
             d="m 3.140417,152.72076 11.158503,-0.35914 c 0,0 -0.37929,-1.54668 -0.233862,-2.30521 0.172569,-0.9001 0.597113,-1.81608 1.269531,-2.43883 0.666235,-0.61702 1.604264,-0.95917 2.505652,-1.06908 1.002265,-0.12221 2.060403,0.0905 2.990078,0.48443 0.805946,0.34149 1.587195,0.86429 2.104747,1.5702 0.380045,0.51836 0.569457,1.18135 0.634765,1.82078 0.05593,0.54761 -0.217156,1.63703 -0.217156,1.63703 l 6.264129,-0.46773 c 0,0 -1.319705,-2.27585 -2.088044,-3.34086 -1.20781,-1.67416 -3.94855,-4.77113 -3.94855,-4.77113 0,0 0.774179,0.0406 1.158926,0.0855 3.130953,0.36554 9.337728,1.49505 9.337728,1.49505 0,0 0.195579,-1.31793 0.534538,-1.87089 0.341795,-0.55759 0.847799,-1.05162 1.436577,-1.33635 0.730209,-0.35313 1.595253,-0.40656 2.405424,-0.3675 0.906465,0.0437 1.855044,0.2115 2.639286,0.66818 0.6398,0.37257 1.233021,0.92844 1.536799,1.60362 0.224637,0.49928 0.231462,1.09834 0.133635,1.63702 -0.116607,0.64208 -0.835215,1.77066 -0.835215,1.77066 0,0 4.089058,1.3099 6.097576,2.06561 1.721594,0.64775 5.097343,2.11384 5.097343,2.11384 0,0 -3.931002,0.91449 -5.879232,1.43895 -0.915123,0.24635 -1.856388,0.42905 -2.727701,0.80181 -0.383717,0.16416 -0.847834,0.28151 -1.084945,0.62497 -0.251892,0.36487 -0.183085,0.87067 -0.212263,1.31308 -0.150532,2.28244 0.195907,6.8594 0.195907,6.8594 0,0 5.102744,1.69763 7.715526,2.31785 1.007287,0.23911 3.058777,0.5386 3.058777,0.5386 0,0 -2.943875,1.93922 -4.515904,2.72735 -1.041864,0.52233 -2.631713,0.84376 -3.238967,1.31678 -0.607254,0.47302 -0.66412,0.9044 -0.66412,0.9044 l 0.404262,12.41924 0.141741,6.76511 -0.516993,0.0812 c 0,0 -3.238834,-4.49608 -4.789746,-6.79142 -1.251196,-1.85176 -3.641548,-5.62936 -3.641548,-5.62936 0,0 -3.281161,3.30642 -5.028008,4.84426 -1.200977,1.05728 -2.442748,2.0726 -3.741775,3.00679 -1.428279,1.02714 -4.443355,2.84809 -4.443355,2.84809 l -0.542891,-0.30069 c 0,0 2.322861,-4.66477 3.492989,-6.99279 0.861775,-1.71454 1.775427,-3.40354 2.59812,-5.13717 0.52852,-1.11373 1.26609,-2.16984 1.501016,-3.38002 0.0722,-0.37191 0.100673,-0.78378 -0.03914,-1.13589 -0.337495,-0.84996 -1.156218,-1.42265 -1.812174,-2.05988 -1.111421,-1.0797 -3.577596,-2.96813 -3.577596,-2.96813 0,0 -0.01114,5.23077 -0.0167,7.84615 -0.0056,2.62421 -0.0167,7.87264 -0.0167,7.87264 l -0.7684,0.10022 c 0,0 -1.693309,-2.9272 -2.505653,-4.40995 -1.518678,-2.77199 -4.426651,-8.38557 -4.426651,-8.38557 0,0 -2.264751,3.09832 -3.541321,4.52687 -1.128155,1.26247 -2.353736,2.43962 -3.624843,3.55803 -0.851349,0.74908 -2.6726954,2.10474 -2.6726954,2.10474 l -0.5930043,-0.21715 c 0,0 5.2456427,-13.71092 5.7546467,-15.91924 0.0757,-0.32843 0.09897,-0.75835 -0.133635,-1.00226 -0.862882,-0.90484 -3.5427057,-2.58056 -5.2117554,-3.99758 -1.065108,-0.90427 -2.1053557,-1.84481 -3.0568949,-2.86791 -0.6564911,-0.70586 -1.8207837,-2.24672 -1.8207837,-2.24672 z"
             style="fill:none;stroke:#000000;stroke-width:0.264583px;stroke-linecap:butt;stroke-linejoin:miter;stroke-opacity:1" />
          <path
             sodipodi:nodetypes="aaaaaaaaaaa"
             inkscape:connector-curvature="0"
             id="path4499"
             d="m 15.308036,151.42671 c -0.182464,-0.63755 -0.06248,-1.35346 0.141741,-1.98438 0.190656,-0.58901 0.473487,-1.2204 0.978349,-1.57872 0.609951,-0.43291 1.444241,-0.5359 2.190559,-0.48631 0.827822,0.055 1.675092,0.35605 2.337048,0.85618 0.549889,0.41546 0.979957,1.02519 1.214585,1.67321 0.221241,0.61105 0.329905,1.32679 0.130277,1.94524 -0.182111,0.56418 -0.624442,1.06704 -1.133929,1.37017 -0.772423,0.45956 -1.749727,0.58921 -2.645833,0.51971 -0.735141,-0.057 -1.489824,-0.31243 -2.078869,-0.75595 -0.513375,-0.38654 -0.957109,-0.94133 -1.133928,-1.55915 z"
             style="fill:none;stroke:#000000;stroke-width:0.264583px;stroke-linecap:butt;stroke-linejoin:miter;stroke-opacity:1" />
          <path
             sodipodi:nodetypes="aaaaaaaaaaa"
             inkscape:connector-curvature="0"
             id="path4501"
             d="m 35.401858,143.79128 c 0.194362,-0.54127 0.551674,-1.08053 1.048525,-1.37017 0.562505,-0.32791 1.288857,-0.35084 1.934753,-0.26865 0.684668,0.0871 1.369129,0.36597 1.9142,0.78936 0.481875,0.3743 0.896562,0.88996 1.094789,1.46703 0.217677,0.63369 0.326602,1.40332 0.04151,2.00968 -0.290935,0.61879 -0.969003,1.02815 -1.6064,1.27567 -0.632815,0.24574 -1.375984,0.31776 -2.031621,0.14174 -0.67921,-0.18234 -1.264413,-0.6707 -1.748139,-1.18118 -0.315825,-0.33329 -0.594191,-0.73653 -0.708705,-1.18118 -0.139947,-0.5434 -0.128551,-1.15418 0.06109,-1.6823 z"
             style="fill:none;stroke:#000000;stroke-width:0.264583px;stroke-linecap:butt;stroke-linejoin:miter;stroke-opacity:1" />
          <path
             sodipodi:nodetypes="aaaaaaaaaaa"
             inkscape:connector-curvature="0"
             id="path4503"
             d="m 37.114216,157.09873 c 0.887674,-0.0473 1.805943,0.2559 2.570909,0.7087 0.705945,0.41787 1.361694,1.02484 1.714732,1.76534 0.3526,0.73958 0.51689,1.65289 0.291588,2.44063 -0.182818,0.6392 -0.695288,1.18632 -1.247994,1.5558 -0.654645,0.43763 -1.480505,0.67382 -2.267857,0.66145 -0.761903,-0.012 -1.523862,-0.31022 -2.173362,-0.7087 -0.588513,-0.36107 -1.138866,-0.85591 -1.464659,-1.46466 -0.303138,-0.56642 -0.415091,-1.24852 -0.377976,-1.88988 0.04417,-0.76336 0.182805,-1.62515 0.706333,-2.18245 0.551541,-0.58712 1.443878,-0.84336 2.248286,-0.88623 z"
             style="fill:none;stroke:#000000;stroke-width:0.264583px;stroke-linecap:butt;stroke-linejoin:miter;stroke-opacity:1" />
          <path
             sodipodi:nodetypes="csccssc"
             inkscape:connector-curvature="0"
             id="path4505"
             d="m 29.926935,156.94315 c 0,0 -0.40319,1.91887 -0.480577,2.89353 -0.05968,0.75169 0.01384,2.26212 0.01384,2.26212 l -3.429955,0.48107 c 0,0 -0.101137,-0.97135 0.05011,-1.42027 0.313895,-0.93169 1.035947,-1.68543 1.700894,-2.4096 0.632409,-0.68874 2.145688,-1.80685 2.145688,-1.80685 z"
             style="fill:none;stroke:#000000;stroke-width:0.264583px;stroke-linecap:butt;stroke-linejoin:miter;stroke-opacity:1" />
          <path
             sodipodi:nodetypes="caaaaaaccaaaaaaccaaaaaaacccc"
             inkscape:connector-curvature="0"
             id="path4507"
             d="m 37.147973,169.48689 c 0,0 0.858491,-0.55374 1.334726,-0.51973 0.559218,0.0399 1.133637,0.37434 1.46466,0.82683 0.306384,0.41881 0.411601,1.01315 0.318913,1.52372 -0.08662,0.47717 -0.367629,0.9725 -0.779578,1.22842 -0.440615,0.27372 -1.046537,0.30051 -1.547338,0.16536 -0.462256,-0.12475 -0.917281,-0.4363 -1.157552,-0.85044 -0.242633,-0.41821 -0.165364,-1.44104 -0.165364,-1.44104 L 20.162663,160.10835 c 0,0 -0.706352,0.57541 -1.135954,0.6321 -0.538519,0.0711 -1.1584,-0.0543 -1.580749,-0.39586 -0.361452,-0.29232 -0.543007,-0.79268 -0.614213,-1.25206 -0.07744,-0.49963 -0.04169,-1.07019 0.224424,-1.50008 0.278256,-0.44951 0.786944,-0.77919 1.299293,-0.90951 0.441606,-0.11233 0.957728,-0.0635 1.358353,0.15356 0.386045,0.2092 0.838634,1.0158 0.838634,1.0158 l 16.772693,-4.96093 c 0,0 0.0692,-0.76544 0.283482,-1.06306 0.27564,-0.38284 0.71456,-0.71017 1.181175,-0.77958 0.438671,-0.0653 0.921555,0.11097 1.27567,0.37798 0.327914,0.24725 0.572155,0.63857 0.661459,1.03943 0.107045,0.48049 0.06206,1.04122 -0.188987,1.46466 -0.218486,0.36852 -0.622134,0.65899 -1.039437,0.75595 -0.358123,0.0832 -0.755786,-0.0287 -1.086681,-0.18898 -0.361368,-0.17503 -0.897694,-0.8032 -0.897694,-0.8032 l -16.867186,4.86644 -0.04725,0.85045 z"
             style="fill:none;stroke:#000000;stroke-width:0.264583px;stroke-linecap:butt;stroke-linejoin:miter;stroke-opacity:1" />
          <path
             sodipodi:nodetypes="ccccccccccccccccccccccccccccccccccccccccccccccccccccccccccccccccccccccccccccccccccccccccccccccccccccccccc"
             transform="scale(0.26458333)"
             inkscape:connector-curvature="0"
             id="path4511"
             d="m 142.16532,534.92272 c -5.21734,0.0611 -10.49534,3.27153 -12.07647,8.40162 -0.65741,1.6072 -0.70003,3.58057 -1.34505,5.05392 -12.36855,-2.25292 -24.78555,-4.30357 -37.264665,-5.83945 -0.826946,-0.37452 -1.753342,0.54466 -0.889308,1.19117 6.328929,7.46161 12.887283,14.8062 17.907653,23.25776 1.21417,1.98121 2.56125,4.01025 3.56499,6.01743 -7.95037,0.68265 -15.91835,1.26346 -23.885567,1.7219 1.059729,-4.26111 1.203082,-9.22684 -1.578363,-12.89227 -2.975922,-3.81397 -7.373783,-6.24849 -12.049324,-7.29895 -6.586468,-1.66626 -14.562238,0.0421 -18.53036,5.93042 -2.5382,3.66571 -3.376889,8.33496 -2.379263,12.67173 0.16712,0.93742 0.360077,1.87131 0.500892,2.81476 -13.613505,0.54705 -27.669606,0.69548 -41.274695,1.39242 -1.072687,0.81736 1.047344,2.02721 1.431752,2.80636 7.539956,9.54433 16.946243,17.40221 26.831496,24.40596 3.244494,2.55679 6.852698,4.74415 9.622405,7.85151 0.005,5.07236 -2.399488,9.7693 -3.865601,14.55434 -5.71936,16.12511 -11.713837,32.15436 -17.810754,48.1427 0.254874,1.29391 2.225515,1.13787 3.021086,0.30432 11.155831,-8.04663 20.96539,-17.85434 29.322776,-28.76364 2.306178,-2.92249 4.495269,-5.9348 6.782285,-8.87194 8.518139,16.1178 16.8526,32.34295 26.096266,48.06363 0.762332,0.58637 2.012565,0.0466 2.785811,-0.23281 0.201293,-14.42495 0.03686,-28.89582 0.165534,-43.33836 0.0461,-5.30576 0.02076,-10.60762 0.253225,-15.90057 6.404419,5.11874 12.995029,10.26327 18.586219,16.18839 1.9445,2.04676 2.62895,5.03396 1.81413,7.73713 -1.41669,5.03713 -4.28732,9.58756 -6.51838,14.3545 -7.26106,14.39615 -14.486659,28.81013 -21.717063,43.22173 0.07135,1.35746 1.933303,1.52619 2.818974,0.73545 9.578369,-5.67767 18.898999,-11.86273 27.272509,-19.23357 7.50577,-6.45114 14.3906,-13.58438 21.55602,-20.38831 9.70799,15.49838 19.96833,30.66882 30.84566,45.37646 0.48708,0.88271 1.89681,2.15435 2.66201,0.82026 0.28571,-2.95777 -0.0882,-6.01414 -0.0608,-9.00575 -0.5296,-21.06636 -1.22808,-42.12793 -1.90085,-63.19007 1.40909,-3.71272 5.61671,-4.74408 8.94654,-5.99818 7.23408,-2.26098 13.49369,-6.67416 19.87119,-10.62899 0.55107,-0.46285 2.34821,-1.13643 1.25749,-1.95954 -12.17336,-1.77978 -23.8457,-5.7676 -35.53587,-9.47018 -1.06035,-0.52404 -2.65725,-0.58495 -3.39397,-1.50388 -0.84589,-9.22027 -0.87601,-18.55495 -0.70583,-27.81915 -0.1247,-2.20955 1.52919,-4.08091 3.58387,-4.66998 6.53654,-2.76361 13.66012,-3.89023 20.48893,-5.78564 3.80876,-0.97365 8.28462,-2.07573 12.05989,-3.04975 0.76081,-1.09219 -1.76524,-1.15412 -2.40405,-1.55764 -12.6123,-5.54278 -25.61978,-10.11174 -38.75622,-14.23783 2.21889,-3.60016 4.55023,-8.09721 2.87558,-12.37486 -2.45003,-5.82695 -9.01218,-8.86588 -15.08056,-8.90835 -1.2996,-0.0579 -2.60104,-0.11428 -3.90221,-0.0962 z m 0.73394,2.09675 c 6.4593,-0.0608 13.38591,4.38932 14.22549,11.14374 0.33733,2.63246 0.14949,5.75831 -2.17272,7.48539 -3.87766,3.47633 -9.99135,4.7399 -14.64129,2.13474 -2.84622,-1.94006 -5.70253,-4.43498 -6.77167,-7.83707 -1.48028,-4.88485 1.10321,-11.3979 6.42788,-12.58893 0.95811,-0.23662 1.94663,-0.33508 2.93231,-0.33787 z M 69.332725,556.9034 c 5.402745,0.0358 10.996785,2.65316 13.551729,7.58897 2.186364,3.72324 2.833056,9.06465 -0.250566,12.49422 -3.466134,3.99251 -9.357381,4.67329 -14.242754,3.96613 -4.55396,-0.78528 -9.265304,-3.90483 -10.556786,-8.62526 -0.935566,-4.24334 0.362644,-8.81611 2.908628,-12.28312 2.017343,-2.55135 5.530254,-3.14204 8.589749,-3.14094 z m 78.417535,13.93744 c 3.7596,0.0487 6.91509,3.94437 6.35686,7.6817 0.24636,3.51188 -3.11623,6.79531 -6.61285,6.18965 -2.45174,-0.11061 -4.14267,-2.16052 -5.95907,-3.49595 -5.90685,1.42108 -11.80067,3.35884 -17.7025,4.97872 -15.02785,4.39677 -30.142965,8.51776 -45.065802,13.25963 -1.027242,0.57352 -0.908236,2.27527 -0.531709,3.17005 6.397306,3.81504 13.17097,8.04561 19.638292,11.7154 1.105302,-0.4234 0.117817,-2.26376 0.35172,-3.20372 0.07255,-3.70284 2.739429,-6.68114 5.030489,-9.34303 3.04384,-3.28813 6.47418,-6.26003 10.03001,-8.94414 -1.0635,4.94969 -2.02069,9.95759 -1.83829,15.04821 -0.0111,1.61797 -0.008,3.23597 -0.01,4.85396 -3.92648,0.59246 -8.46192,0.98989 -12.367462,1.70415 -0.953672,1.06472 1.783202,1.55819 2.382912,2.16766 12.85202,7.88332 25.65827,15.86748 38.63283,23.53499 2.2495,-0.42641 4.35985,-2.20621 6.78844,-1.39291 3.23054,0.97866 5.80706,4.14216 5.44743,7.63088 0.26227,3.77011 -3.39704,7.29705 -7.15601,6.65726 -2.74052,0.0649 -5.62441,-1.65843 -6.53836,-4.28871 -0.56257,-1.58314 0.13204,-3.61484 -0.87933,-4.92154 -19.62579,-12.22903 -39.10774,-24.69189 -58.843436,-36.74225 -1.213779,-0.56378 -2.779857,-2.11747 -4.060631,-0.82923 -3.106598,2.25195 -8.072675,1.73875 -10.153559,-1.65873 -1.429815,-2.23316 -1.490611,-5.15687 -0.934194,-7.66345 1.099064,-3.34778 4.717344,-5.2158 8.077768,-4.94768 2.308497,-0.14356 4.059051,1.56669 5.195775,3.38263 0.534422,1.11013 1.705158,0.85467 2.632205,0.44633 19.539053,-5.73607 39.112462,-11.36764 58.558302,-17.41336 1.08833,-0.50039 3.03577,-0.53959 2.96996,-2.15336 0.56818,-3.07183 3.32437,-5.69262 6.56008,-5.42316 z m -7.05085,22.8769 c 5.97955,0.0355 12.21175,3.24059 15.35008,8.41958 2.25988,4.10021 3.08854,9.93096 -0.32998,13.66123 -3.88425,4.4496 -10.45591,6.13209 -15.93259,4.12347 -4.60776,-1.6425 -8.98239,-5.09501 -10.34075,-9.95454 -0.77002,-3.78668 -0.54229,-7.97741 1.22767,-11.50133 2.00473,-3.44144 6.32598,-4.71038 10.02557,-4.74841 z"
             style="opacity:1;fill:#000000;fill-opacity:1;stroke:none;stroke-width:0.252936;stroke-miterlimit:4;stroke-dasharray:none;stroke-opacity:1" />
        </g>
      </g>
    </g>
  </g>
  <g
     inkscape:groupmode="layer"
     id="layer5"
     inkscape:label="Border"
     style="display:inline"
     sodipodi:insensitive="true">
    <rect
       style="fill:none;fill-opacity:1;stroke:#000000;stroke-width:0.354331;stroke-miterlimit:4;stroke-dasharray:none;stroke-dashoffset:0;stroke-opacity:1"
       id="rect4187"
       width="201.96851"
       height="329.52756"
       x="30.118111"
       y="21.259844"
       ry="14.6735"
       rx="12.76433" />
  </g>
  <g
     inkscape:groupmode="layer"
     id="layer9"
     inkscape:label="Body"
     sodipodi:insensitive="true">
    <path
       style="fill:none;fill-rule:evenodd;stroke:none;stroke-width:1px;stroke-linecap:butt;stroke-linejoin:miter;stroke-opacity:1"
       d="M 40.748032,102.7559 V 340.15748 H 184.25196 V 102.7559 H 40.748032"
       id="path4245_inb"
       inkscape:connector-curvature="0" />
    <text
       xml:space="preserve"
       style="font-style:normal;font-weight:normal;line-height:0.01%;font-family:sans-serif;letter-spacing:0px;word-spacing:0px;fill:#000000;fill-opacity:1;stroke:none;stroke-width:1px;stroke-linecap:butt;stroke-linejoin:miter;stroke-opacity:1"
       x="40.748047"
       y="110.41211"
       id="text23"><tspan
         sodipodi:role="line"
         x="40.748047"
         y="110.41211"
         id="tspan11"><tspan
           x="40.748047"
           y="110.41211"
           style="font-weight:bold;font-size:8.75px;line-height:1.25;font-family:Roboto;-inkscape-font-specification:'Roboto Bold';fill:#999999"
           id="tspan9">Steps</tspan><tspan
           dx="4.4989014"
           style="font-weight:bold;font-size:8.75px;line-height:1.25;font-family:Roboto;-inkscape-font-specification:'Roboto Bold';fill:#999999"
           id="tspan10" /></tspan><tspan
         sodipodi:role="line"
         x="40.748047"
         y="121.83086"
         id="tspan13"><tspan
           x="40.748047"
           style="font-size:8.75px;line-height:1.25;font-family:Lato;-inkscape-font-specification:Lato;fill:#1a1a1a"
           id="tspan12">2 minutes per person to answer the </tspan></tspan><tspan
         sodipodi:role="line"
         x="40.748047"
         y="132.76836"
         id="tspan16"><tspan
           x="40.748047"
           style="font-size:8.75px;line-height:1.25;font-family:Lato;-inkscape-font-specification:Lato;fill:#1a1a1a"
           id="tspan14">questions and connect with its pair</tspan><tspan
           dx="3.5262451"
           style="font-size:8.75px;line-height:1.25;font-family:Lato;-inkscape-font-specification:Lato;fill:#1a1a1a"
           id="tspan15" /></tspan><tspan
         sodipodi:role="line"
         x="40.748047"
         y="143.70586"
         id="tspan19"><tspan
           x="40.748047"
           style="font-size:8.75px;line-height:1.25;font-family:Lato;-inkscape-font-specification:Lato;fill:#1a1a1a"
           id="tspan17"> </tspan><tspan
           dx="1.6887569"
           style="font-size:8.75px;line-height:1.25;font-family:Lato;-inkscape-font-specification:Lato;fill:#1a1a1a"
           id="tspan18" /></tspan><tspan
         sodipodi:role="line"
         x="40.748047"
         y="154.64336"
         id="tspan21"><tspan
           x="40.748047"
           style="font-size:8.75px;line-height:1.25;font-family:Lato;-inkscape-font-specification:Lato;fill:#1a1a1a"
           id="tspan20">Change partners and do the same </tspan></tspan><tspan
         sodipodi:role="line"
         x="40.748047"
         y="165.58086"
         id="tspan23"><tspan
           x="40.748047"
           style="font-size:8.75px;line-height:1.25;font-family:Lato;-inkscape-font-specification:Lato;fill:#1a1a1a"
           id="tspan22">again 2 more times</tspan></tspan></text>
  </g>
  <g
     inkscape:groupmode="layer"
     id="layer4"
     inkscape:label="Body Right"
     style="display:inline"
     sodipodi:insensitive="true">
    <text
       id="text4227"
       y="122.74852"
       x="200.49702"
       style="font-style:normal;font-weight:normal;line-height:0%;font-family:sans-serif;letter-spacing:0px;word-spacing:0px;fill:#1a1a1a;fill-opacity:1;stroke:none;stroke-width:1px;stroke-linecap:butt;stroke-linejoin:miter;stroke-opacity:1"
       xml:space="preserve"><tspan
         style="font-style:normal;font-variant:normal;font-weight:500;font-stretch:normal;font-size:8.75px;line-height:1.25;font-family:Lato;-inkscape-font-specification:'Lato Medium';fill:#1a1a1a"
         y="122.74852"
         x="200.49702"
         id="tspan4229"
         sodipodi:role="line">5 min</tspan></text>
    <text
       id="text4231"
       y="155.50652"
       x="195.42134"
       style="font-style:normal;font-weight:normal;line-height:0%;font-family:sans-serif;letter-spacing:0px;word-spacing:0px;fill:#1a1a1a;fill-opacity:1;stroke:none;stroke-width:1px;stroke-linecap:butt;stroke-linejoin:miter;stroke-opacity:1"
       xml:space="preserve"><tspan
         style="font-style:normal;font-variant:normal;font-weight:500;font-stretch:normal;font-size:8.75px;line-height:1.25;font-family:Lato;-inkscape-font-specification:'Lato Medium';fill:#1a1a1a"
         y="155.50652"
         x="195.42134"
         id="tspan4233"
         sodipodi:role="line">10 min</tspan></text>
    <path
       style="fill:none;fill-rule:evenodd;stroke:none;stroke-width:1px;stroke-linecap:butt;stroke-linejoin:miter;stroke-opacity:1"
       d="m 194.88189,102.7559 v 237.40158 h 26.5748 V 102.7559 Z"
       id="path4239"
       inkscape:connector-curvature="0" />
  </g>
  <g
     inkscape:groupmode="layer"
     id="layer10"
     inkscape:label="String With"
     style="display:inline"
     sodipodi:insensitive="true">
    <path
       style="fill:none;fill-rule:evenodd;stroke:none;stroke-width:1px;stroke-linecap:butt;stroke-linejoin:miter;stroke-opacity:1"
       d="m 40.748032,269.28162 v 70.87586 H 221.45669 v -70.87586 z"
       id="path4343_inb"
       inkscape:connector-curvature="0" />
    <text
       xml:space="preserve"
       style="font-style:normal;font-weight:normal;line-height:0.01%;font-family:sans-serif;letter-spacing:0px;word-spacing:0px;fill:#000000;fill-opacity:1;stroke:none;stroke-width:1px;stroke-linecap:butt;stroke-linejoin:miter;stroke-opacity:1"
       x="40.748047"
       y="186.96875"
       id="text8"><tspan
         sodipodi:role="line"
         x="40.748047"
         y="186.96875"
         id="tspan3"><tspan
           x="40.748047"
           y="186.96875"
           style="font-weight:bold;font-size:8.75px;line-height:1.25;font-family:Roboto;-inkscape-font-specification:'Roboto Bold';fill:#999999"
           id="tspan1">String With</tspan><tspan
           dx="0"
           x="84.493774"
           y="186.96875"
           style="font-weight:bold;font-size:8.75px;line-height:1.25;font-family:Roboto;-inkscape-font-specification:'Roboto Bold';fill:#999999"
           id="tspan2" /></tspan><tspan
         sodipodi:role="line"
         x="40.748047"
         y="198.38751"
         id="tspan6"><tspan
           x="40.748047"
           y="198.38751"
           style="font-size:8.75px;line-height:1.25;font-family:Lato;-inkscape-font-specification:Lato;fill:#1a1a1a"
           id="tspan4">Social Network Webbing </tspan><tspan
           dx="0"
           x="137.18182"
           y="198.38751"
           style="font-size:8.75px;line-height:1.25;font-family:Lato;-inkscape-font-specification:Lato;fill:#1a1a1a"
           id="tspan5" /></tspan><tspan
         sodipodi:role="line"
         x="40.748047"
         y="209.32501"
         id="tspan8"><tspan
           x="40.748047"
           y="209.32501"
           style="font-size:8.75px;line-height:1.25;font-family:Lato;-inkscape-font-specification:Lato;fill:#1a1a1a"
           id="tspan7">15% Solutions</tspan></tspan></text>
    <g
       transform="matrix(0.57732547,0,0,0.5773255,56.885991,110.68577)"
       inkscape:label="15percentsolution"
       id="g58"
       style="display:inline;enable-background:new">
      <g
         id="g57">
        <path
           style="fill:#000014;fill-opacity:1;stroke:none;stroke-width:0.264583px;stroke-linecap:butt;stroke-linejoin:miter;stroke-opacity:1"
           d="M 71.160512,163.23614 97.085654,155.786 83.855813,175.16304 c 0,0 -4.877025,0.20561 -8.986938,-3.40768 -3.760081,-3.30573 -3.708363,-8.51922 -3.708363,-8.51922 z"
           id="path56"
           inkscape:connector-curvature="0"
           sodipodi:nodetypes="cccsc" />
        <path
           style="fill:#ffffff;fill-opacity:1;stroke:none;stroke-width:0.264583px;stroke-linecap:butt;stroke-linejoin:miter;stroke-opacity:1"
           d="m 75.202962,164.18829 1.620321,-0.50113 2.071339,7.16616 -1.486686,0.46772 z"
           id="path21"
           inkscape:connector-curvature="0" />
        <path
           style="fill:#f0ffff;fill-opacity:1;stroke:none;stroke-width:0.265;stroke-linecap:butt;stroke-linejoin:miter;stroke-miterlimit:4;stroke-dasharray:none;stroke-opacity:1"
           d="m 80.815623,165.54134 -0.400904,-1.23612 2.221677,-0.68488 -0.451017,-1.48669 -3.741774,1.1526 1.269531,4.02575 c 0,0 0.983374,-0.50149 1.486686,-0.40091 0.455425,0.091 1.01164,0.39647 1.102487,0.85193 0.09659,0.48427 -0.300367,1.05182 -0.734991,1.28623 -0.549959,0.29661 -1.870887,-0.11693 -1.870887,-0.11693 l 0.467722,1.43657 c 0,0 1.065642,0.11059 1.837478,-0.16704 0.950288,-0.34181 1.435434,-0.64209 1.787364,-1.28624 0.302096,-0.55294 0.303791,-1.2913 0.100227,-1.88759 -0.205364,-0.60157 -0.684439,-1.14423 -1.244473,-1.44492 -0.718482,-0.38577 -1.829126,-0.0418 -1.829126,-0.0418 z"
           id="path22"
           inkscape:connector-curvature="0"
           sodipodi:nodetypes="ccccccaaaccsaasc" />
        <circle
           style="fill:none;fill-opacity:1;stroke:#ffffff;stroke-width:0.6;stroke-miterlimit:4;stroke-dasharray:none;stroke-opacity:1"
           id="circle22"
           cx="84.51564"
           cy="161.97495"
           r="0.97920638" />
        <circle
           style="fill:none;fill-opacity:1;stroke:#ffffff;stroke-width:0.6;stroke-miterlimit:4;stroke-dasharray:none;stroke-opacity:1"
           id="circle23"
           cx="88.098717"
           cy="164.15488"
           r="0.97920638" />
        <path
           style="fill:none;stroke:#ffffff;stroke-width:0.6;stroke-linecap:butt;stroke-linejoin:miter;stroke-miterlimit:4;stroke-dasharray:none;stroke-opacity:1"
           d="m 85.19216,166.14269 2.121453,-6.09708"
           id="path57"
           inkscape:connector-curvature="0" />
      </g>
    </g>
    <g
       transform="matrix(0.37090731,0,0,0.37090728,48.74317,114.47345)"
       style="display:inline"
       inkscape:label="socialnetworkwebbing"
       id="layer25">
      <g
         id="g4871">
        <circle
           style="opacity:1;fill:none;fill-opacity:1;stroke:#000000;stroke-width:0.952;stroke-linecap:round;stroke-miterlimit:4;stroke-dasharray:1.904, 3.808;stroke-dashoffset:0;stroke-opacity:1"
           id="path4776"
           cx="264.28568"
           cy="214.67628"
           r="18.362152" />
        <path
           style="fill:#000000;fill-opacity:1;stroke:none;stroke-width:0.264583px;stroke-linecap:butt;stroke-linejoin:miter;stroke-opacity:1"
           d="m 244.68859,222.84058 3.50791,-0.46772 c 0,0 0.13282,-0.66847 0.3274,-0.93544 0.21306,-0.29231 0.52159,-0.54211 0.8653,-0.65481 0.52597,-0.17247 1.13409,-0.14803 1.66041,0.0234 0.37223,0.12124 0.74419,0.35081 0.95883,0.67821 0.20956,0.31964 0.2339,1.12252 0.2339,1.12252 l 4.23288,1.12253 0.0935,0.46773 c 0,0 -1.5556,0.77129 -2.54908,1.3213 -0.39599,0.21923 -0.51564,0.70916 -0.5145,0.94714 0.004,0.73723 0.25725,6.5715 0.25725,6.5715 l -1.05237,0.0234 -2.78295,-4.30304 c 0,0 -1.42825,1.43388 -2.22167,2.05797 -0.7868,0.61888 -2.50231,1.66041 -2.50231,1.66041 l -0.6782,-0.21047 c 0,0 2.68032,-5.06235 2.80633,-5.5425 0.0843,-0.32105 0.075,-0.75162 -0.1637,-0.98222 -0.5395,-0.5211 -2.50232,-2.36199 -2.50232,-2.36199 z"
           id="path4778"
           inkscape:connector-curvature="0"
           sodipodi:nodetypes="ccaaaacccsscccsccsscc" />
        <path
           style="fill:#ffffff;fill-opacity:1;stroke:none;stroke-width:0.264583px;stroke-linecap:butt;stroke-linejoin:miter;stroke-opacity:1"
           d="m 249.07213,222.53111 c -0.0861,-0.24435 -0.11634,-0.54573 0,-0.77721 0.1203,-0.23937 0.38673,-0.40814 0.64493,-0.47956 0.37374,-0.10338 0.80953,-0.0553 1.15755,0.11576 0.24496,0.12039 0.45663,0.34362 0.56224,0.59531 0.11311,0.26959 0.15136,0.60909 0.0331,0.87643 -0.11081,0.25042 -0.36737,0.44636 -0.62839,0.52917 -0.36913,0.1171 -0.81576,0.0829 -1.15755,-0.0992 -0.2872,-0.15299 -0.50372,-0.45378 -0.61183,-0.7607 z"
           id="path4780"
           inkscape:connector-curvature="0"
           sodipodi:nodetypes="aaaaaaaaa" />
        <path
           style="fill:#000000;fill-opacity:1;stroke:none;stroke-width:0.264583px;stroke-linecap:butt;stroke-linejoin:miter;stroke-opacity:1"
           d="m 269.44276,225.53043 3.50791,-0.46772 c 0,0 0.13282,-0.66847 0.3274,-0.93544 0.21306,-0.29231 0.52159,-0.54211 0.8653,-0.65481 0.52597,-0.17247 1.13409,-0.14803 1.66041,0.0234 0.37223,0.12124 0.74419,0.35081 0.95883,0.67821 0.20956,0.31964 0.2339,1.12252 0.2339,1.12252 l 4.23288,1.12253 0.0935,0.46773 c 0,0 -1.5556,0.77129 -2.54908,1.3213 -0.39599,0.21923 -0.51564,0.70916 -0.5145,0.94714 0.004,0.73723 0.25725,6.57151 0.25725,6.57151 l -1.05237,0.0234 -2.78295,-4.30304 c 0,0 -1.42825,1.43388 -2.22167,2.05797 -0.7868,0.61887 -2.50231,1.6604 -2.50231,1.6604 l -0.6782,-0.21046 c 0,0 2.68032,-5.06236 2.80633,-5.54251 0.0843,-0.32105 0.075,-0.75162 -0.1637,-0.98222 -0.5395,-0.5211 -2.50232,-2.36199 -2.50232,-2.36199 z"
           id="path4778-0"
           inkscape:connector-curvature="0"
           sodipodi:nodetypes="ccaaaacccsscccsccsscc" />
        <path
           style="fill:#ffffff;fill-opacity:1;stroke:none;stroke-width:0.264583px;stroke-linecap:butt;stroke-linejoin:miter;stroke-opacity:1"
           d="m 273.8263,225.22096 c -0.0861,-0.24435 -0.11634,-0.54573 0,-0.77721 0.1203,-0.23937 0.38673,-0.40814 0.64493,-0.47956 0.37374,-0.10338 0.80953,-0.0553 1.15755,0.11576 0.24496,0.12039 0.45663,0.34362 0.56224,0.59531 0.11311,0.26959 0.15136,0.60909 0.0331,0.87643 -0.11081,0.25042 -0.36737,0.44636 -0.62839,0.52917 -0.36913,0.1171 -0.81576,0.0829 -1.15755,-0.0992 -0.2872,-0.15299 -0.50372,-0.45378 -0.61183,-0.7607 z"
           id="path4780-7"
           inkscape:connector-curvature="0"
           sodipodi:nodetypes="aaaaaaaaa" />
        <path
           style="fill:#000000;fill-opacity:1;stroke:none;stroke-width:0.264583px;stroke-linecap:butt;stroke-linejoin:miter;stroke-opacity:1"
           d="m 275.94409,206.07322 3.50791,-0.46772 c 0,0 0.13282,-0.66847 0.3274,-0.93544 0.21306,-0.29231 0.52159,-0.54211 0.8653,-0.65481 0.52597,-0.17247 1.13409,-0.14803 1.66041,0.0234 0.37223,0.12124 0.74419,0.35081 0.95883,0.67821 0.20956,0.31964 0.2339,1.12252 0.2339,1.12252 l 4.23288,1.12253 0.0935,0.46773 c 0,0 -1.5556,0.77129 -2.54908,1.3213 -0.39599,0.21923 -0.51564,0.70916 -0.5145,0.94714 0.004,0.73723 0.25725,6.5715 0.25725,6.5715 l -1.05237,0.0234 -2.78295,-4.30304 c 0,0 -1.42825,1.43388 -2.22167,2.05797 -0.7868,0.61887 -2.50231,1.6604 -2.50231,1.6604 l -0.6782,-0.21046 c 0,0 2.68032,-5.06235 2.80633,-5.5425 0.0843,-0.32105 0.075,-0.75162 -0.1637,-0.98222 -0.5395,-0.5211 -2.50232,-2.36199 -2.50232,-2.36199 z"
           id="path4778-5"
           inkscape:connector-curvature="0"
           sodipodi:nodetypes="ccaaaacccsscccsccsscc" />
        <path
           style="fill:#ffffff;fill-opacity:1;stroke:none;stroke-width:0.264583px;stroke-linecap:butt;stroke-linejoin:miter;stroke-opacity:1"
           d="m 280.32763,205.76375 c -0.0861,-0.24435 -0.11634,-0.54573 0,-0.77721 0.1203,-0.23937 0.38673,-0.40814 0.64493,-0.47956 0.37374,-0.10338 0.80953,-0.0553 1.15755,0.11576 0.24496,0.12039 0.45663,0.34362 0.56224,0.59531 0.11311,0.26959 0.15136,0.60909 0.0331,0.87643 -0.11081,0.25042 -0.36737,0.44636 -0.62839,0.52917 -0.36913,0.1171 -0.81576,0.0829 -1.15755,-0.0992 -0.2872,-0.15299 -0.50372,-0.45378 -0.61183,-0.7607 z"
           id="path4780-2"
           inkscape:connector-curvature="0"
           sodipodi:nodetypes="aaaaaaaaa" />
        <path
           style="fill:#000000;fill-opacity:1;stroke:none;stroke-width:0.264583px;stroke-linecap:butt;stroke-linejoin:miter;stroke-opacity:1"
           d="m 260.46251,192.74315 3.50791,-0.46772 c 0,0 0.13282,-0.66847 0.3274,-0.93544 0.21306,-0.29231 0.52159,-0.54211 0.8653,-0.65481 0.52597,-0.17247 1.13409,-0.14803 1.66041,0.0234 0.37223,0.12124 0.74419,0.35081 0.95883,0.67821 0.20956,0.31964 0.2339,1.12252 0.2339,1.12252 l 4.23288,1.12253 0.0935,0.46773 c 0,0 -1.5556,0.77129 -2.54908,1.3213 -0.39599,0.21923 -0.51564,0.70916 -0.5145,0.94714 0.004,0.73723 0.25725,6.5715 0.25725,6.5715 l -1.05237,0.0234 -2.78295,-4.30304 c 0,0 -1.42825,1.43388 -2.22167,2.05797 -0.7868,0.61888 -2.50231,1.66041 -2.50231,1.66041 l -0.6782,-0.21047 c 0,0 2.68032,-5.06235 2.80633,-5.5425 0.0843,-0.32105 0.075,-0.75162 -0.1637,-0.98222 -0.5395,-0.5211 -2.50232,-2.36199 -2.50232,-2.36199 z"
           id="path4778-04"
           inkscape:connector-curvature="0"
           sodipodi:nodetypes="ccaaaacccsscccsccsscc" />
        <path
           style="fill:#ffffff;fill-opacity:1;stroke:none;stroke-width:0.264583px;stroke-linecap:butt;stroke-linejoin:miter;stroke-opacity:1"
           d="m 264.84605,192.43368 c -0.0861,-0.24435 -0.11634,-0.54573 0,-0.77721 0.1203,-0.23937 0.38673,-0.40814 0.64493,-0.47956 0.37374,-0.10338 0.80953,-0.0553 1.15755,0.11576 0.24496,0.12039 0.45663,0.34362 0.56224,0.59531 0.11311,0.26959 0.15136,0.60909 0.0331,0.87643 -0.11081,0.25042 -0.36737,0.44636 -0.62839,0.52917 -0.36913,0.1171 -0.81576,0.0829 -1.15755,-0.0992 -0.2872,-0.15299 -0.50372,-0.45378 -0.61183,-0.7607 z"
           id="path4780-3"
           inkscape:connector-curvature="0"
           sodipodi:nodetypes="aaaaaaaaa" />
        <path
           style="fill:#000000;fill-opacity:1;stroke:none;stroke-width:0.264583px;stroke-linecap:butt;stroke-linejoin:miter;stroke-opacity:1"
           d="m 241.56655,202.89271 3.50791,-0.46772 c 0,0 0.13282,-0.66847 0.3274,-0.93544 0.21306,-0.29231 0.52159,-0.54211 0.8653,-0.65481 0.52597,-0.17247 1.13409,-0.14803 1.66041,0.0234 0.37223,0.12124 0.74419,0.35081 0.95883,0.67821 0.20956,0.31964 0.2339,1.12252 0.2339,1.12252 l 4.23288,1.12253 0.0935,0.46773 c 0,0 -1.5556,0.77129 -2.54908,1.3213 -0.39599,0.21923 -0.51564,0.70916 -0.5145,0.94714 0.004,0.73723 0.25725,6.5715 0.25725,6.5715 l -1.05237,0.0234 -2.78295,-4.30304 c 0,0 -1.42825,1.43388 -2.22167,2.05797 -0.7868,0.61888 -2.50231,1.66041 -2.50231,1.66041 l -0.6782,-0.21047 c 0,0 2.68032,-5.06235 2.80633,-5.5425 0.0843,-0.32105 0.075,-0.75162 -0.1637,-0.98222 -0.5395,-0.5211 -2.50232,-2.36199 -2.50232,-2.36199 z"
           id="path4778-2"
           inkscape:connector-curvature="0"
           sodipodi:nodetypes="ccaaaacccsscccsccsscc" />
        <path
           style="fill:#ffffff;fill-opacity:1;stroke:none;stroke-width:0.264583px;stroke-linecap:butt;stroke-linejoin:miter;stroke-opacity:1"
           d="m 245.95009,202.58324 c -0.0861,-0.24435 -0.11634,-0.54573 0,-0.77721 0.1203,-0.23937 0.38673,-0.40814 0.64493,-0.47956 0.37374,-0.10338 0.80953,-0.0553 1.15755,0.11576 0.24496,0.12039 0.45663,0.34362 0.56224,0.59531 0.11311,0.26959 0.15136,0.60909 0.0331,0.87643 -0.11081,0.25042 -0.36737,0.44636 -0.62839,0.52917 -0.36913,0.1171 -0.81576,0.0829 -1.15755,-0.0992 -0.2872,-0.15299 -0.50372,-0.45378 -0.61183,-0.7607 z"
           id="path4780-8"
           inkscape:connector-curvature="0"
           sodipodi:nodetypes="aaaaaaaaa" />
        <path
           style="fill:#ffffff;fill-opacity:1;stroke:#000000;stroke-width:0.465;stroke-linecap:butt;stroke-linejoin:miter;stroke-miterlimit:4;stroke-dasharray:none;stroke-opacity:1"
           d="m 265.42669,207.51601 -3.95221,-0.52917 c 0,0 1.04113,1.03697 1.72806,1.69499 0.61193,0.58616 0.60984,1.13722 0.63665,1.69498 0.0617,1.2836 0.13229,3.853 0.13229,3.853 l 4.63021,0.23151 c 0,0 -0.005,-1.906 -0.0359,-3.00729 -0.0163,-0.57342 0.43268,-0.87323 0.72394,-0.96347 1.33231,-0.41279 2.86648,-0.76552 2.86648,-0.76552 l -4.001,-1.5145"
           id="path4852"
           inkscape:connector-curvature="0"
           sodipodi:nodetypes="ccssccsscc" />
        <path
           style="fill:#ffffff;fill-opacity:1;stroke:#000000;stroke-width:0.465;stroke-linecap:butt;stroke-linejoin:miter;stroke-miterlimit:4;stroke-dasharray:none;stroke-opacity:1"
           d="m 265.42669,207.51601 c -0.0241,-0.33592 0.12523,-0.70487 0.3638,-0.94258 0.22988,-0.22905 0.58525,-0.33439 0.90951,-0.34727 0.43049,-0.0171 0.89246,0.10951 1.24023,0.36381 0.23077,0.16875 0.43539,0.42861 0.47956,0.71106 0.0488,0.31195 -0.0715,0.6597 -0.26459,0.90951 -0.22373,0.28945 -0.58064,0.50886 -0.94257,0.56224 -0.42719,0.063 -0.91356,-0.0521 -1.25677,-0.31419 -0.28639,-0.21867 -0.50339,-0.58318 -0.52917,-0.94258 z"
           id="path4850"
           inkscape:connector-curvature="0"
           sodipodi:nodetypes="aaaaaaaaa" />
        <path
           style="fill:#ffffff;fill-opacity:1;stroke:#000000;stroke-width:0.465;stroke-linecap:butt;stroke-linejoin:miter;stroke-miterlimit:4;stroke-dasharray:none;stroke-opacity:1"
           d="m 258.34606,209.86131 -4.23288,0.25725 c 0,0 2.50862,1.93065 3.48453,3.15711 0.18905,0.23758 0.23894,0.63285 0.152,0.92375 -0.66705,2.23192 -2.09305,5.5659 -2.09305,5.5659 0,0 1.7236,-1.2837 2.24507,-1.80073 0.95445,-0.94632 1.53178,-1.95275 1.53178,-1.95275 l 2.8648,5.0514 c 0,0 -0.31332,-5.06944 0.0819,-7.46016 0.0906,-0.54822 0.39704,-1.2631 0.76004,-1.6838 0.76049,-0.88138 2.57247,-2.36199 2.57247,-2.36199 l -4.39657,0.23387"
           id="path4848"
           inkscape:connector-curvature="0"
           sodipodi:nodetypes="ccsscsccsscc" />
        <path
           style="fill:#ffffff;fill-opacity:1;stroke:#000000;stroke-width:0.465;stroke-linecap:butt;stroke-linejoin:miter;stroke-miterlimit:4;stroke-dasharray:none;stroke-opacity:1"
           d="m 258.34606,209.86131 c -0.15482,-0.32354 -0.14934,-0.73992 -0.0234,-1.07576 0.12594,-0.33584 0.39559,-0.65315 0.72497,-0.79513 0.40811,-0.17591 0.91809,-0.13578 1.33301,0.0234 0.3663,0.14053 0.71763,0.41865 0.88867,0.77174 0.14629,0.302 0.16797,0.69268 0.0468,1.0056 -0.13137,0.33926 -0.43817,0.62654 -0.77174,0.77174 -0.40052,0.17434 -0.89667,0.18921 -1.30962,0.0468 -0.36612,-0.12626 -0.72152,-0.39905 -0.88869,-0.74839 z"
           id="path4846"
           inkscape:connector-curvature="0"
           sodipodi:nodetypes="aaaaaaaaa" />
        <path
           style="fill:#ffffff;fill-opacity:1;stroke:#000000;stroke-width:0.465;stroke-linecap:butt;stroke-linejoin:miter;stroke-miterlimit:4;stroke-dasharray:none;stroke-opacity:1"
           d="m 268.17991,213.21721 4.19781,1.39147 c 0,0 -1.13698,0.4791 -1.63702,0.77174 -0.47096,0.27562 -1.26287,0.91206 -1.26287,0.91206 l 0.1637,6.78196 -2.99342,-4.34981 c 0,0 -1.61344,1.55553 -2.55492,2.25091 -0.70329,0.51945 -2.30937,1.44409 -2.30937,1.44409 0,0 1.51011,-3.26242 2.32609,-4.89855 0.25302,-0.50734 0.25601,-1.00097 -0.12262,-1.37743 -0.97738,-0.97178 -2.39057,-2.33009 -2.39057,-2.33009 l 3.80024,-0.58466"
           id="path4842"
           inkscape:connector-curvature="0"
           sodipodi:nodetypes="ccscccscsscc" />
        <path
           style="fill:#ffffff;fill-opacity:1;stroke:#000000;stroke-width:0.465;stroke-linecap:butt;stroke-linejoin:miter;stroke-miterlimit:4;stroke-dasharray:none;stroke-opacity:1"
           d="m 267.49002,213.9071 c -0.41491,0.18031 -0.93484,0.21101 -1.35639,0.0468 -0.32103,-0.12505 -0.59246,-0.41208 -0.73667,-0.72497 -0.11612,-0.25195 -0.14083,-0.56529 -0.0585,-0.83021 0.10207,-0.32843 0.33993,-0.64446 0.64312,-0.80682 0.36211,-0.19392 0.83482,-0.22484 1.22778,-0.10523 0.3395,0.10334 0.65611,0.35726 0.8302,0.6665 0.1755,0.31175 0.25528,0.72526 0.14033,1.06404 -0.1045,0.30797 -0.3916,0.56027 -0.68987,0.68989 z"
           id="path4844"
           inkscape:connector-curvature="0"
           sodipodi:nodetypes="aaaaaaaaa" />
      </g>
    </g>
  </g>
</svg>
