<?xml version="1.0" encoding="UTF-8" standalone="no"?>
<!-- Created with Inkscape (http://www.inkscape.org/) -->

<svg
   width="74mm"
   height="105mm"
   viewBox="0 0 262.20472 372.04724"
   id="svg2"
   version="1.1"
   inkscape:version="1.3.1 (91b66b0783, 2023-11-16)"
   sodipodi:docname="nine-whys-front.svg"
   enable-background="new"
   xmlns:inkscape="http://www.inkscape.org/namespaces/inkscape"
   xmlns:sodipodi="http://sodipodi.sourceforge.net/DTD/sodipodi-0.dtd"
   xmlns:xlink="http://www.w3.org/1999/xlink"
   xmlns="http://www.w3.org/2000/svg"
   xmlns:svg="http://www.w3.org/2000/svg"
   xmlns:rdf="http://www.w3.org/1999/02/22-rdf-syntax-ns#"
   xmlns:cc="http://creativecommons.org/ns#"
   xmlns:dc="http://purl.org/dc/elements/1.1/">
  <defs
     id="defs4" />
  <sodipodi:namedview
     id="base"
     pagecolor="#ffffff"
     bordercolor="#666666"
     borderopacity="1.0"
     inkscape:pageopacity="1"
     inkscape:pageshadow="2"
     inkscape:zoom="2.0000001"
     inkscape:cx="-30.749998"
     inkscape:cy="181.74999"
     inkscape:document-units="mm"
     inkscape:current-layer="layer4"
     showgrid="false"
     showguides="false"
     inkscape:guide-bbox="true"
     inkscape:snap-bbox="false"
     inkscape:bbox-nodes="true"
     inkscape:object-nodes="true"
     inkscape:snap-page="true"
     inkscape:snap-grids="false"
     inkscape:window-width="1920"
     inkscape:window-height="1017"
     inkscape:window-x="-8"
     inkscape:window-y="-8"
     inkscape:window-maximized="1"
     inkscape:snap-others="false"
     inkscape:snap-nodes="true"
     inkscape:showpageshadow="2"
     inkscape:pagecheckerboard="0"
     inkscape:deskcolor="#d1d1d1">
    <sodipodi:guide
       position="19.48819,143.57143"
       orientation="1,0"
       id="guide3342"
       inkscape:label=""
       inkscape:color="rgb(0,0,255)"
       inkscape:locked="false" />
    <sodipodi:guide
       position="242.71654,160.71429"
       orientation="1,0"
       id="guide3344"
       inkscape:label=""
       inkscape:color="rgb(0,0,255)"
       inkscape:locked="false" />
    <sodipodi:guide
       position="100.71429,10.629921"
       orientation="0,1"
       id="guide3346"
       inkscape:label=""
       inkscape:color="rgb(0,0,255)"
       inkscape:locked="false" />
    <sodipodi:guide
       position="75.714288,361.41732"
       orientation="0,1"
       id="guide3348"
       inkscape:label=""
       inkscape:color="rgb(0,0,255)"
       inkscape:locked="false" />
    <sodipodi:guide
       position="242.71654,289.15617"
       orientation="1,0"
       id="guide4173"
       inkscape:locked="false" />
    <sodipodi:guide
       position="-54.642858,21.259842"
       orientation="0,1"
       id="guide4176"
       inkscape:label=""
       inkscape:color="rgb(0,0,255)"
       inkscape:locked="false" />
    <sodipodi:guide
       position="0,350.7874"
       orientation="0,1"
       id="guide4178"
       inkscape:label=""
       inkscape:color="rgb(0,0,255)"
       inkscape:locked="false" />
    <sodipodi:guide
       position="30.118111,388.21428"
       orientation="1,0"
       id="guide4180"
       inkscape:label=""
       inkscape:color="rgb(0,0,255)"
       inkscape:locked="false" />
    <sodipodi:guide
       position="232.08662,385.71428"
       orientation="1,0"
       id="guide4182"
       inkscape:label=""
       inkscape:color="rgb(0,0,255)"
       inkscape:locked="false" />
    <sodipodi:guide
       position="40.748033,260.35714"
       orientation="1,0"
       id="guide4252"
       inkscape:label=""
       inkscape:color="rgb(0,0,255)"
       inkscape:locked="false" />
    <sodipodi:guide
       position="221.4567,323.92857"
       orientation="1,0"
       id="guide4254"
       inkscape:label=""
       inkscape:color="rgb(0,0,255)"
       inkscape:locked="false" />
    <sodipodi:guide
       position="-107.14286,340.15748"
       orientation="0,1"
       id="guide4256"
       inkscape:label=""
       inkscape:color="rgb(0,0,255)"
       inkscape:locked="false" />
    <sodipodi:guide
       position="-111.42857,31.889764"
       orientation="0,1"
       id="guide4258"
       inkscape:label=""
       inkscape:color="rgb(0,0,255)"
       inkscape:locked="false" />
    <sodipodi:guide
       position="-60.356616,230.31496"
       orientation="0,1"
       id="guide4262"
       inkscape:label=""
       inkscape:color="rgb(0,0,255)"
       inkscape:locked="false" />
    <sodipodi:guide
       position="-56.063468,258.66142"
       orientation="0,1"
       id="guide4269"
       inkscape:label=""
       inkscape:color="rgb(0,0,255)"
       inkscape:locked="false" />
    <sodipodi:guide
       position="93.897641,308.6016"
       orientation="1,0"
       id="guide4271"
       inkscape:label=""
       inkscape:color="rgb(0,0,255)"
       inkscape:locked="false" />
    <sodipodi:guide
       position="109.84252,340.15748"
       orientation="1,0"
       id="guide4273"
       inkscape:label=""
       inkscape:color="rgb(0,0,255)"
       inkscape:locked="false" />
    <sodipodi:guide
       position="-60.500002,219.68504"
       orientation="0,1"
       id="guide4303"
       inkscape:label=""
       inkscape:color="rgb(0,0,255)"
       inkscape:locked="false" />
  </sodipodi:namedview>
  <metadata
     id="metadata7">
    <rdf:RDF>
      <cc:Work
         rdf:about="">
        <dc:format>image/svg+xml</dc:format>
        <dc:type
           rdf:resource="http://purl.org/dc/dcmitype/StillImage" />
        <dc:title />
      </cc:Work>
    </rdf:RDF>
  </metadata>
  <g
     inkscape:label="Cut line"
     inkscape:groupmode="layer"
     id="layer1"
     transform="translate(0,-680.31496)"
     style="display:inline"
     sodipodi:insensitive="true">
    <path
       style="fill:none;fill-rule:evenodd;stroke:#808080;stroke-width:0.70866144;stroke-linecap:butt;stroke-linejoin:miter;stroke-miterlimit:4;stroke-dasharray:2.83464575, 2.83464575;stroke-dashoffset:0;stroke-opacity:1"
       d="m 19.488189,690.94488 0,350.78742 223.228341,0 0,-350.78742 z"
       id="path3350"
       inkscape:connector-curvature="0"
       transform="translate(4.3385302e-7,8.6660179e-6)" />
  </g>
  <g
     inkscape:groupmode="layer"
     id="layer6"
     inkscape:label="Logo"
     style="display:inline"
     sodipodi:insensitive="true">
    <path
       style="fill:none;fill-rule:evenodd;stroke:none;stroke-width:1px;stroke-linecap:butt;stroke-linejoin:miter;stroke-opacity:1"
       d="m 40.748032,31.889763 0,81.496057 53.149606,0 0,-81.496057 -53.149606,0"
       id="path4275"
       inkscape:connector-curvature="0" />
    <g
       transform="matrix(1.6592045,0,0,1.6592045,32.908663,-288.6733)"
       style="display:inline;opacity:1"
       inkscape:label="9whys"
       id="layer4-3">
      <g
         id="g4631">
        <circle
           style="opacity:1;fill:#ffffff;fill-opacity:1;stroke:none;stroke-width:0.26499999;stroke-miterlimit:4;stroke-dasharray:none;stroke-opacity:1"
           id="path4619"
           cx="18.34137"
           cy="210.97716"
           r="6.3142428" />
        <g
           id="g864">
          <path
             transform="scale(0.26458333,0.26458333)"
             id="path909"
             d="M 78.392578,762.5 A 60.535706,60.535706 0 0 0 17.857422,823.03516 60.535706,60.535706 0 0 0 78.392578,883.57227 60.535706,60.535706 0 0 0 138.92773,823.03516 60.535706,60.535706 0 0 0 78.392578,762.5 Z M 69.375,776.07227 a 21.517857,21.517857 0 0 1 2.148438,0.10742 21.517857,21.517857 0 0 1 2.126953,0.32031 21.517857,21.517857 0 0 1 2.083984,0.5332 21.517857,21.517857 0 0 1 2.019531,0.73633 21.517857,21.517857 0 0 1 1.9375,0.93555 21.517857,21.517857 0 0 1 1.833985,1.125 21.517857,21.517857 0 0 1 1.710937,1.30078 21.517857,21.517857 0 0 1 1.574219,1.4668 21.517857,21.517857 0 0 1 1.419922,1.61523 21.517857,21.517857 0 0 1 1.251953,1.75 21.517857,21.517857 0 0 1 1.070312,1.86523 21.517857,21.517857 0 0 1 0.876954,1.96485 21.517857,21.517857 0 0 1 0.679687,2.04101 21.517857,21.517857 0 0 1 0.470703,2.09766 21.517857,21.517857 0 0 1 0.259766,2.13477 21.517857,21.517857 0 0 1 0.05273,1.52343 21.517857,21.517857 0 0 1 -0.107422,2.14844 21.517857,21.517857 0 0 1 -0.320312,2.125 21.517857,21.517857 0 0 1 -0.533203,2.08399 21.517857,21.517857 0 0 1 -0.738282,2.02148 21.517857,21.517857 0 0 1 -0.935547,1.9375 21.517857,21.517857 0 0 1 -1.123046,1.83203 21.517857,21.517857 0 0 1 -1.302735,1.71289 21.517857,21.517857 0 0 1 -1.464843,1.57422 21.517857,21.517857 0 0 1 -1.617188,1.41992 21.517857,21.517857 0 0 1 -1.748047,1.25 21.517857,21.517857 0 0 1 -1.867187,1.07031 21.517857,21.517857 0 0 1 -1.962891,0.87891 21.517857,21.517857 0 0 1 -2.041016,0.67774 21.517857,21.517857 0 0 1 -2.097656,0.47265 21.517857,21.517857 0 0 1 -2.136719,0.25781 21.517857,21.517857 0 0 1 -1.52148,0.0547 A 21.517857,21.517857 0 0 1 67.226562,819 a 21.517857,21.517857 0 0 1 -2.126953,-0.32227 21.517857,21.517857 0 0 1 -2.083984,-0.53125 21.517857,21.517857 0 0 1 -2.019531,-0.73828 21.517857,21.517857 0 0 1 -1.9375,-0.93554 21.517857,21.517857 0 0 1 -1.833985,-1.12305 21.517857,21.517857 0 0 1 -1.710937,-1.30273 21.517857,21.517857 0 0 1 -1.574219,-1.4668 21.517857,21.517857 0 0 1 -1.419922,-1.61524 21.517857,21.517857 0 0 1 -1.251953,-1.75 21.517857,21.517857 0 0 1 -1.070312,-1.86523 21.517857,21.517857 0 0 1 -0.876954,-1.96289 21.517857,21.517857 0 0 1 -0.679687,-2.04102 21.517857,21.517857 0 0 1 -0.470703,-2.09961 21.517857,21.517857 0 0 1 -0.259766,-2.13476 21.517857,21.517857 0 0 1 -0.05273,-1.52149 21.517857,21.517857 0 0 1 0.107422,-2.14843 21.517857,21.517857 0 0 1 0.320312,-2.12696 21.517857,21.517857 0 0 1 0.533203,-2.08398 21.517857,21.517857 0 0 1 0.738282,-2.02149 21.517857,21.517857 0 0 1 0.935547,-1.93554 21.517857,21.517857 0 0 1 1.123046,-1.83399 21.517857,21.517857 0 0 1 1.302735,-1.71289 21.517857,21.517857 0 0 1 1.464843,-1.57422 A 21.517857,21.517857 0 0 1 56,780.73438 a 21.517857,21.517857 0 0 1 1.748047,-1.25196 21.517857,21.517857 0 0 1 1.867187,-1.07031 21.517857,21.517857 0 0 1 1.962891,-0.87891 21.517857,21.517857 0 0 1 2.041016,-0.67773 21.517857,21.517857 0 0 1 2.097656,-0.4707 21.517857,21.517857 0 0 1 2.136719,-0.25977 21.517857,21.517857 0 0 1 1.521484,-0.0527 z"
             style="fill:#000000;fill-opacity:1;stroke:none;stroke-width:3.7628777;stroke-miterlimit:4;stroke-dasharray:none;stroke-opacity:1"
             inkscape:connector-curvature="0" />
          <g
             id="text838"
             style="font-style:normal;font-weight:normal;font-size:10.58333302px;line-height:1.25;font-family:sans-serif;letter-spacing:0px;word-spacing:0px;fill:#000000;fill-opacity:1;stroke:none;stroke-width:0.26458332"
             aria-label="9">
            <path
               id="path844"
               style="font-style:normal;font-variant:normal;font-weight:bold;font-stretch:normal;font-family:JournalSans;-inkscape-font-specification:'JournalSans Bold';stroke-width:0.26458332"
               d="m 19.712653,212.47476 c 0.211667,-0.37042 0.370417,-0.65617 0.47625,-0.86784 0.116417,-0.22225 0.232834,-0.52916 0.34925,-0.93133 0.127,-0.40217 0.1905,-0.78317 0.1905,-1.15358 0,-0.59267 -0.232833,-1.09009 -0.687916,-1.50284 -0.455084,-0.41275 -1.016,-0.61383 -1.693334,-0.61383 -0.709083,0 -1.269999,0.22225 -1.693333,0.67733 -0.423333,0.45509 -0.635,0.97367 -0.635,1.56634 0,0.60325 0.1905,1.10066 0.5715,1.50283 0.391584,0.39158 0.846667,0.59267 1.386417,0.59267 0.201083,0 0.359833,-0.0106 0.455083,-0.0317 l -1.799166,2.88925 1.852083,0 z m -0.889,-2.3495 c -0.243416,0.30691 -0.645583,0.30691 -0.899583,0 -0.243416,-0.30692 -0.243416,-0.79375 0,-1.10067 0.254,-0.30692 0.656167,-0.30692 0.899583,0 0.243417,0.30692 0.243417,0.79375 0,1.10067 z"
               inkscape:connector-curvature="0" />
          </g>
          <g
             id="text842"
             style="font-style:normal;font-weight:normal;font-size:10.58333302px;line-height:1.25;font-family:sans-serif;letter-spacing:0px;word-spacing:0px;fill:#000000;fill-opacity:1;stroke:none;stroke-width:0.26458332"
             aria-label="whys">
            <path
               id="path847"
               style="font-style:normal;font-variant:normal;font-weight:bold;font-stretch:normal;font-size:8.46666622px;font-family:sans-serif;-inkscape-font-specification:'sans-serif Bold';letter-spacing:-0.29104167px;fill:#ffffff;fill-opacity:1;stroke-width:0.26458332"
               d="m 17.537816,222.0152 -1.438672,4.64261 -1.579232,0 -0.946712,-3.12953 -0.930176,3.12953 -1.599902,0 -1.4262692,-4.64261 1.5626952,0 0.79375,3.1998 0.992187,-3.1998 1.318783,0 0.942578,3.1998 0.781348,-3.1998 z"
               inkscape:connector-curvature="0" />
            <path
               id="path849"
               style="font-style:normal;font-variant:normal;font-weight:bold;font-stretch:normal;font-size:8.46666622px;font-family:sans-serif;-inkscape-font-specification:'sans-serif Bold';letter-spacing:-0.29104167px;fill:#ffffff;fill-opacity:1;stroke-width:0.26458332"
               d="m 22.807159,226.65781 -1.49655,0 0,-2.30271 q 0,-0.28112 -0.02894,-0.5581 -0.02894,-0.28112 -0.09922,-0.41341 -0.08268,-0.15296 -0.243913,-0.22324 -0.157096,-0.0703 -0.44235,-0.0703 -0.202572,0 -0.413412,0.0661 -0.206705,0.0662 -0.450618,0.21084 l 0,3.29076 -1.488281,0 0,-6.43269 1.488281,0 0,2.30271 q 0.396875,-0.31006 0.760677,-0.47543 0.367936,-0.16536 0.81442,-0.16536 0.752409,0 1.174089,0.43821 0.425814,0.43822 0.425814,1.31052 z"
               inkscape:connector-curvature="0" />
            <path
               id="path851"
               style="font-style:normal;font-variant:normal;font-weight:bold;font-stretch:normal;font-size:8.46666622px;font-family:sans-serif;-inkscape-font-specification:'sans-serif Bold';letter-spacing:-0.29104167px;fill:#ffffff;fill-opacity:1;stroke-width:0.26458332"
               d="m 25.984639,225.01656 1.058333,-3.00136 1.529622,0 -2.579687,6.34586 -1.612304,0 0.735872,-1.73633 -1.806608,-4.60953 1.562695,0 z"
               inkscape:connector-curvature="0" />
            <path
               id="path853"
               style="font-style:normal;font-variant:normal;font-weight:bold;font-stretch:normal;font-size:8.46666622px;font-family:sans-serif;-inkscape-font-specification:'sans-serif Bold';letter-spacing:-0.29104167px;fill:#ffffff;fill-opacity:1;stroke-width:0.26458332"
               d="m 33.139138,225.18606 q 0,0.71934 -0.644922,1.16169 -0.644922,0.43821 -1.765267,0.43821 -0.620117,0 -1.124479,-0.11575 -0.504362,-0.11576 -0.810287,-0.25632 l 0,-1.22369 0.136426,0 q 0.111621,0.0785 0.256315,0.17363 0.148828,0.0909 0.417546,0.19844 0.23151,0.0951 0.525032,0.16536 0.293522,0.0661 0.628386,0.0661 0.438216,0 0.649056,-0.0951 0.21084,-0.0992 0.21084,-0.28939 0,-0.16949 -0.124024,-0.24391 -0.124023,-0.0786 -0.471289,-0.14883 -0.165365,-0.0372 -0.450618,-0.0786 -0.28112,-0.0455 -0.512631,-0.10748 -0.632519,-0.16537 -0.938444,-0.51263 -0.305924,-0.3514 -0.305924,-0.8723 0,-0.66973 0.632519,-1.11208 0.636654,-0.44648 1.736328,-0.44648 0.520899,0 0.996322,0.10749 0.479557,0.10335 0.748275,0.22324 l 0,1.17409 -0.128158,0 q -0.330729,-0.22738 -0.756543,-0.36794 -0.421679,-0.14469 -0.855761,-0.14469 -0.359668,0 -0.607715,0.0992 -0.243913,0.0992 -0.243913,0.28112 0,0.16537 0.111621,0.25219 0.111621,0.0868 0.525033,0.17363 0.227376,0.0455 0.487825,0.0909 0.264583,0.0413 0.529167,0.10749 0.587044,0.15296 0.868164,0.48369 0.28112,0.32659 0.28112,0.81855 z"
               inkscape:connector-curvature="0" />
          </g>
        </g>
      </g>
    </g>
  </g>
  <g
     inkscape:groupmode="layer"
     id="layer9"
     inkscape:label="Title"
     style="display:inline"
     sodipodi:insensitive="true">
    <path
       style="fill:none;fill-rule:evenodd;stroke:none;stroke-width:1px;stroke-linecap:butt;stroke-linejoin:miter;stroke-opacity:1"
       d="m 109.84252,113.38582 111.61417,0 0,-81.496057 -111.61417,0 z"
       id="path4349_nwf"
       inkscape:connector-curvature="0" />
    <flowRoot
       xml:space="preserve"
       style="font-style:normal;font-weight:normal;line-height:0.01%;font-family:sans-serif;text-align:end;letter-spacing:0px;word-spacing:0px;text-anchor:end;fill:#000000;fill-opacity:1;stroke:none;stroke-width:1px;stroke-linecap:butt;stroke-linejoin:miter;stroke-opacity:1"
       id="flowRoot4357"
       transform="translate(0,19.716521)"><flowRegion
         id="flowRegion4359"><use
           x="0"
           y="0"
           xlink:href="#path4349_nwf"
           id="use4361"
           width="100%"
           height="100%" /></flowRegion><flowPara
         id="flowPara4363"
         style="font-style:normal;font-variant:normal;font-weight:bold;font-stretch:normal;font-size:13.75px;line-height:1.25;font-family:Roboto;-inkscape-font-specification:'Roboto Bold';text-align:end;text-anchor:end">Nine Whys</flowPara><flowPara
         id="flowPara4365"
         style="font-style:normal;font-variant:normal;font-weight:normal;font-stretch:normal;font-size:8.75px;line-height:125%;font-family:Lato;-inkscape-font-specification:Lato;text-align:end;letter-spacing:0px;text-anchor:end;fill:#1a1a1a">Make the purpose of your work together clear</flowPara></flowRoot>
  </g>
  <g
     inkscape:groupmode="layer"
     id="layer8"
     inkscape:label="Separator"
     style="display:inline"
     sodipodi:insensitive="true">
    <rect
       style="display:inline;fill:#9955ff;fill-opacity:1;stroke:none;stroke-width:1;stroke-miterlimit:4;stroke-dasharray:none;stroke-dashoffset:0;stroke-opacity:1"
       id="rect4178"
       width="134.64568"
       height="17.716536"
       x="30.118111"
       y="124.01575" />
    <text
       xml:space="preserve"
       style="font-style:normal;font-weight:normal;line-height:0%;font-family:sans-serif;letter-spacing:0px;word-spacing:0px;display:inline;fill:#000000;fill-opacity:1;stroke:none;stroke-width:1px;stroke-linecap:butt;stroke-linejoin:miter;stroke-opacity:1"
       x="39.935043"
       y="137.46776"
       id="text4180"><tspan
         sodipodi:role="line"
         id="tspan4182"
         x="39.935043"
         y="137.46776"
         style="font-style:normal;font-variant:normal;font-weight:bold;font-stretch:normal;font-size:12.5px;line-height:1.25;font-family:Lato;-inkscape-font-specification:'Lato Bold';fill:#ffffff">Analyze</tspan></text>
    <rect
       y="124.01575"
       x="164.76379"
       height="17.716536"
       width="67.322838"
       id="rect4191"
       style="display:inline;fill:#e6e6e6;fill-opacity:1;stroke:none;stroke-width:1;stroke-miterlimit:4;stroke-dasharray:none;stroke-dashoffset:0;stroke-opacity:1" />
    <text
       xml:space="preserve"
       style="font-style:normal;font-weight:normal;line-height:0%;font-family:sans-serif;letter-spacing:0px;word-spacing:0px;fill:#1a1a1a;fill-opacity:1;stroke:none;stroke-width:1px;stroke-linecap:butt;stroke-linejoin:miter;stroke-opacity:1"
       x="184.26759"
       y="137.39589"
       id="text4193"><tspan
         sodipodi:role="line"
         id="tspan4195"
         x="184.26759"
         y="137.39589"
         style="font-style:normal;font-variant:normal;font-weight:500;font-stretch:normal;font-size:12.5px;line-height:1.25;font-family:Lato;-inkscape-font-specification:'Lato Medium';fill:#1a1a1a">20 min</tspan></text>
  </g>
  <g
     inkscape:groupmode="layer"
     id="layer5"
     inkscape:label="Border"
     style="display:inline"
     sodipodi:insensitive="true">
    <rect
       style="fill:none;fill-opacity:1;stroke:#000000;stroke-width:0.35433072;stroke-miterlimit:4;stroke-dasharray:none;stroke-dashoffset:0;stroke-opacity:1"
       id="rect4187"
       width="201.96851"
       height="329.52756"
       x="30.118111"
       y="21.259844"
       ry="14.6735"
       rx="12.76433" />
  </g>
  <g
     inkscape:groupmode="layer"
     id="layer4"
     inkscape:label="Body"
     style="display:inline">
    <path
       style="fill:none;fill-rule:evenodd;stroke:none;stroke-width:1px;stroke-linecap:butt;stroke-linejoin:miter;stroke-opacity:1"
       d="m 40.748032,152.3622 0,187.79528 180.708658,0 0,-187.79528 z"
       id="path4305_nwf"
       inkscape:connector-curvature="0" />
    
    <flowRoot
       xml:space="preserve"
       style="font-style:normal;font-weight:normal;line-height:0.01%;font-family:sans-serif;letter-spacing:0px;word-spacing:0px;fill:#000000;fill-opacity:1;stroke:none;stroke-width:1px;stroke-linecap:butt;stroke-linejoin:miter;stroke-opacity:1"
       id="flowRoot4319"
       transform="matrix(1,0,0,1.0068578,-0.17251487,-4.5759283)"><flowRegion
         id="flowRegion4321"><use
           x="0"
           y="0"
           xlink:href="#path4305_nwf"
           id="use4323"
           width="100%"
           height="100%"
           transform="matrix(1,0,0,0.99318888,0.17251487,4.5447611)" /></flowRegion><flowPara
         id="flowPara4325"
         style="font-style:normal;font-variant:normal;font-weight:bold;font-stretch:normal;font-size:8.72015px;line-height:1.25;font-family:Roboto;-inkscape-font-specification:'Roboto Bold';fill:#999999;fill-opacity:1">Invitation</flowPara><flowPara
         style="font-style:normal;font-variant:normal;font-weight:500;font-stretch:normal;font-size:8.72015px;line-height:1.25;font-family:Lato;-inkscape-font-specification:'Lato Medium';fill:#1a1a1a;fill-opacity:1"
         id="flowPara4398">Ask:</flowPara><flowPara
         style="font-style:normal;font-variant:normal;font-weight:500;font-stretch:normal;font-size:8.72015px;line-height:1.25;font-family:Lato;-inkscape-font-specification:'Lato Medium';fill:#1a1a1a;fill-opacity:1"
         id="flowPara4400">- “What do you do when working on ... (the subject matter or challenge at hand)? Please make a short list of activities.”</flowPara><flowPara
         style="font-style:normal;font-variant:normal;font-weight:500;font-stretch:normal;font-size:8.72015px;line-height:1.25;font-family:Lato;-inkscape-font-specification:'Lato Medium';fill:#1a1a1a;fill-opacity:1"
         id="flowPara4284">- “Why is that important to you?”</flowPara><flowPara
         style="font-style:normal;font-variant:normal;font-weight:500;font-stretch:normal;font-size:8.72015px;line-height:1.25;font-family:Lato;-inkscape-font-specification:'Lato Medium';fill:#1a1a1a;fill-opacity:1"
         id="flowPara4286">- Keep asking, “Why? Why? Why?” up to nine times or until participants have reached the fundamental purpose for this work</flowPara><flowPara
         style="font-style:normal;font-variant:normal;font-weight:500;font-stretch:normal;font-size:8.72015px;line-height:1.25;font-family:Lato;-inkscape-font-specification:'Lato Medium';fill:#1a1a1a;fill-opacity:1"
         id="flowPara4200"> </flowPara><flowPara
         style="font-style:normal;font-variant:normal;font-weight:bold;font-stretch:normal;font-size:8.72015px;line-height:1.25;font-family:Roboto;-inkscape-font-specification:'Roboto Bold';fill:#999999;fill-opacity:1"
         id="flowPara4212">People</flowPara><flowPara
         style="font-style:normal;font-variant:normal;font-weight:500;font-stretch:normal;font-size:8.72015px;line-height:1.25;font-family:Lato;-inkscape-font-specification:'Lato Medium';fill:#1a1a1a;fill-opacity:1"
         id="flowPara4413">Start with pairs, then groups of four, then the whole group </flowPara><flowPara
         style="font-style:normal;font-variant:normal;font-weight:500;font-stretch:normal;font-size:8.72015px;line-height:1.25;font-family:Lato;-inkscape-font-specification:'Lato Medium';fill:#1a1a1a;fill-opacity:1"
         id="flowPara4214" /><flowPara
         style="font-style:normal;font-variant:normal;font-weight:bold;font-stretch:normal;font-size:8.72015px;line-height:1.25;font-family:Roboto;-inkscape-font-specification:'Roboto Bold';fill:#999999;fill-opacity:1"
         id="flowPara4202">Space &amp; Materials</flowPara><flowPara
         style="font-style:normal;font-variant:normal;font-weight:500;font-stretch:normal;font-size:8.72015px;line-height:1.25;font-family:Lato;-inkscape-font-specification:'Lato Medium';fill:#1a1a1a;fill-opacity:1"
         id="flowPara4210">- Chairs for people to sit face-to-face</flowPara><flowPara
         style="font-style:normal;font-variant:normal;font-weight:500;font-stretch:normal;font-size:8.72015px;line-height:1.25;font-family:Lato;-inkscape-font-specification:'Lato Medium';fill:#1a1a1a;fill-opacity:1"
         id="flowPara4290">- No tables or equipment needed </flowPara><flowPara
         style="font-style:normal;font-variant:normal;font-weight:500;font-stretch:normal;font-size:8.72015px;line-height:1.25;font-family:Lato;-inkscape-font-specification:'Lato Medium';fill:#1a1a1a;fill-opacity:1"
         id="flowPara4206" /></flowRoot>
  </g>
</svg>
