<?xml version="1.0" encoding="UTF-8" standalone="no"?>
<!-- Created with Inkscape (http://www.inkscape.org/) -->

<svg
   width="74mm"
   height="105mm"
   viewBox="0 0 262.20472 372.04724"
   id="svg2"
   version="1.1"
   inkscape:version="1.3.1 (91b66b0783, 2023-11-16)"
   sodipodi:docname="open-space-technology-back.svg"
   enable-background="new"
   xmlns:inkscape="http://www.inkscape.org/namespaces/inkscape"
   xmlns:sodipodi="http://sodipodi.sourceforge.net/DTD/sodipodi-0.dtd"
   xmlns:xlink="http://www.w3.org/1999/xlink"
   xmlns="http://www.w3.org/2000/svg"
   xmlns:svg="http://www.w3.org/2000/svg"
   xmlns:rdf="http://www.w3.org/1999/02/22-rdf-syntax-ns#"
   xmlns:cc="http://creativecommons.org/ns#"
   xmlns:dc="http://purl.org/dc/elements/1.1/">
  <defs
     id="defs4" />
  <sodipodi:namedview
     id="base"
     pagecolor="#ffffff"
     bordercolor="#666666"
     borderopacity="1.0"
     inkscape:pageopacity="1"
     inkscape:pageshadow="2"
     inkscape:zoom="2"
     inkscape:cx="160.25"
     inkscape:cy="175.25"
     inkscape:document-units="mm"
     inkscape:current-layer="layer10"
     showgrid="false"
     showguides="false"
     inkscape:guide-bbox="true"
     inkscape:snap-bbox="false"
     inkscape:bbox-nodes="true"
     inkscape:object-nodes="true"
     inkscape:snap-page="true"
     inkscape:snap-grids="false"
     inkscape:window-width="1920"
     inkscape:window-height="1017"
     inkscape:window-x="-8"
     inkscape:window-y="-8"
     inkscape:window-maximized="1"
     inkscape:snap-others="false"
     inkscape:snap-nodes="true"
     inkscape:showpageshadow="2"
     inkscape:pagecheckerboard="0"
     inkscape:deskcolor="#d1d1d1">
    <sodipodi:guide
       position="19.48819,143.57143"
       orientation="1,0"
       id="guide3342"
       inkscape:label=""
       inkscape:color="rgb(0,0,255)"
       inkscape:locked="false" />
    <sodipodi:guide
       position="242.71654,160.71429"
       orientation="1,0"
       id="guide3344"
       inkscape:label=""
       inkscape:color="rgb(0,0,255)"
       inkscape:locked="false" />
    <sodipodi:guide
       position="100.71429,10.629921"
       orientation="0,1"
       id="guide3346"
       inkscape:label=""
       inkscape:color="rgb(0,0,255)"
       inkscape:locked="false" />
    <sodipodi:guide
       position="75.714288,361.41732"
       orientation="0,1"
       id="guide3348"
       inkscape:label=""
       inkscape:color="rgb(0,0,255)"
       inkscape:locked="false" />
    <sodipodi:guide
       position="242.71654,289.15617"
       orientation="1,0"
       id="guide4173"
       inkscape:locked="false" />
    <sodipodi:guide
       position="-54.642858,21.259842"
       orientation="0,1"
       id="guide4176"
       inkscape:label=""
       inkscape:color="rgb(0,0,255)"
       inkscape:locked="false" />
    <sodipodi:guide
       position="0,350.7874"
       orientation="0,1"
       id="guide4178"
       inkscape:label=""
       inkscape:color="rgb(0,0,255)"
       inkscape:locked="false" />
    <sodipodi:guide
       position="30.118111,388.21428"
       orientation="1,0"
       id="guide4180"
       inkscape:label=""
       inkscape:color="rgb(0,0,255)"
       inkscape:locked="false" />
    <sodipodi:guide
       position="232.08662,385.71428"
       orientation="1,0"
       id="guide4182"
       inkscape:label=""
       inkscape:color="rgb(0,0,255)"
       inkscape:locked="false" />
    <sodipodi:guide
       position="40.748033,260.35714"
       orientation="1,0"
       id="guide4252"
       inkscape:label=""
       inkscape:color="rgb(0,0,255)"
       inkscape:locked="false" />
    <sodipodi:guide
       position="221.4567,323.92857"
       orientation="1,0"
       id="guide4254"
       inkscape:label=""
       inkscape:color="rgb(0,0,255)"
       inkscape:locked="false" />
    <sodipodi:guide
       position="-107.14286,340.15748"
       orientation="0,1"
       id="guide4256"
       inkscape:label=""
       inkscape:color="rgb(0,0,255)"
       inkscape:locked="false" />
    <sodipodi:guide
       position="-111.42857,31.889764"
       orientation="0,1"
       id="guide4258"
       inkscape:label=""
       inkscape:color="rgb(0,0,255)"
       inkscape:locked="false" />
    <sodipodi:guide
       position="-60.356616,308.26772"
       orientation="0,1"
       id="guide4262"
       inkscape:label=""
       inkscape:color="rgb(0,0,255)"
       inkscape:locked="false" />
    <sodipodi:guide
       position="-56.063468,297.63779"
       orientation="0,1"
       id="guide4269"
       inkscape:label=""
       inkscape:color="rgb(0,0,255)"
       inkscape:locked="false" />
    <sodipodi:guide
       position="93.897641,308.6016"
       orientation="1,0"
       id="guide4271"
       inkscape:label=""
       inkscape:color="rgb(0,0,255)"
       inkscape:locked="false" />
    <sodipodi:guide
       position="99.212601,340.15748"
       orientation="1,0"
       id="guide4273"
       inkscape:label=""
       inkscape:color="rgb(0,0,255)"
       inkscape:locked="false" />
    <sodipodi:guide
       position="-60.500002,279.92126"
       orientation="0,1"
       id="guide4303"
       inkscape:label=""
       inkscape:color="rgb(0,0,255)"
       inkscape:locked="false" />
    <sodipodi:guide
       position="-102.5,269.29134"
       orientation="0,1"
       id="guide4314"
       inkscape:label=""
       inkscape:color="rgb(0,0,255)"
       inkscape:locked="false" />
    <sodipodi:guide
       position="194.8819,223.95843"
       orientation="1,0"
       id="guide4201"
       inkscape:label=""
       inkscape:color="rgb(0,0,255)"
       inkscape:locked="false" />
    <sodipodi:guide
       position="184.25197,197.75"
       orientation="1,0"
       id="guide4243"
       inkscape:label=""
       inkscape:color="rgb(0,0,255)"
       inkscape:locked="false" />
    <sodipodi:guide
       position="68.74219,102.76562"
       orientation="0,1"
       id="guide4308"
       inkscape:locked="false" />
  </sodipodi:namedview>
  <metadata
     id="metadata7">
    <rdf:RDF>
      <cc:Work
         rdf:about="">
        <dc:format>image/svg+xml</dc:format>
        <dc:type
           rdf:resource="http://purl.org/dc/dcmitype/StillImage" />
        <dc:title />
      </cc:Work>
    </rdf:RDF>
  </metadata>
  <g
     inkscape:label="Cut line"
     inkscape:groupmode="layer"
     id="layer1"
     transform="translate(0,-680.31496)"
     style="display:inline"
     sodipodi:insensitive="true">
    <path
       style="fill:none;fill-rule:evenodd;stroke:#808080;stroke-width:0.70866144;stroke-linecap:butt;stroke-linejoin:miter;stroke-miterlimit:4;stroke-dasharray:2.83464575, 2.83464575;stroke-dashoffset:0;stroke-opacity:1"
       d="m 19.488189,690.94488 0,350.78742 223.228341,0 0,-350.78742 z"
       id="path3350"
       inkscape:connector-curvature="0"
       transform="translate(4.3385302e-7,8.6660179e-6)" />
  </g>
  <g
     inkscape:groupmode="layer"
     id="layer2"
     inkscape:label="Top Separator"
     style="display:inline"
     sodipodi:insensitive="true">
    <path
       inkscape:connector-curvature="0"
       style="fill:none;fill-opacity:1;stroke:none;stroke-width:0.70866144;stroke-miterlimit:4;stroke-dasharray:2.83464575, 2.83464575;stroke-dashoffset:0;stroke-opacity:1"
       d="m 42.883734,21.259066 c -7.071438,0 -12.765624,6.544709 -12.765624,14.673828 l 0,38.476559 201.96874,0 0,-38.476559 c 0,-8.129119 -5.69224,-14.673828 -12.76367,-14.673828 l -176.439446,0 z"
       id="rect4195-3" />
  </g>
  <g
     inkscape:groupmode="layer"
     id="layer8"
     inkscape:label="Separator"
     style="display:inline"
     sodipodi:insensitive="true">
    <rect
       style="display:inline;fill:#71c837;fill-opacity:1;stroke:none;stroke-width:1;stroke-miterlimit:4;stroke-dasharray:none;stroke-dashoffset:0;stroke-opacity:1"
       id="rect4178"
       width="134.64568"
       height="17.716536"
       x="30.118084"
       y="74.409447" />
    <text
       xml:space="preserve"
       style="font-style:normal;font-weight:normal;line-height:0%;font-family:sans-serif;letter-spacing:0px;word-spacing:0px;display:inline;fill:#000000;fill-opacity:1;stroke:none;stroke-width:1px;stroke-linecap:butt;stroke-linejoin:miter;stroke-opacity:1"
       x="39.935017"
       y="87.861458"
       id="text4180"><tspan
         sodipodi:role="line"
         id="tspan4182"
         x="39.935017"
         y="87.861458"
         style="font-style:normal;font-variant:normal;font-weight:bold;font-stretch:normal;font-size:12.5px;line-height:1.25;font-family:Lato;-inkscape-font-specification:'Lato Bold';fill:#ffffff">Reveal</tspan></text>
    <rect
       y="74.409447"
       x="164.76376"
       height="17.716536"
       width="67.322838"
       id="rect4191"
       style="display:inline;fill:#e6e6e6;fill-opacity:1;stroke:none;stroke-width:1;stroke-miterlimit:4;stroke-dasharray:none;stroke-dashoffset:0;stroke-opacity:1" />
    <text
       xml:space="preserve"
       style="font-style:normal;font-weight:normal;line-height:0%;font-family:sans-serif;letter-spacing:0px;word-spacing:0px;fill:#1a1a1a;fill-opacity:1;stroke:none;stroke-width:1px;stroke-linecap:butt;stroke-linejoin:miter;stroke-opacity:1"
       x="184.26756"
       y="87.789589"
       id="text4193"><tspan
         sodipodi:role="line"
         id="tspan4195"
         x="184.26756"
         y="87.789589"
         style="font-style:normal;font-variant:normal;font-weight:500;font-stretch:normal;font-size:12.5px;line-height:1.25;font-family:Lato;-inkscape-font-specification:'Lato Medium';fill:#1a1a1a">90 min</tspan></text>
  </g>
  <g
     inkscape:groupmode="layer"
     id="layer7"
     inkscape:label="Title"
     sodipodi:insensitive="true">
    <path
       style="fill:none;fill-rule:evenodd;stroke:none;stroke-width:1px;stroke-linecap:butt;stroke-linejoin:miter;stroke-opacity:1"
       d="m 99.212598,31.889763 0,31.88976 122.244092,0 0,-31.88976 z"
       id="path4300_ostb"
       inkscape:connector-curvature="0" />
    <flowRoot
       xml:space="preserve"
       style="font-style:normal;font-weight:normal;line-height:0.01%;font-family:sans-serif;letter-spacing:0px;word-spacing:0px;fill:#000000;fill-opacity:1;stroke:none;stroke-width:1px;stroke-linecap:butt;stroke-linejoin:miter;stroke-opacity:1"
       id="flowRoot4306"
       transform="translate(50.248682,-2.3060167)"><flowRegion
         id="flowRegion4308"><use
           x="0"
           y="0"
           xlink:href="#path4300_ostb"
           id="use4310"
           width="100%"
           height="100%" /></flowRegion><flowPara
         id="flowPara4312"
         style="font-style:normal;font-variant:normal;font-weight:bold;font-stretch:normal;font-size:13.375px;line-height:1.25;font-family:Roboto;-inkscape-font-specification:'Roboto Bold'">Open Space Technology</flowPara></flowRoot>
  </g>
  <g
     inkscape:groupmode="layer"
     id="layer6"
     inkscape:label="Logo"
     style="display:inline"
     sodipodi:insensitive="true">
    <path
       style="fill:none;fill-rule:evenodd;stroke:none;stroke-width:1px;stroke-linecap:butt;stroke-linejoin:miter;stroke-opacity:1"
       d="m 40.748032,31.889763 0,31.88976 53.149606,0 0,-31.88976 z"
       id="path4213"
       inkscape:connector-curvature="0" />
    <g
       transform="matrix(0.83027734,0,0,0.83027741,-209.40081,-0.17066966)"
       inkscape:label="openspace"
       id="layer36">
      <g
         id="g4870">
        <path
           inkscape:connector-curvature="0"
           style="fill:#000000;fill-opacity:1;stroke:none;stroke-width:0.99999994px;stroke-linecap:butt;stroke-linejoin:miter;stroke-opacity:1"
           d="m 1221.8535,145.94336 c -2.3868,-0.004 -5.5643,0.0428 -8.7265,0.23828 -7.041,0.43519 -13.3516,2.11133 -13.3516,2.11133 0,0 0.1555,17.26572 -0.6973,25.83984 -0.294,2.95632 -1.5195,8.78321 -1.5195,8.78321 l -15.8203,-2.3711 -4.9688,-26.5957 c 0,0 -4.1468,1.11108 -9.7597,3.94726 -5.6518,2.85579 -8.3536,5.37696 -8.3536,5.37696 0,0 4.399,8.63623 4.3575,15.20898 -0.05,7.74637 -0.076,23.69336 -0.076,23.69336 0,0 -2.1358,1.16996 -4.8965,1.69336 -2.8818,0.54637 -4.4277,0.2168 -4.4277,0.2168 l -5.9629,-24.91602 c 0,0 -2.5478,0.20915 -5.5332,2.57227 -2.9038,2.29854 -3.4082,4.76562 -3.4082,4.76562 l 6.7265,14.13867 c 0,0 4.7894,11.07526 5.043,12.6875 0.3096,1.96703 -0.8398,21.93555 -0.8398,21.93555 l 2.4453,1.14649 0.5215,-15.22266 1.3886,0.85352 -0.457,27.58984 1.5274,2.98047 1.7578,0.0762 0.4589,-28.50781 11.0821,-2.67383 -1.9492,45.50586 1.5136,0.43359 3.836,-27.61719 23.1308,9.56641 0.2168,30.37305 1.6739,0.0527 1.3515,-30.04687 16.4297,-13.02539 -0.3789,26.42773 1.4063,-0.0547 1.0253,-4.80859 0.9727,-27.83398 -21.1797,-6.67969 -0.076,-9.70703 -9.0195,-3.51563 -4.3555,-12.38086 13.2227,-9.0957 -0.3828,21.85937 2.0644,0.15235 0,-3.82227 2.1387,-4.89062 0.8418,-20.02344 4.5859,5.42578 -0.1543,22.08789 2.9825,-4.35742 0.5019,-16.32813 11.8789,-3.16015 0,6.57226 1.1465,2.67579 2.1387,0.6875 0.2304,-10.92969 7.7188,-2.0625 -1.7578,26.06054 1.6055,0.23047 1.375,-3.66797 2.0644,-23.92382 -9.5547,-8.78907 L 1225.8379,146 c 0,0 -1.5976,-0.0529 -3.9844,-0.0566 z m -55.9805,47.8457 12.375,4.05469 -12.4296,3.67383 z"
           transform="scale(0.26458333,0.26458333)"
           id="path4849" />
        <path
           style="fill:#000000;fill-opacity:1;stroke:none;stroke-width:0.99999994px;stroke-linecap:butt;stroke-linejoin:miter;stroke-opacity:1"
           d="m 1253.0469,148.06445 -3.5157,24.99219 c 0,0 -3.0154,2.96061 -4.6621,4.2793 -2.2286,1.78472 -7.0312,4.89062 -7.0312,4.89062 l -1.1465,26.98047 2.1387,0.22852 1.4531,-4.73828 0.8398,-19.1836 5.6739,1.14649 -1.0117,9.70703 1.5664,0.15234 1.3379,-2.36914 0.8066,-6.99414 11.7207,2.12109 -1.709,21.07618 1.4453,0.0976 1.543,-5.19726 1.668,-15.61914 6.6797,-4.23829 -2.5821,16.10938 -3.0898,15.88867 -17.3223,1.51758 -0.6113,8.25586 -20.1778,4.89062 c 0,0 -1.4705,10.18016 -2.0136,15.29297 -0.6558,6.17387 -1.502,18.56446 -1.502,18.56446 l 2.3692,0.0762 4.1757,-28.07227 11.6094,22.00781 c 0,0 -1.0022,7.42085 -1.4199,10.65821 -0.518,4.01505 -0.7039,7.20224 -0.9121,11.35742 -0.1429,2.84932 -0.3652,8.77148 -0.3652,8.77148 l 2.1132,0.39454 3.4473,-29.54883 10.8145,-2.17969 0.3437,5.3125 2.1406,0 0.8789,-6.07617 19.295,-3.54883 -1.1426,29.65039 1.834,0.15234 5.1211,-57.09179 16.9668,6.57226 -0.076,28.58399 2.2929,0.0762 1.2579,-28.24414 4.3125,-5.83008 0.6972,16.01367 1.6035,-2.57031 1.0704,-23.23828 c 0,0 4.7877,-8.13418 7.2617,-12.15235 3.1206,-5.06857 6.4956,-9.63056 8.9414,-11.46484 0,0 0.061,-2.7109 -0.459,-5.50195 -0.6086,-3.26577 -2.1387,-4.4336 -2.1387,-4.4336 l -16.3574,29.19532 c 0,0 3.7381,-16.00695 6.4199,-24.15039 3.4942,-10.61037 5.7324,-22.69922 5.7324,-22.69922 0,0 -2.3633,-3.12976 -6.6484,-6.03907 -4.1334,-2.80633 -8.2539,-4.35546 -8.2539,-4.35546 0,0 -3.6835,5.2787 -5.0449,8.17773 -1.863,3.96695 -2.5106,8.41443 -4.2031,12.45703 -1.1133,2.65889 -3.8985,7.7207 -3.8985,7.7207 l -20.3301,3.74414 c 0,0 3.7309,-15.44135 4.6621,-23.31054 0.5502,-4.63321 1.1466,-14.82704 1.1466,-14.82704 0,0 -7.5809,-2.33309 -13.3751,-3.05773 -4.3459,-0.47548 -8.0545,-0.50306 -12.381,-0.38087 z m 18.8769,48.45508 10.7012,8.78906 -10.3184,11.76953 -4.7382,0.0762 z m 37.4883,5.08203 -2.9414,12.4961 -8.9434,-4.05078 1.0704,-6.57227 z m -13.6426,2.33203 -0.7265,5.04297 -7.1446,-3.43945 z"
           transform="scale(0.26458333,0.26458333)"
           id="path4853"
           inkscape:connector-curvature="0"
           sodipodi:nodetypes="cccccccccccccccccccccccccccccccccccccccccccccccccccccccsccccccccccccccccccccccccc" />
      </g>
    </g>
  </g>
  <g
     inkscape:groupmode="layer"
     id="layer5"
     inkscape:label="Border"
     style="display:inline"
     sodipodi:insensitive="true">
    <rect
       style="fill:none;fill-opacity:1;stroke:#000000;stroke-width:0.35433072;stroke-miterlimit:4;stroke-dasharray:none;stroke-dashoffset:0;stroke-opacity:1"
       id="rect4187"
       width="201.96851"
       height="329.52756"
       x="30.118111"
       y="21.259844"
       ry="14.6735"
       rx="12.76433" />
  </g>
  <g
     inkscape:groupmode="layer"
     id="layer9"
     inkscape:label="Body"
     sodipodi:insensitive="true">
    <path
       style="fill:none;fill-rule:evenodd;stroke:none;stroke-width:1px;stroke-linecap:butt;stroke-linejoin:miter;stroke-opacity:1"
       d="M 40.748032,102.7559 V 340.15748 H 184.25196 V 102.7559 H 40.748032"
       id="path4245_ostb"
       inkscape:connector-curvature="0" />
    <flowRoot
       xml:space="preserve"
       style="font-style:normal;font-weight:normal;line-height:0.01%;font-family:sans-serif;letter-spacing:0px;word-spacing:0px;fill:#000000;fill-opacity:1;stroke:none;stroke-width:1px;stroke-linecap:butt;stroke-linejoin:miter;stroke-opacity:1"
       id="flowRoot4251"><flowRegion
         id="flowRegion4253"><use
           x="0"
           y="0"
           xlink:href="#path4245_ostb"
           id="use4255"
           width="100%"
           height="100%" /></flowRegion><flowPara
         id="flowPara4257"
         style="font-style:normal;font-variant:normal;font-weight:bold;font-stretch:normal;font-size:8.75px;line-height:1.25;font-family:Roboto;-inkscape-font-specification:'Roboto Bold';fill:#999999;fill-opacity:1">Steps</flowPara><flowPara
         id="flowPara4259"
         style="font-style:normal;font-variant:normal;font-weight:normal;font-stretch:normal;font-size:8.75px;line-height:1.25;font-family:Lato;-inkscape-font-specification:Lato;fill:#1a1a1a">Facilitator introduces the concept and mechanics of Open Space including the <flowSpan
   style="font-style:italic;font-variant:normal;font-weight:normal;font-stretch:normal;font-family:Lato;-inkscape-font-specification:'Lato Italic'"
   id="flowSpan4278">Law of Two Feet</flowSpan> and its <flowSpan
   style="font-style:italic;font-variant:normal;font-weight:normal;font-stretch:normal;font-family:Lato;-inkscape-font-specification:'Lato Italic'"
   id="flowSpan4280">Four Principles</flowSpan></flowPara><flowPara
         style="font-style:normal;font-variant:normal;font-weight:normal;font-stretch:normal;font-size:8.75px;line-height:1.25;font-family:Lato;-inkscape-font-specification:Lato;fill:#1a1a1a"
         id="flowPara4302"> </flowPara><flowPara
         style="font-style:normal;font-variant:normal;font-weight:normal;font-stretch:normal;font-size:8.75px;line-height:1.25;font-family:Lato;-inkscape-font-specification:Lato;fill:#1a1a1a"
         id="flowPara4261">“Marketplace” opens: participants propose topics plus a time and space for groups to meet</flowPara><flowPara
         style="font-style:normal;font-variant:normal;font-weight:normal;font-stretch:normal;font-size:8.75px;line-height:1.25;font-family:Lato;-inkscape-font-specification:Lato;fill:#1a1a1a"
         id="flowPara4263"> </flowPara><flowPara
         style="font-style:normal;font-variant:normal;font-weight:normal;font-stretch:normal;font-size:8.75px;line-height:1.25;font-family:Lato;-inkscape-font-specification:Lato;fill:#1a1a1a"
         id="flowPara4304">Conveners facilitate sessions.</flowPara><flowPara
         style="font-style:normal;font-variant:normal;font-weight:normal;font-stretch:normal;font-size:8.75px;line-height:1.25;font-family:Lato;-inkscape-font-specification:Lato;fill:#1a1a1a"
         id="flowPara4300">Groups develop recommendations and action plans. Notes are taken and published or posted</flowPara><flowPara
         style="font-style:normal;font-variant:normal;font-weight:normal;font-stretch:normal;font-size:8.75px;line-height:1.25;font-family:Lato;-inkscape-font-specification:Lato;fill:#1a1a1a"
         id="flowPara4265"> </flowPara><flowPara
         style="font-style:normal;font-variant:normal;font-weight:normal;font-stretch:normal;font-size:8.75px;line-height:1.25;font-family:Lato;-inkscape-font-specification:Lato;fill:#1a1a1a;fill-opacity:1"
         id="flowPara4284">Debrief, proceedings distributed and closing</flowPara></flowRoot>
  </g>
  <g
     inkscape:groupmode="layer"
     id="layer4"
     inkscape:label="Body Right"
     style="display:inline"
     sodipodi:insensitive="true">
    <text
       xml:space="preserve"
       style="font-style:normal;font-weight:normal;line-height:0%;font-family:sans-serif;letter-spacing:0px;word-spacing:0px;fill:#1a1a1a;fill-opacity:1;stroke:none;stroke-width:1px;stroke-linecap:butt;stroke-linejoin:miter;stroke-opacity:1"
       x="185.95357"
       y="220.99188"
       id="text4197"><tspan
         sodipodi:role="line"
         id="tspan4199"
         x="185.95357"
         y="220.99188"
         style="font-style:normal;font-variant:normal;font-weight:500;font-stretch:normal;font-size:8.75px;line-height:1.25;font-family:Lato;-inkscape-font-specification:'Lato Medium';fill:#1a1a1a">2x30 min</tspan></text>
    <text
       id="text4227"
       y="122.74852"
       x="200.49702"
       style="font-style:normal;font-weight:normal;line-height:0%;font-family:sans-serif;letter-spacing:0px;word-spacing:0px;fill:#1a1a1a;fill-opacity:1;stroke:none;stroke-width:1px;stroke-linecap:butt;stroke-linejoin:miter;stroke-opacity:1"
       xml:space="preserve"><tspan
         style="font-style:normal;font-variant:normal;font-weight:500;font-stretch:normal;font-size:8.75px;line-height:1.25;font-family:Lato;-inkscape-font-specification:'Lato Medium';fill:#1a1a1a"
         y="122.74852"
         x="200.49702"
         id="tspan4229"
         sodipodi:role="line">5 min</tspan></text>
    <text
       id="text4231"
       y="177.18449"
       x="195.42134"
       style="font-style:normal;font-weight:normal;line-height:0%;font-family:sans-serif;letter-spacing:0px;word-spacing:0px;fill:#1a1a1a;fill-opacity:1;stroke:none;stroke-width:1px;stroke-linecap:butt;stroke-linejoin:miter;stroke-opacity:1"
       xml:space="preserve"><tspan
         style="font-style:normal;font-variant:normal;font-weight:500;font-stretch:normal;font-size:8.75px;line-height:1.25;font-family:Lato;-inkscape-font-specification:'Lato Medium';fill:#1a1a1a"
         y="177.18449"
         x="195.42134"
         id="tspan4233"
         sodipodi:role="line">15 min</tspan></text>
    <text
       id="text4235"
       y="275.81488"
       x="195.42134"
       style="font-style:normal;font-weight:normal;line-height:0%;font-family:sans-serif;letter-spacing:0px;word-spacing:0px;fill:#1a1a1a;fill-opacity:1;stroke:none;stroke-width:1px;stroke-linecap:butt;stroke-linejoin:miter;stroke-opacity:1"
       xml:space="preserve"><tspan
         style="font-style:normal;font-variant:normal;font-weight:500;font-stretch:normal;font-size:8.75px;line-height:1.25;font-family:Lato;-inkscape-font-specification:'Lato Medium';fill:#1a1a1a"
         y="275.81488"
         x="195.42134"
         id="tspan4237"
         sodipodi:role="line">10 min</tspan></text>
    <path
       style="fill:none;fill-rule:evenodd;stroke:none;stroke-width:1px;stroke-linecap:butt;stroke-linejoin:miter;stroke-opacity:1"
       d="m 194.88189,102.7559 0,237.40158 26.5748,0 0,-237.40158 z"
       id="path4239"
       inkscape:connector-curvature="0" />
  </g>
  <g
     inkscape:groupmode="layer"
     id="layer10"
     inkscape:label="String With"
     style="display:inline"
     sodipodi:insensitive="true">
    <path
       style="fill:none;fill-rule:evenodd;stroke:none;stroke-width:1px;stroke-linecap:butt;stroke-linejoin:miter;stroke-opacity:1"
       d="m 40.748032,269.28162 v 70.87586 H 221.45669 v -70.87586 z"
       id="path4343_ostb"
       inkscape:connector-curvature="0" />
    <flowRoot
       xml:space="preserve"
       style="font-style:normal;font-weight:normal;line-height:0.01%;font-family:sans-serif;letter-spacing:0px;word-spacing:0px;fill:#000000;fill-opacity:1;stroke:none;stroke-width:1px;stroke-linecap:butt;stroke-linejoin:miter;stroke-opacity:1"
       id="flowRoot4351"
       transform="translate(0,27.5)"><flowRegion
         id="flowRegion4353"><use
           x="0"
           y="0"
           xlink:href="#path4343_ostb"
           id="use4355"
           width="100%"
           height="100%" /></flowRegion><flowPara
         id="flowPara4357"
         style="font-style:normal;font-variant:normal;font-weight:bold;font-stretch:normal;font-size:8.75px;line-height:1.25;font-family:Roboto;-inkscape-font-specification:'Roboto Bold';fill:#999999;fill-opacity:1">String With</flowPara><flowPara
         id="flowPara4359"
         style="font-style:normal;font-variant:normal;font-weight:normal;font-stretch:normal;font-size:8.75px;line-height:1.25;font-family:Lato;-inkscape-font-specification:Lato;fill:#1a1a1a">Before: Celebrity Interview </flowPara><flowPara
         style="font-style:normal;font-variant:normal;font-weight:normal;font-stretch:normal;font-size:8.75px;line-height:1.25;font-family:Lato;-inkscape-font-specification:Lato;fill:#1a1a1a"
         id="flowPara1">Appreciative Interviews            TRIZ</flowPara><flowPara
         style="font-style:normal;font-variant:normal;font-weight:normal;font-stretch:normal;font-size:8.75px;line-height:1.25;font-family:Lato;-inkscape-font-specification:Lato;fill:#1a1a1a"
         id="flowPara4290">After: 25/10 Crowd Sourcing</flowPara></flowRoot>
    <g
       transform="matrix(0.33999158,0,0,0.33999156,61.47544,256.05024)"
       inkscape:label="celebrityinterview"
       id="layer30"
       style="display:inline;enable-background:new">
      <g
         id="g4809">
        <path
           style="fill:#000000;fill-opacity:1;stroke:none;stroke-width:0.264583px;stroke-linecap:butt;stroke-linejoin:miter;stroke-opacity:1"
           d="m 261.59673,145.64312 c 0,0 2.43002,-1.25458 5.75298,-1.96443 3.65718,-0.78124 6.361,-0.60804 6.361,-0.60804 0,0 0.77965,4.53801 0.98222,6.82874 0.20474,2.31529 0.23386,6.96905 0.23386,6.96905 l 3.97563,2.94665 c 0,0 0.50012,7.41725 0.51451,11.13177 0.005,1.21697 -0.14031,3.64823 -0.14031,3.64823 l -0.70159,-0.3274 c 0,0 -0.41625,-1.64075 -0.51449,-2.47893 -0.37946,-3.23764 -0.49111,-9.77538 -0.49111,-9.77538 l -2.08138,0.14032 0.0468,3.88209 -0.42095,1.7197 -0.67937,-1.08046 -0.069,-4.38102 -6.82874,1.3564 c 0,0 -0.39058,7.91429 -0.93543,11.83335 -0.0985,0.70866 -0.42095,2.10475 -0.42095,2.10475 l -0.56126,-0.18709 c 0,0 -0.36695,-3.83127 -0.3742,-5.75297 -0.0102,-2.71724 0.46773,-8.13836 0.46773,-8.13836 l -1.73057,-3.695 c 0,0 -0.19135,3.78173 -0.42095,5.65943 -0.15741,1.28735 -0.65481,3.83532 -0.65481,3.83532 h -0.60804 c 0,0 -0.15147,-2.96154 -0.14031,-4.44336 0.0176,-2.34109 0.28989,-4.67497 0.3274,-7.01582 0.0342,-2.13588 0.0675,-4.27771 -0.0935,-6.40779 -0.14704,-1.94579 -0.79521,-5.79975 -0.79521,-5.79975 z"
           id="path4803"
           inkscape:connector-curvature="0"
           sodipodi:nodetypes="cscsccsccscccccccsccsccsccssscc" />
        <path
           style="fill:#000000;fill-opacity:1;stroke:none;stroke-width:0.264583px;stroke-linecap:butt;stroke-linejoin:miter;stroke-opacity:1"
           d="m 262.87328,163.52448 -0.90237,9.7e-4 c -3.15656,0.4577 -5.36168,0.90541 -8.16175,2.25309 -2.01897,0.97173 -4.3857,2.72816 -4.4639,4.94817 -0.0815,2.31401 2.17877,4.55363 4.27847,5.47234 3.24505,1.41984 6.29233,2.22267 9.5609,2.82002 3.78415,0.69158 7.66604,1.04872 11.5083,0.86128 3.9989,-0.19508 8.08329,-0.65572 11.83335,-2.05798 1.6379,-0.61246 3.32144,-1.41202 4.49014,-2.71278 1.12112,-1.2478 2.26627,-2.57324 2.12813,-4.56029 -0.15789,-2.27098 -3.22955,-3.50054 -5.30865,-4.18611 -3.16047,-1.04215 -6.20096,-1.37807 -9.35443,-1.68379 -2.553,-0.24751 -5.13599,-0.30544 -7.69402,-0.11694 -2.8365,0.20902 -5.93662,1.01906 -9.23749,2.50232 -1.64925,0.7411 -3.9024,1.80158 -3.81194,3.5313 0.10121,1.93528 2.84865,2.91334 4.65383,3.48452 3.45847,1.0943 6.6961,1.65351 10.14957,1.70718 3.75212,0.0583 7.78698,0.018 11.06161,-1.77734 1.24429,-0.6822 3.03349,-1.77618 2.82971,-3.18051 -0.22925,-1.57988 -2.46172,-2.13596 -4.06916,-2.52569 -2.76893,-0.67133 -5.79473,-0.67865 -8.69962,-0.58465 -1.55527,0.0503 -3.71325,0.49963 -5.03438,0.93828 -0.89675,0.29774 -2.08675,0.81356 -2.14585,1.73057 -0.0475,0.73717 0.76295,1.36419 1.53215,1.60111 1.23789,0.38128 3.65612,0.46987 5.58426,0.3685 1.72925,-0.0909 3.51403,-0.45315 4.89035,-1.32147 l -0.0662,-0.47955 c -2.1774,0.51454 -3.11809,0.71633 -4.7129,0.82682 -1.79022,0.12403 -5.24349,-0.34136 -5.27513,-1.07487 -0.0442,-1.02419 3.62004,-1.51502 5.29167,-1.52136 2.25556,-0.009 4.35726,0.1443 6.49883,0.51263 1.47743,0.2541 3.77427,0.75832 3.81992,2.23242 0.0463,1.49425 -2.0383,1.98954 -3.72472,2.49818 -2.24304,0.67652 -4.64909,0.7961 -6.9909,0.72643 -2.98731,-0.0889 -6.05662,-0.38486 -8.84701,-1.4552 -1.69888,-0.65166 -4.53426,-1.125 -4.59713,-2.94349 -0.0626,-1.81133 2.67603,-2.58528 4.36562,-3.24115 3.33032,-1.29277 5.84618,-1.39762 8.83047,-1.52135 2.97119,-0.12319 5.94775,0.33476 8.88693,0.78171 2.8506,0.43347 5.19244,1.14478 7.40999,2.62646 1.66848,1.11481 1.97114,2.26414 0.67917,4.38735 -1.41497,2.32535 -3.53611,3.22096 -5.76437,3.91229 -3.34297,1.03717 -9.3874,1.51867 -14.08906,1.19062 -4.81024,-0.33563 -10.41223,-1.42875 -14.1056,-3.20807 -1.89984,-0.91527 -4.36673,-2.39555 -4.41523,-4.53099 -0.0435,-1.91475 1.44745,-2.98295 2.74504,-3.9026 2.39035,-1.69412 6.82156,-2.03323 8.4584,-2.38952 z"
           id="path4805"
           inkscape:connector-curvature="0"
           sodipodi:nodetypes="ccsasaaaassassassaasssassccssssasaaasassssassacc" />
      </g>
    </g>
    <g
       transform="matrix(0.24976562,0,0,0.24976559,118.88299,304.52224)"
       inkscape:label="appreciativeinterviews"
       id="layer11"
       style="display:inline;enable-background:new">
      <g
         id="g4701">
        <path
           style="fill:#000000;fill-opacity:1;stroke:#000000;stroke-width:0.264583px;stroke-linecap:butt;stroke-linejoin:miter;stroke-opacity:1"
           d="m 70.893241,95.8174 0.467722,-11.225318 c 0,0 -6.465837,-2.040554 -8.68626,-4.409948 -2.087764,-2.227835 -3.383066,-5.374102 -3.608139,-8.418991 -0.225802,-3.054757 0.619976,-6.351199 2.33861,-8.886711 1.849538,-2.728636 4.920166,-4.584295 7.951269,-5.879928 3.197103,-1.366589 6.8015,-1.765151 10.27841,-1.776393 2.629508,-0.0085 5.280471,0.482304 7.781852,1.293153 1.673754,0.542564 4.724463,2.354125 4.724463,2.354125 0,0 8.330862,-0.3121 12.494852,-0.200451 1.9194,0.05147 3.86376,0.02298 5.74629,0.400904 1.42943,0.286961 2.95876,0.552309 4.14268,1.403165 0.95498,0.686321 1.6635,1.730354 2.13816,2.806329 0.70354,1.594809 0.76812,3.409893 0.93544,5.14494 0.34423,3.569583 0.41981,7.182892 0.13364,10.757598 -0.12448,1.554893 -0.40998,3.100546 -0.80181,4.610399 -0.25479,0.981792 -0.3028,2.138576 -1.00226,2.873147 -0.69591,0.730845 -1.79768,1.104034 -2.80634,1.135896 -2.65961,0.08401 -8.01808,0.200451 -8.01808,0.200451 l 0.23387,11.22532 c 0,0 -2.88984,-2.845609 -4.2274,-4.367447 -1.798257,-2.046013 -5.093634,-6.39015 -5.093634,-6.39015 0,0 -5.459973,-0.03637 -8.720652,-0.07087 -0.924247,-0.0098 -2.194351,-0.04671 -3.070936,-0.613516 C 83.242412,87.147759 82.185379,84.92617 82.185379,84.92617 L 80.38131,84.85935 c 0,0 -3.777851,5.235581 -5.946749,7.617182 -1.092687,1.199846 -3.54132,3.340869 -3.54132,3.340868 z"
           id="path4655"
           inkscape:connector-curvature="0"
           sodipodi:nodetypes="ccaaaaaacaaaaaaaasccacsaccac" />
        <path
           style="fill:#ffffff;fill-opacity:1;stroke:#000000;stroke-width:0.264583px;stroke-linecap:butt;stroke-linejoin:miter;stroke-opacity:1"
           d="m 72.964579,91.073368 0.286842,-8.009981 c 0,0 -5.553808,-0.87537 -9.039918,-4.2176 -1.864203,-1.787263 -2.938911,-4.507968 -3.140416,-7.082644 -0.208661,-2.666119 0.582855,-5.52907 2.071338,-7.750815 1.574431,-2.350033 4.163823,-3.995744 6.748555,-5.144939 2.981699,-1.32569 6.359079,-1.86124 9.621703,-1.80407 6.033003,0.105715 9.500228,2.138156 9.500228,2.138156 0,0 -3.045557,0.322975 -4.422107,0.935445 -0.830335,0.369442 -1.6223,0.906167 -2.204974,1.603616 -0.522987,0.626005 -0.917319,1.401221 -1.06433,2.203584 -0.577625,3.152593 -0.456932,10.171755 -0.07157,15.235754 0.09753,1.281552 0.601359,3.80859 0.601359,3.80859 L 79.312232,83.1221 c 0,0 -2.147587,3.134598 -3.34087,4.610398 -0.942008,1.165034 -3.006783,3.34087 -3.006783,3.34087 z"
           id="path4657"
           inkscape:connector-curvature="0"
           sodipodi:nodetypes="ccsaaascaasaccac" />
        <path
           style="fill:#ffffff;fill-opacity:1;stroke:#000000;stroke-width:0.264583px;stroke-linecap:butt;stroke-linejoin:miter;stroke-opacity:1"
           d="m 83.722177,82.520741 c 0,0 3.847149,-0.911341 5.545844,-1.870884 1.499753,-0.847166 2.885969,-1.980255 3.942226,-3.34087 1.093397,-1.408456 2.036813,-3.053529 2.338607,-4.810853 0.429764,-2.502485 0.05968,-5.20025 -0.853804,-7.569358 -0.599352,-1.55441 -2.919002,-4.056864 -2.919002,-4.056864 0,0 -4.379344,0.170602 -6.316617,1.069078 -0.845968,0.392346 -1.673515,0.995548 -2.138156,1.804069 -0.450647,0.784171 -0.398962,1.770874 -0.467722,2.672694 -0.32179,4.220456 -0.146286,8.482849 0.267269,12.695303 0.112697,1.147928 0.601355,3.407685 0.601355,3.407685 z"
           id="path4659"
           inkscape:connector-curvature="0"
           sodipodi:nodetypes="caaaacaaaac" />
        <path
           style="fill:#ffffff;fill-opacity:1;stroke:#000000;stroke-width:0.264583px;stroke-linecap:butt;stroke-linejoin:miter;stroke-opacity:1"
           d="m 84.123082,84.525264 c 0,0 0.429097,1.031168 0.88009,1.292458 1.565693,0.907109 3.779668,0.682566 5.730779,0.660763 2.245047,-0.02509 6.318294,-0.01552 6.318294,-0.01552 l 6.276785,8.342386 c 0,0 -0.17025,-7.560273 -0.0719,-8.11831 0.0773,-0.43867 0.29248,-0.537627 0.83285,-0.546003 3.0431,-0.04717 3.86364,0.01753 5.79354,-0.05535 1.35114,-0.05102 3.38546,0.0317 4.04749,-0.267272 0.93857,-0.423865 1.11347,-1.86278 1.39575,-2.896771 0.55922,-2.048409 0.48713,-4.224807 0.53454,-6.34765 0.0632,-2.830088 0.0179,-5.676981 -0.33409,-8.485807 -0.17272,-1.37835 -0.30652,-2.805536 -0.86862,-4.075861 -0.35516,-0.802651 -0.82647,-1.622598 -1.53681,-2.138156 -0.83229,-0.604065 -1.92761,-0.754455 -2.93996,-0.935443 -2.87516,-0.514023 -5.83281,-0.347715 -8.75308,-0.400904 -2.382861,-0.0434 -7.149455,0.06682 -7.149455,0.06682 0,0 2.336617,3.626819 2.873147,5.679477 0.524299,2.005864 0.648652,4.176141 0.267269,6.214014 -0.398116,2.127282 -1.324734,4.202473 -2.605876,5.946749 -1.224176,1.666717 -2.881839,3.049616 -4.677217,4.075858 -1.834419,1.048557 -6.013566,2.004521 -6.013566,2.004521 z"
           id="path4661"
           inkscape:connector-curvature="0"
           sodipodi:nodetypes="cssccssasaaaaaaacaaaacc" />
        <path
           style="fill:none;stroke:#000000;stroke-width:1.065;stroke-linecap:round;stroke-linejoin:miter;stroke-miterlimit:4;stroke-dasharray:none;stroke-opacity:1"
           d="m 98.288368,78.578516 c 0,0 2.766222,0.179752 4.142672,0.06682 1.73726,-0.142535 3.40624,-0.811669 5.14494,-0.935443 1.1783,-0.08388 3.54132,0.133634 3.54132,0.133634"
           id="path4663"
           inkscape:connector-curvature="0"
           sodipodi:nodetypes="caac" />
        <path
           style="fill:none;stroke:#000000;stroke-width:1.065;stroke-linecap:round;stroke-linejoin:miter;stroke-miterlimit:4;stroke-dasharray:none;stroke-opacity:1"
           d="m 99.958802,73.968117 c 0,0 1.562808,0.221956 2.338608,0.133636 1.10648,-0.125966 2.10481,-0.777955 3.20724,-0.935445 0.7717,-0.110243 2.3386,0 2.3386,0"
           id="path4665"
           inkscape:connector-curvature="0"
           sodipodi:nodetypes="caac" />
        <path
           style="fill:none;stroke:#000000;stroke-width:1.065;stroke-linecap:round;stroke-linejoin:miter;stroke-miterlimit:4;stroke-dasharray:none;stroke-opacity:1"
           d="m 99.891984,69.357718 c 0,0 1.917646,0.135662 2.873146,0.06682 1.86988,-0.134723 3.67403,-0.830883 5.54584,-0.935442 0.8018,-0.04479 2.40543,0.133633 2.40543,0.133633"
           id="path4667"
           inkscape:connector-curvature="0"
           sodipodi:nodetypes="caac" />
        <path
           style="fill:none;stroke:#000000;stroke-width:1.065;stroke-linecap:round;stroke-linejoin:miter;stroke-miterlimit:4;stroke-dasharray:none;stroke-opacity:1"
           d="m 67.084651,66.818657 c 0,0 1.829959,0.151028 2.739512,0.06682 1.496291,-0.138529 2.915457,-0.77868 4.409948,-0.935442 1.018942,-0.10688 3.073598,0 3.073598,0"
           id="path4669"
           inkscape:connector-curvature="0"
           sodipodi:nodetypes="caac" />
        <path
           style="fill:none;stroke:#000000;stroke-width:1.065;stroke-linecap:round;stroke-linejoin:miter;stroke-miterlimit:4;stroke-dasharray:none;stroke-opacity:1"
           d="m 67.084651,71.362241 c 0,0 2.230857,0.0896 3.34087,0 1.799316,-0.145242 3.544686,-0.741751 5.34539,-0.868627 1.088878,-0.07672 3.274052,0.06682 3.274052,0.06682"
           id="path4671"
           inkscape:connector-curvature="0"
           sodipodi:nodetypes="caac" />
        <path
           style="fill:none;stroke:#000000;stroke-width:1.065;stroke-linecap:round;stroke-linejoin:miter;stroke-miterlimit:4;stroke-dasharray:none;stroke-opacity:1"
           d="m 67.151469,75.905822 c 0,0 1.647046,0.251668 2.472243,0.200451 1.748248,-0.108507 3.398306,-0.937066 5.144936,-1.069078 0.822938,-0.0622 2.472246,0.133636 2.472246,0.133636"
           id="path4673"
           inkscape:connector-curvature="0"
           sodipodi:nodetypes="caac" />
        <path
           style="fill:#000000;fill-opacity:1;stroke:#000000;stroke-width:0.264583px;stroke-linecap:butt;stroke-linejoin:miter;stroke-opacity:1"
           d="m 88.466212,63.544605 c 0.649312,0.0069 1.35556,0.434366 1.670436,1.002263 0.604904,1.09098 0.05971,2.500749 -0.06682,3.741772 -0.183872,1.803498 -1.00226,5.34539 -1.00226,5.34539 -0.291361,0.241808 -0.841801,0.238475 -1.135896,0 0,0 -0.953617,-3.555411 -1.135896,-5.378799 -0.125179,-1.252202 -0.603046,-2.689546 0.03341,-3.775181 0.317854,-0.54218 1.008579,-0.94213 1.637026,-0.935445 z"
           id="path4675"
           inkscape:connector-curvature="0"
           sodipodi:nodetypes="aaassaaa" />
        <circle
           style="opacity:1;fill:#000000;fill-opacity:1;stroke:none;stroke-width:0.5;stroke-miterlimit:4;stroke-dasharray:none;stroke-opacity:1"
           id="path4679"
           cx="88.4161"
           cy="76.457069"
           r="1.8541822" />
      </g>
    </g>
    <g
       transform="matrix(0.32269063,0,0,0.32269063,151.48357,281.56297)"
       inkscape:label="triz"
       id="layer6-3"
       style="display:inline">
      <path
         sodipodi:nodetypes="cssssscssscscsscsscssscc"
         inkscape:connector-curvature="0"
         id="path906"
         d="m 70.728794,140.4654 c 0,0 -2.888243,-3.03334 -2.787576,-7.74852 0.05862,-2.74576 1.187131,-5.61136 3.265778,-7.40632 4.876063,-4.21058 7.43515,-3.54526 10.820552,-6.57978 1.655598,-1.484 2.846942,-3.06009 3.06434,-4.95995 0.272366,-2.38023 -0.257655,-4.63981 -2.173362,-6.85082 -2.326473,-2.68509 -5.787762,-2.85845 -5.787762,-2.85845 0,0 4.89252,-0.8326 7.205172,-0.21261 2.470557,0.66232 4.857219,2.06669 6.567337,3.96875 1.615742,1.79709 2.64232,4.18904 3.071056,6.56734 0.381228,2.11477 -0.377975,6.70907 -0.377975,6.70907 0,0 2.325556,-2.1785 2.787573,-3.73251 0.913833,-3.0737 -0.425222,-5.74051 -0.425222,-5.74051 0,0 2.823354,1.79491 3.543526,6.6382 0.372178,2.50297 0.29652,3.65842 -0.141744,5.48066 -0.304691,1.26686 -1.630024,3.77976 -1.630024,3.77976 0,0 2.163419,-1.47049 2.952947,-2.43322 0.7291,-0.88905 1.26713,-1.8675 1.46465,-3.00019 0.21416,-1.22813 -0.47247,-3.80338 -0.47247,-3.80338 0,0 2.13127,2.25098 2.45685,4.79557 0.23751,1.85628 0.0276,3.83523 -0.66146,5.57515 -0.94677,2.39053 -2.43548,3.85219 -3.1183,6.00037 -0.597108,1.87853 -0.803207,5.85863 -0.803207,5.85863 z"
         style="fill:#000000;fill-opacity:1;stroke:none;stroke-width:0.264583px;stroke-linecap:butt;stroke-linejoin:miter;stroke-opacity:1" />
    </g>
    <g
       transform="matrix(0.47503174,0,0,0.47503174,89.062041,259.01817)"
       style="display:inline;enable-background:new"
       inkscape:label="25to10crowdsourcing"
       id="layer17">
      <g
         id="g5054">
        <rect
           style="opacity:1;fill:#ffffff;fill-opacity:1;stroke:#000000;stroke-width:0.9;stroke-linecap:round;stroke-miterlimit:4;stroke-dasharray:none;stroke-opacity:1"
           id="rect5012"
           width="36.482288"
           height="24.227982"
           x="135.63928"
           y="144.94154" />
        <path
           style="fill:#000000;fill-opacity:1;stroke:none;stroke-width:0.264583px;stroke-linecap:butt;stroke-linejoin:miter;stroke-opacity:1"
           d="m 141.98203,161.21392 h 2.28203 v 1.76941 h -5.44049 l 3.63802,-5.77123 c 0.18196,-0.28866 0.40407,-0.6851 0.34726,-1.33945 -0.0353,-0.40652 -0.56117,-0.70517 -0.95911,-0.71106 -0.37612,-0.006 -0.73126,0.3231 -0.92604,0.64491 -0.20427,0.33749 -0.14883,1.17409 -0.14883,1.17409 h -1.63711 c 0,0 -0.0466,-0.63186 0,-0.94258 0.0753,-0.50177 0.12395,-1.06352 0.44648,-1.4552 0.52043,-0.63202 1.34778,-1.13881 2.16628,-1.15756 0.92187,-0.0211 2.01193,0.40641 2.49701,1.19062 0.48432,0.783 0.37381,2.02849 -0.0496,2.7616 z"
           id="path5028"
           inkscape:connector-curvature="0"
           sodipodi:nodetypes="ccccssaaccaaaasc" />
        <path
           style="fill:#000000;fill-opacity:1;stroke:none;stroke-width:0.264583px;stroke-linecap:butt;stroke-linejoin:miter;stroke-opacity:1"
           d="m 146.09961,161.11471 v 1.62057 c 0,0 1.28032,0.34051 1.96784,0.33073 0.78899,-0.0112 1.58346,-0.34824 2.10013,-0.90951 0.55958,-0.60789 0.80624,-1.52204 0.79375,-2.34818 -0.0115,-0.75861 -0.26611,-1.59585 -0.79375,-2.1332 -0.79089,-0.80544 -2.05052,-0.76067 -2.05052,-0.76067 v -1.73633 h 2.64583 v -1.43867 h -4.11758 v 4.51445 h 1.30638 c 0.75095,0 1.38907,0.4584 1.4056,1.43868 0.0115,0.68263 -0.0834,1.13386 -0.42995,1.53788 -0.25216,0.29398 -0.67152,0.46003 -1.05833,0.47956 -0.6215,0.0314 -1.7694,-0.59531 -1.7694,-0.59531 z"
           id="path5030"
           inkscape:connector-curvature="0"
           sodipodi:nodetypes="ccsaasccccccssaac" />
        <path
           style="fill:#000000;fill-opacity:1;stroke:none;stroke-width:0.264583px;stroke-linecap:butt;stroke-linejoin:miter;stroke-opacity:1"
           d="m 155.37656,152.92916 h 1.12448 l -2.87734,12.79922 h -1.19063 z"
           id="path5032"
           inkscape:connector-curvature="0" />
        <path
           style="fill:#000000;fill-opacity:1;stroke:none;stroke-width:0.264583px;stroke-linecap:butt;stroke-linejoin:miter;stroke-opacity:1"
           d="m 158.37,153.64023 h 2.89354 v 9.24388 h -1.83555 v -7.60703 H 158.37 Z"
           id="path5034"
           inkscape:connector-curvature="0"
           sodipodi:nodetypes="ccccccc" />
        <path
           style="fill:#000000;fill-opacity:1;stroke:none;stroke-width:0.264583px;stroke-linecap:butt;stroke-linejoin:miter;stroke-opacity:1"
           d="m 165.90087,153.54762 c 0.78222,0.003 1.58663,0.52805 2.03459,1.1693 0.61464,0.87984 0.56011,2.0326 0.54591,3.17318 -0.014,1.12128 0.2094,2.55176 -0.40559,3.5854 -0.45226,0.76012 -1.29047,1.51036 -2.17491,1.52009 -0.87125,0.01 -1.7249,-0.70384 -2.1749,-1.44994 -0.63068,-1.04569 -0.37535,-2.56468 -0.37535,-3.64421 0,-0.98237 -0.0679,-2.33802 0.56244,-3.23129 0.43875,-0.62173 1.22686,-1.1254 1.98781,-1.12253 z"
           id="path5036"
           inkscape:connector-curvature="0"
           sodipodi:nodetypes="aasaaasaa" />
        <path
           style="fill:#ffffff;fill-opacity:1;stroke:none;stroke-width:0.264583px;stroke-linecap:butt;stroke-linejoin:miter;stroke-opacity:1"
           d="m 165.90088,155.16126 c 0.46627,-0.004 0.85455,0.24876 0.86528,1.09914 0.0107,0.85038 0.04,2.7557 0.0468,3.81194 0.007,1.05624 -0.32313,1.29557 -0.8419,1.30962 -0.51907,0.0141 -0.92133,-0.32264 -0.91206,-1.26285 0.009,-0.94021 0.002,-2.9976 0.0234,-3.88209 0.0211,-0.88449 0.36795,-1.07205 0.81852,-1.07576 z"
           id="path5038"
           inkscape:connector-curvature="0"
           sodipodi:nodetypes="czzaszac" />
        <path
           style="fill:none;stroke:#000000;stroke-width:0.365;stroke-linecap:butt;stroke-linejoin:miter;stroke-miterlimit:4;stroke-dasharray:none;stroke-opacity:1"
           d="m 135.63928,156.72813 h 36.57584"
           id="path5018"
           inkscape:connector-curvature="0" />
        <path
           style="fill:none;stroke:#000000;stroke-width:0.365;stroke-linecap:butt;stroke-linejoin:miter;stroke-miterlimit:4;stroke-dasharray:none;stroke-opacity:1"
           d="m 135.59251,159.01996 h 36.57583"
           id="path5020"
           inkscape:connector-curvature="0" />
        <path
           style="fill:none;stroke:#000000;stroke-width:0.365;stroke-linecap:butt;stroke-linejoin:miter;stroke-miterlimit:4;stroke-dasharray:none;stroke-opacity:1"
           d="m 135.59251,161.49889 h 36.52906"
           id="path5022"
           inkscape:connector-curvature="0" />
        <path
           style="fill:none;stroke:#000000;stroke-width:0.365;stroke-linecap:butt;stroke-linejoin:miter;stroke-miterlimit:4;stroke-dasharray:none;stroke-opacity:1"
           d="m 135.54574,163.96979 h 36.6226"
           id="path5024"
           inkscape:connector-curvature="0" />
        <path
           style="fill:none;stroke:#000000;stroke-width:0.365;stroke-linecap:butt;stroke-linejoin:miter;stroke-miterlimit:4;stroke-dasharray:none;stroke-opacity:1"
           d="m 135.59251,166.40997 h 36.57583"
           id="path5026"
           inkscape:connector-curvature="0" />
        <path
           style="fill:none;stroke:#000000;stroke-width:0.365;stroke-linecap:butt;stroke-linejoin:miter;stroke-miterlimit:4;stroke-dasharray:none;stroke-opacity:1"
           d="m 135.63928,154.29597 h 36.52906"
           id="path5016"
           inkscape:connector-curvature="0" />
        <path
           style="fill:none;stroke:#000000;stroke-width:0.365;stroke-linecap:butt;stroke-linejoin:miter;stroke-miterlimit:4;stroke-dasharray:none;stroke-opacity:1"
           d="m 135.59251,151.86382 h 36.57583"
           id="path5014"
           inkscape:connector-curvature="0" />
      </g>
    </g>
  </g>
</svg>
