<?xml version="1.0" encoding="UTF-8" standalone="no"?>
<!-- Created with Inkscape (http://www.inkscape.org/) -->

<svg
   width="74mm"
   height="105mm"
   viewBox="0 0 262.20472 372.04724"
   id="svg2"
   version="1.1"
   inkscape:version="1.3.1 (91b66b0783, 2023-11-16)"
   sodipodi:docname="triz-front.svg"
   enable-background="new"
   xmlns:inkscape="http://www.inkscape.org/namespaces/inkscape"
   xmlns:sodipodi="http://sodipodi.sourceforge.net/DTD/sodipodi-0.dtd"
   xmlns:xlink="http://www.w3.org/1999/xlink"
   xmlns="http://www.w3.org/2000/svg"
   xmlns:svg="http://www.w3.org/2000/svg"
   xmlns:rdf="http://www.w3.org/1999/02/22-rdf-syntax-ns#"
   xmlns:cc="http://creativecommons.org/ns#"
   xmlns:dc="http://purl.org/dc/elements/1.1/">
  <defs
     id="defs4" />
  <sodipodi:namedview
     id="base"
     pagecolor="#ffffff"
     bordercolor="#666666"
     borderopacity="1.0"
     inkscape:pageopacity="1"
     inkscape:pageshadow="2"
     inkscape:zoom="2.0000001"
     inkscape:cx="132.24999"
     inkscape:cy="179.24999"
     inkscape:document-units="mm"
     inkscape:current-layer="layer4"
     showgrid="false"
     showguides="false"
     inkscape:guide-bbox="true"
     inkscape:snap-bbox="false"
     inkscape:bbox-nodes="true"
     inkscape:object-nodes="true"
     inkscape:snap-page="true"
     inkscape:snap-grids="false"
     inkscape:window-width="1920"
     inkscape:window-height="1017"
     inkscape:window-x="-8"
     inkscape:window-y="-8"
     inkscape:window-maximized="1"
     inkscape:snap-others="false"
     inkscape:snap-nodes="true"
     inkscape:showpageshadow="2"
     inkscape:pagecheckerboard="0"
     inkscape:deskcolor="#d1d1d1">
    <sodipodi:guide
       position="19.48819,143.57143"
       orientation="1,0"
       id="guide3342"
       inkscape:label=""
       inkscape:color="rgb(0,0,255)"
       inkscape:locked="false" />
    <sodipodi:guide
       position="242.71654,160.71429"
       orientation="1,0"
       id="guide3344"
       inkscape:label=""
       inkscape:color="rgb(0,0,255)"
       inkscape:locked="false" />
    <sodipodi:guide
       position="100.71429,10.629921"
       orientation="0,1"
       id="guide3346"
       inkscape:label=""
       inkscape:color="rgb(0,0,255)"
       inkscape:locked="false" />
    <sodipodi:guide
       position="75.714288,361.41732"
       orientation="0,1"
       id="guide3348"
       inkscape:label=""
       inkscape:color="rgb(0,0,255)"
       inkscape:locked="false" />
    <sodipodi:guide
       position="242.71654,289.15617"
       orientation="1,0"
       id="guide4173"
       inkscape:locked="false" />
    <sodipodi:guide
       position="-54.642858,21.259842"
       orientation="0,1"
       id="guide4176"
       inkscape:label=""
       inkscape:color="rgb(0,0,255)"
       inkscape:locked="false" />
    <sodipodi:guide
       position="0,350.7874"
       orientation="0,1"
       id="guide4178"
       inkscape:label=""
       inkscape:color="rgb(0,0,255)"
       inkscape:locked="false" />
    <sodipodi:guide
       position="30.118111,388.21428"
       orientation="1,0"
       id="guide4180"
       inkscape:label=""
       inkscape:color="rgb(0,0,255)"
       inkscape:locked="false" />
    <sodipodi:guide
       position="232.08662,385.71428"
       orientation="1,0"
       id="guide4182"
       inkscape:label=""
       inkscape:color="rgb(0,0,255)"
       inkscape:locked="false" />
    <sodipodi:guide
       position="40.748033,260.35714"
       orientation="1,0"
       id="guide4252"
       inkscape:label=""
       inkscape:color="rgb(0,0,255)"
       inkscape:locked="false" />
    <sodipodi:guide
       position="221.4567,323.92857"
       orientation="1,0"
       id="guide4254"
       inkscape:label=""
       inkscape:color="rgb(0,0,255)"
       inkscape:locked="false" />
    <sodipodi:guide
       position="-107.14286,340.15748"
       orientation="0,1"
       id="guide4256"
       inkscape:label=""
       inkscape:color="rgb(0,0,255)"
       inkscape:locked="false" />
    <sodipodi:guide
       position="-111.42857,31.889764"
       orientation="0,1"
       id="guide4258"
       inkscape:label=""
       inkscape:color="rgb(0,0,255)"
       inkscape:locked="false" />
    <sodipodi:guide
       position="-60.356616,230.31496"
       orientation="0,1"
       id="guide4262"
       inkscape:label=""
       inkscape:color="rgb(0,0,255)"
       inkscape:locked="false" />
    <sodipodi:guide
       position="-56.063468,258.66142"
       orientation="0,1"
       id="guide4269"
       inkscape:label=""
       inkscape:color="rgb(0,0,255)"
       inkscape:locked="false" />
    <sodipodi:guide
       position="93.897641,308.6016"
       orientation="1,0"
       id="guide4271"
       inkscape:label=""
       inkscape:color="rgb(0,0,255)"
       inkscape:locked="false" />
    <sodipodi:guide
       position="109.84252,340.15748"
       orientation="1,0"
       id="guide4273"
       inkscape:label=""
       inkscape:color="rgb(0,0,255)"
       inkscape:locked="false" />
    <sodipodi:guide
       position="-60.500002,219.68504"
       orientation="0,1"
       id="guide4303"
       inkscape:label=""
       inkscape:color="rgb(0,0,255)"
       inkscape:locked="false" />
  </sodipodi:namedview>
  <metadata
     id="metadata7">
    <rdf:RDF>
      <cc:Work
         rdf:about="">
        <dc:format>image/svg+xml</dc:format>
        <dc:type
           rdf:resource="http://purl.org/dc/dcmitype/StillImage" />
        <dc:title />
      </cc:Work>
    </rdf:RDF>
  </metadata>
  <g
     inkscape:label="Cut line"
     inkscape:groupmode="layer"
     id="layer1"
     transform="translate(0,-680.31496)"
     style="display:inline"
     sodipodi:insensitive="true">
    <path
       style="fill:none;fill-rule:evenodd;stroke:#808080;stroke-width:0.70866144;stroke-linecap:butt;stroke-linejoin:miter;stroke-miterlimit:4;stroke-dasharray:2.83464575, 2.83464575;stroke-dashoffset:0;stroke-opacity:1"
       d="m 19.488189,690.94488 0,350.78742 223.228341,0 0,-350.78742 z"
       id="path3350"
       inkscape:connector-curvature="0"
       transform="translate(4.3385302e-7,8.6660179e-6)" />
  </g>
  <g
     inkscape:groupmode="layer"
     id="layer6"
     inkscape:label="Logo"
     style="display:inline"
     sodipodi:insensitive="true">
    <path
       style="fill:none;fill-rule:evenodd;stroke:none;stroke-width:1px;stroke-linecap:butt;stroke-linejoin:miter;stroke-opacity:1"
       d="m 40.748032,31.889763 0,81.496057 53.149606,0 0,-81.496057 -53.149606,0"
       id="path4275"
       inkscape:connector-curvature="0" />
    <g
       transform="matrix(1.46467,0,0,1.46467,-58.759665,-106.14869)"
       inkscape:label="triz"
       id="layer6-3">
      <path
         sodipodi:nodetypes="cssssscssscscsscsscssscc"
         inkscape:connector-curvature="0"
         id="path906"
         d="m 70.728794,140.4654 c 0,0 -2.888243,-3.03334 -2.787576,-7.74852 0.05862,-2.74576 1.187131,-5.61136 3.265778,-7.40632 4.876063,-4.21058 7.43515,-3.54526 10.820552,-6.57978 1.655598,-1.484 2.846942,-3.06009 3.06434,-4.95995 0.272366,-2.38023 -0.257655,-4.63981 -2.173362,-6.85082 -2.326473,-2.68509 -5.787762,-2.85845 -5.787762,-2.85845 0,0 4.89252,-0.8326 7.205172,-0.21261 2.470557,0.66232 4.857219,2.06669 6.567337,3.96875 1.615742,1.79709 2.64232,4.18904 3.071056,6.56734 0.381228,2.11477 -0.377975,6.70907 -0.377975,6.70907 0,0 2.325556,-2.1785 2.787573,-3.73251 0.913833,-3.0737 -0.425222,-5.74051 -0.425222,-5.74051 0,0 2.823354,1.79491 3.543526,6.6382 0.372178,2.50297 0.29652,3.65842 -0.141744,5.48066 -0.304691,1.26686 -1.630024,3.77976 -1.630024,3.77976 0,0 2.163419,-1.47049 2.952947,-2.43322 0.7291,-0.88905 1.26713,-1.8675 1.46465,-3.00019 0.21416,-1.22813 -0.47247,-3.80338 -0.47247,-3.80338 0,0 2.13127,2.25098 2.45685,4.79557 0.23751,1.85628 0.0276,3.83523 -0.66146,5.57515 -0.94677,2.39053 -2.43548,3.85219 -3.1183,6.00037 -0.597108,1.87853 -0.803207,5.85863 -0.803207,5.85863 z"
         style="fill:#000000;fill-opacity:1;stroke:none;stroke-width:0.26458332px;stroke-linecap:butt;stroke-linejoin:miter;stroke-opacity:1" />
    </g>
  </g>
  <g
     inkscape:groupmode="layer"
     id="layer9"
     inkscape:label="Title"
     style="display:inline"
     sodipodi:insensitive="true">
    <path
       style="fill:none;fill-rule:evenodd;stroke:none;stroke-width:1px;stroke-linecap:butt;stroke-linejoin:miter;stroke-opacity:1"
       d="m 109.84252,113.38582 111.61417,0 0,-81.496057 -111.61417,0 z"
       id="path4349_tf"
       inkscape:connector-curvature="0" />
    <flowRoot
       xml:space="preserve"
       style="font-style:normal;font-weight:normal;line-height:0.01%;font-family:sans-serif;text-align:end;letter-spacing:0px;word-spacing:0px;text-anchor:end;fill:#000000;fill-opacity:1;stroke:none;stroke-width:1px;stroke-linecap:butt;stroke-linejoin:miter;stroke-opacity:1"
       id="flowRoot4357"
       transform="translate(0,14.027341)"><flowRegion
         id="flowRegion4359"><use
           x="0"
           y="0"
           xlink:href="#path4349_tf"
           id="use4361"
           width="100%"
           height="100%" /></flowRegion><flowPara
         id="flowPara4363"
         style="font-style:normal;font-variant:normal;font-weight:bold;font-stretch:normal;font-size:13.75px;line-height:1.25;font-family:Roboto;-inkscape-font-specification:'Roboto Bold';text-align:end;text-anchor:end">TRIZ</flowPara><flowPara
         id="flowPara4365"
         style="font-style:normal;font-variant:normal;font-weight:normal;font-stretch:normal;font-size:8.75px;line-height:125%;font-family:Lato;-inkscape-font-specification:Lato;text-align:end;letter-spacing:0px;text-anchor:end;fill:#1a1a1a">Stop counterproductive activities &amp; behaviors to make space for innovation</flowPara></flowRoot>
  </g>
  <g
     inkscape:groupmode="layer"
     id="layer8"
     inkscape:label="Separator"
     style="display:inline"
     sodipodi:insensitive="true">
    <rect
       style="display:inline;fill:#71c837;fill-opacity:1;stroke:none;stroke-width:1;stroke-miterlimit:4;stroke-dasharray:none;stroke-dashoffset:0;stroke-opacity:1"
       id="rect4178"
       width="134.64568"
       height="17.716536"
       x="30.118111"
       y="124.01575" />
    <text
       xml:space="preserve"
       style="font-style:normal;font-weight:normal;line-height:0%;font-family:sans-serif;letter-spacing:0px;word-spacing:0px;display:inline;fill:#000000;fill-opacity:1;stroke:none;stroke-width:1px;stroke-linecap:butt;stroke-linejoin:miter;stroke-opacity:1"
       x="39.935043"
       y="137.46776"
       id="text4180"><tspan
         sodipodi:role="line"
         id="tspan4182"
         x="39.935043"
         y="137.46776"
         style="font-style:normal;font-variant:normal;font-weight:bold;font-stretch:normal;font-size:12.5px;line-height:1.25;font-family:Lato;-inkscape-font-specification:'Lato Bold';fill:#ffffff">Reveal</tspan></text>
    <rect
       y="124.01575"
       x="164.76379"
       height="17.716536"
       width="67.322838"
       id="rect4191"
       style="display:inline;fill:#e6e6e6;fill-opacity:1;stroke:none;stroke-width:1;stroke-miterlimit:4;stroke-dasharray:none;stroke-dashoffset:0;stroke-opacity:1" />
    <text
       xml:space="preserve"
       style="font-style:normal;font-weight:normal;line-height:0%;font-family:sans-serif;letter-spacing:0px;word-spacing:0px;fill:#1a1a1a;fill-opacity:1;stroke:none;stroke-width:1px;stroke-linecap:butt;stroke-linejoin:miter;stroke-opacity:1"
       x="184.26759"
       y="137.39589"
       id="text4193"><tspan
         sodipodi:role="line"
         id="tspan4195"
         x="184.26759"
         y="137.39589"
         style="font-style:normal;font-variant:normal;font-weight:500;font-stretch:normal;font-size:12.5px;line-height:1.25;font-family:Lato;-inkscape-font-specification:'Lato Medium';fill:#1a1a1a">35 min</tspan></text>
  </g>
  <g
     inkscape:groupmode="layer"
     id="layer5"
     inkscape:label="Border"
     style="display:inline"
     sodipodi:insensitive="true">
    <rect
       style="fill:none;fill-opacity:1;stroke:#000000;stroke-width:0.35433072;stroke-miterlimit:4;stroke-dasharray:none;stroke-dashoffset:0;stroke-opacity:1"
       id="rect4187"
       width="201.96851"
       height="329.52756"
       x="30.118111"
       y="21.259844"
       ry="14.6735"
       rx="12.76433" />
  </g>
  <g
     inkscape:groupmode="layer"
     id="layer4"
     inkscape:label="Body"
     style="display:inline"
     sodipodi:insensitive="true">
    <path
       style="fill:none;fill-rule:evenodd;stroke:none;stroke-width:1px;stroke-linecap:butt;stroke-linejoin:miter;stroke-opacity:1"
       d="M 40.748032,152.3622 V 340.15748 H 221.45669 V 152.3622 Z"
       id="path4305_tf"
       inkscape:connector-curvature="0" />
    <flowRoot
       xml:space="preserve"
       style="font-style:normal;font-weight:normal;line-height:0.01%;font-family:sans-serif;letter-spacing:0px;word-spacing:0px;fill:#000000;fill-opacity:1;stroke:none;stroke-width:1px;stroke-linecap:butt;stroke-linejoin:miter;stroke-opacity:1"
       id="flowRoot4319"
       transform="matrix(1,0,0,1.0068578,-0.17251487,-4.5759283)"><flowRegion
         id="flowRegion4321"><use
           x="0"
           y="0"
           xlink:href="#path4305_tf"
           id="use4323"
           width="100%"
           height="100%"
           transform="matrix(1,0,0,0.99318888,0.17251487,4.5447611)" /></flowRegion><flowPara
         style="font-style:normal;font-variant:normal;font-weight:bold;font-stretch:normal;font-size:8.72015px;line-height:1.25;font-family:Roboto;-inkscape-font-specification:'Roboto Bold';fill:#999999;fill-opacity:1"
         id="flowPara4212">People</flowPara><flowPara
         style="font-style:normal;font-variant:normal;font-weight:500;font-stretch:normal;font-size:8.72015px;line-height:1.25;font-family:Lato;-inkscape-font-specification:'Lato Medium';fill:#1a1a1a;fill-opacity:1"
         id="flowPara4413">Ask participants to form groups of 4 to 7 people</flowPara><flowPara
         style="font-style:normal;font-variant:normal;font-weight:500;font-stretch:normal;font-size:8.72015px;line-height:1.25;font-family:Lato;-inkscape-font-specification:'Lato Medium';fill:#1a1a1a;fill-opacity:1"
         id="flowPara4214"> </flowPara><flowPara
         style="font-style:normal;font-variant:normal;font-weight:bold;font-stretch:normal;font-size:8.72015px;line-height:1.25;font-family:Roboto;-inkscape-font-specification:'Roboto Bold';fill:#999999;fill-opacity:1"
         id="flowPara4202">Space &amp; Materials</flowPara><flowPara
         style="font-style:normal;font-variant:normal;font-weight:500;font-stretch:normal;font-size:8.72015px;line-height:1.25;font-family:Lato;-inkscape-font-specification:'Lato Medium';fill:#1a1a1a;fill-opacity:1"
         id="flowPara4210">- Chairs</flowPara><flowPara
         style="font-style:normal;font-variant:normal;font-weight:500;font-stretch:normal;font-size:8.72015px;line-height:1.25;font-family:Lato;-inkscape-font-specification:'Lato Medium';fill:#1a1a1a;fill-opacity:1"
         id="flowPara4290">- Paper for participants to record observations and insights</flowPara><flowPara
         style="font-style:normal;font-variant:normal;font-weight:500;font-stretch:normal;font-size:8.72015px;line-height:1.25;font-family:Lato;-inkscape-font-specification:'Lato Medium';fill:#1a1a1a;fill-opacity:1"
         id="flowPara4201">- Small tables (optional)</flowPara><flowPara
         style="font-style:normal;font-variant:normal;font-weight:500;font-stretch:normal;font-size:8.72015px;line-height:1.25;font-family:Lato;-inkscape-font-specification:'Lato Medium';fill:#1a1a1a;fill-opacity:1"
         id="flowPara4291"> </flowPara><flowPara
         style="font-style:normal;font-variant:normal;font-weight:bold;font-stretch:normal;font-size:8.72015px;line-height:1.25;font-family:Roboto;-inkscape-font-specification:'Roboto Bold';fill:#999999;fill-opacity:1"
         id="flowPara4293">String With</flowPara><flowPara
         style="font-style:normal;font-variant:normal;font-weight:500;font-stretch:normal;font-size:8.72015px;line-height:1.25;font-family:Lato;-inkscape-font-specification:'Lato Medium';fill:#1a1a1a;fill-opacity:1"
         id="flowPara4206">Ecocycle Planning            Troika Consulting </flowPara><flowPara
         style="font-style:normal;font-variant:normal;font-weight:500;font-stretch:normal;font-size:8.72015px;line-height:1.25;font-family:Lato;-inkscape-font-specification:'Lato Medium';fill:#1a1a1a;fill-opacity:1"
         id="flowPara1">Wise Crowds             Open Space Technology</flowPara></flowRoot>
    <g
       style="display:inline;enable-background:new"
       transform="matrix(0.41617308,0,0,0.41617311,-45.697094,216.38017)"
       inkscape:label="ecocycle"
       id="g1242">
      <g
         id="g1241">
        <path
           inkscape:connector-curvature="0"
           id="path1239"
           transform="matrix(0.26458333,0,0,0.26458333,375.61774,110.819)"
           d="M 105.39844,0.00585938 C 83.510661,-0.40550441 67.947244,18.807905 59.234375,28.896484 54.190104,19.113631 38.222173,10.793353 26.064453,12.693359 14.172547,14.551829 0.24201649,23.855273 0.00390625,37.685547 -0.21077092,50.157875 10.912432,68.231809 24.689453,71.390625 45.706272,76.209372 56.365837,67.083054 69.953125,56.958984 80.107695,70.707885 88.417187,75.646476 109.04102,74.869141 130.16177,74.073097 144.9355,59.263601 144.70117,37.683594 144.45244,14.754258 126.34779,0.39957277 105.39844,0.00585938 Z m 7.33594,24.91601562 c 3.70658,7.047232 4.90401,13.88419 3.89843,22.240234 -1.03963,8.638942 -6.99366,13.567563 -12.95508,15.554688 -5.044263,-0.993562 -9.298118,-2.334122 -13.564449,-4.394531 -4.291616,-2.07258 -12.804687,-7.451172 -12.804687,-7.451172 0,0 10.697311,-10.174193 16.472656,-14.636719 6.93555,-5.35903 11.9981,-9.01965 18.95313,-11.3125 z m -76.847661,6.771484 c 6.014469,0.0018 13.264469,2.357915 16.77539,5.152344 -4.66216,6.267137 -9.515529,12.040689 -16.279297,14.978516 -6.491263,2.81949 -13.603496,4.509771 -21.169921,1.605469 -1.757859,-5.273575 -1.661214,-10.378586 1.146484,-14.214844 3.90051,-5.329512 11.74739,-7.1274 18.341797,-7.490235 0.388505,-0.02138 0.784582,-0.03137 1.185547,-0.03125 z"
           style="fill:#000000;fill-opacity:1;stroke:none;stroke-width:1px;stroke-linecap:butt;stroke-linejoin:miter;stroke-opacity:1" />
        <path
           style="fill:#ffffff;fill-opacity:1;stroke:none;stroke-width:0.264583px;stroke-linecap:butt;stroke-linejoin:miter;stroke-opacity:1"
           d="m 376.60942,123.54019 c 1.57729,4.0039 4.76574,6.14368 8.66067,5.9199 5.0353,-0.2893 10.42262,-5.8675 12.92623,-8.07889 2.56217,-2.26312 5.44293,-4.79417 8.83672,-5.20481 2.48339,-0.30048 4.71341,0.45578 5.80538,1.48709 -1.43574,-4.14545 -5.78124,-6.37116 -9.60887,-6.29153 -4.70549,0.0979 -8.29106,3.64609 -11.1783,7.09574 -2.30807,2.75763 -4.50475,6.42647 -8.01087,7.23178 -2.51398,0.57742 -5.06502,0.63132 -7.43096,-2.15928 z"
           id="path1240"
           inkscape:connector-curvature="0"
           sodipodi:nodetypes="cssscssac" />
        <path
           style="fill:#ffffff;fill-opacity:1;stroke:none;stroke-width:0.264583px;stroke-linecap:butt;stroke-linejoin:miter;stroke-opacity:1"
           d="m 394.70664,125.44696 0.891,-0.78151 c 1.85886,1.11532 4.29747,2.79506 7.4563,3.24263 2.8174,0.3992 5.20248,0.44488 8.43796,-1.29419 -2.72993,2.99282 -5.78181,3.65221 -9.80752,3.31636 -2.7465,-0.22913 -4.77357,-1.3287 -6.97774,-4.48329 z"
           id="path1241"
           inkscape:connector-curvature="0"
           sodipodi:nodetypes="ccscsc" />
      </g>
    </g>
    <g
       transform="matrix(0.44656191,0,0,0.44656191,174.02957,171.14533)"
       inkscape:label="troikaconsulting"
       id="layer10-3"
       style="display:inline;enable-background:new">
      <g
         id="g4652">
        <path
           style="fill:#000000;fill-opacity:1;stroke:#000000;stroke-width:0.264583px;stroke-linecap:butt;stroke-linejoin:miter;stroke-opacity:1"
           d="m 66.99628,212.16275 -2.651141,-4.52646 -0.567949,0.0334 -0.868625,4.47676 -9.187391,2.27179 6.982418,2.43884 -3.274052,7.58377 6.781963,-5.74629 4.57699,2.47224 0.534541,-0.20045 -0.868627,-5.3788 z"
           id="path4640"
           inkscape:connector-curvature="0" />
        <path
           style="fill:#ffffff;fill-opacity:1;stroke:#000000;stroke-width:0.5;stroke-linecap:butt;stroke-linejoin:miter;stroke-miterlimit:4;stroke-dasharray:none;stroke-opacity:1"
           d="m 66.99628,212.16275 c 0.28975,-0.29548 0.744242,-0.46984 1.15755,-0.44884 0.450195,0.0229 0.892147,0.28948 1.204801,0.6142 0.325007,0.33755 0.535381,0.81036 0.590588,1.27568 0.05677,0.47847 0.01554,1.0396 -0.283484,1.41741 -0.317085,0.40064 -0.883844,0.66962 -1.393787,0.63783 -0.508185,-0.0317 -0.991218,-0.39781 -1.299294,-0.8032 -0.307597,-0.40476 -0.442442,-0.95657 -0.425221,-1.46466 0.01477,-0.4357 0.143617,-0.91715 0.448847,-1.22842 z"
           id="path4636"
           inkscape:connector-curvature="0"
           sodipodi:nodetypes="aaaaaaaaa" />
        <path
           style="fill:#ffffff;fill-opacity:1;stroke:#000000;stroke-width:0.5;stroke-linecap:butt;stroke-linejoin:miter;stroke-miterlimit:4;stroke-dasharray:none;stroke-opacity:1"
           d="m 65.481032,207.56947 c 0,0 1.968759,-0.80568 3.006784,-1.00226 0.832723,-0.1577 1.723796,0.098 2.53906,-0.13363 0.512963,-0.14573 1.055547,-0.36402 1.403164,-0.76841 0.803793,-0.93506 1.015407,-2.26791 1.26953,-3.4745 0.354187,-1.6817 0.334089,-5.14493 0.334089,-5.14493 0,0 1.526491,2.40996 2.104748,3.70836 0.415488,0.93292 0.968851,2.90656 0.968851,2.90656 0,0 2.63736,-0.9477 4.009044,-1.20272 1.438439,-0.26744 4.376537,-0.33409 4.376537,-0.33409 0,0 -4.195902,2.89336 -6.414469,5.17835 -0.395631,0.40748 -0.92579,0.71528 -0.73499,1.67043 0.390541,1.95505 0.907471,1.90634 1.23612,2.90656 0.346547,1.05469 0.768401,3.24065 0.768401,3.24065 z"
           id="path4642"
           inkscape:connector-curvature="0"
           sodipodi:nodetypes="caaaacacacssacc" />
        <path
           style="fill:#ffffff;fill-opacity:1;stroke:#000000;stroke-width:0.5;stroke-linecap:butt;stroke-linejoin:miter;stroke-miterlimit:4;stroke-dasharray:none;stroke-opacity:1"
           d="m 66.616928,222.03543 5.545844,-4.84426 6.681737,-2.03793 c 0,0 -1.44783,2.74751 -1.603616,4.07586 -0.04073,0.34731 -0.357378,0.83376 0.300677,1.43658 0.694239,0.63598 5.946747,4.67721 5.946747,4.67721 0,0 -1.817524,-0.0602 -2.706102,-0.23386 -1.73887,-0.33991 -5.078122,-1.57021 -5.078122,-1.57021 l -1.035669,7.11606 -3.708366,-8.31877 z"
           id="path4644"
           inkscape:connector-curvature="0"
           sodipodi:nodetypes="cccsscacccc" />
        <path
           style="fill:#ffffff;fill-opacity:1;stroke:#000000;stroke-width:0.5;stroke-linecap:butt;stroke-linejoin:miter;stroke-miterlimit:4;stroke-dasharray:none;stroke-opacity:1"
           d="m 70.657923,215.84802 c 0.272519,-0.37701 0.705993,-0.66776 1.157552,-0.77957 0.499709,-0.12374 1.096068,-0.10282 1.535527,0.16531 0.329998,0.20134 0.557221,0.59049 0.637836,0.96856 0.09152,0.42921 0.01318,0.92297 -0.212611,1.29929 -0.280364,0.46728 -0.776753,0.83757 -1.299295,0.99219 -0.492256,0.14566 -1.102931,0.15826 -1.535527,-0.11814 -0.380268,-0.24296 -0.60815,-0.73308 -0.661457,-1.18118 -0.05507,-0.4629 0.104886,-0.96865 0.377975,-1.34646 z"
           id="path4638"
           inkscape:connector-curvature="0"
           sodipodi:nodetypes="aaaaaaaaa" />
        <path
           style="fill:#000000;fill-opacity:1;stroke:#000000;stroke-width:0.264583px;stroke-linecap:butt;stroke-linejoin:miter;stroke-opacity:1"
           d="m 70.705169,211.17056 c 0.05905,-0.49901 0.395734,-0.98161 0.803199,-1.27566 0.427441,-0.30847 1.011068,-0.43087 1.535531,-0.37798 0.494148,0.0498 0.995635,0.28636 1.346538,0.63783 0.32603,0.32656 0.568767,0.79112 0.590589,1.25205 0.02415,0.51006 -0.162466,1.07619 -0.519718,1.44104 -0.383674,0.39183 -0.987238,0.60139 -1.535527,0.59059 -0.617164,-0.0122 -1.282259,-0.2787 -1.700893,-0.73234 -0.366469,-0.39711 -0.583217,-0.99891 -0.519719,-1.53553 z"
           id="path4634"
           inkscape:connector-curvature="0"
           sodipodi:nodetypes="aaaaaaaaa" />
      </g>
    </g>
    <g
       transform="matrix(0.24954944,0,0,0.24954947,68.357854,227.53544)"
       style="display:inline;enable-background:new"
       inkscape:label="wisecrowds"
       id="layer22">
      <g
         id="g4745">
        <path
           inkscape:connector-curvature="0"
           id="path4705"
           transform="matrix(0.26458333,0,0,0.26458333,96.116803,179.55668)"
           d="m 160.11914,0.00195313 c -2.04369,-0.02657149 -4.09836,0.30948271 -5.92969,1.09765627 -2.85494,1.2287244 -5.66284,3.4398926 -6.87304,6.3027344 -1.30953,3.0977012 0.29101,10.0839842 0.29101,10.0839842 l -26.33984,5.126953 18.74023,14.671875 -27.57812,5.833985 c 0,0 -0.64486,-4.589571 -2.11328,-6.208985 -2.00138,-2.207131 -5.18526,-3.311651 -8.14063,-3.689453 -3.569302,-0.456302 -7.473435,0.124694 -10.636718,1.839844 -2.395048,1.298646 -4.553529,3.458669 -5.560546,5.990234 -0.908448,2.283666 -0.06445,7.373047 -0.06445,7.373047 l -16.970703,-0.53125 c 0,0 -2.430674,-5.995233 -2.917968,-11.84375 C 65.710556,32.271379 65.585022,29.319882 68.677734,25.175781 77.175216,13.78969 83.173828,0.86914062 83.173828,0.86914062 L 51.972656,12.890625 c 0,0 -1.733341,-6.2454842 -4.066406,-8.2207031 -2.020271,-1.7103882 -4.954532,-2.3085916 -7.601562,-2.296875 -3.857885,0.018898 -7.978265,1.1116309 -11.048829,3.4472656 -2.120504,1.6129134 -3.882015,4.0905186 -4.330078,6.7167965 -0.468661,2.747339 1.94336,8.132813 1.94336,8.132813 L 0,29.861328 c 0,0 10.046077,5.538238 15.203125,8.042969 4.639106,2.253203 10.198754,2.952083 14.142578,6.275391 1.13726,0.958337 2.054439,2.28627 2.474609,3.71289 0.711088,2.414287 -0.115234,7.548828 -0.115234,7.548828 0,0 -8.349029,4.427075 -11.345703,7.9375 -3.25028,3.807496 -5.932612,8.538552 -6.570313,13.503906 -0.995115,7.748379 1.058935,16.016866 4.595704,22.982422 5.249045,10.337836 14.074578,18.897506 23.511718,25.632816 8.999781,6.42315 19.677242,10.57763 30.404297,13.25781 15.311063,3.82552 31.429749,4.3347 47.199219,3.71289 17.28862,-0.68171 34.16768,-5.48291 51.26562,-8.13281 10.8954,-1.68858 21.70458,-4.20927 32.70508,-4.94922 3.70439,-0.24907 11.13672,0.17578 11.13672,0.17578 l -13.08203,13.25977 c 0,0 -9.35907,-1.6392 -19.97656,2.12109 -6.23324,2.20758 -11.78757,5.85146 -14.67188,11.3125 -3.80409,7.20249 -3.68431,16.57388 -1.41406,24.39648 2.22421,7.66398 7.94451,14.20704 13.96484,19.44532 5.82618,5.06933 13.0286,8.85107 20.50586,10.7832 10.55702,2.72795 22.07622,3.13999 32.70508,0.70703 9.6076,-2.19919 19.00832,-6.84836 26.33985,-13.43555 5.13044,-4.60955 9.34514,-10.71364 11.3125,-17.32422 2.13464,-7.17263 2.51969,-15.40458 0,-22.45117 -2.56577,-7.17539 -14.4961,-17.67578 -14.4961,-17.67578 l 3.35938,-8.48633 c 0,0 8.18197,-0.89813 12.19726,-1.76757 3.71808,-0.80508 10.96094,-3.18165 10.96094,-3.18165 0,0 -7.38133,-3.8208 -10.7832,-6.1875 -3.02234,-2.10258 -5.45133,-4.98597 -8.48633,-7.07031 -2.82709,-1.94154 -8.98438,-5.01367 -8.98438,-5.01367 0,0 3.94389,-4.15193 2.60938,-9.035156 -1.04512,-3.824201 -3.64202,-5.682036 -6.42969,-7.375 -2.34932,-1.426734 -5.26826,-2.074445 -8.01367,-1.941406 -2.63543,0.127748 -5.42553,0.939785 -7.47656,2.59961 -2.38133,1.927181 -4.76172,7.859372 -4.76172,7.859372 l -17.85547,-4.595701 -5.47852,2.47461 8.83789,15.203121 3.71289,11.84375 c 0,0 -7.07163,-0.70092 -10.60742,-0.52929 -18.08727,0.87791 -35.81333,5.39637 -53.74023,7.95507 -12.42425,1.77339 -24.75174,4.84592 -37.29883,5.125 -14.73128,0.32776 -29.842528,-0.0413 -44.017578,-4.06445 -9.557367,-2.7126 -18.794524,-7.23402 -26.693359,-13.25976 -8.72674,-6.6573 -16.93514,-14.79139 -21.919922,-24.570316 -3.506532,-6.87893 -6.198437,-15.016649 -4.929687,-22.632813 1.485883,-8.919496 11.451172,-15.105469 11.451172,-15.105469 l -4.400391,35.439454 c 0,0 3.677003,0.694266 6.541016,-1.238282 2.864012,-1.932548 4.731956,-6.515258 7.601562,-11.84375 2.869607,-5.328491 9.015625,-20.328125 9.015625,-20.328125 0,0 15.624734,17.92697 18.214844,19.878907 2.59011,1.951899 6.533203,1.6875 6.533203,1.6875 0,0 -2.837272,3.727621 -1.029297,9.865234 1.293392,4.390828 8.277344,11.34766 8.277344,11.34766 l -5.126953,20.50586 c 0,0 4.102446,-0.0908 5.84375,-1.0293 2.692989,-1.45168 4.370576,-4.30224 6.300781,-6.67578 1.514532,-1.86244 4.119141,-5.90625 4.119141,-5.90625 0,0 11.174189,3.94606 16.970699,5.0625 4.06715,0.78338 12.375,1.125 12.375,1.125 0,0 2.36793,1.50297 3.40235,1.36914 1.03442,-0.1338 2.07617,-1.54688 2.07617,-1.54688 0,0 14.30987,0.16219 21.39062,-0.70703 11.79829,-1.44816 23.85157,-3.00969 34.86719,-7.47656 9.50842,-3.85565 13.27011,-5.06679 16.04492,-10.908204 2.33488,-4.915238 0.89149,-11.334601 -1.41406,-16.263672 -2.16427,-4.627049 -10.86719,-10.804687 -10.86719,-10.804687 0,0 -4.11737,-28.361901 -4.48047,-32.259766 -0.36321,-3.897902 -0.20926,-6.167698 3.16211,-8.335937 3.37119,-2.16824 16.25,-10.648438 16.25,-10.648438 0,0 -6.02038,0.105821 -11.11718,-0.5 -5.09681,-0.605669 -19.11133,-4.271484 -19.11133,-4.271484 0,0 0.41204,-7.074365 -1.4668,-9.7851564 -1.66938,-2.4086174 -4.8226,-3.6385902 -7.68359,-4.27343748 -1.16783,-0.25915748 -2.39097,-0.40593211 -3.61719,-0.42187499 z m -17.59375,41.65820287 -1.98828,8.751953 -4.24219,-1.326171 z m -9.80078,11.951172 6.6875,0.875 -6.375,14.9375 -9.0625,-0.875 c 0,0 1.37571,-5.195572 2.87891,-7.767578 1.50319,-2.571969 5.87109,-7.169922 5.87109,-7.169922 z m 25.56836,6.425781 c 1.17155,-0.0092 6.12833,0.381197 10.43164,7.199219 4.91807,7.792026 14.88672,21.451172 14.88672,21.451172 l 6.39844,-0.767578 -0.41016,-7.621094 c 0,0 5.04182,4.930454 5.8125,8.1875 0.75719,3.199862 0.31221,7.006176 -1.5,9.75 -2.39271,3.622752 -7.0302,5.265682 -11.0625,6.875002 -10.72781,4.28148 -22.47933,5.54152 -33.9375,7 -6.64222,0.84548 -20.0625,1 -20.0625,1 l -0.75,-11.3125 c 0,0 8.20425,1.76925 12.375,1.875 5.65126,0.14324 11.6752,0.53048 16.875,-1.6875 4.30874,-1.83787 9.51762,-4.589077 10.6875,-9.125002 1.22827,-4.762318 -1.86968,-10.182037 -5.1875,-13.8125 -3.91612,-4.285153 -15.6875,-7.5625 -15.6875,-7.5625 l 10.875,-11.4375 c 0,0 0.0885,-0.01041 0.25586,-0.01172 z m -84.312501,6.769532 12.287109,6.984375 c 0,0 -2.582728,0.929515 -5.537109,2.75 -1.194822,0.736252 -3.582031,2.964843 -3.582031,2.964843 z m 49.494141,5.679687 8.41016,0.451172 -4.59766,10.611328 c 0,0 2.36104,0.819342 5.25,-0.25 2.88896,-1.069342 10.4375,-8.125 10.4375,-8.125 0,0 10.41202,3.563889 14.1875,7.3125 2.38719,2.370255 4.99742,5.587743 4.6875,8.9375 -0.28823,3.11675 -3.0748,5.857709 -5.8125,7.375 -4.36263,2.417802 -9.90307,2.022762 -14.875,1.625002 -4.93232,-0.39458 -14.3125,-3.937502 -14.3125,-3.937502 z m -35.263672,4.396484 -4.330079,19.888672 c 0,0 -6.349666,-5.02761 -4.517578,-12.505859 1.295547,-5.28824 8.847657,-7.382813 8.847657,-7.382813 z m 16.175782,16.087891 14.9375,20.064457 c 0,0 -9.1441,-1.42315 -12.99219,-2.47461 -3.84809,-1.05147 -10.076171,-3.625 -10.076171,-3.625 z m 124.00781,50.646487 7.95508,41.71875 6.1875,-1.50196 11.58008,-37.12304 c 0,0 8.10029,8.42432 9.89843,13.78906 1.93886,5.7843 1.82041,12.35226 0.44141,18.29492 -1.44174,6.21305 -4.60274,12.20166 -8.83789,16.9707 -3.57592,4.02678 -8.43757,6.88721 -13.3457,9.10352 -5.54226,2.50265 -11.6088,4.12283 -17.67774,4.50781 -7.91051,0.50185 -16.1158,-0.30425 -23.59961,-2.91601 -6.45494,-2.2526 -12.59915,-5.93047 -17.50195,-10.69532 -4.84067,-4.70437 -9.08774,-10.51179 -11.04883,-16.9707 -2.06309,-6.7948 -3.19445,-14.83182 -0.26562,-21.30078 2.33559,-5.15868 7.45783,-9.50557 12.90625,-11.04883 7.71503,-2.18524 12.55078,-0.17773 12.55078,-0.17773 l -11.66797,11.66797 c 0,0 8.56045,-1.33097 12.72852,-2.47461 3.71164,-1.0184 10.87109,-3.88867 10.87109,-3.88867 0,0 9.46529,9.22589 12.375,15.02539 2.48988,4.96271 5.26266,10.77449 3.97656,16.17578 -0.75503,3.17095 -3.58831,5.7137 -6.36328,7.42383 -2.79904,1.72493 -6.28851,2.32954 -9.57617,2.36718 -2.94811,0.034 -6.10038,-0.41601 -8.63281,-1.92578 -3.06365,-1.82649 -5.8044,-4.72334 -7.01563,-8.07812 -1.52712,-4.22975 -2.04573,-9.65082 0.29883,-13.48828 1.56,-2.55353 4.95905,-3.69276 7.89453,-4.27344 2.83899,-0.5616 6.43724,-0.5863 8.63477,0.91406 2.31038,1.57742 3.54947,3.79059 3.92187,5.8457 0.43756,2.41478 0.78397,4.18202 0.29883,6.57227 -0.46515,2.29274 4.50858,1.83676 4.5293,-0.39648 0.0302,-3.27904 0.41417,-6.56373 -0.88868,-9.44532 -1.21629,-2.69011 -3.60389,-4.82762 -6.07226,-6.44726 -1.32159,-0.86718 -2.89194,-1.41749 -4.46094,-1.60938 -2.43689,-0.2982 -4.93124,0.21573 -7.32617,0.75586 -2.09484,0.47225 -3.03077,0.77754 -6.07227,2.15234 -2.64797,1.19698 -5.41984,4.28498 -6.41015,7.39258 -1.59511,5.00546 -0.76667,10.96324 1.53125,15.6875 1.60426,3.29813 4.6738,5.96306 7.95508,7.60157 3.70752,1.85132 8.14095,2.14457 12.26562,2.02343 7.61911,-0.22374 14.00442,-2.655 18.14063,-7.76953 3.17196,-3.92224 3.48509,-9.83746 2.91601,-14.84961 -0.54606,-4.80933 -3.24771,-9.22339 -5.92187,-13.25781 -2.64892,-3.99632 -9.81055,-10.51758 -9.81055,-10.51758 z"
           style="fill:#000000;fill-opacity:1;stroke:none;stroke-width:1px;stroke-linecap:butt;stroke-linejoin:miter;stroke-opacity:1" />
        <path
           style="fill:#ffffff;fill-opacity:1;stroke:none;stroke-width:0.264583px;stroke-linecap:butt;stroke-linejoin:miter;stroke-opacity:1"
           d="m 104.67611,184.08984 c -0.25325,-0.35377 -0.44097,-0.80355 -0.4141,-1.2378 0.0309,-0.49926 0.26562,-1.03101 0.64796,-1.35356 0.43802,-0.36952 1.08255,-0.51902 1.65357,-0.47056 0.38693,0.0328 0.78573,0.21928 1.0507,0.50316 0.41578,0.44544 0.69356,1.09012 0.67419,1.69915 -0.0166,0.52145 -0.26573,1.0836 -0.66851,1.4152 -0.44123,0.36325 -1.10212,0.53534 -1.66207,0.42095 -0.52626,-0.1075 -0.96909,-0.53979 -1.28174,-0.97654 z"
           id="path4707"
           inkscape:connector-curvature="0"
           sodipodi:nodetypes="aaaaaaaaa" />
        <path
           style="fill:#ffffff;fill-opacity:1;stroke:none;stroke-width:0.264583px;stroke-linecap:butt;stroke-linejoin:miter;stroke-opacity:1"
           d="m 121.02298,189.25817 c 0.47101,-0.30544 1.13498,-0.30151 1.67695,-0.15519 0.4839,0.13065 0.94672,0.45582 1.2241,0.87331 0.30568,0.46006 0.46904,1.07411 0.36449,1.61648 -0.10292,0.5339 -0.44628,1.08525 -0.92458,1.34386 -0.535,0.28928 -1.26787,0.28824 -1.82411,0.0423 -0.50135,-0.22169 -0.85413,-0.74149 -1.07811,-1.24182 -0.1658,-0.37036 -0.23177,-0.8093 -0.15402,-1.20756 0.0932,-0.47724 0.3073,-1.0068 0.71528,-1.27136 z"
           id="path4709"
           inkscape:connector-curvature="0"
           sodipodi:nodetypes="aaaaaaaaa" />
        <path
           style="fill:#ffffff;fill-opacity:1;stroke:none;stroke-width:0.264583px;stroke-linecap:butt;stroke-linejoin:miter;stroke-opacity:1"
           d="m 136.57473,182.94393 c -0.13072,-0.38579 -0.10331,-0.84101 0.0428,-1.22127 0.15542,-0.40465 0.44802,-0.80303 0.83622,-0.99592 0.4777,-0.23735 1.09256,-0.24954 1.59828,-0.0799 0.47242,0.1585 0.91296,0.51951 1.14592,0.96001 0.23994,0.4537 0.29493,1.03893 0.15288,1.53213 -0.14319,0.49713 -0.48937,0.99418 -0.95199,1.22576 -0.48633,0.24346 -1.13751,0.25688 -1.63134,0.029 -0.56823,-0.26219 -0.99188,-0.85716 -1.19272,-1.44986 z"
           id="path4711"
           inkscape:connector-curvature="0"
           sodipodi:nodetypes="aaaaaaaaa" />
        <path
           style="fill:#ffffff;fill-opacity:1;stroke:none;stroke-width:0.264583px;stroke-linecap:butt;stroke-linejoin:miter;stroke-opacity:1"
           d="m 159.39069,204.57489 c 0.5163,-0.26396 1.20837,-0.20834 1.73942,0.0245 0.56055,0.2458 1.01723,0.77237 1.26285,1.333 0.23201,0.52958 0.30367,1.18339 0.11693,1.73057 -0.14804,0.43377 -0.47757,0.88304 -0.91205,1.02899 -0.52751,0.17721 -1.1484,-0.0611 -1.63703,-0.32741 -0.51863,-0.28264 -0.98136,-0.73782 -1.23379,-1.2718 -0.19391,-0.4102 -0.26536,-0.91279 -0.15343,-1.35249 0.11704,-0.45977 0.39467,-0.94942 0.8171,-1.16539 z"
           id="path4713"
           inkscape:connector-curvature="0"
           sodipodi:nodetypes="aaaaaaaaa" />
      </g>
    </g>
    <g
       transform="matrix(0.33732443,0,0,0.33732446,103.68222,261.66201)"
       inkscape:label="openspace"
       id="layer36"
       style="display:inline;enable-background:new">
      <g
         id="g4870">
        <path
           inkscape:connector-curvature="0"
           style="fill:#000000;fill-opacity:1;stroke:none;stroke-width:1px;stroke-linecap:butt;stroke-linejoin:miter;stroke-opacity:1"
           d="m 1221.8535,145.94336 c -2.3868,-0.004 -5.5643,0.0428 -8.7265,0.23828 -7.041,0.43519 -13.3516,2.11133 -13.3516,2.11133 0,0 0.1555,17.26572 -0.6973,25.83984 -0.294,2.95632 -1.5195,8.78321 -1.5195,8.78321 l -15.8203,-2.3711 -4.9688,-26.5957 c 0,0 -4.1468,1.11108 -9.7597,3.94726 -5.6518,2.85579 -8.3536,5.37696 -8.3536,5.37696 0,0 4.399,8.63623 4.3575,15.20898 -0.05,7.74637 -0.076,23.69336 -0.076,23.69336 0,0 -2.1358,1.16996 -4.8965,1.69336 -2.8818,0.54637 -4.4277,0.2168 -4.4277,0.2168 l -5.9629,-24.91602 c 0,0 -2.5478,0.20915 -5.5332,2.57227 -2.9038,2.29854 -3.4082,4.76562 -3.4082,4.76562 l 6.7265,14.13867 c 0,0 4.7894,11.07526 5.043,12.6875 0.3096,1.96703 -0.8398,21.93555 -0.8398,21.93555 l 2.4453,1.14649 0.5215,-15.22266 1.3886,0.85352 -0.457,27.58984 1.5274,2.98047 1.7578,0.0762 0.4589,-28.50781 11.0821,-2.67383 -1.9492,45.50586 1.5136,0.43359 3.836,-27.61719 23.1308,9.56641 0.2168,30.37305 1.6739,0.0527 1.3515,-30.04687 16.4297,-13.02539 -0.3789,26.42773 1.4063,-0.0547 1.0253,-4.80859 0.9727,-27.83398 -21.1797,-6.67969 -0.076,-9.70703 -9.0195,-3.51563 -4.3555,-12.38086 13.2227,-9.0957 -0.3828,21.85937 2.0644,0.15235 v -3.82227 l 2.1387,-4.89062 0.8418,-20.02344 4.5859,5.42578 -0.1543,22.08789 2.9825,-4.35742 0.5019,-16.32813 11.8789,-3.16015 v 6.57226 l 1.1465,2.67579 2.1387,0.6875 0.2304,-10.92969 7.7188,-2.0625 -1.7578,26.06054 1.6055,0.23047 1.375,-3.66797 2.0644,-23.92382 -9.5547,-8.78907 L 1225.8379,146 c 0,0 -1.5976,-0.0529 -3.9844,-0.0566 z m -55.9805,47.8457 12.375,4.05469 -12.4296,3.67383 z"
           transform="scale(0.26458333)"
           id="path4849" />
        <path
           style="fill:#000000;fill-opacity:1;stroke:none;stroke-width:1px;stroke-linecap:butt;stroke-linejoin:miter;stroke-opacity:1"
           d="m 1253.0469,148.06445 -3.5157,24.99219 c 0,0 -3.0154,2.96061 -4.6621,4.2793 -2.2286,1.78472 -7.0312,4.89062 -7.0312,4.89062 l -1.1465,26.98047 2.1387,0.22852 1.4531,-4.73828 0.8398,-19.1836 5.6739,1.14649 -1.0117,9.70703 1.5664,0.15234 1.3379,-2.36914 0.8066,-6.99414 11.7207,2.12109 -1.709,21.07618 1.4453,0.0976 1.543,-5.19726 1.668,-15.61914 6.6797,-4.23829 -2.5821,16.10938 -3.0898,15.88867 -17.3223,1.51758 -0.6113,8.25586 -20.1778,4.89062 c 0,0 -1.4705,10.18016 -2.0136,15.29297 -0.6558,6.17387 -1.502,18.56446 -1.502,18.56446 l 2.3692,0.0762 4.1757,-28.07227 11.6094,22.00781 c 0,0 -1.0022,7.42085 -1.4199,10.65821 -0.518,4.01505 -0.7039,7.20224 -0.9121,11.35742 -0.1429,2.84932 -0.3652,8.77148 -0.3652,8.77148 l 2.1132,0.39454 3.4473,-29.54883 10.8145,-2.17969 0.3437,5.3125 h 2.1406 l 0.8789,-6.07617 19.295,-3.54883 -1.1426,29.65039 1.834,0.15234 5.1211,-57.09179 16.9668,6.57226 -0.076,28.58399 2.2929,0.0762 1.2579,-28.24414 4.3125,-5.83008 0.6972,16.01367 1.6035,-2.57031 1.0704,-23.23828 c 0,0 4.7877,-8.13418 7.2617,-12.15235 3.1206,-5.06857 6.4956,-9.63056 8.9414,-11.46484 0,0 0.061,-2.7109 -0.459,-5.50195 -0.6086,-3.26577 -2.1387,-4.4336 -2.1387,-4.4336 l -16.3574,29.19532 c 0,0 3.7381,-16.00695 6.4199,-24.15039 3.4942,-10.61037 5.7324,-22.69922 5.7324,-22.69922 0,0 -2.3633,-3.12976 -6.6484,-6.03907 -4.1334,-2.80633 -8.2539,-4.35546 -8.2539,-4.35546 0,0 -3.6835,5.2787 -5.0449,8.17773 -1.863,3.96695 -2.5106,8.41443 -4.2031,12.45703 -1.1133,2.65889 -3.8985,7.7207 -3.8985,7.7207 l -20.3301,3.74414 c 0,0 3.7309,-15.44135 4.6621,-23.31054 0.5502,-4.63321 1.1466,-14.82704 1.1466,-14.82704 0,0 -7.5809,-2.33309 -13.3751,-3.05773 -4.3459,-0.47548 -8.0545,-0.50306 -12.381,-0.38087 z m 18.8769,48.45508 10.7012,8.78906 -10.3184,11.76953 -4.7382,0.0762 z m 37.4883,5.08203 -2.9414,12.4961 -8.9434,-4.05078 1.0704,-6.57227 z m -13.6426,2.33203 -0.7265,5.04297 -7.1446,-3.43945 z"
           transform="scale(0.26458333)"
           id="path4853"
           inkscape:connector-curvature="0"
           sodipodi:nodetypes="cccccccccccccccccccccccccccccccccccccccccccccccccccccccsccccccccccccccccccccccccc" />
      </g>
    </g>
  </g>
</svg>
